%TF.GenerationSoftware,KiCad,Pcbnew,10.0.7*%
%TF.CreationDate,2026-10-07T15:21:03+02:00*%
%TF.ProjectId,data_bus_rev_a,64617461-5f62-4757-935f-7265765f612e,rev?*%
%TF.SameCoordinates,Original*%
%TF.FileFunction,Legend,Top*%
%TF.FilePolarity,Positive*%
%FSLAX46Y46*%
G04 Gerber Fmt 4.6, Leading zero omitted, Abs format (unit mm)*
G04 Created by KiCad (PCBNEW 10.0.7) date 2026-10-07 15:21:03*
%MOMM*%
%LPD*%
G01*
G04 APERTURE LIST*
G04 Aperture macros list*
%AMRoundRect*
0 Rectangle with rounded corners*
0 $1 Rounding radius*
0 $2 $3 $4 $5 $6 $7 $8 $9 X,Y pos of 4 corners*
0 Add a 4 corners polygon primitive as box body*
4,1,4,$2,$3,$4,$5,$6,$7,$8,$9,$2,$3,0*
0 Add four circle primitives for the rounded corners*
1,1,$1+$1,$2,$3*
1,1,$1+$1,$4,$5*
1,1,$1+$1,$6,$7*
1,1,$1+$1,$8,$9*
0 Add four rect primitives between the rounded corners*
20,1,$1+$1,$2,$3,$4,$5,0*
20,1,$1+$1,$4,$5,$6,$7,0*
20,1,$1+$1,$6,$7,$8,$9,0*
20,1,$1+$1,$8,$9,$2,$3,0*%
G04 Aperture macros list end*
%ADD10C,0.150000*%
%ADD11RoundRect,0.050000X-0.800000X-0.800000X0.800000X-0.800000X0.800000X0.800000X-0.800000X0.800000X0*%
%ADD12C,1.700000*%
%ADD13C,3.300000*%
%ADD14RoundRect,0.050000X-0.900000X-0.900000X0.900000X-0.900000X0.900000X0.900000X-0.900000X0.900000X0*%
%ADD15C,1.900000*%
G04 APERTURE END LIST*
D10*
X63529761Y-37385427D02*
X63529761Y-36535427D01*
X63529761Y-36535427D02*
X63732142Y-36535427D01*
X63732142Y-36535427D02*
X63853571Y-36575903D01*
X63853571Y-36575903D02*
X63934523Y-36656855D01*
X63934523Y-36656855D02*
X63975000Y-36737808D01*
X63975000Y-36737808D02*
X64015476Y-36899712D01*
X64015476Y-36899712D02*
X64015476Y-37021141D01*
X64015476Y-37021141D02*
X63975000Y-37183046D01*
X63975000Y-37183046D02*
X63934523Y-37263998D01*
X63934523Y-37263998D02*
X63853571Y-37344951D01*
X63853571Y-37344951D02*
X63732142Y-37385427D01*
X63732142Y-37385427D02*
X63529761Y-37385427D01*
X64541666Y-36535427D02*
X64622619Y-36535427D01*
X64622619Y-36535427D02*
X64703571Y-36575903D01*
X64703571Y-36575903D02*
X64744047Y-36616379D01*
X64744047Y-36616379D02*
X64784523Y-36697331D01*
X64784523Y-36697331D02*
X64825000Y-36859236D01*
X64825000Y-36859236D02*
X64825000Y-37061617D01*
X64825000Y-37061617D02*
X64784523Y-37223522D01*
X64784523Y-37223522D02*
X64744047Y-37304474D01*
X64744047Y-37304474D02*
X64703571Y-37344951D01*
X64703571Y-37344951D02*
X64622619Y-37385427D01*
X64622619Y-37385427D02*
X64541666Y-37385427D01*
X64541666Y-37385427D02*
X64460714Y-37344951D01*
X64460714Y-37344951D02*
X64420238Y-37304474D01*
X64420238Y-37304474D02*
X64379761Y-37223522D01*
X64379761Y-37223522D02*
X64339285Y-37061617D01*
X64339285Y-37061617D02*
X64339285Y-36859236D01*
X64339285Y-36859236D02*
X64379761Y-36697331D01*
X64379761Y-36697331D02*
X64420238Y-36616379D01*
X64420238Y-36616379D02*
X64460714Y-36575903D01*
X64460714Y-36575903D02*
X64541666Y-36535427D01*
X65189285Y-37304474D02*
X65229762Y-37344951D01*
X65229762Y-37344951D02*
X65189285Y-37385427D01*
X65189285Y-37385427D02*
X65148809Y-37344951D01*
X65148809Y-37344951D02*
X65189285Y-37304474D01*
X65189285Y-37304474D02*
X65189285Y-37385427D01*
X65594047Y-37304474D02*
X65634524Y-37344951D01*
X65634524Y-37344951D02*
X65594047Y-37385427D01*
X65594047Y-37385427D02*
X65553571Y-37344951D01*
X65553571Y-37344951D02*
X65594047Y-37304474D01*
X65594047Y-37304474D02*
X65594047Y-37385427D01*
X65998809Y-37385427D02*
X65998809Y-36535427D01*
X65998809Y-36535427D02*
X66201190Y-36535427D01*
X66201190Y-36535427D02*
X66322619Y-36575903D01*
X66322619Y-36575903D02*
X66403571Y-36656855D01*
X66403571Y-36656855D02*
X66444048Y-36737808D01*
X66444048Y-36737808D02*
X66484524Y-36899712D01*
X66484524Y-36899712D02*
X66484524Y-37021141D01*
X66484524Y-37021141D02*
X66444048Y-37183046D01*
X66444048Y-37183046D02*
X66403571Y-37263998D01*
X66403571Y-37263998D02*
X66322619Y-37344951D01*
X66322619Y-37344951D02*
X66201190Y-37385427D01*
X66201190Y-37385427D02*
X65998809Y-37385427D01*
X66767857Y-36535427D02*
X67334524Y-36535427D01*
X67334524Y-36535427D02*
X66970238Y-37385427D01*
X67658333Y-37304474D02*
X67698810Y-37344951D01*
X67698810Y-37344951D02*
X67658333Y-37385427D01*
X67658333Y-37385427D02*
X67617857Y-37344951D01*
X67617857Y-37344951D02*
X67658333Y-37304474D01*
X67658333Y-37304474D02*
X67658333Y-37385427D01*
X67658333Y-36859236D02*
X67698810Y-36899712D01*
X67698810Y-36899712D02*
X67658333Y-36940189D01*
X67658333Y-36940189D02*
X67617857Y-36899712D01*
X67617857Y-36899712D02*
X67658333Y-36859236D01*
X67658333Y-36859236D02*
X67658333Y-36940189D01*
X69155953Y-37385427D02*
X68670238Y-37385427D01*
X68913095Y-37385427D02*
X68913095Y-36535427D01*
X68913095Y-36535427D02*
X68832143Y-36656855D01*
X68832143Y-36656855D02*
X68751191Y-36737808D01*
X68751191Y-36737808D02*
X68670238Y-36778284D01*
X69520238Y-37304474D02*
X69560715Y-37344951D01*
X69560715Y-37344951D02*
X69520238Y-37385427D01*
X69520238Y-37385427D02*
X69479762Y-37344951D01*
X69479762Y-37344951D02*
X69520238Y-37304474D01*
X69520238Y-37304474D02*
X69520238Y-37385427D01*
X69925000Y-37304474D02*
X69965477Y-37344951D01*
X69965477Y-37344951D02*
X69925000Y-37385427D01*
X69925000Y-37385427D02*
X69884524Y-37344951D01*
X69884524Y-37344951D02*
X69925000Y-37304474D01*
X69925000Y-37304474D02*
X69925000Y-37385427D01*
X70451191Y-36899712D02*
X70370239Y-36859236D01*
X70370239Y-36859236D02*
X70329762Y-36818760D01*
X70329762Y-36818760D02*
X70289286Y-36737808D01*
X70289286Y-36737808D02*
X70289286Y-36697331D01*
X70289286Y-36697331D02*
X70329762Y-36616379D01*
X70329762Y-36616379D02*
X70370239Y-36575903D01*
X70370239Y-36575903D02*
X70451191Y-36535427D01*
X70451191Y-36535427D02*
X70613096Y-36535427D01*
X70613096Y-36535427D02*
X70694048Y-36575903D01*
X70694048Y-36575903D02*
X70734524Y-36616379D01*
X70734524Y-36616379D02*
X70775001Y-36697331D01*
X70775001Y-36697331D02*
X70775001Y-36737808D01*
X70775001Y-36737808D02*
X70734524Y-36818760D01*
X70734524Y-36818760D02*
X70694048Y-36859236D01*
X70694048Y-36859236D02*
X70613096Y-36899712D01*
X70613096Y-36899712D02*
X70451191Y-36899712D01*
X70451191Y-36899712D02*
X70370239Y-36940189D01*
X70370239Y-36940189D02*
X70329762Y-36980665D01*
X70329762Y-36980665D02*
X70289286Y-37061617D01*
X70289286Y-37061617D02*
X70289286Y-37223522D01*
X70289286Y-37223522D02*
X70329762Y-37304474D01*
X70329762Y-37304474D02*
X70370239Y-37344951D01*
X70370239Y-37344951D02*
X70451191Y-37385427D01*
X70451191Y-37385427D02*
X70613096Y-37385427D01*
X70613096Y-37385427D02*
X70694048Y-37344951D01*
X70694048Y-37344951D02*
X70734524Y-37304474D01*
X70734524Y-37304474D02*
X70775001Y-37223522D01*
X70775001Y-37223522D02*
X70775001Y-37061617D01*
X70775001Y-37061617D02*
X70734524Y-36980665D01*
X70734524Y-36980665D02*
X70694048Y-36940189D01*
X70694048Y-36940189D02*
X70613096Y-36899712D01*
X72394048Y-36494951D02*
X71665477Y-37587808D01*
X73770239Y-36575903D02*
X73689286Y-36535427D01*
X73689286Y-36535427D02*
X73567858Y-36535427D01*
X73567858Y-36535427D02*
X73446429Y-36575903D01*
X73446429Y-36575903D02*
X73365477Y-36656855D01*
X73365477Y-36656855D02*
X73325000Y-36737808D01*
X73325000Y-36737808D02*
X73284524Y-36899712D01*
X73284524Y-36899712D02*
X73284524Y-37021141D01*
X73284524Y-37021141D02*
X73325000Y-37183046D01*
X73325000Y-37183046D02*
X73365477Y-37263998D01*
X73365477Y-37263998D02*
X73446429Y-37344951D01*
X73446429Y-37344951D02*
X73567858Y-37385427D01*
X73567858Y-37385427D02*
X73648810Y-37385427D01*
X73648810Y-37385427D02*
X73770239Y-37344951D01*
X73770239Y-37344951D02*
X73810715Y-37304474D01*
X73810715Y-37304474D02*
X73810715Y-37021141D01*
X73810715Y-37021141D02*
X73648810Y-37021141D01*
X74175000Y-37385427D02*
X74175000Y-36535427D01*
X74175000Y-36535427D02*
X74660715Y-37385427D01*
X74660715Y-37385427D02*
X74660715Y-36535427D01*
X75065476Y-37385427D02*
X75065476Y-36535427D01*
X75065476Y-36535427D02*
X75267857Y-36535427D01*
X75267857Y-36535427D02*
X75389286Y-36575903D01*
X75389286Y-36575903D02*
X75470238Y-36656855D01*
X75470238Y-36656855D02*
X75510715Y-36737808D01*
X75510715Y-36737808D02*
X75551191Y-36899712D01*
X75551191Y-36899712D02*
X75551191Y-37021141D01*
X75551191Y-37021141D02*
X75510715Y-37183046D01*
X75510715Y-37183046D02*
X75470238Y-37263998D01*
X75470238Y-37263998D02*
X75389286Y-37344951D01*
X75389286Y-37344951D02*
X75267857Y-37385427D01*
X75267857Y-37385427D02*
X75065476Y-37385427D01*
X75915476Y-37304474D02*
X75955953Y-37344951D01*
X75955953Y-37344951D02*
X75915476Y-37385427D01*
X75915476Y-37385427D02*
X75875000Y-37344951D01*
X75875000Y-37344951D02*
X75915476Y-37304474D01*
X75915476Y-37304474D02*
X75915476Y-37385427D01*
X75915476Y-36859236D02*
X75955953Y-36899712D01*
X75955953Y-36899712D02*
X75915476Y-36940189D01*
X75915476Y-36940189D02*
X75875000Y-36899712D01*
X75875000Y-36899712D02*
X75915476Y-36859236D01*
X75915476Y-36859236D02*
X75915476Y-36940189D01*
X77008334Y-37385427D02*
X77170238Y-37385427D01*
X77170238Y-37385427D02*
X77251191Y-37344951D01*
X77251191Y-37344951D02*
X77291667Y-37304474D01*
X77291667Y-37304474D02*
X77372619Y-37183046D01*
X77372619Y-37183046D02*
X77413096Y-37021141D01*
X77413096Y-37021141D02*
X77413096Y-36697331D01*
X77413096Y-36697331D02*
X77372619Y-36616379D01*
X77372619Y-36616379D02*
X77332143Y-36575903D01*
X77332143Y-36575903D02*
X77251191Y-36535427D01*
X77251191Y-36535427D02*
X77089286Y-36535427D01*
X77089286Y-36535427D02*
X77008334Y-36575903D01*
X77008334Y-36575903D02*
X76967857Y-36616379D01*
X76967857Y-36616379D02*
X76927381Y-36697331D01*
X76927381Y-36697331D02*
X76927381Y-36899712D01*
X76927381Y-36899712D02*
X76967857Y-36980665D01*
X76967857Y-36980665D02*
X77008334Y-37021141D01*
X77008334Y-37021141D02*
X77089286Y-37061617D01*
X77089286Y-37061617D02*
X77251191Y-37061617D01*
X77251191Y-37061617D02*
X77332143Y-37021141D01*
X77332143Y-37021141D02*
X77372619Y-36980665D01*
X77372619Y-36980665D02*
X77413096Y-36899712D01*
X77817858Y-37344951D02*
X77817858Y-37385427D01*
X77817858Y-37385427D02*
X77777381Y-37466379D01*
X77777381Y-37466379D02*
X77736905Y-37506855D01*
X78627382Y-37385427D02*
X78141667Y-37385427D01*
X78384524Y-37385427D02*
X78384524Y-36535427D01*
X78384524Y-36535427D02*
X78303572Y-36656855D01*
X78303572Y-36656855D02*
X78222620Y-36737808D01*
X78222620Y-36737808D02*
X78141667Y-36778284D01*
X79153572Y-36535427D02*
X79234525Y-36535427D01*
X79234525Y-36535427D02*
X79315477Y-36575903D01*
X79315477Y-36575903D02*
X79355953Y-36616379D01*
X79355953Y-36616379D02*
X79396429Y-36697331D01*
X79396429Y-36697331D02*
X79436906Y-36859236D01*
X79436906Y-36859236D02*
X79436906Y-37061617D01*
X79436906Y-37061617D02*
X79396429Y-37223522D01*
X79396429Y-37223522D02*
X79355953Y-37304474D01*
X79355953Y-37304474D02*
X79315477Y-37344951D01*
X79315477Y-37344951D02*
X79234525Y-37385427D01*
X79234525Y-37385427D02*
X79153572Y-37385427D01*
X79153572Y-37385427D02*
X79072620Y-37344951D01*
X79072620Y-37344951D02*
X79032144Y-37304474D01*
X79032144Y-37304474D02*
X78991667Y-37223522D01*
X78991667Y-37223522D02*
X78951191Y-37061617D01*
X78951191Y-37061617D02*
X78951191Y-36859236D01*
X78951191Y-36859236D02*
X78991667Y-36697331D01*
X78991667Y-36697331D02*
X79032144Y-36616379D01*
X79032144Y-36616379D02*
X79072620Y-36575903D01*
X79072620Y-36575903D02*
X79153572Y-36535427D01*
X81055953Y-36494951D02*
X80327382Y-37587808D01*
X81986905Y-37385427D02*
X81986905Y-36535427D01*
X81986905Y-36535427D02*
X82310715Y-36535427D01*
X82310715Y-36535427D02*
X82391667Y-36575903D01*
X82391667Y-36575903D02*
X82432144Y-36616379D01*
X82432144Y-36616379D02*
X82472620Y-36697331D01*
X82472620Y-36697331D02*
X82472620Y-36818760D01*
X82472620Y-36818760D02*
X82432144Y-36899712D01*
X82432144Y-36899712D02*
X82391667Y-36940189D01*
X82391667Y-36940189D02*
X82310715Y-36980665D01*
X82310715Y-36980665D02*
X81986905Y-36980665D01*
X82836905Y-37385427D02*
X82836905Y-36535427D01*
X83241667Y-37385427D02*
X83241667Y-36535427D01*
X83241667Y-36535427D02*
X83727382Y-37385427D01*
X83727382Y-37385427D02*
X83727382Y-36535427D01*
X85225001Y-37385427D02*
X84739286Y-37385427D01*
X84982143Y-37385427D02*
X84982143Y-36535427D01*
X84982143Y-36535427D02*
X84901191Y-36656855D01*
X84901191Y-36656855D02*
X84820239Y-36737808D01*
X84820239Y-36737808D02*
X84739286Y-36778284D01*
X86236905Y-36940189D02*
X86884525Y-36940189D01*
X86884525Y-37183046D02*
X86236905Y-37183046D01*
X87896429Y-37344951D02*
X88017858Y-37385427D01*
X88017858Y-37385427D02*
X88220239Y-37385427D01*
X88220239Y-37385427D02*
X88301191Y-37344951D01*
X88301191Y-37344951D02*
X88341667Y-37304474D01*
X88341667Y-37304474D02*
X88382144Y-37223522D01*
X88382144Y-37223522D02*
X88382144Y-37142570D01*
X88382144Y-37142570D02*
X88341667Y-37061617D01*
X88341667Y-37061617D02*
X88301191Y-37021141D01*
X88301191Y-37021141D02*
X88220239Y-36980665D01*
X88220239Y-36980665D02*
X88058334Y-36940189D01*
X88058334Y-36940189D02*
X87977382Y-36899712D01*
X87977382Y-36899712D02*
X87936905Y-36859236D01*
X87936905Y-36859236D02*
X87896429Y-36778284D01*
X87896429Y-36778284D02*
X87896429Y-36697331D01*
X87896429Y-36697331D02*
X87936905Y-36616379D01*
X87936905Y-36616379D02*
X87977382Y-36575903D01*
X87977382Y-36575903D02*
X88058334Y-36535427D01*
X88058334Y-36535427D02*
X88260715Y-36535427D01*
X88260715Y-36535427D02*
X88382144Y-36575903D01*
X89313096Y-37466379D02*
X89232144Y-37425903D01*
X89232144Y-37425903D02*
X89151191Y-37344951D01*
X89151191Y-37344951D02*
X89029763Y-37223522D01*
X89029763Y-37223522D02*
X88948810Y-37183046D01*
X88948810Y-37183046D02*
X88867858Y-37183046D01*
X88908334Y-37385427D02*
X88827382Y-37344951D01*
X88827382Y-37344951D02*
X88746429Y-37263998D01*
X88746429Y-37263998D02*
X88705953Y-37102093D01*
X88705953Y-37102093D02*
X88705953Y-36818760D01*
X88705953Y-36818760D02*
X88746429Y-36656855D01*
X88746429Y-36656855D02*
X88827382Y-36575903D01*
X88827382Y-36575903D02*
X88908334Y-36535427D01*
X88908334Y-36535427D02*
X89070239Y-36535427D01*
X89070239Y-36535427D02*
X89151191Y-36575903D01*
X89151191Y-36575903D02*
X89232144Y-36656855D01*
X89232144Y-36656855D02*
X89272620Y-36818760D01*
X89272620Y-36818760D02*
X89272620Y-37102093D01*
X89272620Y-37102093D02*
X89232144Y-37263998D01*
X89232144Y-37263998D02*
X89151191Y-37344951D01*
X89151191Y-37344951D02*
X89070239Y-37385427D01*
X89070239Y-37385427D02*
X88908334Y-37385427D01*
X89636905Y-36535427D02*
X89636905Y-37223522D01*
X89636905Y-37223522D02*
X89677382Y-37304474D01*
X89677382Y-37304474D02*
X89717858Y-37344951D01*
X89717858Y-37344951D02*
X89798810Y-37385427D01*
X89798810Y-37385427D02*
X89960715Y-37385427D01*
X89960715Y-37385427D02*
X90041667Y-37344951D01*
X90041667Y-37344951D02*
X90082144Y-37304474D01*
X90082144Y-37304474D02*
X90122620Y-37223522D01*
X90122620Y-37223522D02*
X90122620Y-36535427D01*
X90486905Y-37142570D02*
X90891667Y-37142570D01*
X90405953Y-37385427D02*
X90689286Y-36535427D01*
X90689286Y-36535427D02*
X90972620Y-37385427D01*
X91741667Y-37385427D02*
X91458333Y-36980665D01*
X91255952Y-37385427D02*
X91255952Y-36535427D01*
X91255952Y-36535427D02*
X91579762Y-36535427D01*
X91579762Y-36535427D02*
X91660714Y-36575903D01*
X91660714Y-36575903D02*
X91701191Y-36616379D01*
X91701191Y-36616379D02*
X91741667Y-36697331D01*
X91741667Y-36697331D02*
X91741667Y-36818760D01*
X91741667Y-36818760D02*
X91701191Y-36899712D01*
X91701191Y-36899712D02*
X91660714Y-36940189D01*
X91660714Y-36940189D02*
X91579762Y-36980665D01*
X91579762Y-36980665D02*
X91255952Y-36980665D01*
X92105952Y-36940189D02*
X92389286Y-36940189D01*
X92510714Y-37385427D02*
X92105952Y-37385427D01*
X92105952Y-37385427D02*
X92105952Y-36535427D01*
X92105952Y-36535427D02*
X92510714Y-36535427D01*
X144098809Y-36535427D02*
X144260714Y-36535427D01*
X144260714Y-36535427D02*
X144341666Y-36575903D01*
X144341666Y-36575903D02*
X144422619Y-36656855D01*
X144422619Y-36656855D02*
X144463095Y-36818760D01*
X144463095Y-36818760D02*
X144463095Y-37102093D01*
X144463095Y-37102093D02*
X144422619Y-37263998D01*
X144422619Y-37263998D02*
X144341666Y-37344951D01*
X144341666Y-37344951D02*
X144260714Y-37385427D01*
X144260714Y-37385427D02*
X144098809Y-37385427D01*
X144098809Y-37385427D02*
X144017857Y-37344951D01*
X144017857Y-37344951D02*
X143936904Y-37263998D01*
X143936904Y-37263998D02*
X143896428Y-37102093D01*
X143896428Y-37102093D02*
X143896428Y-36818760D01*
X143896428Y-36818760D02*
X143936904Y-36656855D01*
X143936904Y-36656855D02*
X144017857Y-36575903D01*
X144017857Y-36575903D02*
X144098809Y-36535427D01*
X144827380Y-37385427D02*
X144827380Y-36535427D01*
X144827380Y-36535427D02*
X145313095Y-37385427D01*
X145313095Y-37385427D02*
X145313095Y-36535427D01*
X145717856Y-36940189D02*
X146001190Y-36940189D01*
X146122618Y-37385427D02*
X145717856Y-37385427D01*
X145717856Y-37385427D02*
X145717856Y-36535427D01*
X145717856Y-36535427D02*
X146122618Y-36535427D01*
X147053571Y-36535427D02*
X147255952Y-37385427D01*
X147255952Y-37385427D02*
X147417857Y-36778284D01*
X147417857Y-36778284D02*
X147579762Y-37385427D01*
X147579762Y-37385427D02*
X147782143Y-36535427D01*
X148591667Y-37385427D02*
X148308333Y-36980665D01*
X148105952Y-37385427D02*
X148105952Y-36535427D01*
X148105952Y-36535427D02*
X148429762Y-36535427D01*
X148429762Y-36535427D02*
X148510714Y-36575903D01*
X148510714Y-36575903D02*
X148551191Y-36616379D01*
X148551191Y-36616379D02*
X148591667Y-36697331D01*
X148591667Y-36697331D02*
X148591667Y-36818760D01*
X148591667Y-36818760D02*
X148551191Y-36899712D01*
X148551191Y-36899712D02*
X148510714Y-36940189D01*
X148510714Y-36940189D02*
X148429762Y-36980665D01*
X148429762Y-36980665D02*
X148105952Y-36980665D01*
X148955952Y-37385427D02*
X148955952Y-36535427D01*
X149239286Y-36535427D02*
X149725000Y-36535427D01*
X149482143Y-37385427D02*
X149482143Y-36535427D01*
X150008333Y-36940189D02*
X150291667Y-36940189D01*
X150413095Y-37385427D02*
X150008333Y-37385427D01*
X150008333Y-37385427D02*
X150008333Y-36535427D01*
X150008333Y-36535427D02*
X150413095Y-36535427D01*
X151263096Y-37385427D02*
X150979762Y-36980665D01*
X150777381Y-37385427D02*
X150777381Y-36535427D01*
X150777381Y-36535427D02*
X151101191Y-36535427D01*
X151101191Y-36535427D02*
X151182143Y-36575903D01*
X151182143Y-36575903D02*
X151222620Y-36616379D01*
X151222620Y-36616379D02*
X151263096Y-36697331D01*
X151263096Y-36697331D02*
X151263096Y-36818760D01*
X151263096Y-36818760D02*
X151222620Y-36899712D01*
X151222620Y-36899712D02*
X151182143Y-36940189D01*
X151182143Y-36940189D02*
X151101191Y-36980665D01*
X151101191Y-36980665D02*
X150777381Y-36980665D01*
X152234524Y-37142570D02*
X152639286Y-37142570D01*
X152153572Y-37385427D02*
X152436905Y-36535427D01*
X152436905Y-36535427D02*
X152720239Y-37385427D01*
X152882143Y-36535427D02*
X153367857Y-36535427D01*
X153125000Y-37385427D02*
X153125000Y-36535427D01*
X154258333Y-37142570D02*
X154663095Y-37142570D01*
X154177381Y-37385427D02*
X154460714Y-36535427D01*
X154460714Y-36535427D02*
X154744048Y-37385427D01*
X155553571Y-36535427D02*
X156039285Y-36535427D01*
X155796428Y-37385427D02*
X155796428Y-36535427D01*
X156322618Y-37385427D02*
X156322618Y-36535427D01*
X156727380Y-37385427D02*
X156727380Y-36535427D01*
X156727380Y-36535427D02*
X157010714Y-37142570D01*
X157010714Y-37142570D02*
X157294047Y-36535427D01*
X157294047Y-36535427D02*
X157294047Y-37385427D01*
X157698809Y-36940189D02*
X157982143Y-36940189D01*
X158103571Y-37385427D02*
X157698809Y-37385427D01*
X157698809Y-37385427D02*
X157698809Y-36535427D01*
X157698809Y-36535427D02*
X158103571Y-36535427D01*
X173239285Y-37385427D02*
X172834523Y-37385427D01*
X172834523Y-37385427D02*
X172834523Y-36535427D01*
X173522618Y-36940189D02*
X173805952Y-36940189D01*
X173927380Y-37385427D02*
X173522618Y-37385427D01*
X173522618Y-37385427D02*
X173522618Y-36535427D01*
X173522618Y-36535427D02*
X173927380Y-36535427D01*
X174291666Y-37385427D02*
X174291666Y-36535427D01*
X174291666Y-36535427D02*
X174494047Y-36535427D01*
X174494047Y-36535427D02*
X174615476Y-36575903D01*
X174615476Y-36575903D02*
X174696428Y-36656855D01*
X174696428Y-36656855D02*
X174736905Y-36737808D01*
X174736905Y-36737808D02*
X174777381Y-36899712D01*
X174777381Y-36899712D02*
X174777381Y-37021141D01*
X174777381Y-37021141D02*
X174736905Y-37183046D01*
X174736905Y-37183046D02*
X174696428Y-37263998D01*
X174696428Y-37263998D02*
X174615476Y-37344951D01*
X174615476Y-37344951D02*
X174494047Y-37385427D01*
X174494047Y-37385427D02*
X174291666Y-37385427D01*
X175951190Y-36535427D02*
X176113095Y-36535427D01*
X176113095Y-36535427D02*
X176194047Y-36575903D01*
X176194047Y-36575903D02*
X176275000Y-36656855D01*
X176275000Y-36656855D02*
X176315476Y-36818760D01*
X176315476Y-36818760D02*
X176315476Y-37102093D01*
X176315476Y-37102093D02*
X176275000Y-37263998D01*
X176275000Y-37263998D02*
X176194047Y-37344951D01*
X176194047Y-37344951D02*
X176113095Y-37385427D01*
X176113095Y-37385427D02*
X175951190Y-37385427D01*
X175951190Y-37385427D02*
X175870238Y-37344951D01*
X175870238Y-37344951D02*
X175789285Y-37263998D01*
X175789285Y-37263998D02*
X175748809Y-37102093D01*
X175748809Y-37102093D02*
X175748809Y-36818760D01*
X175748809Y-36818760D02*
X175789285Y-36656855D01*
X175789285Y-36656855D02*
X175870238Y-36575903D01*
X175870238Y-36575903D02*
X175951190Y-36535427D01*
X176679761Y-37385427D02*
X176679761Y-36535427D01*
X176679761Y-36535427D02*
X177165476Y-37385427D01*
X177165476Y-37385427D02*
X177165476Y-36535427D01*
X218519047Y-18061617D02*
X219166667Y-18061617D01*
X218842857Y-18385427D02*
X218842857Y-17737808D01*
X219976190Y-17535427D02*
X219571428Y-17535427D01*
X219571428Y-17535427D02*
X219530952Y-17940189D01*
X219530952Y-17940189D02*
X219571428Y-17899712D01*
X219571428Y-17899712D02*
X219652381Y-17859236D01*
X219652381Y-17859236D02*
X219854762Y-17859236D01*
X219854762Y-17859236D02*
X219935714Y-17899712D01*
X219935714Y-17899712D02*
X219976190Y-17940189D01*
X219976190Y-17940189D02*
X220016667Y-18021141D01*
X220016667Y-18021141D02*
X220016667Y-18223522D01*
X220016667Y-18223522D02*
X219976190Y-18304474D01*
X219976190Y-18304474D02*
X219935714Y-18344951D01*
X219935714Y-18344951D02*
X219854762Y-18385427D01*
X219854762Y-18385427D02*
X219652381Y-18385427D01*
X219652381Y-18385427D02*
X219571428Y-18344951D01*
X219571428Y-18344951D02*
X219530952Y-18304474D01*
X220259524Y-17535427D02*
X220542857Y-18385427D01*
X220542857Y-18385427D02*
X220826191Y-17535427D01*
X222364285Y-17494951D02*
X221635714Y-18587808D01*
X223740476Y-17575903D02*
X223659523Y-17535427D01*
X223659523Y-17535427D02*
X223538095Y-17535427D01*
X223538095Y-17535427D02*
X223416666Y-17575903D01*
X223416666Y-17575903D02*
X223335714Y-17656855D01*
X223335714Y-17656855D02*
X223295237Y-17737808D01*
X223295237Y-17737808D02*
X223254761Y-17899712D01*
X223254761Y-17899712D02*
X223254761Y-18021141D01*
X223254761Y-18021141D02*
X223295237Y-18183046D01*
X223295237Y-18183046D02*
X223335714Y-18263998D01*
X223335714Y-18263998D02*
X223416666Y-18344951D01*
X223416666Y-18344951D02*
X223538095Y-18385427D01*
X223538095Y-18385427D02*
X223619047Y-18385427D01*
X223619047Y-18385427D02*
X223740476Y-18344951D01*
X223740476Y-18344951D02*
X223780952Y-18304474D01*
X223780952Y-18304474D02*
X223780952Y-18021141D01*
X223780952Y-18021141D02*
X223619047Y-18021141D01*
X224145237Y-18385427D02*
X224145237Y-17535427D01*
X224145237Y-17535427D02*
X224630952Y-18385427D01*
X224630952Y-18385427D02*
X224630952Y-17535427D01*
X225035713Y-18385427D02*
X225035713Y-17535427D01*
X225035713Y-17535427D02*
X225238094Y-17535427D01*
X225238094Y-17535427D02*
X225359523Y-17575903D01*
X225359523Y-17575903D02*
X225440475Y-17656855D01*
X225440475Y-17656855D02*
X225480952Y-17737808D01*
X225480952Y-17737808D02*
X225521428Y-17899712D01*
X225521428Y-17899712D02*
X225521428Y-18021141D01*
X225521428Y-18021141D02*
X225480952Y-18183046D01*
X225480952Y-18183046D02*
X225440475Y-18263998D01*
X225440475Y-18263998D02*
X225359523Y-18344951D01*
X225359523Y-18344951D02*
X225238094Y-18385427D01*
X225238094Y-18385427D02*
X225035713Y-18385427D01*
X139404760Y-4454819D02*
X139404760Y-3454819D01*
X139404760Y-3454819D02*
X139785712Y-3454819D01*
X139785712Y-3454819D02*
X139880950Y-3502438D01*
X139880950Y-3502438D02*
X139928569Y-3550057D01*
X139928569Y-3550057D02*
X139976188Y-3645295D01*
X139976188Y-3645295D02*
X139976188Y-3788152D01*
X139976188Y-3788152D02*
X139928569Y-3883390D01*
X139928569Y-3883390D02*
X139880950Y-3931009D01*
X139880950Y-3931009D02*
X139785712Y-3978628D01*
X139785712Y-3978628D02*
X139404760Y-3978628D01*
X140404760Y-4454819D02*
X140404760Y-3788152D01*
X140404760Y-3978628D02*
X140452379Y-3883390D01*
X140452379Y-3883390D02*
X140499998Y-3835771D01*
X140499998Y-3835771D02*
X140595236Y-3788152D01*
X140595236Y-3788152D02*
X140690474Y-3788152D01*
X141166665Y-4454819D02*
X141071427Y-4407200D01*
X141071427Y-4407200D02*
X141023808Y-4359580D01*
X141023808Y-4359580D02*
X140976189Y-4264342D01*
X140976189Y-4264342D02*
X140976189Y-3978628D01*
X140976189Y-3978628D02*
X141023808Y-3883390D01*
X141023808Y-3883390D02*
X141071427Y-3835771D01*
X141071427Y-3835771D02*
X141166665Y-3788152D01*
X141166665Y-3788152D02*
X141309522Y-3788152D01*
X141309522Y-3788152D02*
X141404760Y-3835771D01*
X141404760Y-3835771D02*
X141452379Y-3883390D01*
X141452379Y-3883390D02*
X141499998Y-3978628D01*
X141499998Y-3978628D02*
X141499998Y-4264342D01*
X141499998Y-4264342D02*
X141452379Y-4359580D01*
X141452379Y-4359580D02*
X141404760Y-4407200D01*
X141404760Y-4407200D02*
X141309522Y-4454819D01*
X141309522Y-4454819D02*
X141166665Y-4454819D01*
X142357141Y-3788152D02*
X142357141Y-4597676D01*
X142357141Y-4597676D02*
X142309522Y-4692914D01*
X142309522Y-4692914D02*
X142261903Y-4740533D01*
X142261903Y-4740533D02*
X142166665Y-4788152D01*
X142166665Y-4788152D02*
X142023808Y-4788152D01*
X142023808Y-4788152D02*
X141928570Y-4740533D01*
X142357141Y-4407200D02*
X142261903Y-4454819D01*
X142261903Y-4454819D02*
X142071427Y-4454819D01*
X142071427Y-4454819D02*
X141976189Y-4407200D01*
X141976189Y-4407200D02*
X141928570Y-4359580D01*
X141928570Y-4359580D02*
X141880951Y-4264342D01*
X141880951Y-4264342D02*
X141880951Y-3978628D01*
X141880951Y-3978628D02*
X141928570Y-3883390D01*
X141928570Y-3883390D02*
X141976189Y-3835771D01*
X141976189Y-3835771D02*
X142071427Y-3788152D01*
X142071427Y-3788152D02*
X142261903Y-3788152D01*
X142261903Y-3788152D02*
X142357141Y-3835771D01*
X143214284Y-4407200D02*
X143119046Y-4454819D01*
X143119046Y-4454819D02*
X142928570Y-4454819D01*
X142928570Y-4454819D02*
X142833332Y-4407200D01*
X142833332Y-4407200D02*
X142785713Y-4311961D01*
X142785713Y-4311961D02*
X142785713Y-3931009D01*
X142785713Y-3931009D02*
X142833332Y-3835771D01*
X142833332Y-3835771D02*
X142928570Y-3788152D01*
X142928570Y-3788152D02*
X143119046Y-3788152D01*
X143119046Y-3788152D02*
X143214284Y-3835771D01*
X143214284Y-3835771D02*
X143261903Y-3931009D01*
X143261903Y-3931009D02*
X143261903Y-4026247D01*
X143261903Y-4026247D02*
X142785713Y-4121485D01*
X143547618Y-3788152D02*
X143928570Y-3788152D01*
X143690475Y-3454819D02*
X143690475Y-4311961D01*
X143690475Y-4311961D02*
X143738094Y-4407200D01*
X143738094Y-4407200D02*
X143833332Y-4454819D01*
X143833332Y-4454819D02*
X143928570Y-4454819D01*
X144119047Y-3788152D02*
X144499999Y-3788152D01*
X144261904Y-3454819D02*
X144261904Y-4311961D01*
X144261904Y-4311961D02*
X144309523Y-4407200D01*
X144309523Y-4407200D02*
X144404761Y-4454819D01*
X144404761Y-4454819D02*
X144499999Y-4454819D01*
X145261904Y-4454819D02*
X145261904Y-3931009D01*
X145261904Y-3931009D02*
X145214285Y-3835771D01*
X145214285Y-3835771D02*
X145119047Y-3788152D01*
X145119047Y-3788152D02*
X144928571Y-3788152D01*
X144928571Y-3788152D02*
X144833333Y-3835771D01*
X145261904Y-4407200D02*
X145166666Y-4454819D01*
X145166666Y-4454819D02*
X144928571Y-4454819D01*
X144928571Y-4454819D02*
X144833333Y-4407200D01*
X144833333Y-4407200D02*
X144785714Y-4311961D01*
X144785714Y-4311961D02*
X144785714Y-4216723D01*
X144785714Y-4216723D02*
X144833333Y-4121485D01*
X144833333Y-4121485D02*
X144928571Y-4073866D01*
X144928571Y-4073866D02*
X145166666Y-4073866D01*
X145166666Y-4073866D02*
X145261904Y-4026247D01*
X145595238Y-3788152D02*
X145976190Y-3788152D01*
X145738095Y-3454819D02*
X145738095Y-4311961D01*
X145738095Y-4311961D02*
X145785714Y-4407200D01*
X145785714Y-4407200D02*
X145880952Y-4454819D01*
X145880952Y-4454819D02*
X145976190Y-4454819D01*
X146452381Y-4454819D02*
X146357143Y-4407200D01*
X146357143Y-4407200D02*
X146309524Y-4359580D01*
X146309524Y-4359580D02*
X146261905Y-4264342D01*
X146261905Y-4264342D02*
X146261905Y-3978628D01*
X146261905Y-3978628D02*
X146309524Y-3883390D01*
X146309524Y-3883390D02*
X146357143Y-3835771D01*
X146357143Y-3835771D02*
X146452381Y-3788152D01*
X146452381Y-3788152D02*
X146595238Y-3788152D01*
X146595238Y-3788152D02*
X146690476Y-3835771D01*
X146690476Y-3835771D02*
X146738095Y-3883390D01*
X146738095Y-3883390D02*
X146785714Y-3978628D01*
X146785714Y-3978628D02*
X146785714Y-4264342D01*
X146785714Y-4264342D02*
X146738095Y-4359580D01*
X146738095Y-4359580D02*
X146690476Y-4407200D01*
X146690476Y-4407200D02*
X146595238Y-4454819D01*
X146595238Y-4454819D02*
X146452381Y-4454819D01*
X148404762Y-4454819D02*
X148404762Y-3454819D01*
X148404762Y-4407200D02*
X148309524Y-4454819D01*
X148309524Y-4454819D02*
X148119048Y-4454819D01*
X148119048Y-4454819D02*
X148023810Y-4407200D01*
X148023810Y-4407200D02*
X147976191Y-4359580D01*
X147976191Y-4359580D02*
X147928572Y-4264342D01*
X147928572Y-4264342D02*
X147928572Y-3978628D01*
X147928572Y-3978628D02*
X147976191Y-3883390D01*
X147976191Y-3883390D02*
X148023810Y-3835771D01*
X148023810Y-3835771D02*
X148119048Y-3788152D01*
X148119048Y-3788152D02*
X148309524Y-3788152D01*
X148309524Y-3788152D02*
X148404762Y-3835771D01*
X149309524Y-4454819D02*
X149309524Y-3931009D01*
X149309524Y-3931009D02*
X149261905Y-3835771D01*
X149261905Y-3835771D02*
X149166667Y-3788152D01*
X149166667Y-3788152D02*
X148976191Y-3788152D01*
X148976191Y-3788152D02*
X148880953Y-3835771D01*
X149309524Y-4407200D02*
X149214286Y-4454819D01*
X149214286Y-4454819D02*
X148976191Y-4454819D01*
X148976191Y-4454819D02*
X148880953Y-4407200D01*
X148880953Y-4407200D02*
X148833334Y-4311961D01*
X148833334Y-4311961D02*
X148833334Y-4216723D01*
X148833334Y-4216723D02*
X148880953Y-4121485D01*
X148880953Y-4121485D02*
X148976191Y-4073866D01*
X148976191Y-4073866D02*
X149214286Y-4073866D01*
X149214286Y-4073866D02*
X149309524Y-4026247D01*
X150547620Y-3931009D02*
X150880953Y-3931009D01*
X151023810Y-4454819D02*
X150547620Y-4454819D01*
X150547620Y-4454819D02*
X150547620Y-3454819D01*
X150547620Y-3454819D02*
X151023810Y-3454819D01*
X151452382Y-3788152D02*
X151452382Y-4454819D01*
X151452382Y-3883390D02*
X151500001Y-3835771D01*
X151500001Y-3835771D02*
X151595239Y-3788152D01*
X151595239Y-3788152D02*
X151738096Y-3788152D01*
X151738096Y-3788152D02*
X151833334Y-3835771D01*
X151833334Y-3835771D02*
X151880953Y-3931009D01*
X151880953Y-3931009D02*
X151880953Y-4454819D01*
X152261906Y-3788152D02*
X152785715Y-3788152D01*
X152785715Y-3788152D02*
X152261906Y-4454819D01*
X152261906Y-4454819D02*
X152785715Y-4454819D01*
X153309525Y-4454819D02*
X153214287Y-4407200D01*
X153214287Y-4407200D02*
X153166668Y-4359580D01*
X153166668Y-4359580D02*
X153119049Y-4264342D01*
X153119049Y-4264342D02*
X153119049Y-3978628D01*
X153119049Y-3978628D02*
X153166668Y-3883390D01*
X153166668Y-3883390D02*
X153214287Y-3835771D01*
X153214287Y-3835771D02*
X153309525Y-3788152D01*
X153309525Y-3788152D02*
X153452382Y-3788152D01*
X153452382Y-3788152D02*
X153547620Y-3835771D01*
X153547620Y-3835771D02*
X153595239Y-3883390D01*
X153595239Y-3883390D02*
X153642858Y-3978628D01*
X153642858Y-3978628D02*
X153642858Y-4264342D01*
X153642858Y-4264342D02*
X153595239Y-4359580D01*
X153595239Y-4359580D02*
X153547620Y-4407200D01*
X153547620Y-4407200D02*
X153452382Y-4454819D01*
X153452382Y-4454819D02*
X153309525Y-4454819D01*
X154690478Y-3454819D02*
X155261906Y-3454819D01*
X154976192Y-4454819D02*
X154976192Y-3454819D01*
X156023811Y-4454819D02*
X156023811Y-3931009D01*
X156023811Y-3931009D02*
X155976192Y-3835771D01*
X155976192Y-3835771D02*
X155880954Y-3788152D01*
X155880954Y-3788152D02*
X155690478Y-3788152D01*
X155690478Y-3788152D02*
X155595240Y-3835771D01*
X156023811Y-4407200D02*
X155928573Y-4454819D01*
X155928573Y-4454819D02*
X155690478Y-4454819D01*
X155690478Y-4454819D02*
X155595240Y-4407200D01*
X155595240Y-4407200D02*
X155547621Y-4311961D01*
X155547621Y-4311961D02*
X155547621Y-4216723D01*
X155547621Y-4216723D02*
X155595240Y-4121485D01*
X155595240Y-4121485D02*
X155690478Y-4073866D01*
X155690478Y-4073866D02*
X155928573Y-4073866D01*
X155928573Y-4073866D02*
X156023811Y-4026247D01*
X156452383Y-4407200D02*
X156547621Y-4454819D01*
X156547621Y-4454819D02*
X156738097Y-4454819D01*
X156738097Y-4454819D02*
X156833335Y-4407200D01*
X156833335Y-4407200D02*
X156880954Y-4311961D01*
X156880954Y-4311961D02*
X156880954Y-4264342D01*
X156880954Y-4264342D02*
X156833335Y-4169104D01*
X156833335Y-4169104D02*
X156738097Y-4121485D01*
X156738097Y-4121485D02*
X156595240Y-4121485D01*
X156595240Y-4121485D02*
X156500002Y-4073866D01*
X156500002Y-4073866D02*
X156452383Y-3978628D01*
X156452383Y-3978628D02*
X156452383Y-3931009D01*
X156452383Y-3931009D02*
X156500002Y-3835771D01*
X156500002Y-3835771D02*
X156595240Y-3788152D01*
X156595240Y-3788152D02*
X156738097Y-3788152D01*
X156738097Y-3788152D02*
X156833335Y-3835771D01*
X157738097Y-4407200D02*
X157642859Y-4454819D01*
X157642859Y-4454819D02*
X157452383Y-4454819D01*
X157452383Y-4454819D02*
X157357145Y-4407200D01*
X157357145Y-4407200D02*
X157309526Y-4359580D01*
X157309526Y-4359580D02*
X157261907Y-4264342D01*
X157261907Y-4264342D02*
X157261907Y-3978628D01*
X157261907Y-3978628D02*
X157309526Y-3883390D01*
X157309526Y-3883390D02*
X157357145Y-3835771D01*
X157357145Y-3835771D02*
X157452383Y-3788152D01*
X157452383Y-3788152D02*
X157642859Y-3788152D01*
X157642859Y-3788152D02*
X157738097Y-3835771D01*
X158595240Y-4454819D02*
X158595240Y-3931009D01*
X158595240Y-3931009D02*
X158547621Y-3835771D01*
X158547621Y-3835771D02*
X158452383Y-3788152D01*
X158452383Y-3788152D02*
X158261907Y-3788152D01*
X158261907Y-3788152D02*
X158166669Y-3835771D01*
X158595240Y-4407200D02*
X158500002Y-4454819D01*
X158500002Y-4454819D02*
X158261907Y-4454819D01*
X158261907Y-4454819D02*
X158166669Y-4407200D01*
X158166669Y-4407200D02*
X158119050Y-4311961D01*
X158119050Y-4311961D02*
X158119050Y-4216723D01*
X158119050Y-4216723D02*
X158166669Y-4121485D01*
X158166669Y-4121485D02*
X158261907Y-4073866D01*
X158261907Y-4073866D02*
X158500002Y-4073866D01*
X158500002Y-4073866D02*
X158595240Y-4026247D01*
X71188095Y-35801080D02*
X71188095Y-34701080D01*
X71188095Y-34701080D02*
X71450000Y-34701080D01*
X71450000Y-34701080D02*
X71607143Y-34753461D01*
X71607143Y-34753461D02*
X71711905Y-34858223D01*
X71711905Y-34858223D02*
X71764286Y-34962985D01*
X71764286Y-34962985D02*
X71816667Y-35172509D01*
X71816667Y-35172509D02*
X71816667Y-35329652D01*
X71816667Y-35329652D02*
X71764286Y-35539176D01*
X71764286Y-35539176D02*
X71711905Y-35643938D01*
X71711905Y-35643938D02*
X71607143Y-35748700D01*
X71607143Y-35748700D02*
X71450000Y-35801080D01*
X71450000Y-35801080D02*
X71188095Y-35801080D01*
X72183333Y-34701080D02*
X72916667Y-34701080D01*
X72916667Y-34701080D02*
X72445238Y-35801080D01*
X75188095Y-35801080D02*
X75188095Y-34701080D01*
X75188095Y-34701080D02*
X75450000Y-34701080D01*
X75450000Y-34701080D02*
X75607143Y-34753461D01*
X75607143Y-34753461D02*
X75711905Y-34858223D01*
X75711905Y-34858223D02*
X75764286Y-34962985D01*
X75764286Y-34962985D02*
X75816667Y-35172509D01*
X75816667Y-35172509D02*
X75816667Y-35329652D01*
X75816667Y-35329652D02*
X75764286Y-35539176D01*
X75764286Y-35539176D02*
X75711905Y-35643938D01*
X75711905Y-35643938D02*
X75607143Y-35748700D01*
X75607143Y-35748700D02*
X75450000Y-35801080D01*
X75450000Y-35801080D02*
X75188095Y-35801080D01*
X76759524Y-34701080D02*
X76550000Y-34701080D01*
X76550000Y-34701080D02*
X76445238Y-34753461D01*
X76445238Y-34753461D02*
X76392857Y-34805842D01*
X76392857Y-34805842D02*
X76288095Y-34962985D01*
X76288095Y-34962985D02*
X76235714Y-35172509D01*
X76235714Y-35172509D02*
X76235714Y-35591557D01*
X76235714Y-35591557D02*
X76288095Y-35696319D01*
X76288095Y-35696319D02*
X76340476Y-35748700D01*
X76340476Y-35748700D02*
X76445238Y-35801080D01*
X76445238Y-35801080D02*
X76654762Y-35801080D01*
X76654762Y-35801080D02*
X76759524Y-35748700D01*
X76759524Y-35748700D02*
X76811905Y-35696319D01*
X76811905Y-35696319D02*
X76864286Y-35591557D01*
X76864286Y-35591557D02*
X76864286Y-35329652D01*
X76864286Y-35329652D02*
X76811905Y-35224890D01*
X76811905Y-35224890D02*
X76759524Y-35172509D01*
X76759524Y-35172509D02*
X76654762Y-35120128D01*
X76654762Y-35120128D02*
X76445238Y-35120128D01*
X76445238Y-35120128D02*
X76340476Y-35172509D01*
X76340476Y-35172509D02*
X76288095Y-35224890D01*
X76288095Y-35224890D02*
X76235714Y-35329652D01*
X79188095Y-35801080D02*
X79188095Y-34701080D01*
X79188095Y-34701080D02*
X79450000Y-34701080D01*
X79450000Y-34701080D02*
X79607143Y-34753461D01*
X79607143Y-34753461D02*
X79711905Y-34858223D01*
X79711905Y-34858223D02*
X79764286Y-34962985D01*
X79764286Y-34962985D02*
X79816667Y-35172509D01*
X79816667Y-35172509D02*
X79816667Y-35329652D01*
X79816667Y-35329652D02*
X79764286Y-35539176D01*
X79764286Y-35539176D02*
X79711905Y-35643938D01*
X79711905Y-35643938D02*
X79607143Y-35748700D01*
X79607143Y-35748700D02*
X79450000Y-35801080D01*
X79450000Y-35801080D02*
X79188095Y-35801080D01*
X80811905Y-34701080D02*
X80288095Y-34701080D01*
X80288095Y-34701080D02*
X80235714Y-35224890D01*
X80235714Y-35224890D02*
X80288095Y-35172509D01*
X80288095Y-35172509D02*
X80392857Y-35120128D01*
X80392857Y-35120128D02*
X80654762Y-35120128D01*
X80654762Y-35120128D02*
X80759524Y-35172509D01*
X80759524Y-35172509D02*
X80811905Y-35224890D01*
X80811905Y-35224890D02*
X80864286Y-35329652D01*
X80864286Y-35329652D02*
X80864286Y-35591557D01*
X80864286Y-35591557D02*
X80811905Y-35696319D01*
X80811905Y-35696319D02*
X80759524Y-35748700D01*
X80759524Y-35748700D02*
X80654762Y-35801080D01*
X80654762Y-35801080D02*
X80392857Y-35801080D01*
X80392857Y-35801080D02*
X80288095Y-35748700D01*
X80288095Y-35748700D02*
X80235714Y-35696319D01*
X83188095Y-35801080D02*
X83188095Y-34701080D01*
X83188095Y-34701080D02*
X83450000Y-34701080D01*
X83450000Y-34701080D02*
X83607143Y-34753461D01*
X83607143Y-34753461D02*
X83711905Y-34858223D01*
X83711905Y-34858223D02*
X83764286Y-34962985D01*
X83764286Y-34962985D02*
X83816667Y-35172509D01*
X83816667Y-35172509D02*
X83816667Y-35329652D01*
X83816667Y-35329652D02*
X83764286Y-35539176D01*
X83764286Y-35539176D02*
X83711905Y-35643938D01*
X83711905Y-35643938D02*
X83607143Y-35748700D01*
X83607143Y-35748700D02*
X83450000Y-35801080D01*
X83450000Y-35801080D02*
X83188095Y-35801080D01*
X84759524Y-35067747D02*
X84759524Y-35801080D01*
X84497619Y-34648700D02*
X84235714Y-35434414D01*
X84235714Y-35434414D02*
X84916667Y-35434414D01*
X89188095Y-35801080D02*
X89188095Y-34701080D01*
X89188095Y-34701080D02*
X89450000Y-34701080D01*
X89450000Y-34701080D02*
X89607143Y-34753461D01*
X89607143Y-34753461D02*
X89711905Y-34858223D01*
X89711905Y-34858223D02*
X89764286Y-34962985D01*
X89764286Y-34962985D02*
X89816667Y-35172509D01*
X89816667Y-35172509D02*
X89816667Y-35329652D01*
X89816667Y-35329652D02*
X89764286Y-35539176D01*
X89764286Y-35539176D02*
X89711905Y-35643938D01*
X89711905Y-35643938D02*
X89607143Y-35748700D01*
X89607143Y-35748700D02*
X89450000Y-35801080D01*
X89450000Y-35801080D02*
X89188095Y-35801080D01*
X90183333Y-34701080D02*
X90864286Y-34701080D01*
X90864286Y-34701080D02*
X90497619Y-35120128D01*
X90497619Y-35120128D02*
X90654762Y-35120128D01*
X90654762Y-35120128D02*
X90759524Y-35172509D01*
X90759524Y-35172509D02*
X90811905Y-35224890D01*
X90811905Y-35224890D02*
X90864286Y-35329652D01*
X90864286Y-35329652D02*
X90864286Y-35591557D01*
X90864286Y-35591557D02*
X90811905Y-35696319D01*
X90811905Y-35696319D02*
X90759524Y-35748700D01*
X90759524Y-35748700D02*
X90654762Y-35801080D01*
X90654762Y-35801080D02*
X90340476Y-35801080D01*
X90340476Y-35801080D02*
X90235714Y-35748700D01*
X90235714Y-35748700D02*
X90183333Y-35696319D01*
X93188095Y-35801080D02*
X93188095Y-34701080D01*
X93188095Y-34701080D02*
X93450000Y-34701080D01*
X93450000Y-34701080D02*
X93607143Y-34753461D01*
X93607143Y-34753461D02*
X93711905Y-34858223D01*
X93711905Y-34858223D02*
X93764286Y-34962985D01*
X93764286Y-34962985D02*
X93816667Y-35172509D01*
X93816667Y-35172509D02*
X93816667Y-35329652D01*
X93816667Y-35329652D02*
X93764286Y-35539176D01*
X93764286Y-35539176D02*
X93711905Y-35643938D01*
X93711905Y-35643938D02*
X93607143Y-35748700D01*
X93607143Y-35748700D02*
X93450000Y-35801080D01*
X93450000Y-35801080D02*
X93188095Y-35801080D01*
X94235714Y-34805842D02*
X94288095Y-34753461D01*
X94288095Y-34753461D02*
X94392857Y-34701080D01*
X94392857Y-34701080D02*
X94654762Y-34701080D01*
X94654762Y-34701080D02*
X94759524Y-34753461D01*
X94759524Y-34753461D02*
X94811905Y-34805842D01*
X94811905Y-34805842D02*
X94864286Y-34910604D01*
X94864286Y-34910604D02*
X94864286Y-35015366D01*
X94864286Y-35015366D02*
X94811905Y-35172509D01*
X94811905Y-35172509D02*
X94183333Y-35801080D01*
X94183333Y-35801080D02*
X94864286Y-35801080D01*
X97188095Y-35801080D02*
X97188095Y-34701080D01*
X97188095Y-34701080D02*
X97450000Y-34701080D01*
X97450000Y-34701080D02*
X97607143Y-34753461D01*
X97607143Y-34753461D02*
X97711905Y-34858223D01*
X97711905Y-34858223D02*
X97764286Y-34962985D01*
X97764286Y-34962985D02*
X97816667Y-35172509D01*
X97816667Y-35172509D02*
X97816667Y-35329652D01*
X97816667Y-35329652D02*
X97764286Y-35539176D01*
X97764286Y-35539176D02*
X97711905Y-35643938D01*
X97711905Y-35643938D02*
X97607143Y-35748700D01*
X97607143Y-35748700D02*
X97450000Y-35801080D01*
X97450000Y-35801080D02*
X97188095Y-35801080D01*
X98864286Y-35801080D02*
X98235714Y-35801080D01*
X98550000Y-35801080D02*
X98550000Y-34701080D01*
X98550000Y-34701080D02*
X98445238Y-34858223D01*
X98445238Y-34858223D02*
X98340476Y-34962985D01*
X98340476Y-34962985D02*
X98235714Y-35015366D01*
X101188095Y-35801080D02*
X101188095Y-34701080D01*
X101188095Y-34701080D02*
X101450000Y-34701080D01*
X101450000Y-34701080D02*
X101607143Y-34753461D01*
X101607143Y-34753461D02*
X101711905Y-34858223D01*
X101711905Y-34858223D02*
X101764286Y-34962985D01*
X101764286Y-34962985D02*
X101816667Y-35172509D01*
X101816667Y-35172509D02*
X101816667Y-35329652D01*
X101816667Y-35329652D02*
X101764286Y-35539176D01*
X101764286Y-35539176D02*
X101711905Y-35643938D01*
X101711905Y-35643938D02*
X101607143Y-35748700D01*
X101607143Y-35748700D02*
X101450000Y-35801080D01*
X101450000Y-35801080D02*
X101188095Y-35801080D01*
X102497619Y-34701080D02*
X102602381Y-34701080D01*
X102602381Y-34701080D02*
X102707143Y-34753461D01*
X102707143Y-34753461D02*
X102759524Y-34805842D01*
X102759524Y-34805842D02*
X102811905Y-34910604D01*
X102811905Y-34910604D02*
X102864286Y-35120128D01*
X102864286Y-35120128D02*
X102864286Y-35382033D01*
X102864286Y-35382033D02*
X102811905Y-35591557D01*
X102811905Y-35591557D02*
X102759524Y-35696319D01*
X102759524Y-35696319D02*
X102707143Y-35748700D01*
X102707143Y-35748700D02*
X102602381Y-35801080D01*
X102602381Y-35801080D02*
X102497619Y-35801080D01*
X102497619Y-35801080D02*
X102392857Y-35748700D01*
X102392857Y-35748700D02*
X102340476Y-35696319D01*
X102340476Y-35696319D02*
X102288095Y-35591557D01*
X102288095Y-35591557D02*
X102235714Y-35382033D01*
X102235714Y-35382033D02*
X102235714Y-35120128D01*
X102235714Y-35120128D02*
X102288095Y-34910604D01*
X102288095Y-34910604D02*
X102340476Y-34805842D01*
X102340476Y-34805842D02*
X102392857Y-34753461D01*
X102392857Y-34753461D02*
X102497619Y-34701080D01*
X221803333Y-34701080D02*
X221803333Y-33601080D01*
X221803333Y-33601080D02*
X222222381Y-33601080D01*
X222222381Y-33601080D02*
X222327143Y-33653461D01*
X222327143Y-33653461D02*
X222379524Y-33705842D01*
X222379524Y-33705842D02*
X222431905Y-33810604D01*
X222431905Y-33810604D02*
X222431905Y-33967747D01*
X222431905Y-33967747D02*
X222379524Y-34072509D01*
X222379524Y-34072509D02*
X222327143Y-34124890D01*
X222327143Y-34124890D02*
X222222381Y-34177271D01*
X222222381Y-34177271D02*
X221803333Y-34177271D01*
X222798571Y-33601080D02*
X223060476Y-34701080D01*
X223060476Y-34701080D02*
X223270000Y-33915366D01*
X223270000Y-33915366D02*
X223479524Y-34701080D01*
X223479524Y-34701080D02*
X223741429Y-33601080D01*
X224789048Y-34701080D02*
X224422381Y-34177271D01*
X224160476Y-34701080D02*
X224160476Y-33601080D01*
X224160476Y-33601080D02*
X224579524Y-33601080D01*
X224579524Y-33601080D02*
X224684286Y-33653461D01*
X224684286Y-33653461D02*
X224736667Y-33705842D01*
X224736667Y-33705842D02*
X224789048Y-33810604D01*
X224789048Y-33810604D02*
X224789048Y-33967747D01*
X224789048Y-33967747D02*
X224736667Y-34072509D01*
X224736667Y-34072509D02*
X224684286Y-34124890D01*
X224684286Y-34124890D02*
X224579524Y-34177271D01*
X224579524Y-34177271D02*
X224160476Y-34177271D01*
X67400000Y-4433057D02*
X67342857Y-4490200D01*
X67342857Y-4490200D02*
X67171429Y-4547342D01*
X67171429Y-4547342D02*
X67057143Y-4547342D01*
X67057143Y-4547342D02*
X66885714Y-4490200D01*
X66885714Y-4490200D02*
X66771429Y-4375914D01*
X66771429Y-4375914D02*
X66714286Y-4261628D01*
X66714286Y-4261628D02*
X66657143Y-4033057D01*
X66657143Y-4033057D02*
X66657143Y-3861628D01*
X66657143Y-3861628D02*
X66714286Y-3633057D01*
X66714286Y-3633057D02*
X66771429Y-3518771D01*
X66771429Y-3518771D02*
X66885714Y-3404485D01*
X66885714Y-3404485D02*
X67057143Y-3347342D01*
X67057143Y-3347342D02*
X67171429Y-3347342D01*
X67171429Y-3347342D02*
X67342857Y-3404485D01*
X67342857Y-3404485D02*
X67400000Y-3461628D01*
X67914286Y-4547342D02*
X67914286Y-3347342D01*
X67914286Y-3347342D02*
X68371429Y-3347342D01*
X68371429Y-3347342D02*
X68485714Y-3404485D01*
X68485714Y-3404485D02*
X68542857Y-3461628D01*
X68542857Y-3461628D02*
X68600000Y-3575914D01*
X68600000Y-3575914D02*
X68600000Y-3747342D01*
X68600000Y-3747342D02*
X68542857Y-3861628D01*
X68542857Y-3861628D02*
X68485714Y-3918771D01*
X68485714Y-3918771D02*
X68371429Y-3975914D01*
X68371429Y-3975914D02*
X67914286Y-3975914D01*
X69114286Y-3347342D02*
X69114286Y-4318771D01*
X69114286Y-4318771D02*
X69171429Y-4433057D01*
X69171429Y-4433057D02*
X69228572Y-4490200D01*
X69228572Y-4490200D02*
X69342857Y-4547342D01*
X69342857Y-4547342D02*
X69571429Y-4547342D01*
X69571429Y-4547342D02*
X69685714Y-4490200D01*
X69685714Y-4490200D02*
X69742857Y-4433057D01*
X69742857Y-4433057D02*
X69800000Y-4318771D01*
X69800000Y-4318771D02*
X69800000Y-3347342D01*
X70542857Y-3861628D02*
X70428572Y-3804485D01*
X70428572Y-3804485D02*
X70371429Y-3747342D01*
X70371429Y-3747342D02*
X70314286Y-3633057D01*
X70314286Y-3633057D02*
X70314286Y-3575914D01*
X70314286Y-3575914D02*
X70371429Y-3461628D01*
X70371429Y-3461628D02*
X70428572Y-3404485D01*
X70428572Y-3404485D02*
X70542857Y-3347342D01*
X70542857Y-3347342D02*
X70771429Y-3347342D01*
X70771429Y-3347342D02*
X70885715Y-3404485D01*
X70885715Y-3404485D02*
X70942857Y-3461628D01*
X70942857Y-3461628D02*
X71000000Y-3575914D01*
X71000000Y-3575914D02*
X71000000Y-3633057D01*
X71000000Y-3633057D02*
X70942857Y-3747342D01*
X70942857Y-3747342D02*
X70885715Y-3804485D01*
X70885715Y-3804485D02*
X70771429Y-3861628D01*
X70771429Y-3861628D02*
X70542857Y-3861628D01*
X70542857Y-3861628D02*
X70428572Y-3918771D01*
X70428572Y-3918771D02*
X70371429Y-3975914D01*
X70371429Y-3975914D02*
X70314286Y-4090200D01*
X70314286Y-4090200D02*
X70314286Y-4318771D01*
X70314286Y-4318771D02*
X70371429Y-4433057D01*
X70371429Y-4433057D02*
X70428572Y-4490200D01*
X70428572Y-4490200D02*
X70542857Y-4547342D01*
X70542857Y-4547342D02*
X70771429Y-4547342D01*
X70771429Y-4547342D02*
X70885715Y-4490200D01*
X70885715Y-4490200D02*
X70942857Y-4433057D01*
X70942857Y-4433057D02*
X71000000Y-4318771D01*
X71000000Y-4318771D02*
X71000000Y-4090200D01*
X71000000Y-4090200D02*
X70942857Y-3975914D01*
X70942857Y-3975914D02*
X70885715Y-3918771D01*
X70885715Y-3918771D02*
X70771429Y-3861628D01*
X72428572Y-4547342D02*
X72428572Y-3347342D01*
X72428572Y-3347342D02*
X72714286Y-3347342D01*
X72714286Y-3347342D02*
X72885715Y-3404485D01*
X72885715Y-3404485D02*
X73000000Y-3518771D01*
X73000000Y-3518771D02*
X73057143Y-3633057D01*
X73057143Y-3633057D02*
X73114286Y-3861628D01*
X73114286Y-3861628D02*
X73114286Y-4033057D01*
X73114286Y-4033057D02*
X73057143Y-4261628D01*
X73057143Y-4261628D02*
X73000000Y-4375914D01*
X73000000Y-4375914D02*
X72885715Y-4490200D01*
X72885715Y-4490200D02*
X72714286Y-4547342D01*
X72714286Y-4547342D02*
X72428572Y-4547342D01*
X73571429Y-4204485D02*
X74142858Y-4204485D01*
X73457143Y-4547342D02*
X73857143Y-3347342D01*
X73857143Y-3347342D02*
X74257143Y-4547342D01*
X74485714Y-3347342D02*
X75171429Y-3347342D01*
X74828571Y-4547342D02*
X74828571Y-3347342D01*
X75514286Y-4204485D02*
X76085715Y-4204485D01*
X75400000Y-4547342D02*
X75800000Y-3347342D01*
X75800000Y-3347342D02*
X76200000Y-4547342D01*
X77914286Y-3918771D02*
X78085714Y-3975914D01*
X78085714Y-3975914D02*
X78142857Y-4033057D01*
X78142857Y-4033057D02*
X78200000Y-4147342D01*
X78200000Y-4147342D02*
X78200000Y-4318771D01*
X78200000Y-4318771D02*
X78142857Y-4433057D01*
X78142857Y-4433057D02*
X78085714Y-4490200D01*
X78085714Y-4490200D02*
X77971429Y-4547342D01*
X77971429Y-4547342D02*
X77514286Y-4547342D01*
X77514286Y-4547342D02*
X77514286Y-3347342D01*
X77514286Y-3347342D02*
X77914286Y-3347342D01*
X77914286Y-3347342D02*
X78028572Y-3404485D01*
X78028572Y-3404485D02*
X78085714Y-3461628D01*
X78085714Y-3461628D02*
X78142857Y-3575914D01*
X78142857Y-3575914D02*
X78142857Y-3690200D01*
X78142857Y-3690200D02*
X78085714Y-3804485D01*
X78085714Y-3804485D02*
X78028572Y-3861628D01*
X78028572Y-3861628D02*
X77914286Y-3918771D01*
X77914286Y-3918771D02*
X77514286Y-3918771D01*
X78714286Y-3347342D02*
X78714286Y-4318771D01*
X78714286Y-4318771D02*
X78771429Y-4433057D01*
X78771429Y-4433057D02*
X78828572Y-4490200D01*
X78828572Y-4490200D02*
X78942857Y-4547342D01*
X78942857Y-4547342D02*
X79171429Y-4547342D01*
X79171429Y-4547342D02*
X79285714Y-4490200D01*
X79285714Y-4490200D02*
X79342857Y-4433057D01*
X79342857Y-4433057D02*
X79400000Y-4318771D01*
X79400000Y-4318771D02*
X79400000Y-3347342D01*
X79914286Y-4490200D02*
X80085715Y-4547342D01*
X80085715Y-4547342D02*
X80371429Y-4547342D01*
X80371429Y-4547342D02*
X80485715Y-4490200D01*
X80485715Y-4490200D02*
X80542857Y-4433057D01*
X80542857Y-4433057D02*
X80600000Y-4318771D01*
X80600000Y-4318771D02*
X80600000Y-4204485D01*
X80600000Y-4204485D02*
X80542857Y-4090200D01*
X80542857Y-4090200D02*
X80485715Y-4033057D01*
X80485715Y-4033057D02*
X80371429Y-3975914D01*
X80371429Y-3975914D02*
X80142857Y-3918771D01*
X80142857Y-3918771D02*
X80028572Y-3861628D01*
X80028572Y-3861628D02*
X79971429Y-3804485D01*
X79971429Y-3804485D02*
X79914286Y-3690200D01*
X79914286Y-3690200D02*
X79914286Y-3575914D01*
X79914286Y-3575914D02*
X79971429Y-3461628D01*
X79971429Y-3461628D02*
X80028572Y-3404485D01*
X80028572Y-3404485D02*
X80142857Y-3347342D01*
X80142857Y-3347342D02*
X80428572Y-3347342D01*
X80428572Y-3347342D02*
X80600000Y-3404485D01*
X82714286Y-4547342D02*
X82314286Y-3975914D01*
X82028572Y-4547342D02*
X82028572Y-3347342D01*
X82028572Y-3347342D02*
X82485715Y-3347342D01*
X82485715Y-3347342D02*
X82600000Y-3404485D01*
X82600000Y-3404485D02*
X82657143Y-3461628D01*
X82657143Y-3461628D02*
X82714286Y-3575914D01*
X82714286Y-3575914D02*
X82714286Y-3747342D01*
X82714286Y-3747342D02*
X82657143Y-3861628D01*
X82657143Y-3861628D02*
X82600000Y-3918771D01*
X82600000Y-3918771D02*
X82485715Y-3975914D01*
X82485715Y-3975914D02*
X82028572Y-3975914D01*
X83228572Y-3918771D02*
X83628572Y-3918771D01*
X83800000Y-4547342D02*
X83228572Y-4547342D01*
X83228572Y-4547342D02*
X83228572Y-3347342D01*
X83228572Y-3347342D02*
X83800000Y-3347342D01*
X84142857Y-3347342D02*
X84542857Y-4547342D01*
X84542857Y-4547342D02*
X84942857Y-3347342D01*
X86200000Y-4204485D02*
X86771429Y-4204485D01*
X86085714Y-4547342D02*
X86485714Y-3347342D01*
X86485714Y-3347342D02*
X86885714Y-4547342D01*
X88200000Y-4090200D02*
X89114286Y-4090200D01*
X91171428Y-3347342D02*
X90600000Y-3347342D01*
X90600000Y-3347342D02*
X90542857Y-3918771D01*
X90542857Y-3918771D02*
X90600000Y-3861628D01*
X90600000Y-3861628D02*
X90714286Y-3804485D01*
X90714286Y-3804485D02*
X91000000Y-3804485D01*
X91000000Y-3804485D02*
X91114286Y-3861628D01*
X91114286Y-3861628D02*
X91171428Y-3918771D01*
X91171428Y-3918771D02*
X91228571Y-4033057D01*
X91228571Y-4033057D02*
X91228571Y-4318771D01*
X91228571Y-4318771D02*
X91171428Y-4433057D01*
X91171428Y-4433057D02*
X91114286Y-4490200D01*
X91114286Y-4490200D02*
X91000000Y-4547342D01*
X91000000Y-4547342D02*
X90714286Y-4547342D01*
X90714286Y-4547342D02*
X90600000Y-4490200D01*
X90600000Y-4490200D02*
X90542857Y-4433057D01*
X91571428Y-3347342D02*
X91971428Y-4547342D01*
X91971428Y-4547342D02*
X92371428Y-3347342D01*
X93685714Y-4090200D02*
X94600000Y-4090200D01*
X96257142Y-3861628D02*
X96142857Y-3804485D01*
X96142857Y-3804485D02*
X96085714Y-3747342D01*
X96085714Y-3747342D02*
X96028571Y-3633057D01*
X96028571Y-3633057D02*
X96028571Y-3575914D01*
X96028571Y-3575914D02*
X96085714Y-3461628D01*
X96085714Y-3461628D02*
X96142857Y-3404485D01*
X96142857Y-3404485D02*
X96257142Y-3347342D01*
X96257142Y-3347342D02*
X96485714Y-3347342D01*
X96485714Y-3347342D02*
X96600000Y-3404485D01*
X96600000Y-3404485D02*
X96657142Y-3461628D01*
X96657142Y-3461628D02*
X96714285Y-3575914D01*
X96714285Y-3575914D02*
X96714285Y-3633057D01*
X96714285Y-3633057D02*
X96657142Y-3747342D01*
X96657142Y-3747342D02*
X96600000Y-3804485D01*
X96600000Y-3804485D02*
X96485714Y-3861628D01*
X96485714Y-3861628D02*
X96257142Y-3861628D01*
X96257142Y-3861628D02*
X96142857Y-3918771D01*
X96142857Y-3918771D02*
X96085714Y-3975914D01*
X96085714Y-3975914D02*
X96028571Y-4090200D01*
X96028571Y-4090200D02*
X96028571Y-4318771D01*
X96028571Y-4318771D02*
X96085714Y-4433057D01*
X96085714Y-4433057D02*
X96142857Y-4490200D01*
X96142857Y-4490200D02*
X96257142Y-4547342D01*
X96257142Y-4547342D02*
X96485714Y-4547342D01*
X96485714Y-4547342D02*
X96600000Y-4490200D01*
X96600000Y-4490200D02*
X96657142Y-4433057D01*
X96657142Y-4433057D02*
X96714285Y-4318771D01*
X96714285Y-4318771D02*
X96714285Y-4090200D01*
X96714285Y-4090200D02*
X96657142Y-3975914D01*
X96657142Y-3975914D02*
X96600000Y-3918771D01*
X96600000Y-3918771D02*
X96485714Y-3861628D01*
X98142857Y-4547342D02*
X98142857Y-3347342D01*
X98142857Y-3347342D02*
X98600000Y-3347342D01*
X98600000Y-3347342D02*
X98714285Y-3404485D01*
X98714285Y-3404485D02*
X98771428Y-3461628D01*
X98771428Y-3461628D02*
X98828571Y-3575914D01*
X98828571Y-3575914D02*
X98828571Y-3747342D01*
X98828571Y-3747342D02*
X98771428Y-3861628D01*
X98771428Y-3861628D02*
X98714285Y-3918771D01*
X98714285Y-3918771D02*
X98600000Y-3975914D01*
X98600000Y-3975914D02*
X98142857Y-3975914D01*
X99571428Y-3347342D02*
X99800000Y-3347342D01*
X99800000Y-3347342D02*
X99914285Y-3404485D01*
X99914285Y-3404485D02*
X100028571Y-3518771D01*
X100028571Y-3518771D02*
X100085714Y-3747342D01*
X100085714Y-3747342D02*
X100085714Y-4147342D01*
X100085714Y-4147342D02*
X100028571Y-4375914D01*
X100028571Y-4375914D02*
X99914285Y-4490200D01*
X99914285Y-4490200D02*
X99800000Y-4547342D01*
X99800000Y-4547342D02*
X99571428Y-4547342D01*
X99571428Y-4547342D02*
X99457143Y-4490200D01*
X99457143Y-4490200D02*
X99342857Y-4375914D01*
X99342857Y-4375914D02*
X99285714Y-4147342D01*
X99285714Y-4147342D02*
X99285714Y-3747342D01*
X99285714Y-3747342D02*
X99342857Y-3518771D01*
X99342857Y-3518771D02*
X99457143Y-3404485D01*
X99457143Y-3404485D02*
X99571428Y-3347342D01*
X101285714Y-4547342D02*
X100885714Y-3975914D01*
X100600000Y-4547342D02*
X100600000Y-3347342D01*
X100600000Y-3347342D02*
X101057143Y-3347342D01*
X101057143Y-3347342D02*
X101171428Y-3404485D01*
X101171428Y-3404485D02*
X101228571Y-3461628D01*
X101228571Y-3461628D02*
X101285714Y-3575914D01*
X101285714Y-3575914D02*
X101285714Y-3747342D01*
X101285714Y-3747342D02*
X101228571Y-3861628D01*
X101228571Y-3861628D02*
X101171428Y-3918771D01*
X101171428Y-3918771D02*
X101057143Y-3975914D01*
X101057143Y-3975914D02*
X100600000Y-3975914D01*
X101628571Y-3347342D02*
X102314286Y-3347342D01*
X101971428Y-4547342D02*
X101971428Y-3347342D01*
X102657143Y-4490200D02*
X102828572Y-4547342D01*
X102828572Y-4547342D02*
X103114286Y-4547342D01*
X103114286Y-4547342D02*
X103228572Y-4490200D01*
X103228572Y-4490200D02*
X103285714Y-4433057D01*
X103285714Y-4433057D02*
X103342857Y-4318771D01*
X103342857Y-4318771D02*
X103342857Y-4204485D01*
X103342857Y-4204485D02*
X103285714Y-4090200D01*
X103285714Y-4090200D02*
X103228572Y-4033057D01*
X103228572Y-4033057D02*
X103114286Y-3975914D01*
X103114286Y-3975914D02*
X102885714Y-3918771D01*
X102885714Y-3918771D02*
X102771429Y-3861628D01*
X102771429Y-3861628D02*
X102714286Y-3804485D01*
X102714286Y-3804485D02*
X102657143Y-3690200D01*
X102657143Y-3690200D02*
X102657143Y-3575914D01*
X102657143Y-3575914D02*
X102714286Y-3461628D01*
X102714286Y-3461628D02*
X102771429Y-3404485D01*
X102771429Y-3404485D02*
X102885714Y-3347342D01*
X102885714Y-3347342D02*
X103171429Y-3347342D01*
X103171429Y-3347342D02*
X103342857Y-3404485D01*
X45213333Y-24454819D02*
X44880000Y-23978628D01*
X44641905Y-24454819D02*
X44641905Y-23454819D01*
X44641905Y-23454819D02*
X45022857Y-23454819D01*
X45022857Y-23454819D02*
X45118095Y-23502438D01*
X45118095Y-23502438D02*
X45165714Y-23550057D01*
X45165714Y-23550057D02*
X45213333Y-23645295D01*
X45213333Y-23645295D02*
X45213333Y-23788152D01*
X45213333Y-23788152D02*
X45165714Y-23883390D01*
X45165714Y-23883390D02*
X45118095Y-23931009D01*
X45118095Y-23931009D02*
X45022857Y-23978628D01*
X45022857Y-23978628D02*
X44641905Y-23978628D01*
X46070476Y-23454819D02*
X45880000Y-23454819D01*
X45880000Y-23454819D02*
X45784762Y-23502438D01*
X45784762Y-23502438D02*
X45737143Y-23550057D01*
X45737143Y-23550057D02*
X45641905Y-23692914D01*
X45641905Y-23692914D02*
X45594286Y-23883390D01*
X45594286Y-23883390D02*
X45594286Y-24264342D01*
X45594286Y-24264342D02*
X45641905Y-24359580D01*
X45641905Y-24359580D02*
X45689524Y-24407200D01*
X45689524Y-24407200D02*
X45784762Y-24454819D01*
X45784762Y-24454819D02*
X45975238Y-24454819D01*
X45975238Y-24454819D02*
X46070476Y-24407200D01*
X46070476Y-24407200D02*
X46118095Y-24359580D01*
X46118095Y-24359580D02*
X46165714Y-24264342D01*
X46165714Y-24264342D02*
X46165714Y-24026247D01*
X46165714Y-24026247D02*
X46118095Y-23931009D01*
X46118095Y-23931009D02*
X46070476Y-23883390D01*
X46070476Y-23883390D02*
X45975238Y-23835771D01*
X45975238Y-23835771D02*
X45784762Y-23835771D01*
X45784762Y-23835771D02*
X45689524Y-23883390D01*
X45689524Y-23883390D02*
X45641905Y-23931009D01*
X45641905Y-23931009D02*
X45594286Y-24026247D01*
X50995952Y-25916379D02*
X51036428Y-25875903D01*
X51036428Y-25875903D02*
X51117381Y-25835427D01*
X51117381Y-25835427D02*
X51319762Y-25835427D01*
X51319762Y-25835427D02*
X51400714Y-25875903D01*
X51400714Y-25875903D02*
X51441190Y-25916379D01*
X51441190Y-25916379D02*
X51481667Y-25997331D01*
X51481667Y-25997331D02*
X51481667Y-26078284D01*
X51481667Y-26078284D02*
X51441190Y-26199712D01*
X51441190Y-26199712D02*
X50955476Y-26685427D01*
X50955476Y-26685427D02*
X51481667Y-26685427D01*
X51845952Y-26604474D02*
X51886429Y-26644951D01*
X51886429Y-26644951D02*
X51845952Y-26685427D01*
X51845952Y-26685427D02*
X51805476Y-26644951D01*
X51805476Y-26644951D02*
X51845952Y-26604474D01*
X51845952Y-26604474D02*
X51845952Y-26685427D01*
X52210238Y-25916379D02*
X52250714Y-25875903D01*
X52250714Y-25875903D02*
X52331667Y-25835427D01*
X52331667Y-25835427D02*
X52534048Y-25835427D01*
X52534048Y-25835427D02*
X52615000Y-25875903D01*
X52615000Y-25875903D02*
X52655476Y-25916379D01*
X52655476Y-25916379D02*
X52695953Y-25997331D01*
X52695953Y-25997331D02*
X52695953Y-26078284D01*
X52695953Y-26078284D02*
X52655476Y-26199712D01*
X52655476Y-26199712D02*
X52169762Y-26685427D01*
X52169762Y-26685427D02*
X52695953Y-26685427D01*
X53060238Y-26685427D02*
X53060238Y-25835427D01*
X53141191Y-26361617D02*
X53384048Y-26685427D01*
X53384048Y-26118760D02*
X53060238Y-26442570D01*
X10936666Y-6454819D02*
X10936666Y-7169104D01*
X10936666Y-7169104D02*
X10889047Y-7311961D01*
X10889047Y-7311961D02*
X10793809Y-7407200D01*
X10793809Y-7407200D02*
X10650952Y-7454819D01*
X10650952Y-7454819D02*
X10555714Y-7454819D01*
X11936666Y-7454819D02*
X11365238Y-7454819D01*
X11650952Y-7454819D02*
X11650952Y-6454819D01*
X11650952Y-6454819D02*
X11555714Y-6597676D01*
X11555714Y-6597676D02*
X11460476Y-6692914D01*
X11460476Y-6692914D02*
X11365238Y-6740533D01*
X25213333Y-24454819D02*
X24880000Y-23978628D01*
X24641905Y-24454819D02*
X24641905Y-23454819D01*
X24641905Y-23454819D02*
X25022857Y-23454819D01*
X25022857Y-23454819D02*
X25118095Y-23502438D01*
X25118095Y-23502438D02*
X25165714Y-23550057D01*
X25165714Y-23550057D02*
X25213333Y-23645295D01*
X25213333Y-23645295D02*
X25213333Y-23788152D01*
X25213333Y-23788152D02*
X25165714Y-23883390D01*
X25165714Y-23883390D02*
X25118095Y-23931009D01*
X25118095Y-23931009D02*
X25022857Y-23978628D01*
X25022857Y-23978628D02*
X24641905Y-23978628D01*
X25546667Y-23454819D02*
X26213333Y-23454819D01*
X26213333Y-23454819D02*
X25784762Y-24454819D01*
X30995952Y-25916379D02*
X31036428Y-25875903D01*
X31036428Y-25875903D02*
X31117381Y-25835427D01*
X31117381Y-25835427D02*
X31319762Y-25835427D01*
X31319762Y-25835427D02*
X31400714Y-25875903D01*
X31400714Y-25875903D02*
X31441190Y-25916379D01*
X31441190Y-25916379D02*
X31481667Y-25997331D01*
X31481667Y-25997331D02*
X31481667Y-26078284D01*
X31481667Y-26078284D02*
X31441190Y-26199712D01*
X31441190Y-26199712D02*
X30955476Y-26685427D01*
X30955476Y-26685427D02*
X31481667Y-26685427D01*
X31845952Y-26604474D02*
X31886429Y-26644951D01*
X31886429Y-26644951D02*
X31845952Y-26685427D01*
X31845952Y-26685427D02*
X31805476Y-26644951D01*
X31805476Y-26644951D02*
X31845952Y-26604474D01*
X31845952Y-26604474D02*
X31845952Y-26685427D01*
X32210238Y-25916379D02*
X32250714Y-25875903D01*
X32250714Y-25875903D02*
X32331667Y-25835427D01*
X32331667Y-25835427D02*
X32534048Y-25835427D01*
X32534048Y-25835427D02*
X32615000Y-25875903D01*
X32615000Y-25875903D02*
X32655476Y-25916379D01*
X32655476Y-25916379D02*
X32695953Y-25997331D01*
X32695953Y-25997331D02*
X32695953Y-26078284D01*
X32695953Y-26078284D02*
X32655476Y-26199712D01*
X32655476Y-26199712D02*
X32169762Y-26685427D01*
X32169762Y-26685427D02*
X32695953Y-26685427D01*
X33060238Y-26685427D02*
X33060238Y-25835427D01*
X33141191Y-26361617D02*
X33384048Y-26685427D01*
X33384048Y-26118760D02*
X33060238Y-26442570D01*
X65213333Y-24454819D02*
X64880000Y-23978628D01*
X64641905Y-24454819D02*
X64641905Y-23454819D01*
X64641905Y-23454819D02*
X65022857Y-23454819D01*
X65022857Y-23454819D02*
X65118095Y-23502438D01*
X65118095Y-23502438D02*
X65165714Y-23550057D01*
X65165714Y-23550057D02*
X65213333Y-23645295D01*
X65213333Y-23645295D02*
X65213333Y-23788152D01*
X65213333Y-23788152D02*
X65165714Y-23883390D01*
X65165714Y-23883390D02*
X65118095Y-23931009D01*
X65118095Y-23931009D02*
X65022857Y-23978628D01*
X65022857Y-23978628D02*
X64641905Y-23978628D01*
X66118095Y-23454819D02*
X65641905Y-23454819D01*
X65641905Y-23454819D02*
X65594286Y-23931009D01*
X65594286Y-23931009D02*
X65641905Y-23883390D01*
X65641905Y-23883390D02*
X65737143Y-23835771D01*
X65737143Y-23835771D02*
X65975238Y-23835771D01*
X65975238Y-23835771D02*
X66070476Y-23883390D01*
X66070476Y-23883390D02*
X66118095Y-23931009D01*
X66118095Y-23931009D02*
X66165714Y-24026247D01*
X66165714Y-24026247D02*
X66165714Y-24264342D01*
X66165714Y-24264342D02*
X66118095Y-24359580D01*
X66118095Y-24359580D02*
X66070476Y-24407200D01*
X66070476Y-24407200D02*
X65975238Y-24454819D01*
X65975238Y-24454819D02*
X65737143Y-24454819D01*
X65737143Y-24454819D02*
X65641905Y-24407200D01*
X65641905Y-24407200D02*
X65594286Y-24359580D01*
X70995952Y-25916379D02*
X71036428Y-25875903D01*
X71036428Y-25875903D02*
X71117381Y-25835427D01*
X71117381Y-25835427D02*
X71319762Y-25835427D01*
X71319762Y-25835427D02*
X71400714Y-25875903D01*
X71400714Y-25875903D02*
X71441190Y-25916379D01*
X71441190Y-25916379D02*
X71481667Y-25997331D01*
X71481667Y-25997331D02*
X71481667Y-26078284D01*
X71481667Y-26078284D02*
X71441190Y-26199712D01*
X71441190Y-26199712D02*
X70955476Y-26685427D01*
X70955476Y-26685427D02*
X71481667Y-26685427D01*
X71845952Y-26604474D02*
X71886429Y-26644951D01*
X71886429Y-26644951D02*
X71845952Y-26685427D01*
X71845952Y-26685427D02*
X71805476Y-26644951D01*
X71805476Y-26644951D02*
X71845952Y-26604474D01*
X71845952Y-26604474D02*
X71845952Y-26685427D01*
X72210238Y-25916379D02*
X72250714Y-25875903D01*
X72250714Y-25875903D02*
X72331667Y-25835427D01*
X72331667Y-25835427D02*
X72534048Y-25835427D01*
X72534048Y-25835427D02*
X72615000Y-25875903D01*
X72615000Y-25875903D02*
X72655476Y-25916379D01*
X72655476Y-25916379D02*
X72695953Y-25997331D01*
X72695953Y-25997331D02*
X72695953Y-26078284D01*
X72695953Y-26078284D02*
X72655476Y-26199712D01*
X72655476Y-26199712D02*
X72169762Y-26685427D01*
X72169762Y-26685427D02*
X72695953Y-26685427D01*
X73060238Y-26685427D02*
X73060238Y-25835427D01*
X73141191Y-26361617D02*
X73384048Y-26685427D01*
X73384048Y-26118760D02*
X73060238Y-26442570D01*
X79936666Y-6454819D02*
X79936666Y-7169104D01*
X79936666Y-7169104D02*
X79889047Y-7311961D01*
X79889047Y-7311961D02*
X79793809Y-7407200D01*
X79793809Y-7407200D02*
X79650952Y-7454819D01*
X79650952Y-7454819D02*
X79555714Y-7454819D01*
X80841428Y-6788152D02*
X80841428Y-7454819D01*
X80603333Y-6407200D02*
X80365238Y-7121485D01*
X80365238Y-7121485D02*
X80984285Y-7121485D01*
X148936666Y-6454819D02*
X148936666Y-7169104D01*
X148936666Y-7169104D02*
X148889047Y-7311961D01*
X148889047Y-7311961D02*
X148793809Y-7407200D01*
X148793809Y-7407200D02*
X148650952Y-7454819D01*
X148650952Y-7454819D02*
X148555714Y-7454819D01*
X149317619Y-6454819D02*
X149984285Y-6454819D01*
X149984285Y-6454819D02*
X149555714Y-7454819D01*
X85213333Y-24454819D02*
X84880000Y-23978628D01*
X84641905Y-24454819D02*
X84641905Y-23454819D01*
X84641905Y-23454819D02*
X85022857Y-23454819D01*
X85022857Y-23454819D02*
X85118095Y-23502438D01*
X85118095Y-23502438D02*
X85165714Y-23550057D01*
X85165714Y-23550057D02*
X85213333Y-23645295D01*
X85213333Y-23645295D02*
X85213333Y-23788152D01*
X85213333Y-23788152D02*
X85165714Y-23883390D01*
X85165714Y-23883390D02*
X85118095Y-23931009D01*
X85118095Y-23931009D02*
X85022857Y-23978628D01*
X85022857Y-23978628D02*
X84641905Y-23978628D01*
X86070476Y-23788152D02*
X86070476Y-24454819D01*
X85832381Y-23407200D02*
X85594286Y-24121485D01*
X85594286Y-24121485D02*
X86213333Y-24121485D01*
X90995952Y-25916379D02*
X91036428Y-25875903D01*
X91036428Y-25875903D02*
X91117381Y-25835427D01*
X91117381Y-25835427D02*
X91319762Y-25835427D01*
X91319762Y-25835427D02*
X91400714Y-25875903D01*
X91400714Y-25875903D02*
X91441190Y-25916379D01*
X91441190Y-25916379D02*
X91481667Y-25997331D01*
X91481667Y-25997331D02*
X91481667Y-26078284D01*
X91481667Y-26078284D02*
X91441190Y-26199712D01*
X91441190Y-26199712D02*
X90955476Y-26685427D01*
X90955476Y-26685427D02*
X91481667Y-26685427D01*
X91845952Y-26604474D02*
X91886429Y-26644951D01*
X91886429Y-26644951D02*
X91845952Y-26685427D01*
X91845952Y-26685427D02*
X91805476Y-26644951D01*
X91805476Y-26644951D02*
X91845952Y-26604474D01*
X91845952Y-26604474D02*
X91845952Y-26685427D01*
X92210238Y-25916379D02*
X92250714Y-25875903D01*
X92250714Y-25875903D02*
X92331667Y-25835427D01*
X92331667Y-25835427D02*
X92534048Y-25835427D01*
X92534048Y-25835427D02*
X92615000Y-25875903D01*
X92615000Y-25875903D02*
X92655476Y-25916379D01*
X92655476Y-25916379D02*
X92695953Y-25997331D01*
X92695953Y-25997331D02*
X92695953Y-26078284D01*
X92695953Y-26078284D02*
X92655476Y-26199712D01*
X92655476Y-26199712D02*
X92169762Y-26685427D01*
X92169762Y-26685427D02*
X92695953Y-26685427D01*
X93060238Y-26685427D02*
X93060238Y-25835427D01*
X93141191Y-26361617D02*
X93384048Y-26685427D01*
X93384048Y-26118760D02*
X93060238Y-26442570D01*
X145213333Y-24454819D02*
X144880000Y-23978628D01*
X144641905Y-24454819D02*
X144641905Y-23454819D01*
X144641905Y-23454819D02*
X145022857Y-23454819D01*
X145022857Y-23454819D02*
X145118095Y-23502438D01*
X145118095Y-23502438D02*
X145165714Y-23550057D01*
X145165714Y-23550057D02*
X145213333Y-23645295D01*
X145213333Y-23645295D02*
X145213333Y-23788152D01*
X145213333Y-23788152D02*
X145165714Y-23883390D01*
X145165714Y-23883390D02*
X145118095Y-23931009D01*
X145118095Y-23931009D02*
X145022857Y-23978628D01*
X145022857Y-23978628D02*
X144641905Y-23978628D01*
X146165714Y-24454819D02*
X145594286Y-24454819D01*
X145880000Y-24454819D02*
X145880000Y-23454819D01*
X145880000Y-23454819D02*
X145784762Y-23597676D01*
X145784762Y-23597676D02*
X145689524Y-23692914D01*
X145689524Y-23692914D02*
X145594286Y-23740533D01*
X150995952Y-25916379D02*
X151036428Y-25875903D01*
X151036428Y-25875903D02*
X151117381Y-25835427D01*
X151117381Y-25835427D02*
X151319762Y-25835427D01*
X151319762Y-25835427D02*
X151400714Y-25875903D01*
X151400714Y-25875903D02*
X151441190Y-25916379D01*
X151441190Y-25916379D02*
X151481667Y-25997331D01*
X151481667Y-25997331D02*
X151481667Y-26078284D01*
X151481667Y-26078284D02*
X151441190Y-26199712D01*
X151441190Y-26199712D02*
X150955476Y-26685427D01*
X150955476Y-26685427D02*
X151481667Y-26685427D01*
X151845952Y-26604474D02*
X151886429Y-26644951D01*
X151886429Y-26644951D02*
X151845952Y-26685427D01*
X151845952Y-26685427D02*
X151805476Y-26644951D01*
X151805476Y-26644951D02*
X151845952Y-26604474D01*
X151845952Y-26604474D02*
X151845952Y-26685427D01*
X152210238Y-25916379D02*
X152250714Y-25875903D01*
X152250714Y-25875903D02*
X152331667Y-25835427D01*
X152331667Y-25835427D02*
X152534048Y-25835427D01*
X152534048Y-25835427D02*
X152615000Y-25875903D01*
X152615000Y-25875903D02*
X152655476Y-25916379D01*
X152655476Y-25916379D02*
X152695953Y-25997331D01*
X152695953Y-25997331D02*
X152695953Y-26078284D01*
X152695953Y-26078284D02*
X152655476Y-26199712D01*
X152655476Y-26199712D02*
X152169762Y-26685427D01*
X152169762Y-26685427D02*
X152695953Y-26685427D01*
X153060238Y-26685427D02*
X153060238Y-25835427D01*
X153141191Y-26361617D02*
X153384048Y-26685427D01*
X153384048Y-26118760D02*
X153060238Y-26442570D01*
X33936666Y-6454819D02*
X33936666Y-7169104D01*
X33936666Y-7169104D02*
X33889047Y-7311961D01*
X33889047Y-7311961D02*
X33793809Y-7407200D01*
X33793809Y-7407200D02*
X33650952Y-7454819D01*
X33650952Y-7454819D02*
X33555714Y-7454819D01*
X34365238Y-6550057D02*
X34412857Y-6502438D01*
X34412857Y-6502438D02*
X34508095Y-6454819D01*
X34508095Y-6454819D02*
X34746190Y-6454819D01*
X34746190Y-6454819D02*
X34841428Y-6502438D01*
X34841428Y-6502438D02*
X34889047Y-6550057D01*
X34889047Y-6550057D02*
X34936666Y-6645295D01*
X34936666Y-6645295D02*
X34936666Y-6740533D01*
X34936666Y-6740533D02*
X34889047Y-6883390D01*
X34889047Y-6883390D02*
X34317619Y-7454819D01*
X34317619Y-7454819D02*
X34936666Y-7454819D01*
X207833333Y-30454819D02*
X207500000Y-29978628D01*
X207261905Y-30454819D02*
X207261905Y-29454819D01*
X207261905Y-29454819D02*
X207642857Y-29454819D01*
X207642857Y-29454819D02*
X207738095Y-29502438D01*
X207738095Y-29502438D02*
X207785714Y-29550057D01*
X207785714Y-29550057D02*
X207833333Y-29645295D01*
X207833333Y-29645295D02*
X207833333Y-29788152D01*
X207833333Y-29788152D02*
X207785714Y-29883390D01*
X207785714Y-29883390D02*
X207738095Y-29931009D01*
X207738095Y-29931009D02*
X207642857Y-29978628D01*
X207642857Y-29978628D02*
X207261905Y-29978628D01*
X208309524Y-30454819D02*
X208500000Y-30454819D01*
X208500000Y-30454819D02*
X208595238Y-30407200D01*
X208595238Y-30407200D02*
X208642857Y-30359580D01*
X208642857Y-30359580D02*
X208738095Y-30216723D01*
X208738095Y-30216723D02*
X208785714Y-30026247D01*
X208785714Y-30026247D02*
X208785714Y-29645295D01*
X208785714Y-29645295D02*
X208738095Y-29550057D01*
X208738095Y-29550057D02*
X208690476Y-29502438D01*
X208690476Y-29502438D02*
X208595238Y-29454819D01*
X208595238Y-29454819D02*
X208404762Y-29454819D01*
X208404762Y-29454819D02*
X208309524Y-29502438D01*
X208309524Y-29502438D02*
X208261905Y-29550057D01*
X208261905Y-29550057D02*
X208214286Y-29645295D01*
X208214286Y-29645295D02*
X208214286Y-29883390D01*
X208214286Y-29883390D02*
X208261905Y-29978628D01*
X208261905Y-29978628D02*
X208309524Y-30026247D01*
X208309524Y-30026247D02*
X208404762Y-30073866D01*
X208404762Y-30073866D02*
X208595238Y-30073866D01*
X208595238Y-30073866D02*
X208690476Y-30026247D01*
X208690476Y-30026247D02*
X208738095Y-29978628D01*
X208738095Y-29978628D02*
X208785714Y-29883390D01*
X213615952Y-31916379D02*
X213656428Y-31875903D01*
X213656428Y-31875903D02*
X213737381Y-31835427D01*
X213737381Y-31835427D02*
X213939762Y-31835427D01*
X213939762Y-31835427D02*
X214020714Y-31875903D01*
X214020714Y-31875903D02*
X214061190Y-31916379D01*
X214061190Y-31916379D02*
X214101667Y-31997331D01*
X214101667Y-31997331D02*
X214101667Y-32078284D01*
X214101667Y-32078284D02*
X214061190Y-32199712D01*
X214061190Y-32199712D02*
X213575476Y-32685427D01*
X213575476Y-32685427D02*
X214101667Y-32685427D01*
X214465952Y-32604474D02*
X214506429Y-32644951D01*
X214506429Y-32644951D02*
X214465952Y-32685427D01*
X214465952Y-32685427D02*
X214425476Y-32644951D01*
X214425476Y-32644951D02*
X214465952Y-32604474D01*
X214465952Y-32604474D02*
X214465952Y-32685427D01*
X214830238Y-31916379D02*
X214870714Y-31875903D01*
X214870714Y-31875903D02*
X214951667Y-31835427D01*
X214951667Y-31835427D02*
X215154048Y-31835427D01*
X215154048Y-31835427D02*
X215235000Y-31875903D01*
X215235000Y-31875903D02*
X215275476Y-31916379D01*
X215275476Y-31916379D02*
X215315953Y-31997331D01*
X215315953Y-31997331D02*
X215315953Y-32078284D01*
X215315953Y-32078284D02*
X215275476Y-32199712D01*
X215275476Y-32199712D02*
X214789762Y-32685427D01*
X214789762Y-32685427D02*
X215315953Y-32685427D01*
X215680238Y-32685427D02*
X215680238Y-31835427D01*
X215761191Y-32361617D02*
X216004048Y-32685427D01*
X216004048Y-32118760D02*
X215680238Y-32442570D01*
X178357142Y-22454819D02*
X178023809Y-21978628D01*
X177785714Y-22454819D02*
X177785714Y-21454819D01*
X177785714Y-21454819D02*
X178166666Y-21454819D01*
X178166666Y-21454819D02*
X178261904Y-21502438D01*
X178261904Y-21502438D02*
X178309523Y-21550057D01*
X178309523Y-21550057D02*
X178357142Y-21645295D01*
X178357142Y-21645295D02*
X178357142Y-21788152D01*
X178357142Y-21788152D02*
X178309523Y-21883390D01*
X178309523Y-21883390D02*
X178261904Y-21931009D01*
X178261904Y-21931009D02*
X178166666Y-21978628D01*
X178166666Y-21978628D02*
X177785714Y-21978628D01*
X179309523Y-22454819D02*
X178738095Y-22454819D01*
X179023809Y-22454819D02*
X179023809Y-21454819D01*
X179023809Y-21454819D02*
X178928571Y-21597676D01*
X178928571Y-21597676D02*
X178833333Y-21692914D01*
X178833333Y-21692914D02*
X178738095Y-21740533D01*
X179928571Y-21454819D02*
X180023809Y-21454819D01*
X180023809Y-21454819D02*
X180119047Y-21502438D01*
X180119047Y-21502438D02*
X180166666Y-21550057D01*
X180166666Y-21550057D02*
X180214285Y-21645295D01*
X180214285Y-21645295D02*
X180261904Y-21835771D01*
X180261904Y-21835771D02*
X180261904Y-22073866D01*
X180261904Y-22073866D02*
X180214285Y-22264342D01*
X180214285Y-22264342D02*
X180166666Y-22359580D01*
X180166666Y-22359580D02*
X180119047Y-22407200D01*
X180119047Y-22407200D02*
X180023809Y-22454819D01*
X180023809Y-22454819D02*
X179928571Y-22454819D01*
X179928571Y-22454819D02*
X179833333Y-22407200D01*
X179833333Y-22407200D02*
X179785714Y-22359580D01*
X179785714Y-22359580D02*
X179738095Y-22264342D01*
X179738095Y-22264342D02*
X179690476Y-22073866D01*
X179690476Y-22073866D02*
X179690476Y-21835771D01*
X179690476Y-21835771D02*
X179738095Y-21645295D01*
X179738095Y-21645295D02*
X179785714Y-21550057D01*
X179785714Y-21550057D02*
X179833333Y-21502438D01*
X179833333Y-21502438D02*
X179928571Y-21454819D01*
X185304048Y-24685427D02*
X184818333Y-24685427D01*
X185061190Y-24685427D02*
X185061190Y-23835427D01*
X185061190Y-23835427D02*
X184980238Y-23956855D01*
X184980238Y-23956855D02*
X184899286Y-24037808D01*
X184899286Y-24037808D02*
X184818333Y-24078284D01*
X185830238Y-23835427D02*
X185911191Y-23835427D01*
X185911191Y-23835427D02*
X185992143Y-23875903D01*
X185992143Y-23875903D02*
X186032619Y-23916379D01*
X186032619Y-23916379D02*
X186073095Y-23997331D01*
X186073095Y-23997331D02*
X186113572Y-24159236D01*
X186113572Y-24159236D02*
X186113572Y-24361617D01*
X186113572Y-24361617D02*
X186073095Y-24523522D01*
X186073095Y-24523522D02*
X186032619Y-24604474D01*
X186032619Y-24604474D02*
X185992143Y-24644951D01*
X185992143Y-24644951D02*
X185911191Y-24685427D01*
X185911191Y-24685427D02*
X185830238Y-24685427D01*
X185830238Y-24685427D02*
X185749286Y-24644951D01*
X185749286Y-24644951D02*
X185708810Y-24604474D01*
X185708810Y-24604474D02*
X185668333Y-24523522D01*
X185668333Y-24523522D02*
X185627857Y-24361617D01*
X185627857Y-24361617D02*
X185627857Y-24159236D01*
X185627857Y-24159236D02*
X185668333Y-23997331D01*
X185668333Y-23997331D02*
X185708810Y-23916379D01*
X185708810Y-23916379D02*
X185749286Y-23875903D01*
X185749286Y-23875903D02*
X185830238Y-23835427D01*
X186477857Y-24685427D02*
X186477857Y-23835427D01*
X186558810Y-24361617D02*
X186801667Y-24685427D01*
X186801667Y-24118760D02*
X186477857Y-24442570D01*
X178666667Y-29217200D02*
X178809524Y-29264819D01*
X178809524Y-29264819D02*
X179047619Y-29264819D01*
X179047619Y-29264819D02*
X179142857Y-29217200D01*
X179142857Y-29217200D02*
X179190476Y-29169580D01*
X179190476Y-29169580D02*
X179238095Y-29074342D01*
X179238095Y-29074342D02*
X179238095Y-28979104D01*
X179238095Y-28979104D02*
X179190476Y-28883866D01*
X179190476Y-28883866D02*
X179142857Y-28836247D01*
X179142857Y-28836247D02*
X179047619Y-28788628D01*
X179047619Y-28788628D02*
X178857143Y-28741009D01*
X178857143Y-28741009D02*
X178761905Y-28693390D01*
X178761905Y-28693390D02*
X178714286Y-28645771D01*
X178714286Y-28645771D02*
X178666667Y-28550533D01*
X178666667Y-28550533D02*
X178666667Y-28455295D01*
X178666667Y-28455295D02*
X178714286Y-28360057D01*
X178714286Y-28360057D02*
X178761905Y-28312438D01*
X178761905Y-28312438D02*
X178857143Y-28264819D01*
X178857143Y-28264819D02*
X179095238Y-28264819D01*
X179095238Y-28264819D02*
X179238095Y-28312438D01*
X179571429Y-28264819D02*
X179809524Y-29264819D01*
X179809524Y-29264819D02*
X180000000Y-28550533D01*
X180000000Y-28550533D02*
X180190476Y-29264819D01*
X180190476Y-29264819D02*
X180428572Y-28264819D01*
X181333333Y-29264819D02*
X180761905Y-29264819D01*
X181047619Y-29264819D02*
X181047619Y-28264819D01*
X181047619Y-28264819D02*
X180952381Y-28407676D01*
X180952381Y-28407676D02*
X180857143Y-28502914D01*
X180857143Y-28502914D02*
X180761905Y-28550533D01*
X222531905Y-27454819D02*
X222531905Y-26454819D01*
X222531905Y-26454819D02*
X222770000Y-26454819D01*
X222770000Y-26454819D02*
X222912857Y-26502438D01*
X222912857Y-26502438D02*
X223008095Y-26597676D01*
X223008095Y-26597676D02*
X223055714Y-26692914D01*
X223055714Y-26692914D02*
X223103333Y-26883390D01*
X223103333Y-26883390D02*
X223103333Y-27026247D01*
X223103333Y-27026247D02*
X223055714Y-27216723D01*
X223055714Y-27216723D02*
X223008095Y-27311961D01*
X223008095Y-27311961D02*
X222912857Y-27407200D01*
X222912857Y-27407200D02*
X222770000Y-27454819D01*
X222770000Y-27454819D02*
X222531905Y-27454819D01*
X223579524Y-27454819D02*
X223770000Y-27454819D01*
X223770000Y-27454819D02*
X223865238Y-27407200D01*
X223865238Y-27407200D02*
X223912857Y-27359580D01*
X223912857Y-27359580D02*
X224008095Y-27216723D01*
X224008095Y-27216723D02*
X224055714Y-27026247D01*
X224055714Y-27026247D02*
X224055714Y-26645295D01*
X224055714Y-26645295D02*
X224008095Y-26550057D01*
X224008095Y-26550057D02*
X223960476Y-26502438D01*
X223960476Y-26502438D02*
X223865238Y-26454819D01*
X223865238Y-26454819D02*
X223674762Y-26454819D01*
X223674762Y-26454819D02*
X223579524Y-26502438D01*
X223579524Y-26502438D02*
X223531905Y-26550057D01*
X223531905Y-26550057D02*
X223484286Y-26645295D01*
X223484286Y-26645295D02*
X223484286Y-26883390D01*
X223484286Y-26883390D02*
X223531905Y-26978628D01*
X223531905Y-26978628D02*
X223579524Y-27026247D01*
X223579524Y-27026247D02*
X223674762Y-27073866D01*
X223674762Y-27073866D02*
X223865238Y-27073866D01*
X223865238Y-27073866D02*
X223960476Y-27026247D01*
X223960476Y-27026247D02*
X224008095Y-26978628D01*
X224008095Y-26978628D02*
X224055714Y-26883390D01*
X125936666Y-6454819D02*
X125936666Y-7169104D01*
X125936666Y-7169104D02*
X125889047Y-7311961D01*
X125889047Y-7311961D02*
X125793809Y-7407200D01*
X125793809Y-7407200D02*
X125650952Y-7454819D01*
X125650952Y-7454819D02*
X125555714Y-7454819D01*
X126841428Y-6454819D02*
X126650952Y-6454819D01*
X126650952Y-6454819D02*
X126555714Y-6502438D01*
X126555714Y-6502438D02*
X126508095Y-6550057D01*
X126508095Y-6550057D02*
X126412857Y-6692914D01*
X126412857Y-6692914D02*
X126365238Y-6883390D01*
X126365238Y-6883390D02*
X126365238Y-7264342D01*
X126365238Y-7264342D02*
X126412857Y-7359580D01*
X126412857Y-7359580D02*
X126460476Y-7407200D01*
X126460476Y-7407200D02*
X126555714Y-7454819D01*
X126555714Y-7454819D02*
X126746190Y-7454819D01*
X126746190Y-7454819D02*
X126841428Y-7407200D01*
X126841428Y-7407200D02*
X126889047Y-7359580D01*
X126889047Y-7359580D02*
X126936666Y-7264342D01*
X126936666Y-7264342D02*
X126936666Y-7026247D01*
X126936666Y-7026247D02*
X126889047Y-6931009D01*
X126889047Y-6931009D02*
X126841428Y-6883390D01*
X126841428Y-6883390D02*
X126746190Y-6835771D01*
X126746190Y-6835771D02*
X126555714Y-6835771D01*
X126555714Y-6835771D02*
X126460476Y-6883390D01*
X126460476Y-6883390D02*
X126412857Y-6931009D01*
X126412857Y-6931009D02*
X126365238Y-7026247D01*
X125213333Y-24454819D02*
X124880000Y-23978628D01*
X124641905Y-24454819D02*
X124641905Y-23454819D01*
X124641905Y-23454819D02*
X125022857Y-23454819D01*
X125022857Y-23454819D02*
X125118095Y-23502438D01*
X125118095Y-23502438D02*
X125165714Y-23550057D01*
X125165714Y-23550057D02*
X125213333Y-23645295D01*
X125213333Y-23645295D02*
X125213333Y-23788152D01*
X125213333Y-23788152D02*
X125165714Y-23883390D01*
X125165714Y-23883390D02*
X125118095Y-23931009D01*
X125118095Y-23931009D02*
X125022857Y-23978628D01*
X125022857Y-23978628D02*
X124641905Y-23978628D01*
X125594286Y-23550057D02*
X125641905Y-23502438D01*
X125641905Y-23502438D02*
X125737143Y-23454819D01*
X125737143Y-23454819D02*
X125975238Y-23454819D01*
X125975238Y-23454819D02*
X126070476Y-23502438D01*
X126070476Y-23502438D02*
X126118095Y-23550057D01*
X126118095Y-23550057D02*
X126165714Y-23645295D01*
X126165714Y-23645295D02*
X126165714Y-23740533D01*
X126165714Y-23740533D02*
X126118095Y-23883390D01*
X126118095Y-23883390D02*
X125546667Y-24454819D01*
X125546667Y-24454819D02*
X126165714Y-24454819D01*
X130995952Y-25916379D02*
X131036428Y-25875903D01*
X131036428Y-25875903D02*
X131117381Y-25835427D01*
X131117381Y-25835427D02*
X131319762Y-25835427D01*
X131319762Y-25835427D02*
X131400714Y-25875903D01*
X131400714Y-25875903D02*
X131441190Y-25916379D01*
X131441190Y-25916379D02*
X131481667Y-25997331D01*
X131481667Y-25997331D02*
X131481667Y-26078284D01*
X131481667Y-26078284D02*
X131441190Y-26199712D01*
X131441190Y-26199712D02*
X130955476Y-26685427D01*
X130955476Y-26685427D02*
X131481667Y-26685427D01*
X131845952Y-26604474D02*
X131886429Y-26644951D01*
X131886429Y-26644951D02*
X131845952Y-26685427D01*
X131845952Y-26685427D02*
X131805476Y-26644951D01*
X131805476Y-26644951D02*
X131845952Y-26604474D01*
X131845952Y-26604474D02*
X131845952Y-26685427D01*
X132210238Y-25916379D02*
X132250714Y-25875903D01*
X132250714Y-25875903D02*
X132331667Y-25835427D01*
X132331667Y-25835427D02*
X132534048Y-25835427D01*
X132534048Y-25835427D02*
X132615000Y-25875903D01*
X132615000Y-25875903D02*
X132655476Y-25916379D01*
X132655476Y-25916379D02*
X132695953Y-25997331D01*
X132695953Y-25997331D02*
X132695953Y-26078284D01*
X132695953Y-26078284D02*
X132655476Y-26199712D01*
X132655476Y-26199712D02*
X132169762Y-26685427D01*
X132169762Y-26685427D02*
X132695953Y-26685427D01*
X133060238Y-26685427D02*
X133060238Y-25835427D01*
X133141191Y-26361617D02*
X133384048Y-26685427D01*
X133384048Y-26118760D02*
X133060238Y-26442570D01*
X220936666Y-6454819D02*
X220936666Y-7169104D01*
X220936666Y-7169104D02*
X220889047Y-7311961D01*
X220889047Y-7311961D02*
X220793809Y-7407200D01*
X220793809Y-7407200D02*
X220650952Y-7454819D01*
X220650952Y-7454819D02*
X220555714Y-7454819D01*
X221460476Y-7454819D02*
X221650952Y-7454819D01*
X221650952Y-7454819D02*
X221746190Y-7407200D01*
X221746190Y-7407200D02*
X221793809Y-7359580D01*
X221793809Y-7359580D02*
X221889047Y-7216723D01*
X221889047Y-7216723D02*
X221936666Y-7026247D01*
X221936666Y-7026247D02*
X221936666Y-6645295D01*
X221936666Y-6645295D02*
X221889047Y-6550057D01*
X221889047Y-6550057D02*
X221841428Y-6502438D01*
X221841428Y-6502438D02*
X221746190Y-6454819D01*
X221746190Y-6454819D02*
X221555714Y-6454819D01*
X221555714Y-6454819D02*
X221460476Y-6502438D01*
X221460476Y-6502438D02*
X221412857Y-6550057D01*
X221412857Y-6550057D02*
X221365238Y-6645295D01*
X221365238Y-6645295D02*
X221365238Y-6883390D01*
X221365238Y-6883390D02*
X221412857Y-6978628D01*
X221412857Y-6978628D02*
X221460476Y-7026247D01*
X221460476Y-7026247D02*
X221555714Y-7073866D01*
X221555714Y-7073866D02*
X221746190Y-7073866D01*
X221746190Y-7073866D02*
X221841428Y-7026247D01*
X221841428Y-7026247D02*
X221889047Y-6978628D01*
X221889047Y-6978628D02*
X221936666Y-6883390D01*
X102936666Y-6454819D02*
X102936666Y-7169104D01*
X102936666Y-7169104D02*
X102889047Y-7311961D01*
X102889047Y-7311961D02*
X102793809Y-7407200D01*
X102793809Y-7407200D02*
X102650952Y-7454819D01*
X102650952Y-7454819D02*
X102555714Y-7454819D01*
X103889047Y-6454819D02*
X103412857Y-6454819D01*
X103412857Y-6454819D02*
X103365238Y-6931009D01*
X103365238Y-6931009D02*
X103412857Y-6883390D01*
X103412857Y-6883390D02*
X103508095Y-6835771D01*
X103508095Y-6835771D02*
X103746190Y-6835771D01*
X103746190Y-6835771D02*
X103841428Y-6883390D01*
X103841428Y-6883390D02*
X103889047Y-6931009D01*
X103889047Y-6931009D02*
X103936666Y-7026247D01*
X103936666Y-7026247D02*
X103936666Y-7264342D01*
X103936666Y-7264342D02*
X103889047Y-7359580D01*
X103889047Y-7359580D02*
X103841428Y-7407200D01*
X103841428Y-7407200D02*
X103746190Y-7454819D01*
X103746190Y-7454819D02*
X103508095Y-7454819D01*
X103508095Y-7454819D02*
X103412857Y-7407200D01*
X103412857Y-7407200D02*
X103365238Y-7359580D01*
X198048095Y-7454819D02*
X198048095Y-8264342D01*
X198048095Y-8264342D02*
X198095714Y-8359580D01*
X198095714Y-8359580D02*
X198143333Y-8407200D01*
X198143333Y-8407200D02*
X198238571Y-8454819D01*
X198238571Y-8454819D02*
X198429047Y-8454819D01*
X198429047Y-8454819D02*
X198524285Y-8407200D01*
X198524285Y-8407200D02*
X198571904Y-8359580D01*
X198571904Y-8359580D02*
X198619523Y-8264342D01*
X198619523Y-8264342D02*
X198619523Y-7454819D01*
X199619523Y-8454819D02*
X199048095Y-8454819D01*
X199333809Y-8454819D02*
X199333809Y-7454819D01*
X199333809Y-7454819D02*
X199238571Y-7597676D01*
X199238571Y-7597676D02*
X199143333Y-7692914D01*
X199143333Y-7692914D02*
X199048095Y-7740533D01*
X194458809Y-35504951D02*
X194580238Y-35545427D01*
X194580238Y-35545427D02*
X194782619Y-35545427D01*
X194782619Y-35545427D02*
X194863571Y-35504951D01*
X194863571Y-35504951D02*
X194904047Y-35464474D01*
X194904047Y-35464474D02*
X194944524Y-35383522D01*
X194944524Y-35383522D02*
X194944524Y-35302570D01*
X194944524Y-35302570D02*
X194904047Y-35221617D01*
X194904047Y-35221617D02*
X194863571Y-35181141D01*
X194863571Y-35181141D02*
X194782619Y-35140665D01*
X194782619Y-35140665D02*
X194620714Y-35100189D01*
X194620714Y-35100189D02*
X194539762Y-35059712D01*
X194539762Y-35059712D02*
X194499285Y-35019236D01*
X194499285Y-35019236D02*
X194458809Y-34938284D01*
X194458809Y-34938284D02*
X194458809Y-34857331D01*
X194458809Y-34857331D02*
X194499285Y-34776379D01*
X194499285Y-34776379D02*
X194539762Y-34735903D01*
X194539762Y-34735903D02*
X194620714Y-34695427D01*
X194620714Y-34695427D02*
X194823095Y-34695427D01*
X194823095Y-34695427D02*
X194944524Y-34735903D01*
X195308809Y-35545427D02*
X195308809Y-34695427D01*
X195308809Y-34695427D02*
X195794524Y-35545427D01*
X195794524Y-35545427D02*
X195794524Y-34695427D01*
X196118333Y-34695427D02*
X196685000Y-34695427D01*
X196685000Y-34695427D02*
X196320714Y-35545427D01*
X197373095Y-34978760D02*
X197373095Y-35545427D01*
X197170714Y-34654951D02*
X196968333Y-35262093D01*
X196968333Y-35262093D02*
X197494524Y-35262093D01*
X197818333Y-35545427D02*
X197818333Y-34695427D01*
X197818333Y-35100189D02*
X198304048Y-35100189D01*
X198304048Y-35545427D02*
X198304048Y-34695427D01*
X199194524Y-35464474D02*
X199154048Y-35504951D01*
X199154048Y-35504951D02*
X199032619Y-35545427D01*
X199032619Y-35545427D02*
X198951667Y-35545427D01*
X198951667Y-35545427D02*
X198830238Y-35504951D01*
X198830238Y-35504951D02*
X198749286Y-35423998D01*
X198749286Y-35423998D02*
X198708809Y-35343046D01*
X198708809Y-35343046D02*
X198668333Y-35181141D01*
X198668333Y-35181141D02*
X198668333Y-35059712D01*
X198668333Y-35059712D02*
X198708809Y-34897808D01*
X198708809Y-34897808D02*
X198749286Y-34816855D01*
X198749286Y-34816855D02*
X198830238Y-34735903D01*
X198830238Y-34735903D02*
X198951667Y-34695427D01*
X198951667Y-34695427D02*
X199032619Y-34695427D01*
X199032619Y-34695427D02*
X199154048Y-34735903D01*
X199154048Y-34735903D02*
X199194524Y-34776379D01*
X199437381Y-34695427D02*
X199923095Y-34695427D01*
X199680238Y-35545427D02*
X199680238Y-34695427D01*
X200165952Y-34776379D02*
X200206428Y-34735903D01*
X200206428Y-34735903D02*
X200287381Y-34695427D01*
X200287381Y-34695427D02*
X200489762Y-34695427D01*
X200489762Y-34695427D02*
X200570714Y-34735903D01*
X200570714Y-34735903D02*
X200611190Y-34776379D01*
X200611190Y-34776379D02*
X200651667Y-34857331D01*
X200651667Y-34857331D02*
X200651667Y-34938284D01*
X200651667Y-34938284D02*
X200611190Y-35059712D01*
X200611190Y-35059712D02*
X200125476Y-35545427D01*
X200125476Y-35545427D02*
X200651667Y-35545427D01*
X201380238Y-34978760D02*
X201380238Y-35545427D01*
X201177857Y-34654951D02*
X200975476Y-35262093D01*
X200975476Y-35262093D02*
X201501667Y-35262093D01*
X202189762Y-34978760D02*
X202189762Y-35545427D01*
X201987381Y-34654951D02*
X201785000Y-35262093D01*
X201785000Y-35262093D02*
X202311191Y-35262093D01*
X202635000Y-35545427D02*
X202635000Y-34695427D01*
X202635000Y-34695427D02*
X203120715Y-35545427D01*
X203120715Y-35545427D02*
X203120715Y-34695427D01*
X56936666Y-6454819D02*
X56936666Y-7169104D01*
X56936666Y-7169104D02*
X56889047Y-7311961D01*
X56889047Y-7311961D02*
X56793809Y-7407200D01*
X56793809Y-7407200D02*
X56650952Y-7454819D01*
X56650952Y-7454819D02*
X56555714Y-7454819D01*
X57317619Y-6454819D02*
X57936666Y-6454819D01*
X57936666Y-6454819D02*
X57603333Y-6835771D01*
X57603333Y-6835771D02*
X57746190Y-6835771D01*
X57746190Y-6835771D02*
X57841428Y-6883390D01*
X57841428Y-6883390D02*
X57889047Y-6931009D01*
X57889047Y-6931009D02*
X57936666Y-7026247D01*
X57936666Y-7026247D02*
X57936666Y-7264342D01*
X57936666Y-7264342D02*
X57889047Y-7359580D01*
X57889047Y-7359580D02*
X57841428Y-7407200D01*
X57841428Y-7407200D02*
X57746190Y-7454819D01*
X57746190Y-7454819D02*
X57460476Y-7454819D01*
X57460476Y-7454819D02*
X57365238Y-7407200D01*
X57365238Y-7407200D02*
X57317619Y-7359580D01*
X5213333Y-24454819D02*
X4880000Y-23978628D01*
X4641905Y-24454819D02*
X4641905Y-23454819D01*
X4641905Y-23454819D02*
X5022857Y-23454819D01*
X5022857Y-23454819D02*
X5118095Y-23502438D01*
X5118095Y-23502438D02*
X5165714Y-23550057D01*
X5165714Y-23550057D02*
X5213333Y-23645295D01*
X5213333Y-23645295D02*
X5213333Y-23788152D01*
X5213333Y-23788152D02*
X5165714Y-23883390D01*
X5165714Y-23883390D02*
X5118095Y-23931009D01*
X5118095Y-23931009D02*
X5022857Y-23978628D01*
X5022857Y-23978628D02*
X4641905Y-23978628D01*
X5784762Y-23883390D02*
X5689524Y-23835771D01*
X5689524Y-23835771D02*
X5641905Y-23788152D01*
X5641905Y-23788152D02*
X5594286Y-23692914D01*
X5594286Y-23692914D02*
X5594286Y-23645295D01*
X5594286Y-23645295D02*
X5641905Y-23550057D01*
X5641905Y-23550057D02*
X5689524Y-23502438D01*
X5689524Y-23502438D02*
X5784762Y-23454819D01*
X5784762Y-23454819D02*
X5975238Y-23454819D01*
X5975238Y-23454819D02*
X6070476Y-23502438D01*
X6070476Y-23502438D02*
X6118095Y-23550057D01*
X6118095Y-23550057D02*
X6165714Y-23645295D01*
X6165714Y-23645295D02*
X6165714Y-23692914D01*
X6165714Y-23692914D02*
X6118095Y-23788152D01*
X6118095Y-23788152D02*
X6070476Y-23835771D01*
X6070476Y-23835771D02*
X5975238Y-23883390D01*
X5975238Y-23883390D02*
X5784762Y-23883390D01*
X5784762Y-23883390D02*
X5689524Y-23931009D01*
X5689524Y-23931009D02*
X5641905Y-23978628D01*
X5641905Y-23978628D02*
X5594286Y-24073866D01*
X5594286Y-24073866D02*
X5594286Y-24264342D01*
X5594286Y-24264342D02*
X5641905Y-24359580D01*
X5641905Y-24359580D02*
X5689524Y-24407200D01*
X5689524Y-24407200D02*
X5784762Y-24454819D01*
X5784762Y-24454819D02*
X5975238Y-24454819D01*
X5975238Y-24454819D02*
X6070476Y-24407200D01*
X6070476Y-24407200D02*
X6118095Y-24359580D01*
X6118095Y-24359580D02*
X6165714Y-24264342D01*
X6165714Y-24264342D02*
X6165714Y-24073866D01*
X6165714Y-24073866D02*
X6118095Y-23978628D01*
X6118095Y-23978628D02*
X6070476Y-23931009D01*
X6070476Y-23931009D02*
X5975238Y-23883390D01*
X10995952Y-25916379D02*
X11036428Y-25875903D01*
X11036428Y-25875903D02*
X11117381Y-25835427D01*
X11117381Y-25835427D02*
X11319762Y-25835427D01*
X11319762Y-25835427D02*
X11400714Y-25875903D01*
X11400714Y-25875903D02*
X11441190Y-25916379D01*
X11441190Y-25916379D02*
X11481667Y-25997331D01*
X11481667Y-25997331D02*
X11481667Y-26078284D01*
X11481667Y-26078284D02*
X11441190Y-26199712D01*
X11441190Y-26199712D02*
X10955476Y-26685427D01*
X10955476Y-26685427D02*
X11481667Y-26685427D01*
X11845952Y-26604474D02*
X11886429Y-26644951D01*
X11886429Y-26644951D02*
X11845952Y-26685427D01*
X11845952Y-26685427D02*
X11805476Y-26644951D01*
X11805476Y-26644951D02*
X11845952Y-26604474D01*
X11845952Y-26604474D02*
X11845952Y-26685427D01*
X12210238Y-25916379D02*
X12250714Y-25875903D01*
X12250714Y-25875903D02*
X12331667Y-25835427D01*
X12331667Y-25835427D02*
X12534048Y-25835427D01*
X12534048Y-25835427D02*
X12615000Y-25875903D01*
X12615000Y-25875903D02*
X12655476Y-25916379D01*
X12655476Y-25916379D02*
X12695953Y-25997331D01*
X12695953Y-25997331D02*
X12695953Y-26078284D01*
X12695953Y-26078284D02*
X12655476Y-26199712D01*
X12655476Y-26199712D02*
X12169762Y-26685427D01*
X12169762Y-26685427D02*
X12695953Y-26685427D01*
X13060238Y-26685427D02*
X13060238Y-25835427D01*
X13141191Y-26361617D02*
X13384048Y-26685427D01*
X13384048Y-26118760D02*
X13060238Y-26442570D01*
X206243333Y-8359580D02*
X206195714Y-8407200D01*
X206195714Y-8407200D02*
X206052857Y-8454819D01*
X206052857Y-8454819D02*
X205957619Y-8454819D01*
X205957619Y-8454819D02*
X205814762Y-8407200D01*
X205814762Y-8407200D02*
X205719524Y-8311961D01*
X205719524Y-8311961D02*
X205671905Y-8216723D01*
X205671905Y-8216723D02*
X205624286Y-8026247D01*
X205624286Y-8026247D02*
X205624286Y-7883390D01*
X205624286Y-7883390D02*
X205671905Y-7692914D01*
X205671905Y-7692914D02*
X205719524Y-7597676D01*
X205719524Y-7597676D02*
X205814762Y-7502438D01*
X205814762Y-7502438D02*
X205957619Y-7454819D01*
X205957619Y-7454819D02*
X206052857Y-7454819D01*
X206052857Y-7454819D02*
X206195714Y-7502438D01*
X206195714Y-7502438D02*
X206243333Y-7550057D01*
X207195714Y-8454819D02*
X206624286Y-8454819D01*
X206910000Y-8454819D02*
X206910000Y-7454819D01*
X206910000Y-7454819D02*
X206814762Y-7597676D01*
X206814762Y-7597676D02*
X206719524Y-7692914D01*
X206719524Y-7692914D02*
X206624286Y-7740533D01*
X205094524Y-12685427D02*
X204608809Y-12685427D01*
X204851666Y-12685427D02*
X204851666Y-11835427D01*
X204851666Y-11835427D02*
X204770714Y-11956855D01*
X204770714Y-11956855D02*
X204689762Y-12037808D01*
X204689762Y-12037808D02*
X204608809Y-12078284D01*
X205620714Y-11835427D02*
X205701667Y-11835427D01*
X205701667Y-11835427D02*
X205782619Y-11875903D01*
X205782619Y-11875903D02*
X205823095Y-11916379D01*
X205823095Y-11916379D02*
X205863571Y-11997331D01*
X205863571Y-11997331D02*
X205904048Y-12159236D01*
X205904048Y-12159236D02*
X205904048Y-12361617D01*
X205904048Y-12361617D02*
X205863571Y-12523522D01*
X205863571Y-12523522D02*
X205823095Y-12604474D01*
X205823095Y-12604474D02*
X205782619Y-12644951D01*
X205782619Y-12644951D02*
X205701667Y-12685427D01*
X205701667Y-12685427D02*
X205620714Y-12685427D01*
X205620714Y-12685427D02*
X205539762Y-12644951D01*
X205539762Y-12644951D02*
X205499286Y-12604474D01*
X205499286Y-12604474D02*
X205458809Y-12523522D01*
X205458809Y-12523522D02*
X205418333Y-12361617D01*
X205418333Y-12361617D02*
X205418333Y-12159236D01*
X205418333Y-12159236D02*
X205458809Y-11997331D01*
X205458809Y-11997331D02*
X205499286Y-11916379D01*
X205499286Y-11916379D02*
X205539762Y-11875903D01*
X205539762Y-11875903D02*
X205620714Y-11835427D01*
X206430238Y-11835427D02*
X206511191Y-11835427D01*
X206511191Y-11835427D02*
X206592143Y-11875903D01*
X206592143Y-11875903D02*
X206632619Y-11916379D01*
X206632619Y-11916379D02*
X206673095Y-11997331D01*
X206673095Y-11997331D02*
X206713572Y-12159236D01*
X206713572Y-12159236D02*
X206713572Y-12361617D01*
X206713572Y-12361617D02*
X206673095Y-12523522D01*
X206673095Y-12523522D02*
X206632619Y-12604474D01*
X206632619Y-12604474D02*
X206592143Y-12644951D01*
X206592143Y-12644951D02*
X206511191Y-12685427D01*
X206511191Y-12685427D02*
X206430238Y-12685427D01*
X206430238Y-12685427D02*
X206349286Y-12644951D01*
X206349286Y-12644951D02*
X206308810Y-12604474D01*
X206308810Y-12604474D02*
X206268333Y-12523522D01*
X206268333Y-12523522D02*
X206227857Y-12361617D01*
X206227857Y-12361617D02*
X206227857Y-12159236D01*
X206227857Y-12159236D02*
X206268333Y-11997331D01*
X206268333Y-11997331D02*
X206308810Y-11916379D01*
X206308810Y-11916379D02*
X206349286Y-11875903D01*
X206349286Y-11875903D02*
X206430238Y-11835427D01*
X207077857Y-12118760D02*
X207077857Y-12685427D01*
X207077857Y-12199712D02*
X207118334Y-12159236D01*
X207118334Y-12159236D02*
X207199286Y-12118760D01*
X207199286Y-12118760D02*
X207320715Y-12118760D01*
X207320715Y-12118760D02*
X207401667Y-12159236D01*
X207401667Y-12159236D02*
X207442143Y-12240189D01*
X207442143Y-12240189D02*
X207442143Y-12685427D01*
X208130239Y-12240189D02*
X207846905Y-12240189D01*
X207846905Y-12685427D02*
X207846905Y-11835427D01*
X207846905Y-11835427D02*
X208251667Y-11835427D01*
X105213333Y-24454819D02*
X104880000Y-23978628D01*
X104641905Y-24454819D02*
X104641905Y-23454819D01*
X104641905Y-23454819D02*
X105022857Y-23454819D01*
X105022857Y-23454819D02*
X105118095Y-23502438D01*
X105118095Y-23502438D02*
X105165714Y-23550057D01*
X105165714Y-23550057D02*
X105213333Y-23645295D01*
X105213333Y-23645295D02*
X105213333Y-23788152D01*
X105213333Y-23788152D02*
X105165714Y-23883390D01*
X105165714Y-23883390D02*
X105118095Y-23931009D01*
X105118095Y-23931009D02*
X105022857Y-23978628D01*
X105022857Y-23978628D02*
X104641905Y-23978628D01*
X105546667Y-23454819D02*
X106165714Y-23454819D01*
X106165714Y-23454819D02*
X105832381Y-23835771D01*
X105832381Y-23835771D02*
X105975238Y-23835771D01*
X105975238Y-23835771D02*
X106070476Y-23883390D01*
X106070476Y-23883390D02*
X106118095Y-23931009D01*
X106118095Y-23931009D02*
X106165714Y-24026247D01*
X106165714Y-24026247D02*
X106165714Y-24264342D01*
X106165714Y-24264342D02*
X106118095Y-24359580D01*
X106118095Y-24359580D02*
X106070476Y-24407200D01*
X106070476Y-24407200D02*
X105975238Y-24454819D01*
X105975238Y-24454819D02*
X105689524Y-24454819D01*
X105689524Y-24454819D02*
X105594286Y-24407200D01*
X105594286Y-24407200D02*
X105546667Y-24359580D01*
X110995952Y-25916379D02*
X111036428Y-25875903D01*
X111036428Y-25875903D02*
X111117381Y-25835427D01*
X111117381Y-25835427D02*
X111319762Y-25835427D01*
X111319762Y-25835427D02*
X111400714Y-25875903D01*
X111400714Y-25875903D02*
X111441190Y-25916379D01*
X111441190Y-25916379D02*
X111481667Y-25997331D01*
X111481667Y-25997331D02*
X111481667Y-26078284D01*
X111481667Y-26078284D02*
X111441190Y-26199712D01*
X111441190Y-26199712D02*
X110955476Y-26685427D01*
X110955476Y-26685427D02*
X111481667Y-26685427D01*
X111845952Y-26604474D02*
X111886429Y-26644951D01*
X111886429Y-26644951D02*
X111845952Y-26685427D01*
X111845952Y-26685427D02*
X111805476Y-26644951D01*
X111805476Y-26644951D02*
X111845952Y-26604474D01*
X111845952Y-26604474D02*
X111845952Y-26685427D01*
X112210238Y-25916379D02*
X112250714Y-25875903D01*
X112250714Y-25875903D02*
X112331667Y-25835427D01*
X112331667Y-25835427D02*
X112534048Y-25835427D01*
X112534048Y-25835427D02*
X112615000Y-25875903D01*
X112615000Y-25875903D02*
X112655476Y-25916379D01*
X112655476Y-25916379D02*
X112695953Y-25997331D01*
X112695953Y-25997331D02*
X112695953Y-26078284D01*
X112695953Y-26078284D02*
X112655476Y-26199712D01*
X112655476Y-26199712D02*
X112169762Y-26685427D01*
X112169762Y-26685427D02*
X112695953Y-26685427D01*
X113060238Y-26685427D02*
X113060238Y-25835427D01*
X113141191Y-26361617D02*
X113384048Y-26685427D01*
X113384048Y-26118760D02*
X113060238Y-26442570D01*
X171936666Y-6454819D02*
X171936666Y-7169104D01*
X171936666Y-7169104D02*
X171889047Y-7311961D01*
X171889047Y-7311961D02*
X171793809Y-7407200D01*
X171793809Y-7407200D02*
X171650952Y-7454819D01*
X171650952Y-7454819D02*
X171555714Y-7454819D01*
X172555714Y-6883390D02*
X172460476Y-6835771D01*
X172460476Y-6835771D02*
X172412857Y-6788152D01*
X172412857Y-6788152D02*
X172365238Y-6692914D01*
X172365238Y-6692914D02*
X172365238Y-6645295D01*
X172365238Y-6645295D02*
X172412857Y-6550057D01*
X172412857Y-6550057D02*
X172460476Y-6502438D01*
X172460476Y-6502438D02*
X172555714Y-6454819D01*
X172555714Y-6454819D02*
X172746190Y-6454819D01*
X172746190Y-6454819D02*
X172841428Y-6502438D01*
X172841428Y-6502438D02*
X172889047Y-6550057D01*
X172889047Y-6550057D02*
X172936666Y-6645295D01*
X172936666Y-6645295D02*
X172936666Y-6692914D01*
X172936666Y-6692914D02*
X172889047Y-6788152D01*
X172889047Y-6788152D02*
X172841428Y-6835771D01*
X172841428Y-6835771D02*
X172746190Y-6883390D01*
X172746190Y-6883390D02*
X172555714Y-6883390D01*
X172555714Y-6883390D02*
X172460476Y-6931009D01*
X172460476Y-6931009D02*
X172412857Y-6978628D01*
X172412857Y-6978628D02*
X172365238Y-7073866D01*
X172365238Y-7073866D02*
X172365238Y-7264342D01*
X172365238Y-7264342D02*
X172412857Y-7359580D01*
X172412857Y-7359580D02*
X172460476Y-7407200D01*
X172460476Y-7407200D02*
X172555714Y-7454819D01*
X172555714Y-7454819D02*
X172746190Y-7454819D01*
X172746190Y-7454819D02*
X172841428Y-7407200D01*
X172841428Y-7407200D02*
X172889047Y-7359580D01*
X172889047Y-7359580D02*
X172936666Y-7264342D01*
X172936666Y-7264342D02*
X172936666Y-7073866D01*
X172936666Y-7073866D02*
X172889047Y-6978628D01*
X172889047Y-6978628D02*
X172841428Y-6931009D01*
X172841428Y-6931009D02*
X172746190Y-6883390D01*
X221083333Y-21359580D02*
X221035714Y-21407200D01*
X221035714Y-21407200D02*
X220892857Y-21454819D01*
X220892857Y-21454819D02*
X220797619Y-21454819D01*
X220797619Y-21454819D02*
X220654762Y-21407200D01*
X220654762Y-21407200D02*
X220559524Y-21311961D01*
X220559524Y-21311961D02*
X220511905Y-21216723D01*
X220511905Y-21216723D02*
X220464286Y-21026247D01*
X220464286Y-21026247D02*
X220464286Y-20883390D01*
X220464286Y-20883390D02*
X220511905Y-20692914D01*
X220511905Y-20692914D02*
X220559524Y-20597676D01*
X220559524Y-20597676D02*
X220654762Y-20502438D01*
X220654762Y-20502438D02*
X220797619Y-20454819D01*
X220797619Y-20454819D02*
X220892857Y-20454819D01*
X220892857Y-20454819D02*
X221035714Y-20502438D01*
X221035714Y-20502438D02*
X221083333Y-20550057D01*
X221464286Y-20550057D02*
X221511905Y-20502438D01*
X221511905Y-20502438D02*
X221607143Y-20454819D01*
X221607143Y-20454819D02*
X221845238Y-20454819D01*
X221845238Y-20454819D02*
X221940476Y-20502438D01*
X221940476Y-20502438D02*
X221988095Y-20550057D01*
X221988095Y-20550057D02*
X222035714Y-20645295D01*
X222035714Y-20645295D02*
X222035714Y-20740533D01*
X222035714Y-20740533D02*
X221988095Y-20883390D01*
X221988095Y-20883390D02*
X221416667Y-21454819D01*
X221416667Y-21454819D02*
X222035714Y-21454819D01*
X218841667Y-25685427D02*
X218355952Y-25685427D01*
X218598809Y-25685427D02*
X218598809Y-24835427D01*
X218598809Y-24835427D02*
X218517857Y-24956855D01*
X218517857Y-24956855D02*
X218436905Y-25037808D01*
X218436905Y-25037808D02*
X218355952Y-25078284D01*
X219367857Y-24835427D02*
X219448810Y-24835427D01*
X219448810Y-24835427D02*
X219529762Y-24875903D01*
X219529762Y-24875903D02*
X219570238Y-24916379D01*
X219570238Y-24916379D02*
X219610714Y-24997331D01*
X219610714Y-24997331D02*
X219651191Y-25159236D01*
X219651191Y-25159236D02*
X219651191Y-25361617D01*
X219651191Y-25361617D02*
X219610714Y-25523522D01*
X219610714Y-25523522D02*
X219570238Y-25604474D01*
X219570238Y-25604474D02*
X219529762Y-25644951D01*
X219529762Y-25644951D02*
X219448810Y-25685427D01*
X219448810Y-25685427D02*
X219367857Y-25685427D01*
X219367857Y-25685427D02*
X219286905Y-25644951D01*
X219286905Y-25644951D02*
X219246429Y-25604474D01*
X219246429Y-25604474D02*
X219205952Y-25523522D01*
X219205952Y-25523522D02*
X219165476Y-25361617D01*
X219165476Y-25361617D02*
X219165476Y-25159236D01*
X219165476Y-25159236D02*
X219205952Y-24997331D01*
X219205952Y-24997331D02*
X219246429Y-24916379D01*
X219246429Y-24916379D02*
X219286905Y-24875903D01*
X219286905Y-24875903D02*
X219367857Y-24835427D01*
X220379762Y-25118760D02*
X220379762Y-25685427D01*
X220015476Y-25118760D02*
X220015476Y-25563998D01*
X220015476Y-25563998D02*
X220055953Y-25644951D01*
X220055953Y-25644951D02*
X220136905Y-25685427D01*
X220136905Y-25685427D02*
X220258334Y-25685427D01*
X220258334Y-25685427D02*
X220339286Y-25644951D01*
X220339286Y-25644951D02*
X220379762Y-25604474D01*
X221067858Y-25240189D02*
X220784524Y-25240189D01*
X220784524Y-25685427D02*
X220784524Y-24835427D01*
X220784524Y-24835427D02*
X221189286Y-24835427D01*
X221310715Y-25766379D02*
X221958334Y-25766379D01*
X222605953Y-25685427D02*
X222120238Y-25685427D01*
X222363095Y-25685427D02*
X222363095Y-24835427D01*
X222363095Y-24835427D02*
X222282143Y-24956855D01*
X222282143Y-24956855D02*
X222201191Y-25037808D01*
X222201191Y-25037808D02*
X222120238Y-25078284D01*
X223334524Y-24835427D02*
X223172619Y-24835427D01*
X223172619Y-24835427D02*
X223091667Y-24875903D01*
X223091667Y-24875903D02*
X223051191Y-24916379D01*
X223051191Y-24916379D02*
X222970238Y-25037808D01*
X222970238Y-25037808D02*
X222929762Y-25199712D01*
X222929762Y-25199712D02*
X222929762Y-25523522D01*
X222929762Y-25523522D02*
X222970238Y-25604474D01*
X222970238Y-25604474D02*
X223010715Y-25644951D01*
X223010715Y-25644951D02*
X223091667Y-25685427D01*
X223091667Y-25685427D02*
X223253572Y-25685427D01*
X223253572Y-25685427D02*
X223334524Y-25644951D01*
X223334524Y-25644951D02*
X223375000Y-25604474D01*
X223375000Y-25604474D02*
X223415477Y-25523522D01*
X223415477Y-25523522D02*
X223415477Y-25321141D01*
X223415477Y-25321141D02*
X223375000Y-25240189D01*
X223375000Y-25240189D02*
X223334524Y-25199712D01*
X223334524Y-25199712D02*
X223253572Y-25159236D01*
X223253572Y-25159236D02*
X223091667Y-25159236D01*
X223091667Y-25159236D02*
X223010715Y-25199712D01*
X223010715Y-25199712D02*
X222970238Y-25240189D01*
X222970238Y-25240189D02*
X222929762Y-25321141D01*
X223658334Y-24835427D02*
X223941667Y-25685427D01*
X223941667Y-25685427D02*
X224225001Y-24835427D01*
X218319048Y-21573866D02*
X219080953Y-21573866D01*
X218700000Y-21954819D02*
X218700000Y-21192914D01*
X189469523Y-4454819D02*
X189136190Y-3978628D01*
X188898095Y-4454819D02*
X188898095Y-3454819D01*
X188898095Y-3454819D02*
X189279047Y-3454819D01*
X189279047Y-3454819D02*
X189374285Y-3502438D01*
X189374285Y-3502438D02*
X189421904Y-3550057D01*
X189421904Y-3550057D02*
X189469523Y-3645295D01*
X189469523Y-3645295D02*
X189469523Y-3788152D01*
X189469523Y-3788152D02*
X189421904Y-3883390D01*
X189421904Y-3883390D02*
X189374285Y-3931009D01*
X189374285Y-3931009D02*
X189279047Y-3978628D01*
X189279047Y-3978628D02*
X188898095Y-3978628D01*
X189898095Y-4454819D02*
X189898095Y-3454819D01*
X189898095Y-3454819D02*
X190469523Y-4454819D01*
X190469523Y-4454819D02*
X190469523Y-3454819D01*
X191469523Y-4454819D02*
X190898095Y-4454819D01*
X191183809Y-4454819D02*
X191183809Y-3454819D01*
X191183809Y-3454819D02*
X191088571Y-3597676D01*
X191088571Y-3597676D02*
X190993333Y-3692914D01*
X190993333Y-3692914D02*
X190898095Y-3740533D01*
%TO.C,J1*%
X8550000Y-8550000D02*
X13990000Y-8550000D01*
X13990000Y-21610000D01*
X8550000Y-21610000D01*
X8550000Y-8550000D01*
%TO.C,J4*%
X77550000Y-8550000D02*
X82990000Y-8550000D01*
X82990000Y-21610000D01*
X77550000Y-21610000D01*
X77550000Y-8550000D01*
%TO.C,J7*%
X146550000Y-8550000D02*
X151990000Y-8550000D01*
X151990000Y-21610000D01*
X146550000Y-21610000D01*
X146550000Y-8550000D01*
%TO.C,D1*%
X100800000Y-28400000D02*
X103200000Y-28400000D01*
%TO.C,J2*%
X31550000Y-8550000D02*
X36990000Y-8550000D01*
X36990000Y-21610000D01*
X31550000Y-21610000D01*
X31550000Y-8550000D01*
%TO.C,D6*%
X78800000Y-28400000D02*
X81200000Y-28400000D01*
%TO.C,D3*%
X92800000Y-28400000D02*
X95200000Y-28400000D01*
%TO.C,D7*%
X74800000Y-28400000D02*
X77200000Y-28400000D01*
%TO.C,D8*%
X70800000Y-28400000D02*
X73200000Y-28400000D01*
%TO.C,SW1*%
X172800000Y-23200000D02*
X177200000Y-23200000D01*
X177200000Y-34420000D01*
X172800000Y-34420000D01*
X172800000Y-23200000D01*
X174400000Y-27100000D02*
X175600000Y-27100000D01*
X175600000Y-30520000D01*
X174400000Y-30520000D01*
X174400000Y-27100000D01*
%TO.C,D9*%
X220400000Y-28800000D02*
X220400000Y-31200000D01*
%TO.C,D5*%
X82800000Y-28400000D02*
X85200000Y-28400000D01*
%TO.C,J6*%
X123550000Y-8550000D02*
X128990000Y-8550000D01*
X128990000Y-21610000D01*
X123550000Y-21610000D01*
X123550000Y-8550000D01*
%TO.C,J9*%
X218550000Y-8550000D02*
X223990000Y-8550000D01*
X223990000Y-13990000D01*
X218550000Y-13990000D01*
X218550000Y-8550000D01*
%TO.C,J5*%
X100550000Y-8550000D02*
X105990000Y-8550000D01*
X105990000Y-21610000D01*
X100550000Y-21610000D01*
X100550000Y-8550000D01*
%TO.C,U1*%
X196200000Y-8900000D02*
X201420000Y-8900000D01*
X201420000Y-33960000D01*
X196200000Y-33960000D01*
X196200000Y-8900000D01*
X197940000Y-11270000D02*
G75*
G02*
X197140000Y-11270000I-400000J0D01*
G01*
X197140000Y-11270000D02*
G75*
G02*
X197940000Y-11270000I400000J0D01*
G01*
%TO.C,J3*%
X54550000Y-8550000D02*
X59990000Y-8550000D01*
X59990000Y-21610000D01*
X54550000Y-21610000D01*
X54550000Y-8550000D01*
%TO.C,D2*%
X96800000Y-28400000D02*
X99200000Y-28400000D01*
%TO.C,J8*%
X169550000Y-8550000D02*
X174990000Y-8550000D01*
X174990000Y-21610000D01*
X169550000Y-21610000D01*
X169550000Y-8550000D01*
%TO.C,D4*%
X88800000Y-28400000D02*
X91200000Y-28400000D01*
%TD*%
%LPC*%
D11*
%TO.C,R6*%
X48380000Y-24000000D03*
D12*
X56000000Y-24000000D03*
%TD*%
D13*
%TO.C,*%
X4000000Y-36000000D03*
%TD*%
D14*
%TO.C,J1*%
X10000000Y-10000000D03*
D15*
X12540000Y-10000000D03*
X10000000Y-12540000D03*
X12540000Y-12540000D03*
X10000000Y-15080000D03*
X12540000Y-15080000D03*
X10000000Y-17620000D03*
X12540000Y-17620000D03*
X10000000Y-20160000D03*
X12540000Y-20160000D03*
%TD*%
D11*
%TO.C,R7*%
X28380000Y-24000000D03*
D12*
X36000000Y-24000000D03*
%TD*%
D11*
%TO.C,R5*%
X68380000Y-24000000D03*
D12*
X76000000Y-24000000D03*
%TD*%
D14*
%TO.C,J4*%
X79000000Y-10000000D03*
D15*
X81540000Y-10000000D03*
X79000000Y-12540000D03*
X81540000Y-12540000D03*
X79000000Y-15080000D03*
X81540000Y-15080000D03*
X79000000Y-17620000D03*
X81540000Y-17620000D03*
X79000000Y-20160000D03*
X81540000Y-20160000D03*
%TD*%
D14*
%TO.C,J7*%
X148000000Y-10000000D03*
D15*
X150540000Y-10000000D03*
X148000000Y-12540000D03*
X150540000Y-12540000D03*
X148000000Y-15080000D03*
X150540000Y-15080000D03*
X148000000Y-17620000D03*
X150540000Y-17620000D03*
X148000000Y-20160000D03*
X150540000Y-20160000D03*
%TD*%
D11*
%TO.C,R4*%
X88380000Y-24000000D03*
D12*
X96000000Y-24000000D03*
%TD*%
D11*
%TO.C,D1*%
X102000000Y-30000000D03*
D12*
X102000000Y-32540000D03*
%TD*%
D11*
%TO.C,R1*%
X148380000Y-24000000D03*
D12*
X156000000Y-24000000D03*
%TD*%
D14*
%TO.C,J2*%
X33000000Y-10000000D03*
D15*
X35540000Y-10000000D03*
X33000000Y-12540000D03*
X35540000Y-12540000D03*
X33000000Y-15080000D03*
X35540000Y-15080000D03*
X33000000Y-17620000D03*
X35540000Y-17620000D03*
X33000000Y-20160000D03*
X35540000Y-20160000D03*
%TD*%
D11*
%TO.C,D6*%
X80000000Y-30000000D03*
D12*
X80000000Y-32540000D03*
%TD*%
D11*
%TO.C,R9*%
X211000000Y-30000000D03*
D12*
X218620000Y-30000000D03*
%TD*%
D11*
%TO.C,D3*%
X94000000Y-30000000D03*
D12*
X94000000Y-32540000D03*
%TD*%
D11*
%TO.C,D7*%
X76000000Y-30000000D03*
D12*
X76000000Y-32540000D03*
%TD*%
D11*
%TO.C,D8*%
X72000000Y-30000000D03*
D12*
X72000000Y-32540000D03*
%TD*%
D11*
%TO.C,R10*%
X182000000Y-22000000D03*
D12*
X189620000Y-22000000D03*
%TD*%
D13*
%TO.C,*%
X231000000Y-4000000D03*
%TD*%
D11*
%TO.C,SW1*%
X175000000Y-25000000D03*
D12*
X175000000Y-32620000D03*
%TD*%
D11*
%TO.C,D9*%
X222000000Y-30000000D03*
D12*
X224540000Y-30000000D03*
%TD*%
D11*
%TO.C,D5*%
X84000000Y-30000000D03*
D12*
X84000000Y-32540000D03*
%TD*%
D14*
%TO.C,J6*%
X125000000Y-10000000D03*
D15*
X127540000Y-10000000D03*
X125000000Y-12540000D03*
X127540000Y-12540000D03*
X125000000Y-15080000D03*
X127540000Y-15080000D03*
X125000000Y-17620000D03*
X127540000Y-17620000D03*
X125000000Y-20160000D03*
X127540000Y-20160000D03*
%TD*%
D11*
%TO.C,R2*%
X128380000Y-24000000D03*
D12*
X136000000Y-24000000D03*
%TD*%
D14*
%TO.C,J9*%
X220000000Y-10000000D03*
D15*
X222540000Y-10000000D03*
X220000000Y-12540000D03*
X222540000Y-12540000D03*
%TD*%
D14*
%TO.C,J5*%
X102000000Y-10000000D03*
D15*
X104540000Y-10000000D03*
X102000000Y-12540000D03*
X104540000Y-12540000D03*
X102000000Y-15080000D03*
X104540000Y-15080000D03*
X102000000Y-17620000D03*
X104540000Y-17620000D03*
X102000000Y-20160000D03*
X104540000Y-20160000D03*
%TD*%
D14*
%TO.C,U1*%
X195000000Y-10000000D03*
D15*
X195000000Y-12540000D03*
X195000000Y-15080000D03*
X195000000Y-17620000D03*
X195000000Y-20160000D03*
X195000000Y-22700000D03*
X195000000Y-25240000D03*
X195000000Y-27780000D03*
X195000000Y-30320000D03*
X195000000Y-32860000D03*
X202620000Y-32860000D03*
X202620000Y-30320000D03*
X202620000Y-27780000D03*
X202620000Y-25240000D03*
X202620000Y-22700000D03*
X202620000Y-20160000D03*
X202620000Y-17620000D03*
X202620000Y-15080000D03*
X202620000Y-12540000D03*
X202620000Y-10000000D03*
%TD*%
D14*
%TO.C,J3*%
X56000000Y-10000000D03*
D15*
X58540000Y-10000000D03*
X56000000Y-12540000D03*
X58540000Y-12540000D03*
X56000000Y-15080000D03*
X58540000Y-15080000D03*
X56000000Y-17620000D03*
X58540000Y-17620000D03*
X56000000Y-20160000D03*
X58540000Y-20160000D03*
%TD*%
D11*
%TO.C,R8*%
X8380000Y-24000000D03*
D12*
X16000000Y-24000000D03*
%TD*%
D13*
%TO.C,*%
X231000000Y-36000000D03*
%TD*%
D11*
%TO.C,C1*%
X205160000Y-10000000D03*
D12*
X207660000Y-10000000D03*
%TD*%
D11*
%TO.C,R3*%
X108380000Y-24000000D03*
D12*
X116000000Y-24000000D03*
%TD*%
D13*
%TO.C,*%
X4000000Y-4000000D03*
%TD*%
D11*
%TO.C,D2*%
X98000000Y-30000000D03*
D12*
X98000000Y-32540000D03*
%TD*%
D14*
%TO.C,J8*%
X171000000Y-10000000D03*
D15*
X173540000Y-10000000D03*
X171000000Y-12540000D03*
X173540000Y-12540000D03*
X171000000Y-15080000D03*
X173540000Y-15080000D03*
X171000000Y-17620000D03*
X173540000Y-17620000D03*
X171000000Y-20160000D03*
X173540000Y-20160000D03*
%TD*%
D11*
%TO.C,C2*%
X220000000Y-23000000D03*
D12*
X222500000Y-23000000D03*
%TD*%
D11*
%TO.C,D4*%
X90000000Y-30000000D03*
D12*
X90000000Y-32540000D03*
%TD*%
D11*
%TO.C,RN1*%
X180000000Y-6000000D03*
D12*
X182540000Y-6000000D03*
X185080000Y-6000000D03*
X187620000Y-6000000D03*
X190160000Y-6000000D03*
X192700000Y-6000000D03*
X195240000Y-6000000D03*
X197780000Y-6000000D03*
X200320000Y-6000000D03*
%TD*%
%LPD*%
M02*
