M48
; DRILL file KiCad 10.0.7 date 2026-10-07T15:21:03
; FORMAT={-:-/ absolute / metric / decimal}
; #@! TF.CreationDate,2026-10-07T15:21:03+02:00
; #@! TF.GenerationSoftware,Kicad,Pcbnew,10.0.7
; #@! TF.FileFunction,Plated,1,2,PTH
FMAT,2
METRIC
; #@! TA.AperFunction,Plated,PTH,ViaDrill
T1C0.300
; #@! TA.AperFunction,Plated,PTH,ComponentDrill
T2C0.800
; #@! TA.AperFunction,Plated,PTH,ComponentDrill
T3C0.900
%
G90
G05
T1
X9.172Y-7.605
X14.347Y-19.267
X14.623Y-21.291
X23.121Y-15.1
X29.173Y-12.507
X30.292Y-9.304
X31.502Y-16.972
X31.605Y-18.476
X37.939Y-21.254
X41.901Y-16.369
X42.642Y-17.028
X53.632Y-10.0
X59.427Y-7.391
X61.331Y-18.067
X64.399Y-12.54
X66.979Y-15.521
X75.732Y-15.696
X76.461Y-18.094
X76.632Y-10.0
X76.837Y-19.188
X77.19Y-14.769
X83.712Y-18.475
X85.031Y-17.466
X86.044Y-15.1
X92.555Y-7.748
X93.033Y-20.16
X98.383Y-18.603
X100.316Y-12.103
X100.353Y-10.0
X109.429Y-12.151
X110.408Y-12.396
X110.511Y-18.309
X122.242Y-8.119
X122.632Y-10.0
X130.174Y-10.292
X130.174Y-11.373
X131.383Y-17.914
X134.449Y-7.828
X134.982Y-15.101
X135.857Y-7.792
X140.937Y-7.812
X142.262Y-7.819
X142.788Y-10.292
X145.03Y-9.398
X148.78Y-6.838
X151.64Y-7.649
X152.615Y-5.111
X155.954Y-9.578
X159.45Y-15.1
X165.938Y-5.492
X166.776Y-6.061
X176.389Y-23.546
X180.717Y-29.36
X183.442Y-8.697
X186.86Y-10.978
X192.316Y-13.441
X192.692Y-12.475
X196.829Y-9.348
X197.356Y-20.16
X198.143Y-29.085
X200.237Y-33.109
X205.128Y-34.072
T2
X8.38Y-24.0
X16.0Y-24.0
X28.38Y-24.0
X36.0Y-24.0
X48.38Y-24.0
X56.0Y-24.0
X68.38Y-24.0
X72.0Y-30.0
X72.0Y-32.54
X76.0Y-24.0
X76.0Y-30.0
X76.0Y-32.54
X80.0Y-30.0
X80.0Y-32.54
X84.0Y-30.0
X84.0Y-32.54
X88.38Y-24.0
X90.0Y-30.0
X90.0Y-32.54
X94.0Y-30.0
X94.0Y-32.54
X96.0Y-24.0
X98.0Y-30.0
X98.0Y-32.54
X102.0Y-30.0
X102.0Y-32.54
X108.38Y-24.0
X116.0Y-24.0
X128.38Y-24.0
X136.0Y-24.0
X148.38Y-24.0
X156.0Y-24.0
X175.0Y-25.0
X175.0Y-32.62
X180.0Y-6.0
X182.0Y-22.0
X182.54Y-6.0
X185.08Y-6.0
X187.62Y-6.0
X189.62Y-22.0
X190.16Y-6.0
X192.7Y-6.0
X195.24Y-6.0
X197.78Y-6.0
X200.32Y-6.0
X205.16Y-10.0
X207.66Y-10.0
X211.0Y-30.0
X218.62Y-30.0
X220.0Y-23.0
X222.0Y-30.0
X222.5Y-23.0
X224.54Y-30.0
T3
X10.0Y-10.0
X10.0Y-12.54
X10.0Y-15.08
X10.0Y-17.62
X10.0Y-20.16
X12.54Y-10.0
X12.54Y-12.54
X12.54Y-15.08
X12.54Y-17.62
X12.54Y-20.16
X33.0Y-10.0
X33.0Y-12.54
X33.0Y-15.08
X33.0Y-17.62
X33.0Y-20.16
X35.54Y-10.0
X35.54Y-12.54
X35.54Y-15.08
X35.54Y-17.62
X35.54Y-20.16
X56.0Y-10.0
X56.0Y-12.54
X56.0Y-15.08
X56.0Y-17.62
X56.0Y-20.16
X58.54Y-10.0
X58.54Y-12.54
X58.54Y-15.08
X58.54Y-17.62
X58.54Y-20.16
X79.0Y-10.0
X79.0Y-12.54
X79.0Y-15.08
X79.0Y-17.62
X79.0Y-20.16
X81.54Y-10.0
X81.54Y-12.54
X81.54Y-15.08
X81.54Y-17.62
X81.54Y-20.16
X102.0Y-10.0
X102.0Y-12.54
X102.0Y-15.08
X102.0Y-17.62
X102.0Y-20.16
X104.54Y-10.0
X104.54Y-12.54
X104.54Y-15.08
X104.54Y-17.62
X104.54Y-20.16
X125.0Y-10.0
X125.0Y-12.54
X125.0Y-15.08
X125.0Y-17.62
X125.0Y-20.16
X127.54Y-10.0
X127.54Y-12.54
X127.54Y-15.08
X127.54Y-17.62
X127.54Y-20.16
X148.0Y-10.0
X148.0Y-12.54
X148.0Y-15.08
X148.0Y-17.62
X148.0Y-20.16
X150.54Y-10.0
X150.54Y-12.54
X150.54Y-15.08
X150.54Y-17.62
X150.54Y-20.16
X171.0Y-10.0
X171.0Y-12.54
X171.0Y-15.08
X171.0Y-17.62
X171.0Y-20.16
X173.54Y-10.0
X173.54Y-12.54
X173.54Y-15.08
X173.54Y-17.62
X173.54Y-20.16
X195.0Y-10.0
X195.0Y-12.54
X195.0Y-15.08
X195.0Y-17.62
X195.0Y-20.16
X195.0Y-22.7
X195.0Y-25.24
X195.0Y-27.78
X195.0Y-30.32
X195.0Y-32.86
X202.62Y-10.0
X202.62Y-12.54
X202.62Y-15.08
X202.62Y-17.62
X202.62Y-20.16
X202.62Y-22.7
X202.62Y-25.24
X202.62Y-27.78
X202.62Y-30.32
X202.62Y-32.86
X220.0Y-10.0
X220.0Y-12.54
X222.54Y-10.0
X222.54Y-12.54
M30
