%TF.GenerationSoftware,KiCad,Pcbnew,10.0.7*%
%TF.CreationDate,2026-10-07T15:21:03+02:00*%
%TF.ProjectId,data_bus_rev_a,64617461-5f62-4757-935f-7265765f612e,rev?*%
%TF.SameCoordinates,Original*%
%TF.FileFunction,Copper,L1,Top*%
%TF.FilePolarity,Positive*%
%FSLAX46Y46*%
G04 Gerber Fmt 4.6, Leading zero omitted, Abs format (unit mm)*
G04 Created by KiCad (PCBNEW 10.0.7) date 2026-10-07 15:21:03*
%MOMM*%
%LPD*%
G01*
G04 APERTURE LIST*
%TA.AperFunction,ComponentPad*%
%ADD10R,1.600000X1.600000*%
%TD*%
%TA.AperFunction,ComponentPad*%
%ADD11C,1.600000*%
%TD*%
%TA.AperFunction,ComponentPad*%
%ADD12R,1.800000X1.800000*%
%TD*%
%TA.AperFunction,ComponentPad*%
%ADD13C,1.800000*%
%TD*%
%TA.AperFunction,ViaPad*%
%ADD14C,0.700000*%
%TD*%
%TA.AperFunction,Conductor*%
%ADD15C,0.300000*%
%TD*%
%TA.AperFunction,Conductor*%
%ADD16C,0.225000*%
%TD*%
%TA.AperFunction,Conductor*%
%ADD17C,0.600000*%
%TD*%
G04 APERTURE END LIST*
D10*
%TO.P,R6,1*%
%TO.N,LED_D5_DRIVE*%
X48380000Y-24000000D03*
D11*
%TO.P,R6,2*%
%TO.N,LED_D5_A*%
X56000000Y-24000000D03*
%TD*%
D12*
%TO.P,J1,1*%
%TO.N,D0*%
X10000000Y-10000000D03*
D13*
%TO.P,J1,2*%
%TO.N,D1*%
X12540000Y-10000000D03*
%TO.P,J1,3*%
%TO.N,D2*%
X10000000Y-12540000D03*
%TO.P,J1,4*%
%TO.N,D3*%
X12540000Y-12540000D03*
%TO.P,J1,5*%
%TO.N,D4*%
X10000000Y-15080000D03*
%TO.P,J1,6*%
%TO.N,D5*%
X12540000Y-15080000D03*
%TO.P,J1,7*%
%TO.N,D6*%
X10000000Y-17620000D03*
%TO.P,J1,8*%
%TO.N,D7*%
X12540000Y-17620000D03*
%TO.P,J1,9*%
%TO.N,GND*%
X10000000Y-20160000D03*
%TO.P,J1,10*%
X12540000Y-20160000D03*
%TD*%
D10*
%TO.P,R7,1*%
%TO.N,LED_D6_DRIVE*%
X28380000Y-24000000D03*
D11*
%TO.P,R7,2*%
%TO.N,LED_D6_A*%
X36000000Y-24000000D03*
%TD*%
D10*
%TO.P,R5,1*%
%TO.N,LED_D4_DRIVE*%
X68380000Y-24000000D03*
D11*
%TO.P,R5,2*%
%TO.N,LED_D4_A*%
X76000000Y-24000000D03*
%TD*%
D12*
%TO.P,J4,1*%
%TO.N,D0*%
X79000000Y-10000000D03*
D13*
%TO.P,J4,2*%
%TO.N,D1*%
X81540000Y-10000000D03*
%TO.P,J4,3*%
%TO.N,D2*%
X79000000Y-12540000D03*
%TO.P,J4,4*%
%TO.N,D3*%
X81540000Y-12540000D03*
%TO.P,J4,5*%
%TO.N,D4*%
X79000000Y-15080000D03*
%TO.P,J4,6*%
%TO.N,D5*%
X81540000Y-15080000D03*
%TO.P,J4,7*%
%TO.N,D6*%
X79000000Y-17620000D03*
%TO.P,J4,8*%
%TO.N,D7*%
X81540000Y-17620000D03*
%TO.P,J4,9*%
%TO.N,GND*%
X79000000Y-20160000D03*
%TO.P,J4,10*%
X81540000Y-20160000D03*
%TD*%
D12*
%TO.P,J7,1*%
%TO.N,D0*%
X148000000Y-10000000D03*
D13*
%TO.P,J7,2*%
%TO.N,D1*%
X150540000Y-10000000D03*
%TO.P,J7,3*%
%TO.N,D2*%
X148000000Y-12540000D03*
%TO.P,J7,4*%
%TO.N,D3*%
X150540000Y-12540000D03*
%TO.P,J7,5*%
%TO.N,D4*%
X148000000Y-15080000D03*
%TO.P,J7,6*%
%TO.N,D5*%
X150540000Y-15080000D03*
%TO.P,J7,7*%
%TO.N,D6*%
X148000000Y-17620000D03*
%TO.P,J7,8*%
%TO.N,D7*%
X150540000Y-17620000D03*
%TO.P,J7,9*%
%TO.N,GND*%
X148000000Y-20160000D03*
%TO.P,J7,10*%
X150540000Y-20160000D03*
%TD*%
D10*
%TO.P,R4,1*%
%TO.N,LED_D3_DRIVE*%
X88380000Y-24000000D03*
D11*
%TO.P,R4,2*%
%TO.N,LED_D3_A*%
X96000000Y-24000000D03*
%TD*%
D10*
%TO.P,D1,1*%
%TO.N,GND*%
X102000000Y-30000000D03*
D11*
%TO.P,D1,2*%
%TO.N,LED_D0_A*%
X102000000Y-32540000D03*
%TD*%
D10*
%TO.P,R1,1*%
%TO.N,LED_D0_DRIVE*%
X148380000Y-24000000D03*
D11*
%TO.P,R1,2*%
%TO.N,LED_D0_A*%
X156000000Y-24000000D03*
%TD*%
D12*
%TO.P,J2,1*%
%TO.N,D0*%
X33000000Y-10000000D03*
D13*
%TO.P,J2,2*%
%TO.N,D1*%
X35540000Y-10000000D03*
%TO.P,J2,3*%
%TO.N,D2*%
X33000000Y-12540000D03*
%TO.P,J2,4*%
%TO.N,D3*%
X35540000Y-12540000D03*
%TO.P,J2,5*%
%TO.N,D4*%
X33000000Y-15080000D03*
%TO.P,J2,6*%
%TO.N,D5*%
X35540000Y-15080000D03*
%TO.P,J2,7*%
%TO.N,D6*%
X33000000Y-17620000D03*
%TO.P,J2,8*%
%TO.N,D7*%
X35540000Y-17620000D03*
%TO.P,J2,9*%
%TO.N,GND*%
X33000000Y-20160000D03*
%TO.P,J2,10*%
X35540000Y-20160000D03*
%TD*%
D10*
%TO.P,D6,1*%
%TO.N,GND*%
X80000000Y-30000000D03*
D11*
%TO.P,D6,2*%
%TO.N,LED_D5_A*%
X80000000Y-32540000D03*
%TD*%
D10*
%TO.P,R9,1*%
%TO.N,+5V*%
X211000000Y-30000000D03*
D11*
%TO.P,R9,2*%
%TO.N,LED_PWR_A*%
X218620000Y-30000000D03*
%TD*%
D10*
%TO.P,D3,1*%
%TO.N,GND*%
X94000000Y-30000000D03*
D11*
%TO.P,D3,2*%
%TO.N,LED_D2_A*%
X94000000Y-32540000D03*
%TD*%
D10*
%TO.P,D7,1*%
%TO.N,GND*%
X76000000Y-30000000D03*
D11*
%TO.P,D7,2*%
%TO.N,LED_D6_A*%
X76000000Y-32540000D03*
%TD*%
D10*
%TO.P,D8,1*%
%TO.N,GND*%
X72000000Y-30000000D03*
D11*
%TO.P,D8,2*%
%TO.N,LED_D7_A*%
X72000000Y-32540000D03*
%TD*%
D10*
%TO.P,R10,1*%
%TO.N,+5V*%
X182000000Y-22000000D03*
D11*
%TO.P,R10,2*%
%TO.N,LED_OE_n*%
X189620000Y-22000000D03*
%TD*%
D10*
%TO.P,SW1,1*%
%TO.N,LED_OE_n*%
X175000000Y-25000000D03*
D11*
%TO.P,SW1,2*%
%TO.N,GND*%
X175000000Y-32620000D03*
%TD*%
D10*
%TO.P,D9,1*%
%TO.N,GND*%
X222000000Y-30000000D03*
D11*
%TO.P,D9,2*%
%TO.N,LED_PWR_A*%
X224540000Y-30000000D03*
%TD*%
D10*
%TO.P,D5,1*%
%TO.N,GND*%
X84000000Y-30000000D03*
D11*
%TO.P,D5,2*%
%TO.N,LED_D4_A*%
X84000000Y-32540000D03*
%TD*%
D12*
%TO.P,J6,1*%
%TO.N,D0*%
X125000000Y-10000000D03*
D13*
%TO.P,J6,2*%
%TO.N,D1*%
X127540000Y-10000000D03*
%TO.P,J6,3*%
%TO.N,D2*%
X125000000Y-12540000D03*
%TO.P,J6,4*%
%TO.N,D3*%
X127540000Y-12540000D03*
%TO.P,J6,5*%
%TO.N,D4*%
X125000000Y-15080000D03*
%TO.P,J6,6*%
%TO.N,D5*%
X127540000Y-15080000D03*
%TO.P,J6,7*%
%TO.N,D6*%
X125000000Y-17620000D03*
%TO.P,J6,8*%
%TO.N,D7*%
X127540000Y-17620000D03*
%TO.P,J6,9*%
%TO.N,GND*%
X125000000Y-20160000D03*
%TO.P,J6,10*%
X127540000Y-20160000D03*
%TD*%
D10*
%TO.P,R2,1*%
%TO.N,LED_D1_DRIVE*%
X128380000Y-24000000D03*
D11*
%TO.P,R2,2*%
%TO.N,LED_D1_A*%
X136000000Y-24000000D03*
%TD*%
D12*
%TO.P,J9,1*%
%TO.N,+5V*%
X220000000Y-10000000D03*
D13*
%TO.P,J9,2*%
%TO.N,GND*%
X222540000Y-10000000D03*
%TO.P,J9,3*%
%TO.N,+5V*%
X220000000Y-12540000D03*
%TO.P,J9,4*%
%TO.N,GND*%
X222540000Y-12540000D03*
%TD*%
D12*
%TO.P,J5,1*%
%TO.N,D0*%
X102000000Y-10000000D03*
D13*
%TO.P,J5,2*%
%TO.N,D1*%
X104540000Y-10000000D03*
%TO.P,J5,3*%
%TO.N,D2*%
X102000000Y-12540000D03*
%TO.P,J5,4*%
%TO.N,D3*%
X104540000Y-12540000D03*
%TO.P,J5,5*%
%TO.N,D4*%
X102000000Y-15080000D03*
%TO.P,J5,6*%
%TO.N,D5*%
X104540000Y-15080000D03*
%TO.P,J5,7*%
%TO.N,D6*%
X102000000Y-17620000D03*
%TO.P,J5,8*%
%TO.N,D7*%
X104540000Y-17620000D03*
%TO.P,J5,9*%
%TO.N,GND*%
X102000000Y-20160000D03*
%TO.P,J5,10*%
X104540000Y-20160000D03*
%TD*%
D12*
%TO.P,U1,1*%
%TO.N,LED_OE_n*%
X195000000Y-10000000D03*
D13*
%TO.P,U1,2*%
%TO.N,D0*%
X195000000Y-12540000D03*
%TO.P,U1,3*%
%TO.N,LED_D7_DRIVE*%
X195000000Y-15080000D03*
%TO.P,U1,4*%
%TO.N,D1*%
X195000000Y-17620000D03*
%TO.P,U1,5*%
%TO.N,LED_D6_DRIVE*%
X195000000Y-20160000D03*
%TO.P,U1,6*%
%TO.N,D2*%
X195000000Y-22700000D03*
%TO.P,U1,7*%
%TO.N,LED_D5_DRIVE*%
X195000000Y-25240000D03*
%TO.P,U1,8*%
%TO.N,D3*%
X195000000Y-27780000D03*
%TO.P,U1,9*%
%TO.N,LED_D4_DRIVE*%
X195000000Y-30320000D03*
%TO.P,U1,10*%
%TO.N,GND*%
X195000000Y-32860000D03*
%TO.P,U1,11*%
%TO.N,D4*%
X202620000Y-32860000D03*
%TO.P,U1,12*%
%TO.N,LED_D3_DRIVE*%
X202620000Y-30320000D03*
%TO.P,U1,13*%
%TO.N,D5*%
X202620000Y-27780000D03*
%TO.P,U1,14*%
%TO.N,LED_D2_DRIVE*%
X202620000Y-25240000D03*
%TO.P,U1,15*%
%TO.N,D6*%
X202620000Y-22700000D03*
%TO.P,U1,16*%
%TO.N,LED_D1_DRIVE*%
X202620000Y-20160000D03*
%TO.P,U1,17*%
%TO.N,D7*%
X202620000Y-17620000D03*
%TO.P,U1,18*%
%TO.N,LED_D0_DRIVE*%
X202620000Y-15080000D03*
%TO.P,U1,19*%
%TO.N,LED_OE_n*%
X202620000Y-12540000D03*
%TO.P,U1,20*%
%TO.N,+5V*%
X202620000Y-10000000D03*
%TD*%
D12*
%TO.P,J3,1*%
%TO.N,D0*%
X56000000Y-10000000D03*
D13*
%TO.P,J3,2*%
%TO.N,D1*%
X58540000Y-10000000D03*
%TO.P,J3,3*%
%TO.N,D2*%
X56000000Y-12540000D03*
%TO.P,J3,4*%
%TO.N,D3*%
X58540000Y-12540000D03*
%TO.P,J3,5*%
%TO.N,D4*%
X56000000Y-15080000D03*
%TO.P,J3,6*%
%TO.N,D5*%
X58540000Y-15080000D03*
%TO.P,J3,7*%
%TO.N,D6*%
X56000000Y-17620000D03*
%TO.P,J3,8*%
%TO.N,D7*%
X58540000Y-17620000D03*
%TO.P,J3,9*%
%TO.N,GND*%
X56000000Y-20160000D03*
%TO.P,J3,10*%
X58540000Y-20160000D03*
%TD*%
D10*
%TO.P,R8,1*%
%TO.N,LED_D7_DRIVE*%
X8380000Y-24000000D03*
D11*
%TO.P,R8,2*%
%TO.N,LED_D7_A*%
X16000000Y-24000000D03*
%TD*%
D10*
%TO.P,C1,1*%
%TO.N,+5V*%
X205160000Y-10000000D03*
D11*
%TO.P,C1,2*%
%TO.N,GND*%
X207660000Y-10000000D03*
%TD*%
D10*
%TO.P,R3,1*%
%TO.N,LED_D2_DRIVE*%
X108380000Y-24000000D03*
D11*
%TO.P,R3,2*%
%TO.N,LED_D2_A*%
X116000000Y-24000000D03*
%TD*%
D10*
%TO.P,D2,1*%
%TO.N,GND*%
X98000000Y-30000000D03*
D11*
%TO.P,D2,2*%
%TO.N,LED_D1_A*%
X98000000Y-32540000D03*
%TD*%
D12*
%TO.P,J8,1*%
%TO.N,D0*%
X171000000Y-10000000D03*
D13*
%TO.P,J8,2*%
%TO.N,D1*%
X173540000Y-10000000D03*
%TO.P,J8,3*%
%TO.N,D2*%
X171000000Y-12540000D03*
%TO.P,J8,4*%
%TO.N,D3*%
X173540000Y-12540000D03*
%TO.P,J8,5*%
%TO.N,D4*%
X171000000Y-15080000D03*
%TO.P,J8,6*%
%TO.N,D5*%
X173540000Y-15080000D03*
%TO.P,J8,7*%
%TO.N,D6*%
X171000000Y-17620000D03*
%TO.P,J8,8*%
%TO.N,D7*%
X173540000Y-17620000D03*
%TO.P,J8,9*%
%TO.N,GND*%
X171000000Y-20160000D03*
%TO.P,J8,10*%
X173540000Y-20160000D03*
%TD*%
D10*
%TO.P,C2,1*%
%TO.N,+5V*%
X220000000Y-23000000D03*
D11*
%TO.P,C2,2*%
%TO.N,GND*%
X222500000Y-23000000D03*
%TD*%
D10*
%TO.P,D4,1*%
%TO.N,GND*%
X90000000Y-30000000D03*
D11*
%TO.P,D4,2*%
%TO.N,LED_D3_A*%
X90000000Y-32540000D03*
%TD*%
D10*
%TO.P,RN1,1*%
%TO.N,GND*%
X180000000Y-6000000D03*
D11*
%TO.P,RN1,2*%
%TO.N,D0*%
X182540000Y-6000000D03*
%TO.P,RN1,3*%
%TO.N,D1*%
X185080000Y-6000000D03*
%TO.P,RN1,4*%
%TO.N,D2*%
X187620000Y-6000000D03*
%TO.P,RN1,5*%
%TO.N,D3*%
X190160000Y-6000000D03*
%TO.P,RN1,6*%
%TO.N,D4*%
X192700000Y-6000000D03*
%TO.P,RN1,7*%
%TO.N,D5*%
X195240000Y-6000000D03*
%TO.P,RN1,8*%
%TO.N,D6*%
X197780000Y-6000000D03*
%TO.P,RN1,9*%
%TO.N,D7*%
X200320000Y-6000000D03*
%TD*%
D14*
%TO.N,D0*%
X148780200Y-6837800D03*
X155954200Y-9578300D03*
X186860400Y-10977900D03*
%TO.N,D1*%
X192691700Y-12474800D03*
X122631900Y-10000000D03*
X53631900Y-10000000D03*
X100353100Y-10000000D03*
X30292300Y-9303800D03*
X76631900Y-10000000D03*
X145030300Y-9398400D03*
%TO.N,D2*%
X130174400Y-11373100D03*
%TO.N,D3*%
X109428800Y-12151100D03*
X142787600Y-10292500D03*
X64399300Y-12540000D03*
X130174400Y-10292500D03*
X192315600Y-13441000D03*
X29173000Y-12507300D03*
%TO.N,D4*%
X9171600Y-7605000D03*
X142261700Y-7818600D03*
X86043800Y-15099700D03*
X134981700Y-15100800D03*
X23121400Y-15099700D03*
X205128400Y-34071600D03*
X75731800Y-15696000D03*
X66979300Y-15520900D03*
X166776000Y-6060600D03*
X159449800Y-15099700D03*
X100316000Y-12103100D03*
X59427300Y-7391300D03*
%TO.N,D5*%
X122242500Y-8119100D03*
X14622600Y-21291200D03*
X110408400Y-12395900D03*
X151639800Y-7649100D03*
X77190100Y-14769200D03*
X41901000Y-16369500D03*
X37939100Y-21253800D03*
X198142600Y-29085200D03*
X134448700Y-7828200D03*
%TO.N,D6*%
X61331100Y-18067100D03*
X85030800Y-17466400D03*
X42642300Y-17028100D03*
X14347200Y-19266800D03*
X131383300Y-17914300D03*
X110511400Y-18309000D03*
X140937200Y-7812100D03*
X76461000Y-18094100D03*
X31501700Y-16972200D03*
X165937900Y-5492100D03*
%TO.N,D7*%
X152615400Y-5110500D03*
X92554700Y-7748400D03*
X83711900Y-18474700D03*
X98383200Y-18602600D03*
X76836900Y-19187900D03*
X31604700Y-18475800D03*
X135856600Y-7791800D03*
%TO.N,GND*%
X200236700Y-33109300D03*
X183441700Y-8696700D03*
X93033400Y-20160000D03*
%TO.N,LED_D3_DRIVE*%
X180717400Y-29360500D03*
%TO.N,+5V*%
X196829300Y-9348300D03*
%TO.N,LED_D1_DRIVE*%
X197355700Y-20160000D03*
X176389500Y-23546500D03*
%TD*%
%TO.N,LED_D5_DRIVE*%
D15*
X48380000Y-24000000D02*
X49581700Y-24000000D01*
X195000000Y-25240000D02*
X179153200Y-25240000D01*
X179153200Y-25240000D02*
X176656200Y-22743000D01*
X176656200Y-22743000D02*
X50838700Y-22743000D01*
X50838700Y-22743000D02*
X49581700Y-24000000D01*
%TO.N,D0*%
X146698300Y-8700000D02*
X148560500Y-6837800D01*
X155954200Y-9578300D02*
X169276600Y-9578300D01*
X126359700Y-8640300D02*
X146638600Y-8640300D01*
X79000000Y-10000000D02*
X77698300Y-10000000D01*
X148000000Y-10000000D02*
X146698300Y-10000000D01*
X125000000Y-10000000D02*
X123698300Y-10000000D01*
X122569100Y-8870800D02*
X123698300Y-10000000D01*
X31698300Y-9646700D02*
X30603700Y-8552100D01*
X34301700Y-8698300D02*
X56000000Y-8698300D01*
X79000000Y-10000000D02*
X80301700Y-8698300D01*
X171000000Y-10000000D02*
X169698300Y-10000000D01*
X30603700Y-8552100D02*
X11447900Y-8552100D01*
X195000000Y-12540000D02*
X193437900Y-10977900D01*
X76396600Y-8698300D02*
X77698300Y-10000000D01*
X125000000Y-10000000D02*
X126359700Y-8640300D01*
X121758700Y-8698300D02*
X121931200Y-8870800D01*
X80301700Y-8698300D02*
X102000000Y-8698300D01*
X121931200Y-8870800D02*
X122569100Y-8870800D01*
X56000000Y-10000000D02*
X56000000Y-8698300D01*
X102000000Y-10000000D02*
X102000000Y-8698300D01*
X56000000Y-8698300D02*
X76396600Y-8698300D01*
X33000000Y-10000000D02*
X34301700Y-8698300D01*
X31698300Y-10000000D02*
X31698300Y-9646700D01*
X33000000Y-10000000D02*
X31698300Y-10000000D01*
X169276600Y-9578300D02*
X169698300Y-10000000D01*
X146698300Y-10000000D02*
X146698300Y-8700000D01*
X148560500Y-6837800D02*
X148780200Y-6837800D01*
X146638600Y-8640300D02*
X146698300Y-8700000D01*
X11447900Y-8552100D02*
X10000000Y-10000000D01*
X193437900Y-10977900D02*
X186860400Y-10977900D01*
X102000000Y-8698300D02*
X121758700Y-8698300D01*
%TO.N,D1*%
X58540000Y-10000000D02*
X76631900Y-10000000D01*
X128141600Y-9398400D02*
X127540000Y-10000000D01*
X145030300Y-9398400D02*
X128141600Y-9398400D01*
X35540000Y-10000000D02*
X53631900Y-10000000D01*
X176014800Y-12474800D02*
X173540000Y-10000000D01*
X104540000Y-10000000D02*
X122631900Y-10000000D01*
X81540000Y-10000000D02*
X100353100Y-10000000D01*
X13236200Y-9303800D02*
X30292300Y-9303800D01*
X150540000Y-10000000D02*
X151858000Y-8682000D01*
X172222000Y-8682000D02*
X173540000Y-10000000D01*
X12540000Y-10000000D02*
X13236200Y-9303800D01*
X151858000Y-8682000D02*
X172222000Y-8682000D01*
X192691700Y-12474800D02*
X176014800Y-12474800D01*
%TO.N,D2*%
X131341300Y-12540000D02*
X130174400Y-11373100D01*
X148000000Y-12540000D02*
X131341300Y-12540000D01*
%TO.N,D3*%
X192315600Y-13441000D02*
X174441000Y-13441000D01*
X12540000Y-12540000D02*
X29140300Y-12540000D01*
X104540000Y-12540000D02*
X109039900Y-12540000D01*
X130174400Y-10292500D02*
X142787600Y-10292500D01*
X127926900Y-12540000D02*
X130174400Y-10292500D01*
X127540000Y-12540000D02*
X127926900Y-12540000D01*
X58540000Y-12540000D02*
X64399300Y-12540000D01*
X109039900Y-12540000D02*
X109428800Y-12151100D01*
X174441000Y-13441000D02*
X173540000Y-12540000D01*
X29140300Y-12540000D02*
X29173000Y-12507300D01*
%TO.N,D4*%
X142261700Y-7818600D02*
X144022600Y-6057700D01*
X191498100Y-4798100D02*
X168038500Y-4798100D01*
X59213600Y-7605000D02*
X9171600Y-7605000D01*
X170980300Y-15099700D02*
X171000000Y-15080000D01*
X148000000Y-15080000D02*
X147979200Y-15100800D01*
X151918800Y-6413900D02*
X166422700Y-6413900D01*
X66979300Y-15520900D02*
X75731800Y-15520900D01*
X23121400Y-15099700D02*
X32980300Y-15099700D01*
X159449800Y-15099700D02*
X170980300Y-15099700D01*
X75731800Y-15520900D02*
X75731800Y-15696000D01*
X203831600Y-34071600D02*
X205128400Y-34071600D01*
X144022600Y-6057700D02*
X151562600Y-6057700D01*
X100296300Y-15099700D02*
X100316000Y-15080000D01*
X147979200Y-15100800D02*
X134981700Y-15100800D01*
X59427300Y-7391300D02*
X59213600Y-7605000D01*
X75731800Y-15520900D02*
X78559100Y-15520900D01*
X100316000Y-15080000D02*
X100316000Y-12103100D01*
X166422700Y-6413900D02*
X166776000Y-6060600D01*
X32980300Y-15099700D02*
X33000000Y-15080000D01*
X168038500Y-4798100D02*
X166776000Y-6060600D01*
X86043800Y-15099700D02*
X100296300Y-15099700D01*
X202620000Y-32860000D02*
X203831600Y-34071600D01*
X192700000Y-6000000D02*
X191498100Y-4798100D01*
X100316000Y-15080000D02*
X102000000Y-15080000D01*
X151562600Y-6057700D02*
X151918800Y-6413900D01*
X78559100Y-15520900D02*
X79000000Y-15080000D01*
%TO.N,D5*%
X201314800Y-29085200D02*
X198142600Y-29085200D01*
X122533400Y-7828200D02*
X122242500Y-8119100D01*
X109514500Y-13289800D02*
X110408400Y-12395900D01*
X58850800Y-14769200D02*
X77190100Y-14769200D01*
X134448700Y-7828200D02*
X122533400Y-7828200D01*
X14622600Y-21291200D02*
X14823000Y-21491600D01*
X58540000Y-15080000D02*
X58850800Y-14769200D01*
X195240000Y-6000000D02*
X193590900Y-7649100D01*
X37701300Y-21491600D02*
X37939100Y-21253800D01*
X202620000Y-27780000D02*
X201314800Y-29085200D01*
X36829500Y-16369500D02*
X35540000Y-15080000D01*
X41901000Y-16369500D02*
X36829500Y-16369500D01*
X193590900Y-7649100D02*
X151639800Y-7649100D01*
X104540000Y-14540000D02*
X105515000Y-13565000D01*
X104540000Y-15080000D02*
X104540000Y-14540000D01*
D16*
X105515000Y-13565000D02*
X105790200Y-13289800D01*
D15*
X14823000Y-21491600D02*
X37701300Y-21491600D01*
D16*
X105790200Y-13289800D02*
X109514500Y-13289800D01*
%TO.N,D6*%
D15*
X110511400Y-18309000D02*
X124311000Y-18309000D01*
X32149700Y-17620200D02*
X31501700Y-16972200D01*
X32362300Y-17620200D02*
X32149700Y-17620200D01*
X32362300Y-18781300D02*
X31876800Y-19266800D01*
X140937200Y-7812100D02*
X143255700Y-5493600D01*
X78552900Y-18067100D02*
X79000000Y-17620000D01*
D16*
X194245000Y-4247900D02*
X167304700Y-4247900D01*
D15*
X124311000Y-18309000D02*
X125000000Y-17620000D01*
X32999800Y-17620200D02*
X32362300Y-17620200D01*
X85030800Y-17466400D02*
X101846400Y-17466400D01*
X167182100Y-4247900D02*
X167304700Y-4247900D01*
X196027900Y-4247900D02*
X197780000Y-6000000D01*
X55408100Y-17028100D02*
X56000000Y-17620000D01*
X32362300Y-17620200D02*
X32362300Y-18781300D01*
X143255700Y-5493600D02*
X151778700Y-5493600D01*
X152147300Y-5862200D02*
X165567800Y-5862200D01*
X42642300Y-17028100D02*
X55408100Y-17028100D01*
X151778700Y-5493600D02*
X152147300Y-5862200D01*
X194245000Y-4247900D02*
X196027900Y-4247900D01*
X61331100Y-18067100D02*
X76461000Y-18067100D01*
X165567800Y-5862200D02*
X165937900Y-5492100D01*
X76461000Y-18067100D02*
X78552900Y-18067100D01*
X148000000Y-17620000D02*
X147705700Y-17914300D01*
X33000000Y-17620000D02*
X32999800Y-17620200D01*
X165937900Y-5492100D02*
X167182100Y-4247900D01*
X147705700Y-17914300D02*
X131383300Y-17914300D01*
X76461000Y-18067100D02*
X76461000Y-18094100D01*
X31876800Y-19266800D02*
X14347200Y-19266800D01*
X101846400Y-17466400D02*
X102000000Y-17620000D01*
%TO.N,D7*%
X60107900Y-19187900D02*
X76836900Y-19187900D01*
D16*
X164347100Y-3697700D02*
X193468200Y-3697700D01*
D15*
X135856600Y-7048000D02*
X93255100Y-7048000D01*
X193552000Y-3613900D02*
X197933900Y-3613900D01*
X135856600Y-7791800D02*
X135856600Y-7048000D01*
X193468200Y-3697700D02*
X193552000Y-3613900D01*
X98255300Y-18474700D02*
X98383200Y-18602600D01*
X58540000Y-17620000D02*
X60107900Y-19187900D01*
X154028200Y-3697700D02*
X164347100Y-3697700D01*
X152446800Y-4941900D02*
X152615400Y-5110500D01*
X83711900Y-18474700D02*
X98255300Y-18474700D01*
X12540000Y-17620000D02*
X30748900Y-17620000D01*
X93255100Y-7048000D02*
X92554700Y-7748400D01*
X30748900Y-17620000D02*
X31604700Y-18475800D01*
X82394700Y-18474700D02*
X83711900Y-18474700D01*
X81540000Y-17620000D02*
X82394700Y-18474700D01*
X197933900Y-3613900D02*
X200320000Y-6000000D01*
X137962700Y-4941900D02*
X152446800Y-4941900D01*
X135856600Y-7048000D02*
X137962700Y-4941900D01*
X152615400Y-5110500D02*
X154028200Y-3697700D01*
%TO.N,GND*%
X90000000Y-30000000D02*
X84000000Y-30000000D01*
X175000000Y-32620000D02*
X194760000Y-32620000D01*
X206256600Y-8596600D02*
X207660000Y-10000000D01*
X33000000Y-20160000D02*
X12540000Y-20160000D01*
X102000000Y-30000000D02*
X98000000Y-30000000D01*
X183441700Y-8696700D02*
X183541800Y-8596600D01*
X98000000Y-30000000D02*
X94000000Y-30000000D01*
X171000000Y-20160000D02*
X150540000Y-20160000D01*
X148000000Y-20160000D02*
X127540000Y-20160000D01*
X150540000Y-20160000D02*
X148000000Y-20160000D01*
X84000000Y-30000000D02*
X80000000Y-30000000D01*
X125000000Y-20160000D02*
X104540000Y-20160000D01*
X81540000Y-20160000D02*
X79000000Y-20160000D01*
X93033400Y-20160000D02*
X81540000Y-20160000D01*
X35540000Y-20160000D02*
X33000000Y-20160000D01*
X12540000Y-20160000D02*
X10000000Y-20160000D01*
X58540000Y-20160000D02*
X79000000Y-20160000D01*
X194760000Y-32620000D02*
X195000000Y-32860000D01*
X94000000Y-30000000D02*
X90000000Y-30000000D01*
X102000000Y-20160000D02*
X93033400Y-20160000D01*
X199987400Y-32860000D02*
X200236700Y-33109300D01*
X76000000Y-30000000D02*
X72000000Y-30000000D01*
X127540000Y-20160000D02*
X125000000Y-20160000D01*
X58540000Y-20160000D02*
X56000000Y-20160000D01*
X195000000Y-32860000D02*
X199987400Y-32860000D01*
X183541800Y-8596600D02*
X206256600Y-8596600D01*
X104540000Y-20160000D02*
X102000000Y-20160000D01*
X56000000Y-20160000D02*
X35540000Y-20160000D01*
X80000000Y-30000000D02*
X76000000Y-30000000D01*
%TO.N,LED_D6_DRIVE*%
X177520800Y-20160000D02*
X175543300Y-22137500D01*
D16*
X47785700Y-22799800D02*
X48117400Y-22468100D01*
D15*
X175543300Y-22137500D02*
X48448000Y-22137500D01*
X28380000Y-24000000D02*
X31747700Y-24000000D01*
D16*
X32947900Y-22799800D02*
X47785700Y-22799800D01*
D15*
X195000000Y-20160000D02*
X177520800Y-20160000D01*
X48448000Y-22137500D02*
X48117400Y-22468100D01*
X31747700Y-24000000D02*
X32947900Y-22799800D01*
%TO.N,LED_D4_DRIVE*%
X68380000Y-24000000D02*
X69581700Y-24000000D01*
X69581700Y-24000000D02*
X71886800Y-26305100D01*
X163504600Y-30320000D02*
X195000000Y-30320000D01*
X159489700Y-26305100D02*
X163504600Y-30320000D01*
X71886800Y-26305100D02*
X159489700Y-26305100D01*
%TO.N,LED_D3_DRIVE*%
X171843400Y-25753400D02*
X175450500Y-29360500D01*
X95075000Y-24930700D02*
X90512400Y-24930700D01*
X90512400Y-24930700D02*
X89581700Y-24000000D01*
D16*
X95233400Y-24930700D02*
X95075000Y-24930700D01*
D15*
X88380000Y-24000000D02*
X89581700Y-24000000D01*
X175450500Y-29360500D02*
X180717400Y-29360500D01*
D16*
X95505900Y-25203200D02*
X95233400Y-24930700D01*
D15*
X96056100Y-25753400D02*
X171843400Y-25753400D01*
X95505900Y-25203200D02*
X96056100Y-25753400D01*
%TO.N,+5V*%
D17*
X202620000Y-10000000D02*
X205160000Y-10000000D01*
D15*
X196829300Y-9348300D02*
X201968300Y-9348300D01*
X201968300Y-9348300D02*
X202620000Y-10000000D01*
%TO.N,LED_OE_n*%
X195000000Y-10000000D02*
X196301700Y-10000000D01*
X196301700Y-10000000D02*
X198841700Y-12540000D01*
X198841700Y-12540000D02*
X202620000Y-12540000D01*
%TO.N,LED_D1_DRIVE*%
X159135000Y-23546500D02*
X176389500Y-23546500D01*
X129581700Y-24000000D02*
X130783400Y-25201700D01*
X202620000Y-20160000D02*
X197355700Y-20160000D01*
X157479800Y-25201700D02*
X159135000Y-23546500D01*
X130783400Y-25201700D02*
X157479800Y-25201700D01*
X128380000Y-24000000D02*
X129581700Y-24000000D01*
%TO.N,LED_D7_DRIVE*%
X180795600Y-15080000D02*
X195000000Y-15080000D01*
X11332100Y-22249600D02*
X27784200Y-22249600D01*
X172025000Y-21310600D02*
X172300200Y-21585800D01*
X9581700Y-24000000D02*
X11332100Y-22249600D01*
D16*
X27784200Y-22249600D02*
X45327500Y-22249600D01*
D15*
X45327500Y-22249600D02*
X45991300Y-21585800D01*
D16*
X171688200Y-21310600D02*
X172025000Y-21310600D01*
X174228200Y-21310600D02*
X174565000Y-21310600D01*
X173953000Y-21585800D02*
X174228200Y-21310600D01*
D15*
X45991300Y-21585800D02*
X171413000Y-21585800D01*
D16*
X171413000Y-21585800D02*
X171688200Y-21310600D01*
D15*
X174565000Y-21310600D02*
X180795600Y-15080000D01*
X172300200Y-21585800D02*
X173953000Y-21585800D01*
X8380000Y-24000000D02*
X9581700Y-24000000D01*
%TD*%
%TA.AperFunction,Conductor*%
%TO.N,GND*%
G36*
X181647104Y-5218285D02*
G01*
X181692859Y-5271089D01*
X181702803Y-5340247D01*
X181683167Y-5391490D01*
X181609059Y-5502400D01*
X181529870Y-5693579D01*
X181529868Y-5693587D01*
X181489500Y-5896530D01*
X181489500Y-6103469D01*
X181529868Y-6306412D01*
X181529870Y-6306420D01*
X181609058Y-6497596D01*
X181724024Y-6669657D01*
X181870342Y-6815975D01*
X181870345Y-6815977D01*
X182042402Y-6930941D01*
X182233361Y-7010039D01*
X182287764Y-7053880D01*
X182309829Y-7120174D01*
X182292550Y-7187873D01*
X182241413Y-7235484D01*
X182185908Y-7248600D01*
X152139898Y-7248600D01*
X152072859Y-7228915D01*
X152052217Y-7212281D01*
X152008517Y-7168581D01*
X152008509Y-7168575D01*
X151871590Y-7089526D01*
X151871586Y-7089524D01*
X151871584Y-7089523D01*
X151718857Y-7048600D01*
X151560743Y-7048600D01*
X151408016Y-7089523D01*
X151408009Y-7089526D01*
X151271090Y-7168575D01*
X151271082Y-7168581D01*
X151159281Y-7280382D01*
X151159275Y-7280390D01*
X151080226Y-7417309D01*
X151080223Y-7417316D01*
X151039300Y-7570043D01*
X151039300Y-7728157D01*
X151077796Y-7871824D01*
X151080223Y-7880883D01*
X151080226Y-7880890D01*
X151159275Y-8017809D01*
X151159279Y-8017814D01*
X151159280Y-8017816D01*
X151271084Y-8129620D01*
X151271086Y-8129621D01*
X151271090Y-8129624D01*
X151399016Y-8203481D01*
X151408016Y-8208677D01*
X151482052Y-8228514D01*
X151541709Y-8264877D01*
X151572239Y-8327724D01*
X151563945Y-8397100D01*
X151537637Y-8435969D01*
X151079281Y-8894325D01*
X151017958Y-8927810D01*
X150953283Y-8924575D01*
X150809411Y-8877829D01*
X150809412Y-8877829D01*
X150630551Y-8849500D01*
X150630546Y-8849500D01*
X150449454Y-8849500D01*
X150449449Y-8849500D01*
X150270589Y-8877829D01*
X150098363Y-8933787D01*
X150098360Y-8933788D01*
X149937002Y-9016006D01*
X149790505Y-9122441D01*
X149790500Y-9122445D01*
X149662445Y-9250500D01*
X149662441Y-9250505D01*
X149556006Y-9397002D01*
X149473788Y-9558360D01*
X149473787Y-9558363D01*
X149417829Y-9730589D01*
X149396973Y-9862266D01*
X149367044Y-9925401D01*
X149307732Y-9962332D01*
X149237869Y-9961334D01*
X149179637Y-9922724D01*
X149151523Y-9858760D01*
X149150500Y-9842868D01*
X149150500Y-9075323D01*
X149150499Y-9075321D01*
X149135967Y-9002264D01*
X149135966Y-9002260D01*
X149127720Y-8989919D01*
X149080601Y-8919399D01*
X149003348Y-8867781D01*
X148997739Y-8864033D01*
X148997735Y-8864032D01*
X148924677Y-8849500D01*
X148924674Y-8849500D01*
X147414555Y-8849500D01*
X147347516Y-8829815D01*
X147301761Y-8777011D01*
X147291817Y-8707853D01*
X147320842Y-8644297D01*
X147326874Y-8637819D01*
X147615793Y-8348900D01*
X148512700Y-7451991D01*
X148574021Y-7418508D01*
X148632468Y-7419898D01*
X148701143Y-7438300D01*
X148701146Y-7438300D01*
X148859255Y-7438300D01*
X148859257Y-7438300D01*
X149011984Y-7397377D01*
X149148916Y-7318320D01*
X149260720Y-7206516D01*
X149339777Y-7069584D01*
X149380700Y-6916857D01*
X149380700Y-6758743D01*
X149341994Y-6614290D01*
X149343657Y-6544444D01*
X149382819Y-6486581D01*
X149447048Y-6459077D01*
X149461769Y-6458200D01*
X151345345Y-6458200D01*
X151412384Y-6477885D01*
X151433026Y-6494519D01*
X151672887Y-6734380D01*
X151764212Y-6787107D01*
X151866073Y-6814400D01*
X151866075Y-6814400D01*
X166475425Y-6814400D01*
X166475427Y-6814400D01*
X166577288Y-6787107D01*
X166668613Y-6734380D01*
X166705574Y-6697419D01*
X166766897Y-6663934D01*
X166793255Y-6661100D01*
X166855055Y-6661100D01*
X166855057Y-6661100D01*
X167007784Y-6620177D01*
X167144716Y-6541120D01*
X167256520Y-6429316D01*
X167335577Y-6292384D01*
X167376500Y-6139657D01*
X167376500Y-6077854D01*
X167396185Y-6010815D01*
X167412819Y-5990173D01*
X168168073Y-5234919D01*
X168229396Y-5201434D01*
X168255754Y-5198600D01*
X181580065Y-5198600D01*
X181647104Y-5218285D01*
G37*
%TD.AperFunction*%
%TA.AperFunction,Conductor*%
G36*
X233943039Y-1019685D02*
G01*
X233988794Y-1072489D01*
X234000000Y-1124000D01*
X234000000Y-38876000D01*
X233980315Y-38943039D01*
X233927511Y-38988794D01*
X233876000Y-39000000D01*
X1124000Y-39000000D01*
X1056961Y-38980315D01*
X1011206Y-38927511D01*
X1000000Y-38876000D01*
X1000000Y-35878711D01*
X2149500Y-35878711D01*
X2149500Y-36121288D01*
X2181161Y-36361785D01*
X2243947Y-36596104D01*
X2336773Y-36820205D01*
X2336776Y-36820212D01*
X2458064Y-37030289D01*
X2458066Y-37030292D01*
X2458067Y-37030293D01*
X2605733Y-37222736D01*
X2605739Y-37222743D01*
X2777256Y-37394260D01*
X2777262Y-37394265D01*
X2969711Y-37541936D01*
X3179788Y-37663224D01*
X3403900Y-37756054D01*
X3638211Y-37818838D01*
X3818586Y-37842584D01*
X3878711Y-37850500D01*
X3878712Y-37850500D01*
X4121289Y-37850500D01*
X4169388Y-37844167D01*
X4361789Y-37818838D01*
X4596100Y-37756054D01*
X4820212Y-37663224D01*
X5030289Y-37541936D01*
X5222738Y-37394265D01*
X5394265Y-37222738D01*
X5541936Y-37030289D01*
X5663224Y-36820212D01*
X5756054Y-36596100D01*
X5818838Y-36361789D01*
X5850500Y-36121288D01*
X5850500Y-35878712D01*
X5850500Y-35878711D01*
X229149500Y-35878711D01*
X229149500Y-36121288D01*
X229181161Y-36361785D01*
X229243947Y-36596104D01*
X229336773Y-36820205D01*
X229336776Y-36820212D01*
X229458064Y-37030289D01*
X229458066Y-37030292D01*
X229458067Y-37030293D01*
X229605733Y-37222736D01*
X229605739Y-37222743D01*
X229777256Y-37394260D01*
X229777262Y-37394265D01*
X229969711Y-37541936D01*
X230179788Y-37663224D01*
X230403900Y-37756054D01*
X230638211Y-37818838D01*
X230818586Y-37842584D01*
X230878711Y-37850500D01*
X230878712Y-37850500D01*
X231121289Y-37850500D01*
X231169388Y-37844167D01*
X231361789Y-37818838D01*
X231596100Y-37756054D01*
X231820212Y-37663224D01*
X232030289Y-37541936D01*
X232222738Y-37394265D01*
X232394265Y-37222738D01*
X232541936Y-37030289D01*
X232663224Y-36820212D01*
X232756054Y-36596100D01*
X232818838Y-36361789D01*
X232850500Y-36121288D01*
X232850500Y-35878712D01*
X232818838Y-35638211D01*
X232756054Y-35403900D01*
X232663224Y-35179788D01*
X232541936Y-34969711D01*
X232394265Y-34777262D01*
X232394260Y-34777256D01*
X232222743Y-34605739D01*
X232222736Y-34605733D01*
X232030293Y-34458067D01*
X232030292Y-34458066D01*
X232030289Y-34458064D01*
X231820212Y-34336776D01*
X231820205Y-34336773D01*
X231596104Y-34243947D01*
X231361785Y-34181161D01*
X231121289Y-34149500D01*
X231121288Y-34149500D01*
X230878712Y-34149500D01*
X230878711Y-34149500D01*
X230638214Y-34181161D01*
X230403895Y-34243947D01*
X230179794Y-34336773D01*
X230179785Y-34336777D01*
X229969706Y-34458067D01*
X229777263Y-34605733D01*
X229777256Y-34605739D01*
X229605739Y-34777256D01*
X229605733Y-34777263D01*
X229458067Y-34969706D01*
X229336777Y-35179785D01*
X229336773Y-35179794D01*
X229243947Y-35403895D01*
X229181161Y-35638214D01*
X229149500Y-35878711D01*
X5850500Y-35878711D01*
X5818838Y-35638211D01*
X5756054Y-35403900D01*
X5663224Y-35179788D01*
X5541936Y-34969711D01*
X5394265Y-34777262D01*
X5394260Y-34777256D01*
X5222743Y-34605739D01*
X5222736Y-34605733D01*
X5030293Y-34458067D01*
X5030292Y-34458066D01*
X5030289Y-34458064D01*
X4820212Y-34336776D01*
X4820205Y-34336773D01*
X4596104Y-34243947D01*
X4361785Y-34181161D01*
X4121289Y-34149500D01*
X4121288Y-34149500D01*
X3878712Y-34149500D01*
X3878711Y-34149500D01*
X3638214Y-34181161D01*
X3403895Y-34243947D01*
X3179794Y-34336773D01*
X3179785Y-34336777D01*
X2969706Y-34458067D01*
X2777263Y-34605733D01*
X2777256Y-34605739D01*
X2605739Y-34777256D01*
X2605733Y-34777263D01*
X2458067Y-34969706D01*
X2336777Y-35179785D01*
X2336773Y-35179794D01*
X2243947Y-35403895D01*
X2181161Y-35638214D01*
X2149500Y-35878711D01*
X1000000Y-35878711D01*
X1000000Y-32436530D01*
X70949500Y-32436530D01*
X70949500Y-32643469D01*
X70989868Y-32846412D01*
X70989870Y-32846420D01*
X71069058Y-33037596D01*
X71184024Y-33209657D01*
X71330342Y-33355975D01*
X71330345Y-33355977D01*
X71502402Y-33470941D01*
X71693580Y-33550130D01*
X71896530Y-33590499D01*
X71896534Y-33590500D01*
X71896535Y-33590500D01*
X72103466Y-33590500D01*
X72103467Y-33590499D01*
X72306420Y-33550130D01*
X72497598Y-33470941D01*
X72669655Y-33355977D01*
X72815977Y-33209655D01*
X72930941Y-33037598D01*
X73010130Y-32846420D01*
X73050500Y-32643465D01*
X73050500Y-32436535D01*
X73050499Y-32436530D01*
X74949500Y-32436530D01*
X74949500Y-32643469D01*
X74989868Y-32846412D01*
X74989870Y-32846420D01*
X75069058Y-33037596D01*
X75184024Y-33209657D01*
X75330342Y-33355975D01*
X75330345Y-33355977D01*
X75502402Y-33470941D01*
X75693580Y-33550130D01*
X75896530Y-33590499D01*
X75896534Y-33590500D01*
X75896535Y-33590500D01*
X76103466Y-33590500D01*
X76103467Y-33590499D01*
X76306420Y-33550130D01*
X76497598Y-33470941D01*
X76669655Y-33355977D01*
X76815977Y-33209655D01*
X76930941Y-33037598D01*
X77010130Y-32846420D01*
X77050500Y-32643465D01*
X77050500Y-32436535D01*
X77050499Y-32436530D01*
X78949500Y-32436530D01*
X78949500Y-32643469D01*
X78989868Y-32846412D01*
X78989870Y-32846420D01*
X79069058Y-33037596D01*
X79184024Y-33209657D01*
X79330342Y-33355975D01*
X79330345Y-33355977D01*
X79502402Y-33470941D01*
X79693580Y-33550130D01*
X79896530Y-33590499D01*
X79896534Y-33590500D01*
X79896535Y-33590500D01*
X80103466Y-33590500D01*
X80103467Y-33590499D01*
X80306420Y-33550130D01*
X80497598Y-33470941D01*
X80669655Y-33355977D01*
X80815977Y-33209655D01*
X80930941Y-33037598D01*
X81010130Y-32846420D01*
X81050500Y-32643465D01*
X81050500Y-32436535D01*
X81050499Y-32436530D01*
X82949500Y-32436530D01*
X82949500Y-32643469D01*
X82989868Y-32846412D01*
X82989870Y-32846420D01*
X83069058Y-33037596D01*
X83184024Y-33209657D01*
X83330342Y-33355975D01*
X83330345Y-33355977D01*
X83502402Y-33470941D01*
X83693580Y-33550130D01*
X83896530Y-33590499D01*
X83896534Y-33590500D01*
X83896535Y-33590500D01*
X84103466Y-33590500D01*
X84103467Y-33590499D01*
X84306420Y-33550130D01*
X84497598Y-33470941D01*
X84669655Y-33355977D01*
X84815977Y-33209655D01*
X84930941Y-33037598D01*
X85010130Y-32846420D01*
X85050500Y-32643465D01*
X85050500Y-32436535D01*
X85050499Y-32436530D01*
X88949500Y-32436530D01*
X88949500Y-32643469D01*
X88989868Y-32846412D01*
X88989870Y-32846420D01*
X89069058Y-33037596D01*
X89184024Y-33209657D01*
X89330342Y-33355975D01*
X89330345Y-33355977D01*
X89502402Y-33470941D01*
X89693580Y-33550130D01*
X89896530Y-33590499D01*
X89896534Y-33590500D01*
X89896535Y-33590500D01*
X90103466Y-33590500D01*
X90103467Y-33590499D01*
X90306420Y-33550130D01*
X90497598Y-33470941D01*
X90669655Y-33355977D01*
X90815977Y-33209655D01*
X90930941Y-33037598D01*
X91010130Y-32846420D01*
X91050500Y-32643465D01*
X91050500Y-32436535D01*
X91050499Y-32436530D01*
X92949500Y-32436530D01*
X92949500Y-32643469D01*
X92989868Y-32846412D01*
X92989870Y-32846420D01*
X93069058Y-33037596D01*
X93184024Y-33209657D01*
X93330342Y-33355975D01*
X93330345Y-33355977D01*
X93502402Y-33470941D01*
X93693580Y-33550130D01*
X93896530Y-33590499D01*
X93896534Y-33590500D01*
X93896535Y-33590500D01*
X94103466Y-33590500D01*
X94103467Y-33590499D01*
X94306420Y-33550130D01*
X94497598Y-33470941D01*
X94669655Y-33355977D01*
X94815977Y-33209655D01*
X94930941Y-33037598D01*
X95010130Y-32846420D01*
X95050500Y-32643465D01*
X95050500Y-32436535D01*
X95050499Y-32436530D01*
X96949500Y-32436530D01*
X96949500Y-32643469D01*
X96989868Y-32846412D01*
X96989870Y-32846420D01*
X97069058Y-33037596D01*
X97184024Y-33209657D01*
X97330342Y-33355975D01*
X97330345Y-33355977D01*
X97502402Y-33470941D01*
X97693580Y-33550130D01*
X97896530Y-33590499D01*
X97896534Y-33590500D01*
X97896535Y-33590500D01*
X98103466Y-33590500D01*
X98103467Y-33590499D01*
X98306420Y-33550130D01*
X98497598Y-33470941D01*
X98669655Y-33355977D01*
X98815977Y-33209655D01*
X98930941Y-33037598D01*
X99010130Y-32846420D01*
X99050500Y-32643465D01*
X99050500Y-32436535D01*
X99050499Y-32436530D01*
X100949500Y-32436530D01*
X100949500Y-32643469D01*
X100989868Y-32846412D01*
X100989870Y-32846420D01*
X101069058Y-33037596D01*
X101184024Y-33209657D01*
X101330342Y-33355975D01*
X101330345Y-33355977D01*
X101502402Y-33470941D01*
X101693580Y-33550130D01*
X101896530Y-33590499D01*
X101896534Y-33590500D01*
X101896535Y-33590500D01*
X102103466Y-33590500D01*
X102103467Y-33590499D01*
X102306420Y-33550130D01*
X102497598Y-33470941D01*
X102669655Y-33355977D01*
X102815977Y-33209655D01*
X102930941Y-33037598D01*
X103010130Y-32846420D01*
X103050500Y-32643465D01*
X103050500Y-32436535D01*
X103010130Y-32233580D01*
X102930941Y-32042402D01*
X102815977Y-31870345D01*
X102815975Y-31870342D01*
X102669657Y-31724024D01*
X102583626Y-31666541D01*
X102497598Y-31609059D01*
X102306420Y-31529870D01*
X102306412Y-31529868D01*
X102103469Y-31489500D01*
X102103465Y-31489500D01*
X101896535Y-31489500D01*
X101896530Y-31489500D01*
X101693587Y-31529868D01*
X101693579Y-31529870D01*
X101502403Y-31609058D01*
X101330342Y-31724024D01*
X101184024Y-31870342D01*
X101069058Y-32042403D01*
X100989870Y-32233579D01*
X100989868Y-32233587D01*
X100949500Y-32436530D01*
X99050499Y-32436530D01*
X99010130Y-32233580D01*
X98930941Y-32042402D01*
X98815977Y-31870345D01*
X98815975Y-31870342D01*
X98669657Y-31724024D01*
X98583626Y-31666541D01*
X98497598Y-31609059D01*
X98306420Y-31529870D01*
X98306412Y-31529868D01*
X98103469Y-31489500D01*
X98103465Y-31489500D01*
X97896535Y-31489500D01*
X97896530Y-31489500D01*
X97693587Y-31529868D01*
X97693579Y-31529870D01*
X97502403Y-31609058D01*
X97330342Y-31724024D01*
X97184024Y-31870342D01*
X97069058Y-32042403D01*
X96989870Y-32233579D01*
X96989868Y-32233587D01*
X96949500Y-32436530D01*
X95050499Y-32436530D01*
X95010130Y-32233580D01*
X94930941Y-32042402D01*
X94815977Y-31870345D01*
X94815975Y-31870342D01*
X94669657Y-31724024D01*
X94583626Y-31666541D01*
X94497598Y-31609059D01*
X94306420Y-31529870D01*
X94306412Y-31529868D01*
X94103469Y-31489500D01*
X94103465Y-31489500D01*
X93896535Y-31489500D01*
X93896530Y-31489500D01*
X93693587Y-31529868D01*
X93693579Y-31529870D01*
X93502403Y-31609058D01*
X93330342Y-31724024D01*
X93184024Y-31870342D01*
X93069058Y-32042403D01*
X92989870Y-32233579D01*
X92989868Y-32233587D01*
X92949500Y-32436530D01*
X91050499Y-32436530D01*
X91010130Y-32233580D01*
X90930941Y-32042402D01*
X90815977Y-31870345D01*
X90815975Y-31870342D01*
X90669657Y-31724024D01*
X90583626Y-31666541D01*
X90497598Y-31609059D01*
X90306420Y-31529870D01*
X90306412Y-31529868D01*
X90103469Y-31489500D01*
X90103465Y-31489500D01*
X89896535Y-31489500D01*
X89896530Y-31489500D01*
X89693587Y-31529868D01*
X89693579Y-31529870D01*
X89502403Y-31609058D01*
X89330342Y-31724024D01*
X89184024Y-31870342D01*
X89069058Y-32042403D01*
X88989870Y-32233579D01*
X88989868Y-32233587D01*
X88949500Y-32436530D01*
X85050499Y-32436530D01*
X85010130Y-32233580D01*
X84930941Y-32042402D01*
X84815977Y-31870345D01*
X84815975Y-31870342D01*
X84669657Y-31724024D01*
X84583626Y-31666541D01*
X84497598Y-31609059D01*
X84306420Y-31529870D01*
X84306412Y-31529868D01*
X84103469Y-31489500D01*
X84103465Y-31489500D01*
X83896535Y-31489500D01*
X83896530Y-31489500D01*
X83693587Y-31529868D01*
X83693579Y-31529870D01*
X83502403Y-31609058D01*
X83330342Y-31724024D01*
X83184024Y-31870342D01*
X83069058Y-32042403D01*
X82989870Y-32233579D01*
X82989868Y-32233587D01*
X82949500Y-32436530D01*
X81050499Y-32436530D01*
X81010130Y-32233580D01*
X80930941Y-32042402D01*
X80815977Y-31870345D01*
X80815975Y-31870342D01*
X80669657Y-31724024D01*
X80583626Y-31666541D01*
X80497598Y-31609059D01*
X80306420Y-31529870D01*
X80306412Y-31529868D01*
X80103469Y-31489500D01*
X80103465Y-31489500D01*
X79896535Y-31489500D01*
X79896530Y-31489500D01*
X79693587Y-31529868D01*
X79693579Y-31529870D01*
X79502403Y-31609058D01*
X79330342Y-31724024D01*
X79184024Y-31870342D01*
X79069058Y-32042403D01*
X78989870Y-32233579D01*
X78989868Y-32233587D01*
X78949500Y-32436530D01*
X77050499Y-32436530D01*
X77010130Y-32233580D01*
X76930941Y-32042402D01*
X76815977Y-31870345D01*
X76815975Y-31870342D01*
X76669657Y-31724024D01*
X76583626Y-31666541D01*
X76497598Y-31609059D01*
X76306420Y-31529870D01*
X76306412Y-31529868D01*
X76103469Y-31489500D01*
X76103465Y-31489500D01*
X75896535Y-31489500D01*
X75896530Y-31489500D01*
X75693587Y-31529868D01*
X75693579Y-31529870D01*
X75502403Y-31609058D01*
X75330342Y-31724024D01*
X75184024Y-31870342D01*
X75069058Y-32042403D01*
X74989870Y-32233579D01*
X74989868Y-32233587D01*
X74949500Y-32436530D01*
X73050499Y-32436530D01*
X73010130Y-32233580D01*
X72930941Y-32042402D01*
X72815977Y-31870345D01*
X72815975Y-31870342D01*
X72669657Y-31724024D01*
X72583626Y-31666541D01*
X72497598Y-31609059D01*
X72306420Y-31529870D01*
X72306412Y-31529868D01*
X72103469Y-31489500D01*
X72103465Y-31489500D01*
X71896535Y-31489500D01*
X71896530Y-31489500D01*
X71693587Y-31529868D01*
X71693579Y-31529870D01*
X71502403Y-31609058D01*
X71330342Y-31724024D01*
X71184024Y-31870342D01*
X71069058Y-32042403D01*
X70989870Y-32233579D01*
X70989868Y-32233587D01*
X70949500Y-32436530D01*
X1000000Y-32436530D01*
X1000000Y-23175321D01*
X7329500Y-23175321D01*
X7329500Y-24824678D01*
X7344032Y-24897735D01*
X7344033Y-24897739D01*
X7344034Y-24897740D01*
X7399399Y-24980601D01*
X7443595Y-25010131D01*
X7482260Y-25035966D01*
X7482264Y-25035967D01*
X7555321Y-25050499D01*
X7555324Y-25050500D01*
X7555326Y-25050500D01*
X9204676Y-25050500D01*
X9204677Y-25050499D01*
X9277740Y-25035966D01*
X9360601Y-24980601D01*
X9415966Y-24897740D01*
X9430500Y-24824674D01*
X9430500Y-24524500D01*
X9450185Y-24457461D01*
X9502989Y-24411706D01*
X9554500Y-24400500D01*
X9634425Y-24400500D01*
X9634427Y-24400500D01*
X9736288Y-24373207D01*
X9827613Y-24320480D01*
X10251563Y-23896530D01*
X14949500Y-23896530D01*
X14949500Y-24103469D01*
X14989868Y-24306412D01*
X14989870Y-24306420D01*
X15069058Y-24497596D01*
X15184024Y-24669657D01*
X15330342Y-24815975D01*
X15330345Y-24815977D01*
X15502402Y-24930941D01*
X15693580Y-25010130D01*
X15896530Y-25050499D01*
X15896534Y-25050500D01*
X15896535Y-25050500D01*
X16103466Y-25050500D01*
X16103467Y-25050499D01*
X16306420Y-25010130D01*
X16497598Y-24930941D01*
X16669655Y-24815977D01*
X16815977Y-24669655D01*
X16930941Y-24497598D01*
X17010130Y-24306420D01*
X17050500Y-24103465D01*
X17050500Y-23896535D01*
X17010130Y-23693580D01*
X16930941Y-23502402D01*
X16815977Y-23330345D01*
X16815975Y-23330342D01*
X16669657Y-23184024D01*
X16547287Y-23102260D01*
X16497598Y-23069059D01*
X16452790Y-23050499D01*
X16306420Y-22989870D01*
X16306412Y-22989868D01*
X16103469Y-22949500D01*
X16103465Y-22949500D01*
X15896535Y-22949500D01*
X15896530Y-22949500D01*
X15693587Y-22989868D01*
X15693579Y-22989870D01*
X15502403Y-23069058D01*
X15330342Y-23184024D01*
X15184024Y-23330342D01*
X15069058Y-23502403D01*
X14989870Y-23693579D01*
X14989868Y-23693587D01*
X14949500Y-23896530D01*
X10251563Y-23896530D01*
X11461674Y-22686419D01*
X11522997Y-22652934D01*
X11549355Y-22650100D01*
X27836925Y-22650100D01*
X27836927Y-22650100D01*
X27938787Y-22622807D01*
X27938791Y-22622804D01*
X27940644Y-22622038D01*
X27944570Y-22621257D01*
X27946638Y-22620703D01*
X27946674Y-22620838D01*
X27988094Y-22612600D01*
X32269345Y-22612600D01*
X32336384Y-22632285D01*
X32382139Y-22685089D01*
X32392083Y-22754247D01*
X32363058Y-22817803D01*
X32357026Y-22824281D01*
X31618126Y-23563181D01*
X31556803Y-23596666D01*
X31530445Y-23599500D01*
X29554500Y-23599500D01*
X29487461Y-23579815D01*
X29441706Y-23527011D01*
X29430500Y-23475500D01*
X29430500Y-23175323D01*
X29430499Y-23175321D01*
X29415967Y-23102264D01*
X29415966Y-23102260D01*
X29393782Y-23069059D01*
X29360601Y-23019399D01*
X29285786Y-22969410D01*
X29277739Y-22964033D01*
X29277735Y-22964032D01*
X29204677Y-22949500D01*
X29204674Y-22949500D01*
X27555326Y-22949500D01*
X27555323Y-22949500D01*
X27482264Y-22964032D01*
X27482260Y-22964033D01*
X27399399Y-23019399D01*
X27344033Y-23102260D01*
X27344032Y-23102264D01*
X27329500Y-23175321D01*
X27329500Y-24824678D01*
X27344032Y-24897735D01*
X27344033Y-24897739D01*
X27344034Y-24897740D01*
X27399399Y-24980601D01*
X27443595Y-25010131D01*
X27482260Y-25035966D01*
X27482264Y-25035967D01*
X27555321Y-25050499D01*
X27555324Y-25050500D01*
X27555326Y-25050500D01*
X29204676Y-25050500D01*
X29204677Y-25050499D01*
X29277740Y-25035966D01*
X29360601Y-24980601D01*
X29415966Y-24897740D01*
X29430500Y-24824674D01*
X29430500Y-24524500D01*
X29450185Y-24457461D01*
X29502989Y-24411706D01*
X29554500Y-24400500D01*
X31800425Y-24400500D01*
X31800427Y-24400500D01*
X31902288Y-24373207D01*
X31993613Y-24320480D01*
X33114974Y-23199119D01*
X33176297Y-23165634D01*
X33202655Y-23162800D01*
X35063985Y-23162800D01*
X35131024Y-23182485D01*
X35176779Y-23235289D01*
X35186723Y-23304447D01*
X35167088Y-23355690D01*
X35069058Y-23502403D01*
X34989870Y-23693579D01*
X34989868Y-23693587D01*
X34949500Y-23896530D01*
X34949500Y-24103469D01*
X34989868Y-24306412D01*
X34989870Y-24306420D01*
X35069058Y-24497596D01*
X35184024Y-24669657D01*
X35330342Y-24815975D01*
X35330345Y-24815977D01*
X35502402Y-24930941D01*
X35693580Y-25010130D01*
X35896530Y-25050499D01*
X35896534Y-25050500D01*
X35896535Y-25050500D01*
X36103466Y-25050500D01*
X36103467Y-25050499D01*
X36306420Y-25010130D01*
X36497598Y-24930941D01*
X36669655Y-24815977D01*
X36815977Y-24669655D01*
X36930941Y-24497598D01*
X37010130Y-24306420D01*
X37050500Y-24103465D01*
X37050500Y-23896535D01*
X37010130Y-23693580D01*
X36930941Y-23502402D01*
X36832912Y-23355690D01*
X36812035Y-23289013D01*
X36830520Y-23221633D01*
X36882499Y-23174943D01*
X36936015Y-23162800D01*
X47205500Y-23162800D01*
X47272539Y-23182485D01*
X47318294Y-23235289D01*
X47329500Y-23286800D01*
X47329500Y-24824678D01*
X47344032Y-24897735D01*
X47344033Y-24897739D01*
X47344034Y-24897740D01*
X47399399Y-24980601D01*
X47443595Y-25010131D01*
X47482260Y-25035966D01*
X47482264Y-25035967D01*
X47555321Y-25050499D01*
X47555324Y-25050500D01*
X47555326Y-25050500D01*
X49204676Y-25050500D01*
X49204677Y-25050499D01*
X49277740Y-25035966D01*
X49360601Y-24980601D01*
X49415966Y-24897740D01*
X49430500Y-24824674D01*
X49430500Y-24524500D01*
X49450185Y-24457461D01*
X49502989Y-24411706D01*
X49554500Y-24400500D01*
X49634425Y-24400500D01*
X49634427Y-24400500D01*
X49736288Y-24373207D01*
X49827613Y-24320480D01*
X50968274Y-23179819D01*
X51029597Y-23146334D01*
X51055955Y-23143500D01*
X55076881Y-23143500D01*
X55143920Y-23163185D01*
X55189675Y-23215989D01*
X55199619Y-23285147D01*
X55179984Y-23336390D01*
X55069058Y-23502403D01*
X54989870Y-23693579D01*
X54989868Y-23693587D01*
X54949500Y-23896530D01*
X54949500Y-24103469D01*
X54989868Y-24306412D01*
X54989870Y-24306420D01*
X55069058Y-24497596D01*
X55184024Y-24669657D01*
X55330342Y-24815975D01*
X55330345Y-24815977D01*
X55502402Y-24930941D01*
X55693580Y-25010130D01*
X55896530Y-25050499D01*
X55896534Y-25050500D01*
X55896535Y-25050500D01*
X56103466Y-25050500D01*
X56103467Y-25050499D01*
X56306420Y-25010130D01*
X56497598Y-24930941D01*
X56669655Y-24815977D01*
X56815977Y-24669655D01*
X56930941Y-24497598D01*
X57010130Y-24306420D01*
X57050500Y-24103465D01*
X57050500Y-23896535D01*
X57010130Y-23693580D01*
X56930941Y-23502402D01*
X56820015Y-23336389D01*
X56799139Y-23269713D01*
X56817624Y-23202333D01*
X56869603Y-23155643D01*
X56923119Y-23143500D01*
X67205500Y-23143500D01*
X67272539Y-23163185D01*
X67318294Y-23215989D01*
X67329500Y-23267500D01*
X67329500Y-24824678D01*
X67344032Y-24897735D01*
X67344033Y-24897739D01*
X67344034Y-24897740D01*
X67399399Y-24980601D01*
X67443595Y-25010131D01*
X67482260Y-25035966D01*
X67482264Y-25035967D01*
X67555321Y-25050499D01*
X67555324Y-25050500D01*
X67555326Y-25050500D01*
X69204676Y-25050500D01*
X69204677Y-25050499D01*
X69277740Y-25035966D01*
X69360601Y-24980601D01*
X69415966Y-24897740D01*
X69430500Y-24824674D01*
X69430500Y-24714554D01*
X69450185Y-24647515D01*
X69502989Y-24601760D01*
X69572147Y-24591816D01*
X69635703Y-24620841D01*
X69642181Y-24626873D01*
X71561979Y-26546671D01*
X71561989Y-26546682D01*
X71566319Y-26551012D01*
X71566320Y-26551013D01*
X71640887Y-26625580D01*
X71696744Y-26657829D01*
X71732213Y-26678307D01*
X71834073Y-26705601D01*
X71834075Y-26705601D01*
X71947123Y-26705601D01*
X71947139Y-26705600D01*
X159272445Y-26705600D01*
X159339484Y-26725285D01*
X159360126Y-26741919D01*
X163258687Y-30640480D01*
X163350012Y-30693207D01*
X163451873Y-30720500D01*
X163557327Y-30720500D01*
X193836840Y-30720500D01*
X193903879Y-30740185D01*
X193947325Y-30788205D01*
X194003136Y-30897740D01*
X194016006Y-30922997D01*
X194122441Y-31069494D01*
X194122445Y-31069499D01*
X194250500Y-31197554D01*
X194250505Y-31197558D01*
X194378287Y-31290396D01*
X194397006Y-31303996D01*
X194502484Y-31357740D01*
X194558360Y-31386211D01*
X194558363Y-31386212D01*
X194644476Y-31414191D01*
X194730591Y-31442171D01*
X194813429Y-31455291D01*
X194909449Y-31470500D01*
X194909454Y-31470500D01*
X195090551Y-31470500D01*
X195177259Y-31456765D01*
X195269409Y-31442171D01*
X195441639Y-31386211D01*
X195602994Y-31303996D01*
X195749501Y-31197553D01*
X195877553Y-31069501D01*
X195983996Y-30922994D01*
X196066211Y-30761639D01*
X196122171Y-30589409D01*
X196136765Y-30497259D01*
X196150500Y-30410551D01*
X196150500Y-30229448D01*
X196130546Y-30103469D01*
X196122171Y-30050591D01*
X196072116Y-29896534D01*
X196066212Y-29878363D01*
X196066211Y-29878360D01*
X196014999Y-29777853D01*
X195983996Y-29717006D01*
X195957823Y-29680982D01*
X195877558Y-29570505D01*
X195877554Y-29570500D01*
X195749499Y-29442445D01*
X195749494Y-29442441D01*
X195602997Y-29336006D01*
X195602996Y-29336005D01*
X195602994Y-29336004D01*
X195551300Y-29309664D01*
X195441639Y-29253788D01*
X195441636Y-29253787D01*
X195269410Y-29197829D01*
X195109321Y-29172473D01*
X195046186Y-29142544D01*
X195009255Y-29083232D01*
X195010253Y-29013370D01*
X195048863Y-28955137D01*
X195109321Y-28927527D01*
X195179425Y-28916422D01*
X195269409Y-28902171D01*
X195441639Y-28846211D01*
X195602994Y-28763996D01*
X195749501Y-28657553D01*
X195877553Y-28529501D01*
X195983996Y-28382994D01*
X196066211Y-28221639D01*
X196122171Y-28049409D01*
X196136765Y-27957259D01*
X196150500Y-27870551D01*
X196150500Y-27689448D01*
X196134019Y-27585397D01*
X196122171Y-27510591D01*
X196066211Y-27338361D01*
X196066211Y-27338360D01*
X196037740Y-27282484D01*
X195983996Y-27177006D01*
X195970396Y-27158287D01*
X195877558Y-27030505D01*
X195877554Y-27030500D01*
X195749499Y-26902445D01*
X195749494Y-26902441D01*
X195602997Y-26796006D01*
X195602996Y-26796005D01*
X195602994Y-26796004D01*
X195551300Y-26769664D01*
X195441639Y-26713788D01*
X195441636Y-26713787D01*
X195269410Y-26657829D01*
X195109321Y-26632473D01*
X195046186Y-26602544D01*
X195009255Y-26543232D01*
X195010253Y-26473370D01*
X195048863Y-26415137D01*
X195109321Y-26387527D01*
X195179425Y-26376422D01*
X195269409Y-26362171D01*
X195441639Y-26306211D01*
X195602994Y-26223996D01*
X195749501Y-26117553D01*
X195877553Y-25989501D01*
X195983996Y-25842994D01*
X196066211Y-25681639D01*
X196122171Y-25509409D01*
X196142637Y-25380193D01*
X196150500Y-25330551D01*
X196150500Y-25149448D01*
X196123756Y-24980600D01*
X196122171Y-24970591D01*
X196074761Y-24824676D01*
X196066212Y-24798363D01*
X196066211Y-24798360D01*
X196023509Y-24714554D01*
X195983996Y-24637006D01*
X195958389Y-24601761D01*
X195877558Y-24490505D01*
X195877554Y-24490500D01*
X195749499Y-24362445D01*
X195749494Y-24362441D01*
X195602997Y-24256006D01*
X195602996Y-24256005D01*
X195602994Y-24256004D01*
X195551300Y-24229664D01*
X195441639Y-24173788D01*
X195441636Y-24173787D01*
X195269410Y-24117829D01*
X195109321Y-24092473D01*
X195046186Y-24062544D01*
X195009255Y-24003232D01*
X195010253Y-23933370D01*
X195048863Y-23875137D01*
X195109321Y-23847527D01*
X195179425Y-23836422D01*
X195269409Y-23822171D01*
X195441639Y-23766211D01*
X195602994Y-23683996D01*
X195749501Y-23577553D01*
X195877553Y-23449501D01*
X195983996Y-23302994D01*
X196066211Y-23141639D01*
X196122171Y-22969409D01*
X196141624Y-22846590D01*
X196150500Y-22790551D01*
X196150500Y-22609448D01*
X196132784Y-22497598D01*
X196122171Y-22430591D01*
X196081826Y-22306420D01*
X196066212Y-22258363D01*
X196066211Y-22258360D01*
X196023901Y-22175323D01*
X195983996Y-22097006D01*
X195887387Y-21964034D01*
X195877558Y-21950505D01*
X195877554Y-21950500D01*
X195749499Y-21822445D01*
X195749494Y-21822441D01*
X195602997Y-21716006D01*
X195602996Y-21716005D01*
X195602994Y-21716004D01*
X195536407Y-21682076D01*
X195441639Y-21633788D01*
X195441636Y-21633787D01*
X195269410Y-21577829D01*
X195109321Y-21552473D01*
X195046186Y-21522544D01*
X195009255Y-21463232D01*
X195010253Y-21393370D01*
X195048863Y-21335137D01*
X195109321Y-21307527D01*
X195179425Y-21296422D01*
X195269409Y-21282171D01*
X195441639Y-21226211D01*
X195602994Y-21143996D01*
X195749501Y-21037553D01*
X195877553Y-20909501D01*
X195983996Y-20762994D01*
X196066211Y-20601639D01*
X196122171Y-20429409D01*
X196136765Y-20337259D01*
X196150500Y-20250551D01*
X196150500Y-20069448D01*
X196128129Y-19928209D01*
X196122171Y-19890591D01*
X196075670Y-19747473D01*
X196066212Y-19718363D01*
X196066211Y-19718360D01*
X196026287Y-19640006D01*
X195983996Y-19557006D01*
X195941550Y-19498584D01*
X195877558Y-19410505D01*
X195877554Y-19410500D01*
X195749499Y-19282445D01*
X195749494Y-19282441D01*
X195602997Y-19176006D01*
X195602996Y-19176005D01*
X195602994Y-19176004D01*
X195551300Y-19149664D01*
X195441639Y-19093788D01*
X195441636Y-19093787D01*
X195269410Y-19037829D01*
X195109321Y-19012473D01*
X195046186Y-18982544D01*
X195009255Y-18923232D01*
X195010253Y-18853370D01*
X195048863Y-18795137D01*
X195109321Y-18767527D01*
X195179425Y-18756422D01*
X195269409Y-18742171D01*
X195441639Y-18686211D01*
X195602994Y-18603996D01*
X195749501Y-18497553D01*
X195877553Y-18369501D01*
X195983996Y-18222994D01*
X196066211Y-18061639D01*
X196122171Y-17889409D01*
X196136765Y-17797259D01*
X196150500Y-17710551D01*
X196150500Y-17529448D01*
X196134019Y-17425397D01*
X196122171Y-17350591D01*
X196079293Y-17218623D01*
X196066212Y-17178363D01*
X196066211Y-17178360D01*
X196037740Y-17122484D01*
X195983996Y-17017006D01*
X195964146Y-16989685D01*
X195877558Y-16870505D01*
X195877554Y-16870500D01*
X195749499Y-16742445D01*
X195749494Y-16742441D01*
X195602997Y-16636006D01*
X195602996Y-16636005D01*
X195602994Y-16636004D01*
X195539182Y-16603490D01*
X195441639Y-16553788D01*
X195441636Y-16553787D01*
X195269410Y-16497829D01*
X195109321Y-16472473D01*
X195046186Y-16442544D01*
X195009255Y-16383232D01*
X195010253Y-16313370D01*
X195048863Y-16255137D01*
X195109321Y-16227527D01*
X195179425Y-16216422D01*
X195269409Y-16202171D01*
X195441639Y-16146211D01*
X195602994Y-16063996D01*
X195749501Y-15957553D01*
X195877553Y-15829501D01*
X195983996Y-15682994D01*
X196066211Y-15521639D01*
X196066424Y-15520985D01*
X196083146Y-15469517D01*
X196122171Y-15349409D01*
X196139153Y-15242189D01*
X196150500Y-15170551D01*
X196150500Y-14989448D01*
X196134019Y-14885397D01*
X196122171Y-14810591D01*
X196086336Y-14700300D01*
X196066212Y-14638363D01*
X196066211Y-14638360D01*
X196016156Y-14540123D01*
X195983996Y-14477006D01*
X195928400Y-14400484D01*
X195877558Y-14330505D01*
X195877554Y-14330500D01*
X195749499Y-14202445D01*
X195749494Y-14202441D01*
X195602997Y-14096006D01*
X195602996Y-14096005D01*
X195602994Y-14096004D01*
X195551300Y-14069664D01*
X195441639Y-14013788D01*
X195441636Y-14013787D01*
X195269410Y-13957829D01*
X195109321Y-13932473D01*
X195046186Y-13902544D01*
X195009255Y-13843232D01*
X195010253Y-13773370D01*
X195048863Y-13715137D01*
X195109321Y-13687527D01*
X195179425Y-13676422D01*
X195269409Y-13662171D01*
X195441639Y-13606211D01*
X195602994Y-13523996D01*
X195749501Y-13417553D01*
X195877553Y-13289501D01*
X195983996Y-13142994D01*
X196066211Y-12981639D01*
X196122171Y-12809409D01*
X196138457Y-12706583D01*
X196150500Y-12630551D01*
X196150500Y-12449448D01*
X196129497Y-12316845D01*
X196122171Y-12270591D01*
X196087576Y-12164116D01*
X196066212Y-12098363D01*
X196066211Y-12098360D01*
X196013179Y-11994281D01*
X195983996Y-11937006D01*
X195952062Y-11893052D01*
X195877558Y-11790505D01*
X195877554Y-11790500D01*
X195749499Y-11662445D01*
X195749494Y-11662441D01*
X195602997Y-11556006D01*
X195602996Y-11556005D01*
X195602994Y-11556004D01*
X195551300Y-11529664D01*
X195441639Y-11473788D01*
X195441636Y-11473787D01*
X195269410Y-11417829D01*
X195137733Y-11396973D01*
X195074598Y-11367044D01*
X195037667Y-11307732D01*
X195038665Y-11237869D01*
X195077275Y-11179637D01*
X195141239Y-11151523D01*
X195157131Y-11150500D01*
X195924676Y-11150500D01*
X195924677Y-11150499D01*
X195997740Y-11135966D01*
X196080601Y-11080601D01*
X196135966Y-10997740D01*
X196150500Y-10924674D01*
X196150500Y-10714555D01*
X196170185Y-10647516D01*
X196222989Y-10601761D01*
X196292147Y-10591817D01*
X196355703Y-10620842D01*
X196362181Y-10626874D01*
X198521219Y-12785912D01*
X198521220Y-12785913D01*
X198595787Y-12860480D01*
X198687113Y-12913207D01*
X198788973Y-12940500D01*
X201456840Y-12940500D01*
X201523879Y-12960185D01*
X201567325Y-13008205D01*
X201573427Y-13020180D01*
X201634733Y-13140500D01*
X201636006Y-13142997D01*
X201742441Y-13289494D01*
X201742445Y-13289499D01*
X201870500Y-13417554D01*
X201870505Y-13417558D01*
X201998287Y-13510396D01*
X202017006Y-13523996D01*
X202122484Y-13577740D01*
X202178360Y-13606211D01*
X202178363Y-13606212D01*
X202264476Y-13634191D01*
X202350591Y-13662171D01*
X202417593Y-13672783D01*
X202510678Y-13687527D01*
X202573813Y-13717456D01*
X202610744Y-13776768D01*
X202609746Y-13846631D01*
X202571136Y-13904863D01*
X202510678Y-13932473D01*
X202350589Y-13957829D01*
X202178363Y-14013787D01*
X202178360Y-14013788D01*
X202017002Y-14096006D01*
X201870505Y-14202441D01*
X201870500Y-14202445D01*
X201742445Y-14330500D01*
X201742441Y-14330505D01*
X201636006Y-14477002D01*
X201553788Y-14638360D01*
X201553787Y-14638363D01*
X201497829Y-14810589D01*
X201469500Y-14989448D01*
X201469500Y-15170551D01*
X201497829Y-15349410D01*
X201553787Y-15521636D01*
X201553788Y-15521639D01*
X201593694Y-15599957D01*
X201624479Y-15660376D01*
X201636006Y-15682997D01*
X201742441Y-15829494D01*
X201742445Y-15829499D01*
X201870500Y-15957554D01*
X201870505Y-15957558D01*
X201998287Y-16050396D01*
X202017006Y-16063996D01*
X202122484Y-16117740D01*
X202178360Y-16146211D01*
X202178363Y-16146212D01*
X202264476Y-16174191D01*
X202350591Y-16202171D01*
X202423639Y-16213740D01*
X202510678Y-16227527D01*
X202573813Y-16257456D01*
X202610744Y-16316768D01*
X202609746Y-16386631D01*
X202571136Y-16444863D01*
X202510678Y-16472473D01*
X202350589Y-16497829D01*
X202178363Y-16553787D01*
X202178360Y-16553788D01*
X202017002Y-16636006D01*
X201870505Y-16742441D01*
X201870500Y-16742445D01*
X201742445Y-16870500D01*
X201742441Y-16870505D01*
X201636006Y-17017002D01*
X201553788Y-17178360D01*
X201553787Y-17178363D01*
X201497829Y-17350589D01*
X201469500Y-17529448D01*
X201469500Y-17710551D01*
X201497829Y-17889410D01*
X201553787Y-18061636D01*
X201553788Y-18061639D01*
X201636006Y-18222997D01*
X201742441Y-18369494D01*
X201742445Y-18369499D01*
X201870500Y-18497554D01*
X201870505Y-18497558D01*
X201950961Y-18556012D01*
X202017006Y-18603996D01*
X202114510Y-18653677D01*
X202178360Y-18686211D01*
X202178363Y-18686212D01*
X202244141Y-18707584D01*
X202350591Y-18742171D01*
X202423639Y-18753740D01*
X202510678Y-18767527D01*
X202573813Y-18797456D01*
X202610744Y-18856768D01*
X202609746Y-18926631D01*
X202571136Y-18984863D01*
X202510678Y-19012473D01*
X202350589Y-19037829D01*
X202178363Y-19093787D01*
X202178360Y-19093788D01*
X202017002Y-19176006D01*
X201870505Y-19282441D01*
X201870500Y-19282445D01*
X201742445Y-19410500D01*
X201742441Y-19410505D01*
X201636006Y-19557002D01*
X201567325Y-19691795D01*
X201519350Y-19742591D01*
X201456840Y-19759500D01*
X197855798Y-19759500D01*
X197788759Y-19739815D01*
X197768117Y-19723181D01*
X197724417Y-19679481D01*
X197724409Y-19679475D01*
X197587490Y-19600426D01*
X197587486Y-19600424D01*
X197587484Y-19600423D01*
X197434757Y-19559500D01*
X197276643Y-19559500D01*
X197123916Y-19600423D01*
X197123909Y-19600426D01*
X196986990Y-19679475D01*
X196986982Y-19679481D01*
X196875181Y-19791282D01*
X196875175Y-19791290D01*
X196796126Y-19928209D01*
X196796123Y-19928216D01*
X196755200Y-20080943D01*
X196755200Y-20239057D01*
X196758279Y-20250546D01*
X196796123Y-20391783D01*
X196796126Y-20391790D01*
X196875175Y-20528709D01*
X196875179Y-20528714D01*
X196875180Y-20528716D01*
X196986984Y-20640520D01*
X196986986Y-20640521D01*
X196986990Y-20640524D01*
X197073899Y-20690700D01*
X197123916Y-20719577D01*
X197276643Y-20760500D01*
X197276645Y-20760500D01*
X197434755Y-20760500D01*
X197434757Y-20760500D01*
X197587484Y-20719577D01*
X197724416Y-20640520D01*
X197768117Y-20596819D01*
X197829440Y-20563334D01*
X197855798Y-20560500D01*
X201456840Y-20560500D01*
X201523879Y-20580185D01*
X201567325Y-20628205D01*
X201634733Y-20760500D01*
X201636006Y-20762997D01*
X201742441Y-20909494D01*
X201742445Y-20909499D01*
X201870500Y-21037554D01*
X201870505Y-21037558D01*
X201998287Y-21130396D01*
X202017006Y-21143996D01*
X202122484Y-21197740D01*
X202178360Y-21226211D01*
X202178363Y-21226212D01*
X202264476Y-21254191D01*
X202350591Y-21282171D01*
X202423639Y-21293740D01*
X202510678Y-21307527D01*
X202573813Y-21337456D01*
X202610744Y-21396768D01*
X202609746Y-21466631D01*
X202571136Y-21524863D01*
X202510678Y-21552473D01*
X202350589Y-21577829D01*
X202178363Y-21633787D01*
X202178360Y-21633788D01*
X202017002Y-21716006D01*
X201870505Y-21822441D01*
X201870500Y-21822445D01*
X201742445Y-21950500D01*
X201742441Y-21950505D01*
X201636006Y-22097002D01*
X201553788Y-22258360D01*
X201553787Y-22258363D01*
X201497829Y-22430589D01*
X201469500Y-22609448D01*
X201469500Y-22790551D01*
X201497829Y-22969410D01*
X201553787Y-23141636D01*
X201553788Y-23141639D01*
X201601506Y-23235289D01*
X201628880Y-23289013D01*
X201636006Y-23302997D01*
X201742441Y-23449494D01*
X201742445Y-23449499D01*
X201870500Y-23577554D01*
X201870505Y-23577558D01*
X201938272Y-23626793D01*
X202017006Y-23683996D01*
X202122484Y-23737740D01*
X202178360Y-23766211D01*
X202178363Y-23766212D01*
X202264476Y-23794191D01*
X202350591Y-23822171D01*
X202423639Y-23833740D01*
X202510678Y-23847527D01*
X202573813Y-23877456D01*
X202610744Y-23936768D01*
X202609746Y-24006631D01*
X202571136Y-24064863D01*
X202510678Y-24092473D01*
X202350589Y-24117829D01*
X202178363Y-24173787D01*
X202178360Y-24173788D01*
X202017002Y-24256006D01*
X201870505Y-24362441D01*
X201870500Y-24362445D01*
X201742445Y-24490500D01*
X201742441Y-24490505D01*
X201636006Y-24637002D01*
X201553788Y-24798360D01*
X201553787Y-24798363D01*
X201497829Y-24970589D01*
X201469500Y-25149448D01*
X201469500Y-25330551D01*
X201497829Y-25509410D01*
X201553787Y-25681636D01*
X201553788Y-25681639D01*
X201590782Y-25754242D01*
X201626671Y-25824678D01*
X201636006Y-25842997D01*
X201742441Y-25989494D01*
X201742445Y-25989499D01*
X201870500Y-26117554D01*
X201870505Y-26117558D01*
X201954569Y-26178633D01*
X202017006Y-26223996D01*
X202122484Y-26277740D01*
X202178360Y-26306211D01*
X202178363Y-26306212D01*
X202264476Y-26334191D01*
X202350591Y-26362171D01*
X202423639Y-26373740D01*
X202510678Y-26387527D01*
X202573813Y-26417456D01*
X202610744Y-26476768D01*
X202609746Y-26546631D01*
X202571136Y-26604863D01*
X202510678Y-26632473D01*
X202350589Y-26657829D01*
X202178363Y-26713787D01*
X202178360Y-26713788D01*
X202017002Y-26796006D01*
X201870505Y-26902441D01*
X201870500Y-26902445D01*
X201742445Y-27030500D01*
X201742441Y-27030505D01*
X201636006Y-27177002D01*
X201553788Y-27338360D01*
X201553787Y-27338363D01*
X201497829Y-27510589D01*
X201469500Y-27689448D01*
X201469500Y-27870551D01*
X201497829Y-28049412D01*
X201544575Y-28193283D01*
X201546570Y-28263124D01*
X201514325Y-28319281D01*
X201185226Y-28648381D01*
X201123903Y-28681866D01*
X201097545Y-28684700D01*
X198642698Y-28684700D01*
X198575659Y-28665015D01*
X198555017Y-28648381D01*
X198511317Y-28604681D01*
X198511309Y-28604675D01*
X198374390Y-28525626D01*
X198374386Y-28525624D01*
X198374384Y-28525623D01*
X198221657Y-28484700D01*
X198063543Y-28484700D01*
X197910816Y-28525623D01*
X197910809Y-28525626D01*
X197773890Y-28604675D01*
X197773882Y-28604681D01*
X197662081Y-28716482D01*
X197662075Y-28716490D01*
X197583026Y-28853409D01*
X197583023Y-28853416D01*
X197542100Y-29006143D01*
X197542100Y-29164257D01*
X197573501Y-29281445D01*
X197583023Y-29316983D01*
X197583026Y-29316990D01*
X197662075Y-29453909D01*
X197662079Y-29453914D01*
X197662080Y-29453916D01*
X197773884Y-29565720D01*
X197773886Y-29565721D01*
X197773890Y-29565724D01*
X197844367Y-29606413D01*
X197910816Y-29644777D01*
X198063543Y-29685700D01*
X198063545Y-29685700D01*
X198221655Y-29685700D01*
X198221657Y-29685700D01*
X198374384Y-29644777D01*
X198511316Y-29565720D01*
X198555017Y-29522019D01*
X198616340Y-29488534D01*
X198642698Y-29485700D01*
X201367525Y-29485700D01*
X201367527Y-29485700D01*
X201469388Y-29458407D01*
X201560713Y-29405680D01*
X202080719Y-28885672D01*
X202142040Y-28852189D01*
X202206716Y-28855424D01*
X202350591Y-28902171D01*
X202423639Y-28913740D01*
X202510678Y-28927527D01*
X202573813Y-28957456D01*
X202610744Y-29016768D01*
X202609746Y-29086631D01*
X202571136Y-29144863D01*
X202510678Y-29172473D01*
X202350589Y-29197829D01*
X202178363Y-29253787D01*
X202178360Y-29253788D01*
X202017006Y-29336003D01*
X201885623Y-29431457D01*
X201885616Y-29431463D01*
X201870499Y-29442447D01*
X201742447Y-29570499D01*
X201733514Y-29582793D01*
X201733508Y-29582800D01*
X201636006Y-29717002D01*
X201553788Y-29878360D01*
X201553787Y-29878363D01*
X201497829Y-30050589D01*
X201469500Y-30229448D01*
X201469500Y-30410551D01*
X201497829Y-30589410D01*
X201553787Y-30761636D01*
X201553788Y-30761639D01*
X201585907Y-30824674D01*
X201623136Y-30897740D01*
X201636006Y-30922997D01*
X201742441Y-31069494D01*
X201742445Y-31069499D01*
X201870500Y-31197554D01*
X201870505Y-31197558D01*
X201998287Y-31290396D01*
X202017006Y-31303996D01*
X202122484Y-31357740D01*
X202178360Y-31386211D01*
X202178363Y-31386212D01*
X202264476Y-31414191D01*
X202350591Y-31442171D01*
X202423639Y-31453740D01*
X202510678Y-31467527D01*
X202573813Y-31497456D01*
X202610744Y-31556768D01*
X202609746Y-31626631D01*
X202571136Y-31684863D01*
X202510678Y-31712473D01*
X202350589Y-31737829D01*
X202178363Y-31793787D01*
X202178360Y-31793788D01*
X202017002Y-31876006D01*
X201870505Y-31982441D01*
X201870500Y-31982445D01*
X201742445Y-32110500D01*
X201742441Y-32110505D01*
X201636006Y-32257002D01*
X201553788Y-32418360D01*
X201553787Y-32418363D01*
X201497829Y-32590589D01*
X201469500Y-32769448D01*
X201469500Y-32950551D01*
X201497829Y-33129410D01*
X201553787Y-33301636D01*
X201553788Y-33301639D01*
X201636006Y-33462997D01*
X201742441Y-33609494D01*
X201742445Y-33609499D01*
X201870500Y-33737554D01*
X201870505Y-33737558D01*
X201998287Y-33830396D01*
X202017006Y-33843996D01*
X202122484Y-33897740D01*
X202178360Y-33926211D01*
X202178363Y-33926212D01*
X202264476Y-33954191D01*
X202350591Y-33982171D01*
X202433429Y-33995291D01*
X202529449Y-34010500D01*
X202529454Y-34010500D01*
X202710551Y-34010500D01*
X202889409Y-33982171D01*
X202940182Y-33965674D01*
X203033284Y-33935423D01*
X203103123Y-33933429D01*
X203159281Y-33965674D01*
X203585687Y-34392080D01*
X203677012Y-34444807D01*
X203778873Y-34472100D01*
X203884327Y-34472100D01*
X204628302Y-34472100D01*
X204695341Y-34491785D01*
X204715983Y-34508419D01*
X204759684Y-34552120D01*
X204759686Y-34552121D01*
X204759690Y-34552124D01*
X204896609Y-34631173D01*
X204896616Y-34631177D01*
X205049343Y-34672100D01*
X205049345Y-34672100D01*
X205207455Y-34672100D01*
X205207457Y-34672100D01*
X205360184Y-34631177D01*
X205497116Y-34552120D01*
X205608920Y-34440316D01*
X205687977Y-34303384D01*
X205728900Y-34150657D01*
X205728900Y-33992543D01*
X205687977Y-33839816D01*
X205628936Y-33737553D01*
X205608924Y-33702890D01*
X205608918Y-33702882D01*
X205497117Y-33591081D01*
X205497109Y-33591075D01*
X205360190Y-33512026D01*
X205360186Y-33512024D01*
X205360184Y-33512023D01*
X205207457Y-33471100D01*
X205049343Y-33471100D01*
X204896616Y-33512023D01*
X204896609Y-33512026D01*
X204759690Y-33591075D01*
X204759682Y-33591081D01*
X204715983Y-33634781D01*
X204654660Y-33668266D01*
X204628302Y-33671100D01*
X204048855Y-33671100D01*
X203981816Y-33651415D01*
X203961174Y-33634781D01*
X203725674Y-33399281D01*
X203692189Y-33337958D01*
X203695423Y-33273284D01*
X203742171Y-33129409D01*
X203770500Y-32950551D01*
X203770500Y-32769448D01*
X203750546Y-32643469D01*
X203742171Y-32590591D01*
X203692116Y-32436534D01*
X203686212Y-32418363D01*
X203686211Y-32418360D01*
X203657740Y-32362484D01*
X203603996Y-32257006D01*
X203586975Y-32233579D01*
X203497558Y-32110505D01*
X203497554Y-32110500D01*
X203369499Y-31982445D01*
X203369494Y-31982441D01*
X203222997Y-31876006D01*
X203222996Y-31876005D01*
X203222994Y-31876004D01*
X203171300Y-31849664D01*
X203061639Y-31793788D01*
X203061636Y-31793787D01*
X202889410Y-31737829D01*
X202729321Y-31712473D01*
X202666186Y-31682544D01*
X202629255Y-31623232D01*
X202630253Y-31553370D01*
X202668863Y-31495137D01*
X202729321Y-31467527D01*
X202799425Y-31456422D01*
X202889409Y-31442171D01*
X203061639Y-31386211D01*
X203222994Y-31303996D01*
X203369501Y-31197553D01*
X203497553Y-31069501D01*
X203603996Y-30922994D01*
X203686211Y-30761639D01*
X203742171Y-30589409D01*
X203756765Y-30497259D01*
X203770500Y-30410551D01*
X203770500Y-30229448D01*
X203750546Y-30103469D01*
X203742171Y-30050591D01*
X203692116Y-29896534D01*
X203686212Y-29878363D01*
X203686211Y-29878360D01*
X203634999Y-29777853D01*
X203603996Y-29717006D01*
X203577823Y-29680982D01*
X203497558Y-29570505D01*
X203497554Y-29570500D01*
X203369499Y-29442445D01*
X203369494Y-29442441D01*
X203222997Y-29336006D01*
X203222996Y-29336005D01*
X203222994Y-29336004D01*
X203112528Y-29279718D01*
X203112526Y-29279716D01*
X203061649Y-29253793D01*
X203061636Y-29253787D01*
X202889410Y-29197829D01*
X202747302Y-29175321D01*
X209949500Y-29175321D01*
X209949500Y-30824678D01*
X209964032Y-30897735D01*
X209964033Y-30897739D01*
X209964034Y-30897740D01*
X210019399Y-30980601D01*
X210063595Y-31010131D01*
X210102260Y-31035966D01*
X210102264Y-31035967D01*
X210175321Y-31050499D01*
X210175324Y-31050500D01*
X210175326Y-31050500D01*
X211824676Y-31050500D01*
X211824677Y-31050499D01*
X211897740Y-31035966D01*
X211980601Y-30980601D01*
X212035966Y-30897740D01*
X212050500Y-30824674D01*
X212050500Y-29896530D01*
X217569500Y-29896530D01*
X217569500Y-30103469D01*
X217609868Y-30306412D01*
X217609870Y-30306420D01*
X217689058Y-30497596D01*
X217804024Y-30669657D01*
X217950342Y-30815975D01*
X217950345Y-30815977D01*
X218122402Y-30930941D01*
X218313580Y-31010130D01*
X218516530Y-31050499D01*
X218516534Y-31050500D01*
X218516535Y-31050500D01*
X218723466Y-31050500D01*
X218723467Y-31050499D01*
X218926420Y-31010130D01*
X219117598Y-30930941D01*
X219289655Y-30815977D01*
X219435977Y-30669655D01*
X219550941Y-30497598D01*
X219630130Y-30306420D01*
X219670500Y-30103465D01*
X219670500Y-29896535D01*
X219670499Y-29896530D01*
X223489500Y-29896530D01*
X223489500Y-30103469D01*
X223529868Y-30306412D01*
X223529870Y-30306420D01*
X223609058Y-30497596D01*
X223724024Y-30669657D01*
X223870342Y-30815975D01*
X223870345Y-30815977D01*
X224042402Y-30930941D01*
X224233580Y-31010130D01*
X224436530Y-31050499D01*
X224436534Y-31050500D01*
X224436535Y-31050500D01*
X224643466Y-31050500D01*
X224643467Y-31050499D01*
X224846420Y-31010130D01*
X225037598Y-30930941D01*
X225209655Y-30815977D01*
X225355977Y-30669655D01*
X225470941Y-30497598D01*
X225550130Y-30306420D01*
X225590500Y-30103465D01*
X225590500Y-29896535D01*
X225550130Y-29693580D01*
X225470941Y-29502402D01*
X225355977Y-29330345D01*
X225355975Y-29330342D01*
X225209657Y-29184024D01*
X225087287Y-29102260D01*
X225037598Y-29069059D01*
X224846420Y-28989870D01*
X224846412Y-28989868D01*
X224643469Y-28949500D01*
X224643465Y-28949500D01*
X224436535Y-28949500D01*
X224436530Y-28949500D01*
X224233587Y-28989868D01*
X224233579Y-28989870D01*
X224042403Y-29069058D01*
X223870342Y-29184024D01*
X223724024Y-29330342D01*
X223609058Y-29502403D01*
X223529870Y-29693579D01*
X223529868Y-29693587D01*
X223489500Y-29896530D01*
X219670499Y-29896530D01*
X219630130Y-29693580D01*
X219550941Y-29502402D01*
X219435977Y-29330345D01*
X219435975Y-29330342D01*
X219289657Y-29184024D01*
X219167287Y-29102260D01*
X219117598Y-29069059D01*
X218926420Y-28989870D01*
X218926412Y-28989868D01*
X218723469Y-28949500D01*
X218723465Y-28949500D01*
X218516535Y-28949500D01*
X218516530Y-28949500D01*
X218313587Y-28989868D01*
X218313579Y-28989870D01*
X218122403Y-29069058D01*
X217950342Y-29184024D01*
X217804024Y-29330342D01*
X217689058Y-29502403D01*
X217609870Y-29693579D01*
X217609868Y-29693587D01*
X217569500Y-29896530D01*
X212050500Y-29896530D01*
X212050500Y-29175326D01*
X212050500Y-29175323D01*
X212050499Y-29175321D01*
X212035967Y-29102264D01*
X212035966Y-29102260D01*
X212013782Y-29069059D01*
X211980601Y-29019399D01*
X211897740Y-28964034D01*
X211897739Y-28964033D01*
X211897735Y-28964032D01*
X211824677Y-28949500D01*
X211824674Y-28949500D01*
X210175326Y-28949500D01*
X210175323Y-28949500D01*
X210102264Y-28964032D01*
X210102260Y-28964033D01*
X210019399Y-29019399D01*
X209964033Y-29102260D01*
X209964032Y-29102264D01*
X209949500Y-29175321D01*
X202747302Y-29175321D01*
X202729321Y-29172473D01*
X202666186Y-29142544D01*
X202629255Y-29083232D01*
X202630253Y-29013370D01*
X202668863Y-28955137D01*
X202729321Y-28927527D01*
X202799425Y-28916422D01*
X202889409Y-28902171D01*
X203061639Y-28846211D01*
X203222994Y-28763996D01*
X203369501Y-28657553D01*
X203497553Y-28529501D01*
X203603996Y-28382994D01*
X203686211Y-28221639D01*
X203742171Y-28049409D01*
X203756765Y-27957259D01*
X203770500Y-27870551D01*
X203770500Y-27689448D01*
X203754019Y-27585397D01*
X203742171Y-27510591D01*
X203686211Y-27338361D01*
X203686211Y-27338360D01*
X203657740Y-27282484D01*
X203603996Y-27177006D01*
X203590396Y-27158287D01*
X203497558Y-27030505D01*
X203497554Y-27030500D01*
X203369499Y-26902445D01*
X203369494Y-26902441D01*
X203222997Y-26796006D01*
X203222996Y-26796005D01*
X203222994Y-26796004D01*
X203171300Y-26769664D01*
X203061639Y-26713788D01*
X203061636Y-26713787D01*
X202889410Y-26657829D01*
X202729321Y-26632473D01*
X202666186Y-26602544D01*
X202629255Y-26543232D01*
X202630253Y-26473370D01*
X202668863Y-26415137D01*
X202729321Y-26387527D01*
X202799425Y-26376422D01*
X202889409Y-26362171D01*
X203061639Y-26306211D01*
X203222994Y-26223996D01*
X203369501Y-26117553D01*
X203497553Y-25989501D01*
X203603996Y-25842994D01*
X203686211Y-25681639D01*
X203742171Y-25509409D01*
X203762637Y-25380193D01*
X203770500Y-25330551D01*
X203770500Y-25149448D01*
X203743756Y-24980600D01*
X203742171Y-24970591D01*
X203694761Y-24824676D01*
X203686212Y-24798363D01*
X203686211Y-24798360D01*
X203643509Y-24714554D01*
X203603996Y-24637006D01*
X203578389Y-24601761D01*
X203497558Y-24490505D01*
X203497554Y-24490500D01*
X203369499Y-24362445D01*
X203369494Y-24362441D01*
X203222997Y-24256006D01*
X203222996Y-24256005D01*
X203222994Y-24256004D01*
X203171300Y-24229664D01*
X203061639Y-24173788D01*
X203061636Y-24173787D01*
X202889410Y-24117829D01*
X202729321Y-24092473D01*
X202666186Y-24062544D01*
X202629255Y-24003232D01*
X202630253Y-23933370D01*
X202668863Y-23875137D01*
X202729321Y-23847527D01*
X202799425Y-23836422D01*
X202889409Y-23822171D01*
X203061639Y-23766211D01*
X203222994Y-23683996D01*
X203369501Y-23577553D01*
X203497553Y-23449501D01*
X203603996Y-23302994D01*
X203686211Y-23141639D01*
X203742171Y-22969409D01*
X203761624Y-22846590D01*
X203770500Y-22790551D01*
X203770500Y-22609448D01*
X203752784Y-22497598D01*
X203742171Y-22430591D01*
X203701826Y-22306420D01*
X203686212Y-22258363D01*
X203686209Y-22258356D01*
X203669483Y-22225530D01*
X203669482Y-22225529D01*
X203656909Y-22200853D01*
X203643900Y-22175321D01*
X218949500Y-22175321D01*
X218949500Y-23824678D01*
X218964032Y-23897735D01*
X218964033Y-23897739D01*
X218982405Y-23925235D01*
X219019399Y-23980601D01*
X219077600Y-24019489D01*
X219102260Y-24035966D01*
X219102264Y-24035967D01*
X219175321Y-24050499D01*
X219175324Y-24050500D01*
X219175326Y-24050500D01*
X220824676Y-24050500D01*
X220824677Y-24050499D01*
X220897740Y-24035966D01*
X220980601Y-23980601D01*
X221035966Y-23897740D01*
X221050500Y-23824674D01*
X221050500Y-22175326D01*
X221050500Y-22175323D01*
X221050499Y-22175321D01*
X221035967Y-22102264D01*
X221035966Y-22102260D01*
X220982752Y-22022619D01*
X220980601Y-22019399D01*
X220897740Y-21964034D01*
X220897739Y-21964033D01*
X220897735Y-21964032D01*
X220824677Y-21949500D01*
X220824674Y-21949500D01*
X219175326Y-21949500D01*
X219175323Y-21949500D01*
X219102264Y-21964032D01*
X219102260Y-21964033D01*
X219019399Y-22019399D01*
X218964033Y-22102260D01*
X218964032Y-22102264D01*
X218949500Y-22175321D01*
X203643900Y-22175321D01*
X203603996Y-22097006D01*
X203507387Y-21964034D01*
X203497558Y-21950505D01*
X203497554Y-21950500D01*
X203369499Y-21822445D01*
X203369494Y-21822441D01*
X203222997Y-21716006D01*
X203222996Y-21716005D01*
X203222994Y-21716004D01*
X203156407Y-21682076D01*
X203061639Y-21633788D01*
X203061636Y-21633787D01*
X202889410Y-21577829D01*
X202729321Y-21552473D01*
X202666186Y-21522544D01*
X202629255Y-21463232D01*
X202630253Y-21393370D01*
X202668863Y-21335137D01*
X202729321Y-21307527D01*
X202799425Y-21296422D01*
X202889409Y-21282171D01*
X203061639Y-21226211D01*
X203222994Y-21143996D01*
X203369501Y-21037553D01*
X203497553Y-20909501D01*
X203603996Y-20762994D01*
X203686211Y-20601639D01*
X203742171Y-20429409D01*
X203756765Y-20337259D01*
X203770500Y-20250551D01*
X203770500Y-20069448D01*
X203748129Y-19928209D01*
X203742171Y-19890591D01*
X203695670Y-19747473D01*
X203686212Y-19718363D01*
X203686211Y-19718360D01*
X203646287Y-19640006D01*
X203603996Y-19557006D01*
X203561550Y-19498584D01*
X203497558Y-19410505D01*
X203497554Y-19410500D01*
X203369499Y-19282445D01*
X203369494Y-19282441D01*
X203222997Y-19176006D01*
X203222996Y-19176005D01*
X203222994Y-19176004D01*
X203171300Y-19149664D01*
X203061639Y-19093788D01*
X203061636Y-19093787D01*
X202889410Y-19037829D01*
X202729321Y-19012473D01*
X202666186Y-18982544D01*
X202629255Y-18923232D01*
X202630253Y-18853370D01*
X202668863Y-18795137D01*
X202729321Y-18767527D01*
X202799425Y-18756422D01*
X202889409Y-18742171D01*
X203061639Y-18686211D01*
X203222994Y-18603996D01*
X203369501Y-18497553D01*
X203497553Y-18369501D01*
X203603996Y-18222994D01*
X203686211Y-18061639D01*
X203742171Y-17889409D01*
X203756765Y-17797259D01*
X203770500Y-17710551D01*
X203770500Y-17529448D01*
X203754019Y-17425397D01*
X203742171Y-17350591D01*
X203699293Y-17218623D01*
X203686212Y-17178363D01*
X203686211Y-17178360D01*
X203657740Y-17122484D01*
X203603996Y-17017006D01*
X203584146Y-16989685D01*
X203497558Y-16870505D01*
X203497554Y-16870500D01*
X203369499Y-16742445D01*
X203369494Y-16742441D01*
X203222997Y-16636006D01*
X203222996Y-16636005D01*
X203222994Y-16636004D01*
X203159182Y-16603490D01*
X203061639Y-16553788D01*
X203061636Y-16553787D01*
X202889410Y-16497829D01*
X202729321Y-16472473D01*
X202666186Y-16442544D01*
X202629255Y-16383232D01*
X202630253Y-16313370D01*
X202668863Y-16255137D01*
X202729321Y-16227527D01*
X202799425Y-16216422D01*
X202889409Y-16202171D01*
X203061639Y-16146211D01*
X203222994Y-16063996D01*
X203369501Y-15957553D01*
X203497553Y-15829501D01*
X203603996Y-15682994D01*
X203686211Y-15521639D01*
X203686424Y-15520985D01*
X203703146Y-15469517D01*
X203742171Y-15349409D01*
X203759153Y-15242189D01*
X203770500Y-15170551D01*
X203770500Y-14989448D01*
X203754019Y-14885397D01*
X203742171Y-14810591D01*
X203706336Y-14700300D01*
X203686212Y-14638363D01*
X203686211Y-14638360D01*
X203636156Y-14540123D01*
X203603996Y-14477006D01*
X203548400Y-14400484D01*
X203497558Y-14330505D01*
X203497554Y-14330500D01*
X203369499Y-14202445D01*
X203369494Y-14202441D01*
X203222997Y-14096006D01*
X203222996Y-14096005D01*
X203222994Y-14096004D01*
X203171300Y-14069664D01*
X203061639Y-14013788D01*
X203061636Y-14013787D01*
X202889410Y-13957829D01*
X202729321Y-13932473D01*
X202666186Y-13902544D01*
X202629255Y-13843232D01*
X202630253Y-13773370D01*
X202668863Y-13715137D01*
X202729321Y-13687527D01*
X202799425Y-13676422D01*
X202889409Y-13662171D01*
X203061639Y-13606211D01*
X203222994Y-13523996D01*
X203369501Y-13417553D01*
X203497553Y-13289501D01*
X203603996Y-13142994D01*
X203686211Y-12981639D01*
X203742171Y-12809409D01*
X203758457Y-12706583D01*
X203770500Y-12630551D01*
X203770500Y-12449448D01*
X203749497Y-12316845D01*
X203742171Y-12270591D01*
X203707576Y-12164116D01*
X203686212Y-12098363D01*
X203686211Y-12098360D01*
X203633179Y-11994281D01*
X203603996Y-11937006D01*
X203572062Y-11893052D01*
X203497558Y-11790505D01*
X203497554Y-11790500D01*
X203369499Y-11662445D01*
X203369494Y-11662441D01*
X203222997Y-11556006D01*
X203222996Y-11556005D01*
X203222994Y-11556004D01*
X203171300Y-11529664D01*
X203061639Y-11473788D01*
X203061636Y-11473787D01*
X202889410Y-11417829D01*
X202729321Y-11392473D01*
X202666186Y-11362544D01*
X202629255Y-11303232D01*
X202630253Y-11233370D01*
X202668863Y-11175137D01*
X202729321Y-11147527D01*
X202802310Y-11135966D01*
X202889409Y-11122171D01*
X203061639Y-11066211D01*
X203222994Y-10983996D01*
X203369501Y-10877553D01*
X203497553Y-10749501D01*
X203536544Y-10695834D01*
X203604999Y-10601615D01*
X203660329Y-10558949D01*
X203705317Y-10550500D01*
X203985500Y-10550500D01*
X204052539Y-10570185D01*
X204098294Y-10622989D01*
X204109500Y-10674500D01*
X204109500Y-10824678D01*
X204124032Y-10897735D01*
X204124033Y-10897739D01*
X204124034Y-10897740D01*
X204179399Y-10980601D01*
X204262260Y-11035966D01*
X204262264Y-11035967D01*
X204335321Y-11050499D01*
X204335324Y-11050500D01*
X204335326Y-11050500D01*
X205984676Y-11050500D01*
X205984677Y-11050499D01*
X206057740Y-11035966D01*
X206140601Y-10980601D01*
X206195966Y-10897740D01*
X206210500Y-10824674D01*
X206210500Y-9175326D01*
X206210500Y-9175323D01*
X206195966Y-9102261D01*
X206195966Y-9102260D01*
X206192648Y-9097294D01*
X206177966Y-9075321D01*
X218849500Y-9075321D01*
X218849500Y-10924678D01*
X218864032Y-10997735D01*
X218864033Y-10997739D01*
X218864034Y-10997740D01*
X218919399Y-11080601D01*
X218981614Y-11122171D01*
X219002260Y-11135966D01*
X219002264Y-11135967D01*
X219075321Y-11150499D01*
X219075324Y-11150500D01*
X219842869Y-11150500D01*
X219909908Y-11170185D01*
X219955663Y-11222989D01*
X219965607Y-11292147D01*
X219936582Y-11355703D01*
X219877804Y-11393477D01*
X219862267Y-11396973D01*
X219730589Y-11417829D01*
X219558363Y-11473787D01*
X219558360Y-11473788D01*
X219397002Y-11556006D01*
X219250505Y-11662441D01*
X219250500Y-11662445D01*
X219122445Y-11790500D01*
X219122441Y-11790505D01*
X219016006Y-11937002D01*
X218933788Y-12098360D01*
X218933787Y-12098363D01*
X218877829Y-12270589D01*
X218849500Y-12449448D01*
X218849500Y-12630551D01*
X218877829Y-12809410D01*
X218933787Y-12981636D01*
X218933788Y-12981639D01*
X218977220Y-13066877D01*
X219014733Y-13140500D01*
X219016006Y-13142997D01*
X219122441Y-13289494D01*
X219122445Y-13289499D01*
X219250500Y-13417554D01*
X219250505Y-13417558D01*
X219378287Y-13510396D01*
X219397006Y-13523996D01*
X219502484Y-13577740D01*
X219558360Y-13606211D01*
X219558363Y-13606212D01*
X219644476Y-13634191D01*
X219730591Y-13662171D01*
X219813429Y-13675291D01*
X219909449Y-13690500D01*
X219909454Y-13690500D01*
X220090551Y-13690500D01*
X220177259Y-13676765D01*
X220269409Y-13662171D01*
X220441639Y-13606211D01*
X220602994Y-13523996D01*
X220749501Y-13417553D01*
X220877553Y-13289501D01*
X220983996Y-13142994D01*
X221066211Y-12981639D01*
X221122171Y-12809409D01*
X221138457Y-12706583D01*
X221150500Y-12630551D01*
X221150500Y-12449448D01*
X221129497Y-12316845D01*
X221122171Y-12270591D01*
X221087576Y-12164116D01*
X221066212Y-12098363D01*
X221066211Y-12098360D01*
X221013179Y-11994281D01*
X220983996Y-11937006D01*
X220952062Y-11893052D01*
X220877558Y-11790505D01*
X220877554Y-11790500D01*
X220749499Y-11662445D01*
X220749494Y-11662441D01*
X220602997Y-11556006D01*
X220602996Y-11556005D01*
X220602994Y-11556004D01*
X220551300Y-11529664D01*
X220441639Y-11473788D01*
X220441636Y-11473787D01*
X220269410Y-11417829D01*
X220137733Y-11396973D01*
X220074598Y-11367044D01*
X220037667Y-11307732D01*
X220038665Y-11237869D01*
X220077275Y-11179637D01*
X220141239Y-11151523D01*
X220157131Y-11150500D01*
X220924676Y-11150500D01*
X220924677Y-11150499D01*
X220997740Y-11135966D01*
X221080601Y-11080601D01*
X221135966Y-10997740D01*
X221150500Y-10924674D01*
X221150500Y-9075326D01*
X221150500Y-9075323D01*
X221150499Y-9075321D01*
X221135967Y-9002264D01*
X221135966Y-9002260D01*
X221127720Y-8989919D01*
X221080601Y-8919399D01*
X221003348Y-8867781D01*
X220997739Y-8864033D01*
X220997735Y-8864032D01*
X220924677Y-8849500D01*
X220924674Y-8849500D01*
X219075326Y-8849500D01*
X219075323Y-8849500D01*
X219002264Y-8864032D01*
X219002260Y-8864033D01*
X218919399Y-8919399D01*
X218864033Y-9002260D01*
X218864032Y-9002264D01*
X218849500Y-9075321D01*
X206177966Y-9075321D01*
X206140601Y-9019399D01*
X206081010Y-8979582D01*
X206057739Y-8964033D01*
X206057735Y-8964032D01*
X205984677Y-8949500D01*
X205984674Y-8949500D01*
X204335326Y-8949500D01*
X204335323Y-8949500D01*
X204262264Y-8964032D01*
X204262260Y-8964033D01*
X204179399Y-9019399D01*
X204124033Y-9102260D01*
X204124032Y-9102264D01*
X204109500Y-9175321D01*
X204109500Y-9325500D01*
X204089815Y-9392539D01*
X204037011Y-9438294D01*
X203985500Y-9449500D01*
X203705317Y-9449500D01*
X203638278Y-9429815D01*
X203604999Y-9398385D01*
X203497558Y-9250505D01*
X203497554Y-9250500D01*
X203369499Y-9122445D01*
X203369494Y-9122441D01*
X203222997Y-9016006D01*
X203222996Y-9016005D01*
X203222994Y-9016004D01*
X203151528Y-8979590D01*
X203061639Y-8933788D01*
X203061636Y-8933787D01*
X202889410Y-8877829D01*
X202710551Y-8849500D01*
X202710546Y-8849500D01*
X202529454Y-8849500D01*
X202529449Y-8849500D01*
X202350589Y-8877829D01*
X202178363Y-8933787D01*
X202178353Y-8933791D01*
X202148524Y-8948990D01*
X202079855Y-8961885D01*
X202060142Y-8958280D01*
X202035298Y-8951623D01*
X202021027Y-8947800D01*
X202021026Y-8947800D01*
X197329398Y-8947800D01*
X197262359Y-8928115D01*
X197241717Y-8911481D01*
X197198017Y-8867781D01*
X197198009Y-8867775D01*
X197061090Y-8788726D01*
X197061086Y-8788724D01*
X197061084Y-8788723D01*
X196908357Y-8747800D01*
X196750243Y-8747800D01*
X196597516Y-8788723D01*
X196597509Y-8788726D01*
X196460590Y-8867775D01*
X196460582Y-8867781D01*
X196348781Y-8979582D01*
X196348775Y-8979590D01*
X196342812Y-8989919D01*
X196292245Y-9038134D01*
X196223638Y-9051356D01*
X196158773Y-9025388D01*
X196132324Y-8996808D01*
X196080602Y-8919400D01*
X196068750Y-8911481D01*
X196003348Y-8867781D01*
X195997739Y-8864033D01*
X195997735Y-8864032D01*
X195924677Y-8849500D01*
X195924674Y-8849500D01*
X194075326Y-8849500D01*
X194075323Y-8849500D01*
X194002264Y-8864032D01*
X194002260Y-8864033D01*
X193919399Y-8919399D01*
X193864033Y-9002260D01*
X193864032Y-9002264D01*
X193849500Y-9075321D01*
X193849500Y-10538305D01*
X193829815Y-10605344D01*
X193777011Y-10651099D01*
X193707853Y-10661043D01*
X193663500Y-10645692D01*
X193630906Y-10626874D01*
X193592489Y-10604693D01*
X193541557Y-10591046D01*
X193490627Y-10577400D01*
X193490626Y-10577400D01*
X187360498Y-10577400D01*
X187293459Y-10557715D01*
X187272817Y-10541081D01*
X187229117Y-10497381D01*
X187229109Y-10497375D01*
X187092190Y-10418326D01*
X187092186Y-10418324D01*
X187092184Y-10418323D01*
X186939457Y-10377400D01*
X186781343Y-10377400D01*
X186628616Y-10418323D01*
X186628609Y-10418326D01*
X186491690Y-10497375D01*
X186491682Y-10497381D01*
X186379881Y-10609182D01*
X186379875Y-10609190D01*
X186300826Y-10746109D01*
X186300823Y-10746116D01*
X186259900Y-10898843D01*
X186259900Y-11056957D01*
X186290240Y-11170185D01*
X186300823Y-11209683D01*
X186300826Y-11209690D01*
X186379875Y-11346609D01*
X186379879Y-11346614D01*
X186379880Y-11346616D01*
X186491684Y-11458420D01*
X186491686Y-11458421D01*
X186491690Y-11458424D01*
X186616396Y-11530422D01*
X186628616Y-11537477D01*
X186781343Y-11578400D01*
X186781345Y-11578400D01*
X186939455Y-11578400D01*
X186939457Y-11578400D01*
X187092184Y-11537477D01*
X187229116Y-11458420D01*
X187272817Y-11414719D01*
X187334140Y-11381234D01*
X187360498Y-11378400D01*
X193220645Y-11378400D01*
X193287684Y-11398085D01*
X193308326Y-11414719D01*
X193894325Y-12000718D01*
X193927810Y-12062041D01*
X193924575Y-12126716D01*
X193877829Y-12270587D01*
X193849500Y-12449448D01*
X193849500Y-12630551D01*
X193877829Y-12809410D01*
X193933787Y-12981636D01*
X193933788Y-12981639D01*
X193977220Y-13066877D01*
X194014733Y-13140500D01*
X194016006Y-13142997D01*
X194122441Y-13289494D01*
X194122445Y-13289499D01*
X194250500Y-13417554D01*
X194250505Y-13417558D01*
X194378287Y-13510396D01*
X194397006Y-13523996D01*
X194502484Y-13577740D01*
X194558360Y-13606211D01*
X194558363Y-13606212D01*
X194644476Y-13634191D01*
X194730591Y-13662171D01*
X194797593Y-13672783D01*
X194890678Y-13687527D01*
X194953813Y-13717456D01*
X194990744Y-13776768D01*
X194989746Y-13846631D01*
X194951136Y-13904863D01*
X194890678Y-13932473D01*
X194730589Y-13957829D01*
X194558363Y-14013787D01*
X194558360Y-14013788D01*
X194397002Y-14096006D01*
X194250505Y-14202441D01*
X194250500Y-14202445D01*
X194122445Y-14330500D01*
X194122441Y-14330505D01*
X194016006Y-14477002D01*
X193947325Y-14611795D01*
X193899350Y-14662591D01*
X193836840Y-14679500D01*
X180742873Y-14679500D01*
X180641010Y-14706793D01*
X180549687Y-14759520D01*
X180549684Y-14759522D01*
X174397926Y-20911281D01*
X174336603Y-20944766D01*
X174310245Y-20947600D01*
X174275990Y-20947600D01*
X174180410Y-20947600D01*
X174088088Y-20972337D01*
X174088086Y-20972338D01*
X174088085Y-20972338D01*
X174005316Y-21020124D01*
X174005311Y-21020128D01*
X173876459Y-21148981D01*
X173815136Y-21182466D01*
X173788778Y-21185300D01*
X172517454Y-21185300D01*
X172450415Y-21165615D01*
X172429778Y-21148985D01*
X172270913Y-20990120D01*
X172225731Y-20964034D01*
X172179589Y-20937393D01*
X172123938Y-20922482D01*
X172077727Y-20910100D01*
X171972273Y-20910100D01*
X171870408Y-20937394D01*
X171868555Y-20938162D01*
X171864628Y-20938942D01*
X171862561Y-20939497D01*
X171862524Y-20939361D01*
X171821105Y-20947600D01*
X171735990Y-20947600D01*
X171640410Y-20947600D01*
X171548088Y-20972337D01*
X171548086Y-20972338D01*
X171548085Y-20972338D01*
X171465316Y-21020124D01*
X171465311Y-21020128D01*
X171336459Y-21148981D01*
X171275136Y-21182466D01*
X171248778Y-21185300D01*
X45938573Y-21185300D01*
X45836710Y-21212593D01*
X45745387Y-21265320D01*
X45745384Y-21265322D01*
X45160426Y-21850281D01*
X45099103Y-21883766D01*
X45072745Y-21886600D01*
X38454898Y-21886600D01*
X38387859Y-21866915D01*
X38342104Y-21814111D01*
X38332160Y-21744953D01*
X38361185Y-21681397D01*
X38367217Y-21674919D01*
X38382220Y-21659916D01*
X38419620Y-21622516D01*
X38498677Y-21485584D01*
X38539600Y-21332857D01*
X38539600Y-21174743D01*
X38498677Y-21022016D01*
X38469995Y-20972337D01*
X38419624Y-20885090D01*
X38419618Y-20885082D01*
X38307817Y-20773281D01*
X38307809Y-20773275D01*
X38170890Y-20694226D01*
X38170886Y-20694224D01*
X38170884Y-20694223D01*
X38018157Y-20653300D01*
X37860043Y-20653300D01*
X37707316Y-20694223D01*
X37707309Y-20694226D01*
X37570390Y-20773275D01*
X37570382Y-20773281D01*
X37458581Y-20885082D01*
X37458575Y-20885090D01*
X37375459Y-21029054D01*
X37372480Y-21027334D01*
X37338077Y-21069436D01*
X37271634Y-21091048D01*
X37268053Y-21091100D01*
X15272061Y-21091100D01*
X15205022Y-21071415D01*
X15164674Y-21029100D01*
X15103120Y-20922484D01*
X14991316Y-20810680D01*
X14991314Y-20810679D01*
X14991309Y-20810675D01*
X14854390Y-20731626D01*
X14854386Y-20731624D01*
X14854384Y-20731623D01*
X14701657Y-20690700D01*
X14543543Y-20690700D01*
X14390816Y-20731623D01*
X14390809Y-20731626D01*
X14253890Y-20810675D01*
X14253882Y-20810681D01*
X14142081Y-20922482D01*
X14142075Y-20922490D01*
X14063026Y-21059409D01*
X14063023Y-21059416D01*
X14022100Y-21212143D01*
X14022100Y-21370257D01*
X14057509Y-21502403D01*
X14063023Y-21522983D01*
X14063026Y-21522990D01*
X14143918Y-21663101D01*
X14160391Y-21731001D01*
X14137538Y-21797028D01*
X14082617Y-21840218D01*
X14036531Y-21849100D01*
X11279373Y-21849100D01*
X11177513Y-21876393D01*
X11177510Y-21876394D01*
X11109353Y-21915745D01*
X11094948Y-21924062D01*
X11090567Y-21926591D01*
X11086186Y-21929120D01*
X11086184Y-21929122D01*
X9642181Y-23373126D01*
X9580858Y-23406611D01*
X9511166Y-23401627D01*
X9455233Y-23359755D01*
X9430816Y-23294291D01*
X9430500Y-23285445D01*
X9430500Y-23175323D01*
X9430499Y-23175321D01*
X9415967Y-23102264D01*
X9415966Y-23102260D01*
X9393782Y-23069059D01*
X9360601Y-23019399D01*
X9285786Y-22969410D01*
X9277739Y-22964033D01*
X9277735Y-22964032D01*
X9204677Y-22949500D01*
X9204674Y-22949500D01*
X7555326Y-22949500D01*
X7555323Y-22949500D01*
X7482264Y-22964032D01*
X7482260Y-22964033D01*
X7399399Y-23019399D01*
X7344033Y-23102260D01*
X7344032Y-23102264D01*
X7329500Y-23175321D01*
X1000000Y-23175321D01*
X1000000Y-7525943D01*
X8571100Y-7525943D01*
X8571100Y-7684057D01*
X8609524Y-7827455D01*
X8612023Y-7836783D01*
X8612026Y-7836790D01*
X8691075Y-7973709D01*
X8691079Y-7973714D01*
X8691080Y-7973716D01*
X8802884Y-8085520D01*
X8802886Y-8085521D01*
X8802890Y-8085524D01*
X8879268Y-8129620D01*
X8939816Y-8164577D01*
X9092543Y-8205500D01*
X9092545Y-8205500D01*
X9250655Y-8205500D01*
X9250657Y-8205500D01*
X9403384Y-8164577D01*
X9540316Y-8085520D01*
X9584017Y-8041819D01*
X9645340Y-8008334D01*
X9671698Y-8005500D01*
X11131380Y-8005500D01*
X11198419Y-8025185D01*
X11244174Y-8077989D01*
X11254118Y-8147147D01*
X11225093Y-8210703D01*
X11206869Y-8227874D01*
X11201985Y-8231621D01*
X10620426Y-8813181D01*
X10559103Y-8846666D01*
X10532745Y-8849500D01*
X9075323Y-8849500D01*
X9002264Y-8864032D01*
X9002260Y-8864033D01*
X8919399Y-8919399D01*
X8864033Y-9002260D01*
X8864032Y-9002264D01*
X8849500Y-9075321D01*
X8849500Y-10924678D01*
X8864032Y-10997735D01*
X8864033Y-10997739D01*
X8864034Y-10997740D01*
X8919399Y-11080601D01*
X8981614Y-11122171D01*
X9002260Y-11135966D01*
X9002264Y-11135967D01*
X9075321Y-11150499D01*
X9075324Y-11150500D01*
X9842869Y-11150500D01*
X9909908Y-11170185D01*
X9955663Y-11222989D01*
X9965607Y-11292147D01*
X9936582Y-11355703D01*
X9877804Y-11393477D01*
X9862267Y-11396973D01*
X9730589Y-11417829D01*
X9558363Y-11473787D01*
X9558360Y-11473788D01*
X9397002Y-11556006D01*
X9250505Y-11662441D01*
X9250500Y-11662445D01*
X9122445Y-11790500D01*
X9122441Y-11790505D01*
X9016006Y-11937002D01*
X8933788Y-12098360D01*
X8933787Y-12098363D01*
X8877829Y-12270589D01*
X8849500Y-12449448D01*
X8849500Y-12630551D01*
X8877829Y-12809410D01*
X8933787Y-12981636D01*
X8933788Y-12981639D01*
X8977220Y-13066877D01*
X9014733Y-13140500D01*
X9016006Y-13142997D01*
X9122441Y-13289494D01*
X9122445Y-13289499D01*
X9250500Y-13417554D01*
X9250505Y-13417558D01*
X9378287Y-13510396D01*
X9397006Y-13523996D01*
X9502484Y-13577740D01*
X9558360Y-13606211D01*
X9558363Y-13606212D01*
X9644476Y-13634191D01*
X9730591Y-13662171D01*
X9797593Y-13672783D01*
X9890678Y-13687527D01*
X9953813Y-13717456D01*
X9990744Y-13776768D01*
X9989746Y-13846631D01*
X9951136Y-13904863D01*
X9890678Y-13932473D01*
X9730589Y-13957829D01*
X9558363Y-14013787D01*
X9558360Y-14013788D01*
X9397002Y-14096006D01*
X9250505Y-14202441D01*
X9250500Y-14202445D01*
X9122445Y-14330500D01*
X9122441Y-14330505D01*
X9016006Y-14477002D01*
X8933788Y-14638360D01*
X8933787Y-14638363D01*
X8877829Y-14810589D01*
X8849500Y-14989448D01*
X8849500Y-15170551D01*
X8877829Y-15349410D01*
X8933787Y-15521636D01*
X8933788Y-15521639D01*
X8973694Y-15599957D01*
X9004479Y-15660376D01*
X9016006Y-15682997D01*
X9122441Y-15829494D01*
X9122445Y-15829499D01*
X9250500Y-15957554D01*
X9250505Y-15957558D01*
X9378287Y-16050396D01*
X9397006Y-16063996D01*
X9502484Y-16117740D01*
X9558360Y-16146211D01*
X9558363Y-16146212D01*
X9644476Y-16174191D01*
X9730591Y-16202171D01*
X9803639Y-16213740D01*
X9890678Y-16227527D01*
X9953813Y-16257456D01*
X9990744Y-16316768D01*
X9989746Y-16386631D01*
X9951136Y-16444863D01*
X9890678Y-16472473D01*
X9730589Y-16497829D01*
X9558363Y-16553787D01*
X9558360Y-16553788D01*
X9397002Y-16636006D01*
X9250505Y-16742441D01*
X9250500Y-16742445D01*
X9122445Y-16870500D01*
X9122441Y-16870505D01*
X9016006Y-17017002D01*
X8933788Y-17178360D01*
X8933787Y-17178363D01*
X8877829Y-17350589D01*
X8849500Y-17529448D01*
X8849500Y-17710551D01*
X8877829Y-17889410D01*
X8933787Y-18061636D01*
X8933788Y-18061639D01*
X9016006Y-18222997D01*
X9122441Y-18369494D01*
X9122445Y-18369499D01*
X9250500Y-18497554D01*
X9250505Y-18497558D01*
X9330961Y-18556012D01*
X9397006Y-18603996D01*
X9494510Y-18653677D01*
X9558360Y-18686211D01*
X9558363Y-18686212D01*
X9624141Y-18707584D01*
X9730591Y-18742171D01*
X9813429Y-18755291D01*
X9909449Y-18770500D01*
X9909454Y-18770500D01*
X10090551Y-18770500D01*
X10177259Y-18756765D01*
X10269409Y-18742171D01*
X10441639Y-18686211D01*
X10602994Y-18603996D01*
X10749501Y-18497553D01*
X10877553Y-18369501D01*
X10983996Y-18222994D01*
X11066211Y-18061639D01*
X11122171Y-17889409D01*
X11136422Y-17799425D01*
X11147527Y-17729321D01*
X11177456Y-17666186D01*
X11236768Y-17629255D01*
X11306630Y-17630253D01*
X11364863Y-17668863D01*
X11392473Y-17729321D01*
X11417829Y-17889410D01*
X11473787Y-18061636D01*
X11473788Y-18061639D01*
X11556006Y-18222997D01*
X11662441Y-18369494D01*
X11662445Y-18369499D01*
X11790500Y-18497554D01*
X11790505Y-18497558D01*
X11870961Y-18556012D01*
X11937006Y-18603996D01*
X12034510Y-18653677D01*
X12098360Y-18686211D01*
X12098363Y-18686212D01*
X12164141Y-18707584D01*
X12270591Y-18742171D01*
X12353429Y-18755291D01*
X12449449Y-18770500D01*
X12449454Y-18770500D01*
X12630551Y-18770500D01*
X12717259Y-18756765D01*
X12809409Y-18742171D01*
X12981639Y-18686211D01*
X13142994Y-18603996D01*
X13289501Y-18497553D01*
X13417553Y-18369501D01*
X13523996Y-18222994D01*
X13592675Y-18088205D01*
X13640650Y-18037409D01*
X13703160Y-18020500D01*
X30531645Y-18020500D01*
X30598684Y-18040185D01*
X30619326Y-18056819D01*
X30967881Y-18405374D01*
X31001366Y-18466697D01*
X31004200Y-18493055D01*
X31004200Y-18554857D01*
X31045123Y-18707584D01*
X31045826Y-18710207D01*
X31044163Y-18780057D01*
X31005000Y-18837919D01*
X30940772Y-18865423D01*
X30926051Y-18866300D01*
X14847298Y-18866300D01*
X14780259Y-18846615D01*
X14759617Y-18829981D01*
X14715917Y-18786281D01*
X14715909Y-18786275D01*
X14578990Y-18707226D01*
X14578986Y-18707224D01*
X14578984Y-18707223D01*
X14426257Y-18666300D01*
X14268143Y-18666300D01*
X14115416Y-18707223D01*
X14115409Y-18707226D01*
X13978490Y-18786275D01*
X13978482Y-18786281D01*
X13866681Y-18898082D01*
X13866675Y-18898090D01*
X13787626Y-19035009D01*
X13787623Y-19035016D01*
X13746700Y-19187743D01*
X13746700Y-19345857D01*
X13770268Y-19433812D01*
X13787623Y-19498583D01*
X13787626Y-19498590D01*
X13866675Y-19635509D01*
X13866679Y-19635514D01*
X13866680Y-19635516D01*
X13978484Y-19747320D01*
X13978486Y-19747321D01*
X13978490Y-19747324D01*
X14054643Y-19791290D01*
X14115416Y-19826377D01*
X14268143Y-19867300D01*
X14268145Y-19867300D01*
X14426255Y-19867300D01*
X14426257Y-19867300D01*
X14578984Y-19826377D01*
X14715916Y-19747320D01*
X14759617Y-19703619D01*
X14820940Y-19670134D01*
X14847298Y-19667300D01*
X31929525Y-19667300D01*
X31929527Y-19667300D01*
X32031388Y-19640007D01*
X32122713Y-19587280D01*
X32598006Y-19111984D01*
X32598011Y-19111981D01*
X32608211Y-19101780D01*
X32608213Y-19101780D01*
X32682780Y-19027213D01*
X32735507Y-18935887D01*
X32738939Y-18923080D01*
X32756204Y-18858646D01*
X32792566Y-18798990D01*
X32855413Y-18768460D01*
X32895375Y-18768270D01*
X32909454Y-18770500D01*
X32909455Y-18770500D01*
X33090551Y-18770500D01*
X33177259Y-18756765D01*
X33269409Y-18742171D01*
X33441639Y-18686211D01*
X33602994Y-18603996D01*
X33749501Y-18497553D01*
X33877553Y-18369501D01*
X33983996Y-18222994D01*
X34066211Y-18061639D01*
X34122171Y-17889409D01*
X34136422Y-17799425D01*
X34147527Y-17729321D01*
X34177456Y-17666186D01*
X34236768Y-17629255D01*
X34306630Y-17630253D01*
X34364863Y-17668863D01*
X34392473Y-17729321D01*
X34417829Y-17889410D01*
X34473787Y-18061636D01*
X34473788Y-18061639D01*
X34556006Y-18222997D01*
X34662441Y-18369494D01*
X34662445Y-18369499D01*
X34790500Y-18497554D01*
X34790505Y-18497558D01*
X34870961Y-18556012D01*
X34937006Y-18603996D01*
X35034510Y-18653677D01*
X35098360Y-18686211D01*
X35098363Y-18686212D01*
X35164141Y-18707584D01*
X35270591Y-18742171D01*
X35353429Y-18755291D01*
X35449449Y-18770500D01*
X35449454Y-18770500D01*
X35630551Y-18770500D01*
X35717259Y-18756765D01*
X35809409Y-18742171D01*
X35981639Y-18686211D01*
X36142994Y-18603996D01*
X36289501Y-18497553D01*
X36417553Y-18369501D01*
X36523996Y-18222994D01*
X36606211Y-18061639D01*
X36662171Y-17889409D01*
X36676765Y-17797259D01*
X36690500Y-17710551D01*
X36690500Y-17529448D01*
X36674019Y-17425397D01*
X36662171Y-17350591D01*
X36619293Y-17218623D01*
X36606212Y-17178363D01*
X36606211Y-17178360D01*
X36577740Y-17122484D01*
X36523996Y-17017006D01*
X36504146Y-16989685D01*
X36420704Y-16874835D01*
X36420701Y-16874832D01*
X36417553Y-16870499D01*
X36289501Y-16742447D01*
X36274746Y-16731727D01*
X36274739Y-16731720D01*
X36142997Y-16636006D01*
X36142996Y-16636005D01*
X36142994Y-16636004D01*
X36079182Y-16603490D01*
X35981639Y-16553788D01*
X35981636Y-16553787D01*
X35809410Y-16497829D01*
X35649321Y-16472473D01*
X35586186Y-16442544D01*
X35549255Y-16383232D01*
X35550253Y-16313370D01*
X35588863Y-16255137D01*
X35649321Y-16227527D01*
X35809409Y-16202171D01*
X35860182Y-16185674D01*
X35953284Y-16155423D01*
X36023123Y-16153429D01*
X36079281Y-16185674D01*
X36509019Y-16615412D01*
X36509020Y-16615413D01*
X36583587Y-16689980D01*
X36674913Y-16742707D01*
X36776773Y-16770000D01*
X41400902Y-16770000D01*
X41467941Y-16789685D01*
X41488583Y-16806319D01*
X41532284Y-16850020D01*
X41532286Y-16850021D01*
X41532290Y-16850024D01*
X41669209Y-16929073D01*
X41669216Y-16929077D01*
X41821943Y-16970000D01*
X41821945Y-16970000D01*
X41917800Y-16970000D01*
X41984839Y-16989685D01*
X42030594Y-17042489D01*
X42041800Y-17094000D01*
X42041800Y-17107157D01*
X42079216Y-17246793D01*
X42082723Y-17259883D01*
X42082726Y-17259890D01*
X42161775Y-17396809D01*
X42161779Y-17396814D01*
X42161780Y-17396816D01*
X42273584Y-17508620D01*
X42273586Y-17508621D01*
X42273590Y-17508624D01*
X42408607Y-17586575D01*
X42410516Y-17587677D01*
X42563243Y-17628600D01*
X42563245Y-17628600D01*
X42721355Y-17628600D01*
X42721357Y-17628600D01*
X42874084Y-17587677D01*
X43011016Y-17508620D01*
X43054717Y-17464919D01*
X43116040Y-17431434D01*
X43142398Y-17428600D01*
X54725500Y-17428600D01*
X54792539Y-17448285D01*
X54838294Y-17501089D01*
X54849500Y-17552600D01*
X54849500Y-17710551D01*
X54877829Y-17889410D01*
X54933787Y-18061636D01*
X54933788Y-18061639D01*
X55016006Y-18222997D01*
X55122441Y-18369494D01*
X55122445Y-18369499D01*
X55250500Y-18497554D01*
X55250505Y-18497558D01*
X55330961Y-18556012D01*
X55397006Y-18603996D01*
X55494510Y-18653677D01*
X55558360Y-18686211D01*
X55558363Y-18686212D01*
X55624141Y-18707584D01*
X55730591Y-18742171D01*
X55813429Y-18755291D01*
X55909449Y-18770500D01*
X55909454Y-18770500D01*
X56090551Y-18770500D01*
X56177259Y-18756765D01*
X56269409Y-18742171D01*
X56441639Y-18686211D01*
X56602994Y-18603996D01*
X56749501Y-18497553D01*
X56877553Y-18369501D01*
X56983996Y-18222994D01*
X57066211Y-18061639D01*
X57122171Y-17889409D01*
X57136422Y-17799425D01*
X57147527Y-17729321D01*
X57177456Y-17666186D01*
X57236768Y-17629255D01*
X57306630Y-17630253D01*
X57364863Y-17668863D01*
X57392473Y-17729321D01*
X57417829Y-17889410D01*
X57473787Y-18061636D01*
X57473788Y-18061639D01*
X57556006Y-18222997D01*
X57662441Y-18369494D01*
X57662445Y-18369499D01*
X57790500Y-18497554D01*
X57790505Y-18497558D01*
X57870961Y-18556012D01*
X57937006Y-18603996D01*
X58034510Y-18653677D01*
X58098360Y-18686211D01*
X58098363Y-18686212D01*
X58164141Y-18707584D01*
X58270591Y-18742171D01*
X58353429Y-18755291D01*
X58449449Y-18770500D01*
X58449454Y-18770500D01*
X58630551Y-18770500D01*
X58809409Y-18742171D01*
X58860182Y-18725674D01*
X58953284Y-18695423D01*
X59023123Y-18693429D01*
X59079281Y-18725674D01*
X59787419Y-19433812D01*
X59787420Y-19433813D01*
X59861987Y-19508380D01*
X59953313Y-19561107D01*
X60055173Y-19588400D01*
X60160627Y-19588400D01*
X76336802Y-19588400D01*
X76403841Y-19608085D01*
X76424483Y-19624719D01*
X76468184Y-19668420D01*
X76468186Y-19668421D01*
X76468190Y-19668424D01*
X76591845Y-19739815D01*
X76605116Y-19747477D01*
X76757843Y-19788400D01*
X76757845Y-19788400D01*
X76915955Y-19788400D01*
X76915957Y-19788400D01*
X77068684Y-19747477D01*
X77205616Y-19668420D01*
X77317420Y-19556616D01*
X77396477Y-19419684D01*
X77437400Y-19266957D01*
X77437400Y-19108843D01*
X77396477Y-18956116D01*
X77370729Y-18911519D01*
X77317424Y-18819190D01*
X77317418Y-18819182D01*
X77205615Y-18707379D01*
X77191080Y-18698988D01*
X77142864Y-18648421D01*
X77129640Y-18579814D01*
X77155608Y-18514949D01*
X77212521Y-18474420D01*
X77253079Y-18467600D01*
X78169682Y-18467600D01*
X78236721Y-18487285D01*
X78250217Y-18497312D01*
X78250507Y-18497560D01*
X78330961Y-18556012D01*
X78397006Y-18603996D01*
X78494510Y-18653677D01*
X78558360Y-18686211D01*
X78558363Y-18686212D01*
X78624141Y-18707584D01*
X78730591Y-18742171D01*
X78813429Y-18755291D01*
X78909449Y-18770500D01*
X78909454Y-18770500D01*
X79090551Y-18770500D01*
X79177259Y-18756765D01*
X79269409Y-18742171D01*
X79441639Y-18686211D01*
X79602994Y-18603996D01*
X79749501Y-18497553D01*
X79877553Y-18369501D01*
X79983996Y-18222994D01*
X80066211Y-18061639D01*
X80122171Y-17889409D01*
X80136422Y-17799425D01*
X80147527Y-17729321D01*
X80177456Y-17666186D01*
X80236768Y-17629255D01*
X80306630Y-17630253D01*
X80364863Y-17668863D01*
X80392473Y-17729321D01*
X80417829Y-17889410D01*
X80473787Y-18061636D01*
X80473788Y-18061639D01*
X80556006Y-18222997D01*
X80662441Y-18369494D01*
X80662445Y-18369499D01*
X80790500Y-18497554D01*
X80790505Y-18497558D01*
X80870961Y-18556012D01*
X80937006Y-18603996D01*
X81034510Y-18653677D01*
X81098360Y-18686211D01*
X81098363Y-18686212D01*
X81164141Y-18707584D01*
X81270591Y-18742171D01*
X81353429Y-18755291D01*
X81449449Y-18770500D01*
X81449454Y-18770500D01*
X81630551Y-18770500D01*
X81809409Y-18742171D01*
X81860182Y-18725674D01*
X81953284Y-18695423D01*
X82023123Y-18693429D01*
X82079281Y-18725674D01*
X82148787Y-18795180D01*
X82240113Y-18847907D01*
X82341973Y-18875200D01*
X82447427Y-18875200D01*
X83211802Y-18875200D01*
X83278841Y-18894885D01*
X83299483Y-18911519D01*
X83343184Y-18955220D01*
X83343186Y-18955221D01*
X83343190Y-18955224D01*
X83442350Y-19012473D01*
X83480116Y-19034277D01*
X83632843Y-19075200D01*
X83632845Y-19075200D01*
X83790955Y-19075200D01*
X83790957Y-19075200D01*
X83943684Y-19034277D01*
X84080616Y-18955220D01*
X84124317Y-18911519D01*
X84185640Y-18878034D01*
X84211998Y-18875200D01*
X97775596Y-18875200D01*
X97842635Y-18894885D01*
X97882983Y-18937201D01*
X97902675Y-18971309D01*
X97902679Y-18971314D01*
X97902680Y-18971316D01*
X98014484Y-19083120D01*
X98014486Y-19083121D01*
X98014490Y-19083124D01*
X98059041Y-19108845D01*
X98151416Y-19162177D01*
X98304143Y-19203100D01*
X98304145Y-19203100D01*
X98462255Y-19203100D01*
X98462257Y-19203100D01*
X98614984Y-19162177D01*
X98751916Y-19083120D01*
X98863720Y-18971316D01*
X98942777Y-18834384D01*
X98983700Y-18681657D01*
X98983700Y-18523543D01*
X98942777Y-18370816D01*
X98942017Y-18369499D01*
X98863724Y-18233890D01*
X98863718Y-18233882D01*
X98751915Y-18122079D01*
X98730370Y-18109640D01*
X98710705Y-18098287D01*
X98662490Y-18047721D01*
X98649266Y-17979114D01*
X98675234Y-17914249D01*
X98732148Y-17873720D01*
X98772705Y-17866900D01*
X100780423Y-17866900D01*
X100847462Y-17886585D01*
X100893217Y-17939389D01*
X100898354Y-17952582D01*
X100933787Y-18061636D01*
X100933788Y-18061639D01*
X101016006Y-18222997D01*
X101122441Y-18369494D01*
X101122445Y-18369499D01*
X101250500Y-18497554D01*
X101250505Y-18497558D01*
X101330961Y-18556012D01*
X101397006Y-18603996D01*
X101494510Y-18653677D01*
X101558360Y-18686211D01*
X101558363Y-18686212D01*
X101624141Y-18707584D01*
X101730591Y-18742171D01*
X101813429Y-18755291D01*
X101909449Y-18770500D01*
X101909454Y-18770500D01*
X102090551Y-18770500D01*
X102177259Y-18756765D01*
X102269409Y-18742171D01*
X102441639Y-18686211D01*
X102602994Y-18603996D01*
X102749501Y-18497553D01*
X102877553Y-18369501D01*
X102983996Y-18222994D01*
X103066211Y-18061639D01*
X103122171Y-17889409D01*
X103136422Y-17799425D01*
X103147527Y-17729321D01*
X103177456Y-17666186D01*
X103236768Y-17629255D01*
X103306630Y-17630253D01*
X103364863Y-17668863D01*
X103392473Y-17729321D01*
X103417829Y-17889410D01*
X103473787Y-18061636D01*
X103473788Y-18061639D01*
X103556006Y-18222997D01*
X103662441Y-18369494D01*
X103662445Y-18369499D01*
X103790500Y-18497554D01*
X103790505Y-18497558D01*
X103870961Y-18556012D01*
X103937006Y-18603996D01*
X104034510Y-18653677D01*
X104098360Y-18686211D01*
X104098363Y-18686212D01*
X104164141Y-18707584D01*
X104270591Y-18742171D01*
X104353429Y-18755291D01*
X104449449Y-18770500D01*
X104449454Y-18770500D01*
X104630551Y-18770500D01*
X104717259Y-18756765D01*
X104809409Y-18742171D01*
X104981639Y-18686211D01*
X105142994Y-18603996D01*
X105289501Y-18497553D01*
X105417553Y-18369501D01*
X105523996Y-18222994D01*
X105606211Y-18061639D01*
X105662171Y-17889409D01*
X105676765Y-17797259D01*
X105690500Y-17710551D01*
X105690500Y-17529448D01*
X105674019Y-17425397D01*
X105662171Y-17350591D01*
X105619293Y-17218623D01*
X105606212Y-17178363D01*
X105606211Y-17178360D01*
X105577740Y-17122484D01*
X105523996Y-17017006D01*
X105504146Y-16989685D01*
X105417558Y-16870505D01*
X105417554Y-16870500D01*
X105289499Y-16742445D01*
X105289494Y-16742441D01*
X105142997Y-16636006D01*
X105142996Y-16636005D01*
X105142994Y-16636004D01*
X105079182Y-16603490D01*
X104981639Y-16553788D01*
X104981636Y-16553787D01*
X104809410Y-16497829D01*
X104649321Y-16472473D01*
X104586186Y-16442544D01*
X104549255Y-16383232D01*
X104550253Y-16313370D01*
X104588863Y-16255137D01*
X104649321Y-16227527D01*
X104719425Y-16216422D01*
X104809409Y-16202171D01*
X104981639Y-16146211D01*
X105142994Y-16063996D01*
X105289501Y-15957553D01*
X105417553Y-15829501D01*
X105523996Y-15682994D01*
X105606211Y-15521639D01*
X105606424Y-15520985D01*
X105623146Y-15469517D01*
X105662171Y-15349409D01*
X105679153Y-15242189D01*
X105690500Y-15170551D01*
X105690500Y-14989448D01*
X105674019Y-14885397D01*
X105662171Y-14810591D01*
X105626336Y-14700300D01*
X105606212Y-14638363D01*
X105606211Y-14638360D01*
X105556156Y-14540123D01*
X105523996Y-14477006D01*
X105445308Y-14368700D01*
X105437023Y-14357297D01*
X105413543Y-14291491D01*
X105429368Y-14223437D01*
X105449656Y-14196735D01*
X105835480Y-13810913D01*
X105888207Y-13719588D01*
X105888207Y-13719586D01*
X105890971Y-13714800D01*
X105941538Y-13666584D01*
X105998358Y-13652800D01*
X109310605Y-13652800D01*
X109352024Y-13661038D01*
X109352061Y-13660903D01*
X109354128Y-13661457D01*
X109358055Y-13662238D01*
X109359908Y-13663005D01*
X109359912Y-13663007D01*
X109461773Y-13690300D01*
X109461775Y-13690300D01*
X109567225Y-13690300D01*
X109567227Y-13690300D01*
X109669088Y-13663007D01*
X109760413Y-13610280D01*
X110337973Y-13032718D01*
X110399296Y-12999234D01*
X110425654Y-12996400D01*
X110487455Y-12996400D01*
X110487457Y-12996400D01*
X110640184Y-12955477D01*
X110777116Y-12876420D01*
X110888920Y-12764616D01*
X110967977Y-12627684D01*
X111008900Y-12474957D01*
X111008900Y-12316843D01*
X110967977Y-12164116D01*
X110934473Y-12106084D01*
X110888924Y-12027190D01*
X110888918Y-12027182D01*
X110777117Y-11915381D01*
X110777109Y-11915375D01*
X110640190Y-11836326D01*
X110640186Y-11836324D01*
X110640184Y-11836323D01*
X110487457Y-11795400D01*
X110329343Y-11795400D01*
X110176616Y-11836323D01*
X110176615Y-11836323D01*
X110106886Y-11876581D01*
X110038986Y-11893052D01*
X109972959Y-11870200D01*
X109937500Y-11831193D01*
X109909322Y-11782387D01*
X109909318Y-11782382D01*
X109797517Y-11670581D01*
X109797509Y-11670575D01*
X109660590Y-11591526D01*
X109660586Y-11591524D01*
X109660584Y-11591523D01*
X109507857Y-11550600D01*
X109349743Y-11550600D01*
X109197016Y-11591523D01*
X109197009Y-11591526D01*
X109060090Y-11670575D01*
X109060082Y-11670581D01*
X108948281Y-11782382D01*
X108948275Y-11782390D01*
X108869226Y-11919309D01*
X108869223Y-11919316D01*
X108834850Y-12047594D01*
X108798487Y-12107254D01*
X108735640Y-12137783D01*
X108715077Y-12139500D01*
X105703160Y-12139500D01*
X105636121Y-12119815D01*
X105592675Y-12071795D01*
X105553179Y-11994281D01*
X105523996Y-11937006D01*
X105492062Y-11893052D01*
X105417558Y-11790505D01*
X105417554Y-11790500D01*
X105289499Y-11662445D01*
X105289494Y-11662441D01*
X105142997Y-11556006D01*
X105142996Y-11556005D01*
X105142994Y-11556004D01*
X105091300Y-11529664D01*
X104981639Y-11473788D01*
X104981636Y-11473787D01*
X104809410Y-11417829D01*
X104649321Y-11392473D01*
X104586186Y-11362544D01*
X104549255Y-11303232D01*
X104550253Y-11233370D01*
X104588863Y-11175137D01*
X104649321Y-11147527D01*
X104722310Y-11135966D01*
X104809409Y-11122171D01*
X104981639Y-11066211D01*
X105142994Y-10983996D01*
X105289501Y-10877553D01*
X105417553Y-10749501D01*
X105523996Y-10602994D01*
X105592675Y-10468205D01*
X105640650Y-10417409D01*
X105703160Y-10400500D01*
X122131802Y-10400500D01*
X122198841Y-10420185D01*
X122219483Y-10436819D01*
X122263184Y-10480520D01*
X122263186Y-10480521D01*
X122263190Y-10480524D01*
X122384394Y-10550500D01*
X122400116Y-10559577D01*
X122552843Y-10600500D01*
X122552845Y-10600500D01*
X122710955Y-10600500D01*
X122710957Y-10600500D01*
X122863684Y-10559577D01*
X123000616Y-10480520D01*
X123112420Y-10368716D01*
X123173712Y-10262553D01*
X123224278Y-10214339D01*
X123292885Y-10201115D01*
X123357750Y-10227083D01*
X123368780Y-10236873D01*
X123452387Y-10320480D01*
X123490151Y-10342283D01*
X123543708Y-10373205D01*
X123543712Y-10373207D01*
X123645573Y-10400500D01*
X123725500Y-10400500D01*
X123792539Y-10420185D01*
X123838294Y-10472989D01*
X123849500Y-10524500D01*
X123849500Y-10924678D01*
X123864032Y-10997735D01*
X123864033Y-10997739D01*
X123864034Y-10997740D01*
X123919399Y-11080601D01*
X123981614Y-11122171D01*
X124002260Y-11135966D01*
X124002264Y-11135967D01*
X124075321Y-11150499D01*
X124075324Y-11150500D01*
X124842869Y-11150500D01*
X124909908Y-11170185D01*
X124955663Y-11222989D01*
X124965607Y-11292147D01*
X124936582Y-11355703D01*
X124877804Y-11393477D01*
X124862267Y-11396973D01*
X124730589Y-11417829D01*
X124558363Y-11473787D01*
X124558360Y-11473788D01*
X124397002Y-11556006D01*
X124250505Y-11662441D01*
X124250500Y-11662445D01*
X124122445Y-11790500D01*
X124122441Y-11790505D01*
X124016006Y-11937002D01*
X123933788Y-12098360D01*
X123933787Y-12098363D01*
X123877829Y-12270589D01*
X123849500Y-12449448D01*
X123849500Y-12630551D01*
X123877829Y-12809410D01*
X123933787Y-12981636D01*
X123933788Y-12981639D01*
X123977220Y-13066877D01*
X124014733Y-13140500D01*
X124016006Y-13142997D01*
X124122441Y-13289494D01*
X124122445Y-13289499D01*
X124250500Y-13417554D01*
X124250505Y-13417558D01*
X124378287Y-13510396D01*
X124397006Y-13523996D01*
X124502484Y-13577740D01*
X124558360Y-13606211D01*
X124558363Y-13606212D01*
X124644476Y-13634191D01*
X124730591Y-13662171D01*
X124797593Y-13672783D01*
X124890678Y-13687527D01*
X124953813Y-13717456D01*
X124990744Y-13776768D01*
X124989746Y-13846631D01*
X124951136Y-13904863D01*
X124890678Y-13932473D01*
X124730589Y-13957829D01*
X124558363Y-14013787D01*
X124558360Y-14013788D01*
X124397002Y-14096006D01*
X124250505Y-14202441D01*
X124250500Y-14202445D01*
X124122445Y-14330500D01*
X124122441Y-14330505D01*
X124016006Y-14477002D01*
X123933788Y-14638360D01*
X123933787Y-14638363D01*
X123877829Y-14810589D01*
X123849500Y-14989448D01*
X123849500Y-15170551D01*
X123877829Y-15349410D01*
X123933787Y-15521636D01*
X123933788Y-15521639D01*
X123973694Y-15599957D01*
X124004479Y-15660376D01*
X124016006Y-15682997D01*
X124122441Y-15829494D01*
X124122445Y-15829499D01*
X124250500Y-15957554D01*
X124250505Y-15957558D01*
X124378287Y-16050396D01*
X124397006Y-16063996D01*
X124502484Y-16117740D01*
X124558360Y-16146211D01*
X124558363Y-16146212D01*
X124644476Y-16174191D01*
X124730591Y-16202171D01*
X124803639Y-16213740D01*
X124890678Y-16227527D01*
X124953813Y-16257456D01*
X124990744Y-16316768D01*
X124989746Y-16386631D01*
X124951136Y-16444863D01*
X124890678Y-16472473D01*
X124730589Y-16497829D01*
X124558363Y-16553787D01*
X124558360Y-16553788D01*
X124397002Y-16636006D01*
X124250505Y-16742441D01*
X124250500Y-16742445D01*
X124122445Y-16870500D01*
X124122441Y-16870505D01*
X124016006Y-17017002D01*
X123933788Y-17178360D01*
X123933787Y-17178363D01*
X123877829Y-17350589D01*
X123849500Y-17529448D01*
X123849500Y-17710551D01*
X123858140Y-17765102D01*
X123849185Y-17834396D01*
X123804189Y-17887847D01*
X123737438Y-17908487D01*
X123735667Y-17908500D01*
X111011498Y-17908500D01*
X110944459Y-17888815D01*
X110923817Y-17872181D01*
X110880117Y-17828481D01*
X110880109Y-17828475D01*
X110743190Y-17749426D01*
X110743186Y-17749424D01*
X110743184Y-17749423D01*
X110590457Y-17708500D01*
X110432343Y-17708500D01*
X110279616Y-17749423D01*
X110279609Y-17749426D01*
X110142690Y-17828475D01*
X110142682Y-17828481D01*
X110030881Y-17940282D01*
X110030875Y-17940290D01*
X109951826Y-18077209D01*
X109951823Y-18077216D01*
X109910900Y-18229943D01*
X109910900Y-18388057D01*
X109947204Y-18523543D01*
X109951823Y-18540783D01*
X109951826Y-18540790D01*
X110030875Y-18677709D01*
X110030879Y-18677714D01*
X110030880Y-18677716D01*
X110142684Y-18789520D01*
X110142686Y-18789521D01*
X110142690Y-18789524D01*
X110243812Y-18847906D01*
X110279616Y-18868577D01*
X110432343Y-18909500D01*
X110432345Y-18909500D01*
X110590455Y-18909500D01*
X110590457Y-18909500D01*
X110743184Y-18868577D01*
X110880116Y-18789520D01*
X110923817Y-18745819D01*
X110985140Y-18712334D01*
X111011498Y-18709500D01*
X124363725Y-18709500D01*
X124363727Y-18709500D01*
X124465588Y-18682207D01*
X124465589Y-18682206D01*
X124473439Y-18680103D01*
X124474239Y-18683091D01*
X124529123Y-18677175D01*
X124554604Y-18684654D01*
X124558347Y-18686203D01*
X124558361Y-18686211D01*
X124730591Y-18742171D01*
X124813429Y-18755291D01*
X124909449Y-18770500D01*
X124909454Y-18770500D01*
X125090551Y-18770500D01*
X125177259Y-18756765D01*
X125269409Y-18742171D01*
X125441639Y-18686211D01*
X125602994Y-18603996D01*
X125749501Y-18497553D01*
X125877553Y-18369501D01*
X125983996Y-18222994D01*
X126066211Y-18061639D01*
X126122171Y-17889409D01*
X126136422Y-17799425D01*
X126147527Y-17729321D01*
X126177456Y-17666186D01*
X126236768Y-17629255D01*
X126306630Y-17630253D01*
X126364863Y-17668863D01*
X126392473Y-17729321D01*
X126417829Y-17889410D01*
X126473787Y-18061636D01*
X126473788Y-18061639D01*
X126556006Y-18222997D01*
X126662441Y-18369494D01*
X126662445Y-18369499D01*
X126790500Y-18497554D01*
X126790505Y-18497558D01*
X126870961Y-18556012D01*
X126937006Y-18603996D01*
X127034510Y-18653677D01*
X127098360Y-18686211D01*
X127098363Y-18686212D01*
X127164141Y-18707584D01*
X127270591Y-18742171D01*
X127353429Y-18755291D01*
X127449449Y-18770500D01*
X127449454Y-18770500D01*
X127630551Y-18770500D01*
X127717259Y-18756765D01*
X127809409Y-18742171D01*
X127981639Y-18686211D01*
X128142994Y-18603996D01*
X128289501Y-18497553D01*
X128417553Y-18369501D01*
X128523996Y-18222994D01*
X128606211Y-18061639D01*
X128662171Y-17889409D01*
X128676765Y-17797259D01*
X128690500Y-17710551D01*
X128690500Y-17529448D01*
X128674019Y-17425397D01*
X128662171Y-17350591D01*
X128619293Y-17218623D01*
X128606212Y-17178363D01*
X128606211Y-17178360D01*
X128577740Y-17122484D01*
X128523996Y-17017006D01*
X128504146Y-16989685D01*
X128417558Y-16870505D01*
X128417554Y-16870500D01*
X128289499Y-16742445D01*
X128289494Y-16742441D01*
X128142997Y-16636006D01*
X128142996Y-16636005D01*
X128142994Y-16636004D01*
X128079182Y-16603490D01*
X127981639Y-16553788D01*
X127981636Y-16553787D01*
X127809410Y-16497829D01*
X127649321Y-16472473D01*
X127586186Y-16442544D01*
X127549255Y-16383232D01*
X127550253Y-16313370D01*
X127588863Y-16255137D01*
X127649321Y-16227527D01*
X127719425Y-16216422D01*
X127809409Y-16202171D01*
X127981639Y-16146211D01*
X128142994Y-16063996D01*
X128289501Y-15957553D01*
X128417553Y-15829501D01*
X128523996Y-15682994D01*
X128606211Y-15521639D01*
X128606424Y-15520985D01*
X128623146Y-15469517D01*
X128662171Y-15349409D01*
X128679153Y-15242189D01*
X128690500Y-15170551D01*
X128690500Y-14989448D01*
X128674019Y-14885397D01*
X128662171Y-14810591D01*
X128626336Y-14700300D01*
X128606212Y-14638363D01*
X128606211Y-14638360D01*
X128556156Y-14540123D01*
X128523996Y-14477006D01*
X128468400Y-14400484D01*
X128417558Y-14330505D01*
X128417554Y-14330500D01*
X128289499Y-14202445D01*
X128289494Y-14202441D01*
X128142997Y-14096006D01*
X128142996Y-14096005D01*
X128142994Y-14096004D01*
X128091300Y-14069664D01*
X127981639Y-14013788D01*
X127981636Y-14013787D01*
X127809410Y-13957829D01*
X127649321Y-13932473D01*
X127586186Y-13902544D01*
X127549255Y-13843232D01*
X127550253Y-13773370D01*
X127588863Y-13715137D01*
X127649321Y-13687527D01*
X127719425Y-13676422D01*
X127809409Y-13662171D01*
X127981639Y-13606211D01*
X128142994Y-13523996D01*
X128289501Y-13417553D01*
X128417553Y-13289501D01*
X128523996Y-13142994D01*
X128606211Y-12981639D01*
X128662171Y-12809409D01*
X128678457Y-12706583D01*
X128690500Y-12630551D01*
X128690500Y-12449458D01*
X128690500Y-12449454D01*
X128685799Y-12419777D01*
X128694752Y-12350488D01*
X128720588Y-12312703D01*
X129432323Y-11600968D01*
X129493644Y-11567485D01*
X129563336Y-11572469D01*
X129619269Y-11614341D01*
X129627389Y-11626651D01*
X129693877Y-11741812D01*
X129693879Y-11741815D01*
X129693880Y-11741816D01*
X129805684Y-11853620D01*
X129805686Y-11853621D01*
X129805690Y-11853624D01*
X129912648Y-11915375D01*
X129942616Y-11932677D01*
X130095343Y-11973600D01*
X130157145Y-11973600D01*
X130224184Y-11993285D01*
X130244826Y-12009919D01*
X131095387Y-12860480D01*
X131174474Y-12906141D01*
X131186708Y-12913205D01*
X131186712Y-12913207D01*
X131288573Y-12940500D01*
X146836840Y-12940500D01*
X146903879Y-12960185D01*
X146947325Y-13008205D01*
X146953427Y-13020180D01*
X147014733Y-13140500D01*
X147016006Y-13142997D01*
X147122441Y-13289494D01*
X147122445Y-13289499D01*
X147250500Y-13417554D01*
X147250505Y-13417558D01*
X147378287Y-13510396D01*
X147397006Y-13523996D01*
X147502484Y-13577740D01*
X147558360Y-13606211D01*
X147558363Y-13606212D01*
X147644476Y-13634191D01*
X147730591Y-13662171D01*
X147797593Y-13672783D01*
X147890678Y-13687527D01*
X147953813Y-13717456D01*
X147990744Y-13776768D01*
X147989746Y-13846631D01*
X147951136Y-13904863D01*
X147890678Y-13932473D01*
X147730589Y-13957829D01*
X147558363Y-14013787D01*
X147558360Y-14013788D01*
X147397002Y-14096006D01*
X147250505Y-14202441D01*
X147250500Y-14202445D01*
X147122445Y-14330500D01*
X147122441Y-14330505D01*
X147016006Y-14477002D01*
X147004135Y-14500300D01*
X146954456Y-14597801D01*
X146936727Y-14632595D01*
X146888752Y-14683391D01*
X146826242Y-14700300D01*
X135481798Y-14700300D01*
X135414759Y-14680615D01*
X135394117Y-14663981D01*
X135350417Y-14620281D01*
X135350409Y-14620275D01*
X135213490Y-14541226D01*
X135213486Y-14541224D01*
X135213484Y-14541223D01*
X135060757Y-14500300D01*
X134902643Y-14500300D01*
X134749916Y-14541223D01*
X134749909Y-14541226D01*
X134612990Y-14620275D01*
X134612982Y-14620281D01*
X134501181Y-14732082D01*
X134501175Y-14732090D01*
X134422126Y-14869009D01*
X134422123Y-14869016D01*
X134381200Y-15021743D01*
X134381200Y-15179857D01*
X134421829Y-15331484D01*
X134422123Y-15332583D01*
X134422126Y-15332590D01*
X134501175Y-15469509D01*
X134501179Y-15469514D01*
X134501180Y-15469516D01*
X134612984Y-15581320D01*
X134612986Y-15581321D01*
X134612990Y-15581324D01*
X134748004Y-15659273D01*
X134749916Y-15660377D01*
X134902643Y-15701300D01*
X134902645Y-15701300D01*
X135060755Y-15701300D01*
X135060757Y-15701300D01*
X135213484Y-15660377D01*
X135350416Y-15581320D01*
X135394117Y-15537619D01*
X135455440Y-15504134D01*
X135481798Y-15501300D01*
X146847439Y-15501300D01*
X146914478Y-15520985D01*
X146957922Y-15569003D01*
X147004480Y-15660377D01*
X147016006Y-15682998D01*
X147122441Y-15829494D01*
X147122445Y-15829499D01*
X147250500Y-15957554D01*
X147250505Y-15957558D01*
X147378287Y-16050396D01*
X147397006Y-16063996D01*
X147502484Y-16117740D01*
X147558360Y-16146211D01*
X147558363Y-16146212D01*
X147644476Y-16174191D01*
X147730591Y-16202171D01*
X147803639Y-16213740D01*
X147890678Y-16227527D01*
X147953813Y-16257456D01*
X147990744Y-16316768D01*
X147989746Y-16386631D01*
X147951136Y-16444863D01*
X147890678Y-16472473D01*
X147730589Y-16497829D01*
X147558363Y-16553787D01*
X147558360Y-16553788D01*
X147397002Y-16636006D01*
X147250505Y-16742441D01*
X147250500Y-16742445D01*
X147122445Y-16870500D01*
X147122441Y-16870505D01*
X147016006Y-17017002D01*
X146933788Y-17178360D01*
X146933787Y-17178363D01*
X146877829Y-17350589D01*
X146868546Y-17409199D01*
X146838616Y-17472333D01*
X146779305Y-17509264D01*
X146746073Y-17513800D01*
X131883398Y-17513800D01*
X131816359Y-17494115D01*
X131795717Y-17477481D01*
X131752017Y-17433781D01*
X131752009Y-17433775D01*
X131615090Y-17354726D01*
X131615086Y-17354724D01*
X131615084Y-17354723D01*
X131462357Y-17313800D01*
X131304243Y-17313800D01*
X131151516Y-17354723D01*
X131151509Y-17354726D01*
X131014590Y-17433775D01*
X131014582Y-17433781D01*
X130902781Y-17545582D01*
X130902775Y-17545590D01*
X130823726Y-17682509D01*
X130823723Y-17682516D01*
X130782800Y-17835243D01*
X130782800Y-17993357D01*
X130808215Y-18088205D01*
X130823723Y-18146083D01*
X130823726Y-18146090D01*
X130902775Y-18283009D01*
X130902779Y-18283014D01*
X130902780Y-18283016D01*
X131014584Y-18394820D01*
X131014586Y-18394821D01*
X131014590Y-18394824D01*
X131095771Y-18441693D01*
X131151516Y-18473877D01*
X131304243Y-18514800D01*
X131304245Y-18514800D01*
X131462355Y-18514800D01*
X131462357Y-18514800D01*
X131615084Y-18473877D01*
X131752016Y-18394820D01*
X131795717Y-18351119D01*
X131857040Y-18317634D01*
X131883398Y-18314800D01*
X147019523Y-18314800D01*
X147086562Y-18334485D01*
X147119839Y-18365912D01*
X147122443Y-18369497D01*
X147250500Y-18497554D01*
X147250505Y-18497558D01*
X147330961Y-18556012D01*
X147397006Y-18603996D01*
X147494510Y-18653677D01*
X147558360Y-18686211D01*
X147558363Y-18686212D01*
X147624141Y-18707584D01*
X147730591Y-18742171D01*
X147813429Y-18755291D01*
X147909449Y-18770500D01*
X147909454Y-18770500D01*
X148090551Y-18770500D01*
X148177259Y-18756765D01*
X148269409Y-18742171D01*
X148441639Y-18686211D01*
X148602994Y-18603996D01*
X148749501Y-18497553D01*
X148877553Y-18369501D01*
X148983996Y-18222994D01*
X149066211Y-18061639D01*
X149122171Y-17889409D01*
X149136422Y-17799425D01*
X149147527Y-17729321D01*
X149177456Y-17666186D01*
X149236768Y-17629255D01*
X149306630Y-17630253D01*
X149364863Y-17668863D01*
X149392473Y-17729321D01*
X149417829Y-17889410D01*
X149473787Y-18061636D01*
X149473788Y-18061639D01*
X149556006Y-18222997D01*
X149662441Y-18369494D01*
X149662445Y-18369499D01*
X149790500Y-18497554D01*
X149790505Y-18497558D01*
X149870961Y-18556012D01*
X149937006Y-18603996D01*
X150034510Y-18653677D01*
X150098360Y-18686211D01*
X150098363Y-18686212D01*
X150164141Y-18707584D01*
X150270591Y-18742171D01*
X150353429Y-18755291D01*
X150449449Y-18770500D01*
X150449454Y-18770500D01*
X150630551Y-18770500D01*
X150717259Y-18756765D01*
X150809409Y-18742171D01*
X150981639Y-18686211D01*
X151142994Y-18603996D01*
X151289501Y-18497553D01*
X151417553Y-18369501D01*
X151523996Y-18222994D01*
X151606211Y-18061639D01*
X151662171Y-17889409D01*
X151676765Y-17797259D01*
X151690500Y-17710551D01*
X151690500Y-17529448D01*
X151674019Y-17425397D01*
X151662171Y-17350591D01*
X151619293Y-17218623D01*
X151606212Y-17178363D01*
X151606211Y-17178360D01*
X151577740Y-17122484D01*
X151523996Y-17017006D01*
X151504146Y-16989685D01*
X151417558Y-16870505D01*
X151417554Y-16870500D01*
X151289499Y-16742445D01*
X151289494Y-16742441D01*
X151142997Y-16636006D01*
X151142996Y-16636005D01*
X151142994Y-16636004D01*
X151079182Y-16603490D01*
X150981639Y-16553788D01*
X150981636Y-16553787D01*
X150809410Y-16497829D01*
X150649321Y-16472473D01*
X150586186Y-16442544D01*
X150549255Y-16383232D01*
X150550253Y-16313370D01*
X150588863Y-16255137D01*
X150649321Y-16227527D01*
X150719425Y-16216422D01*
X150809409Y-16202171D01*
X150981639Y-16146211D01*
X151142994Y-16063996D01*
X151289501Y-15957553D01*
X151417553Y-15829501D01*
X151523996Y-15682994D01*
X151606211Y-15521639D01*
X151606424Y-15520985D01*
X151623146Y-15469517D01*
X151662171Y-15349409D01*
X151679153Y-15242189D01*
X151690500Y-15170551D01*
X151690500Y-14989448D01*
X151674019Y-14885397D01*
X151662171Y-14810591D01*
X151626336Y-14700300D01*
X151606212Y-14638363D01*
X151606211Y-14638360D01*
X151556156Y-14540123D01*
X151523996Y-14477006D01*
X151468400Y-14400484D01*
X151417558Y-14330505D01*
X151417554Y-14330500D01*
X151289499Y-14202445D01*
X151289494Y-14202441D01*
X151142997Y-14096006D01*
X151142996Y-14096005D01*
X151142994Y-14096004D01*
X151091300Y-14069664D01*
X150981639Y-14013788D01*
X150981636Y-14013787D01*
X150809410Y-13957829D01*
X150649321Y-13932473D01*
X150586186Y-13902544D01*
X150549255Y-13843232D01*
X150550253Y-13773370D01*
X150588863Y-13715137D01*
X150649321Y-13687527D01*
X150719425Y-13676422D01*
X150809409Y-13662171D01*
X150981639Y-13606211D01*
X151142994Y-13523996D01*
X151289501Y-13417553D01*
X151417553Y-13289501D01*
X151523996Y-13142994D01*
X151606211Y-12981639D01*
X151662171Y-12809409D01*
X151678457Y-12706583D01*
X151690500Y-12630551D01*
X151690500Y-12449448D01*
X151669497Y-12316845D01*
X151662171Y-12270591D01*
X151627576Y-12164116D01*
X151606212Y-12098363D01*
X151606211Y-12098360D01*
X151553179Y-11994281D01*
X151523996Y-11937006D01*
X151492062Y-11893052D01*
X151417558Y-11790505D01*
X151417554Y-11790500D01*
X151289499Y-11662445D01*
X151289494Y-11662441D01*
X151142997Y-11556006D01*
X151142996Y-11556005D01*
X151142994Y-11556004D01*
X151091300Y-11529664D01*
X150981639Y-11473788D01*
X150981636Y-11473787D01*
X150809410Y-11417829D01*
X150649321Y-11392473D01*
X150586186Y-11362544D01*
X150549255Y-11303232D01*
X150550253Y-11233370D01*
X150588863Y-11175137D01*
X150649321Y-11147527D01*
X150722310Y-11135966D01*
X150809409Y-11122171D01*
X150981639Y-11066211D01*
X151142994Y-10983996D01*
X151289501Y-10877553D01*
X151417553Y-10749501D01*
X151523996Y-10602994D01*
X151606211Y-10441639D01*
X151662171Y-10269409D01*
X151683004Y-10137876D01*
X151690500Y-10090551D01*
X151690500Y-9909448D01*
X151669406Y-9776274D01*
X151662171Y-9730591D01*
X151615424Y-9586716D01*
X151613429Y-9516875D01*
X151645672Y-9460719D01*
X151987574Y-9118819D01*
X152048897Y-9085334D01*
X152075255Y-9082500D01*
X155332278Y-9082500D01*
X155399317Y-9102185D01*
X155445072Y-9154989D01*
X155455016Y-9224147D01*
X155439665Y-9268500D01*
X155394624Y-9346513D01*
X155394623Y-9346516D01*
X155353700Y-9499243D01*
X155353700Y-9657357D01*
X155391627Y-9798900D01*
X155394623Y-9810083D01*
X155394626Y-9810090D01*
X155473675Y-9947009D01*
X155473679Y-9947014D01*
X155473680Y-9947016D01*
X155585484Y-10058820D01*
X155585486Y-10058821D01*
X155585490Y-10058824D01*
X155640444Y-10090551D01*
X155722416Y-10137877D01*
X155875143Y-10178800D01*
X155875145Y-10178800D01*
X156033255Y-10178800D01*
X156033257Y-10178800D01*
X156185984Y-10137877D01*
X156322916Y-10058820D01*
X156366617Y-10015119D01*
X156427940Y-9981634D01*
X156454298Y-9978800D01*
X169059345Y-9978800D01*
X169126384Y-9998485D01*
X169147026Y-10015119D01*
X169452387Y-10320480D01*
X169490151Y-10342283D01*
X169543708Y-10373205D01*
X169543712Y-10373207D01*
X169645573Y-10400500D01*
X169725500Y-10400500D01*
X169792539Y-10420185D01*
X169838294Y-10472989D01*
X169849500Y-10524500D01*
X169849500Y-10924678D01*
X169864032Y-10997735D01*
X169864033Y-10997739D01*
X169864034Y-10997740D01*
X169919399Y-11080601D01*
X169981614Y-11122171D01*
X170002260Y-11135966D01*
X170002264Y-11135967D01*
X170075321Y-11150499D01*
X170075324Y-11150500D01*
X170842869Y-11150500D01*
X170909908Y-11170185D01*
X170955663Y-11222989D01*
X170965607Y-11292147D01*
X170936582Y-11355703D01*
X170877804Y-11393477D01*
X170862267Y-11396973D01*
X170730589Y-11417829D01*
X170558363Y-11473787D01*
X170558360Y-11473788D01*
X170397002Y-11556006D01*
X170250505Y-11662441D01*
X170250500Y-11662445D01*
X170122445Y-11790500D01*
X170122441Y-11790505D01*
X170016006Y-11937002D01*
X169933788Y-12098360D01*
X169933787Y-12098363D01*
X169877829Y-12270589D01*
X169849500Y-12449448D01*
X169849500Y-12630551D01*
X169877829Y-12809410D01*
X169933787Y-12981636D01*
X169933788Y-12981639D01*
X169977220Y-13066877D01*
X170014733Y-13140500D01*
X170016006Y-13142997D01*
X170122441Y-13289494D01*
X170122445Y-13289499D01*
X170250500Y-13417554D01*
X170250505Y-13417558D01*
X170378287Y-13510396D01*
X170397006Y-13523996D01*
X170502484Y-13577740D01*
X170558360Y-13606211D01*
X170558363Y-13606212D01*
X170644476Y-13634191D01*
X170730591Y-13662171D01*
X170797593Y-13672783D01*
X170890678Y-13687527D01*
X170953813Y-13717456D01*
X170990744Y-13776768D01*
X170989746Y-13846631D01*
X170951136Y-13904863D01*
X170890678Y-13932473D01*
X170730589Y-13957829D01*
X170558363Y-14013787D01*
X170558360Y-14013788D01*
X170397002Y-14096006D01*
X170250505Y-14202441D01*
X170250500Y-14202445D01*
X170122445Y-14330500D01*
X170122441Y-14330505D01*
X170016006Y-14477002D01*
X169937287Y-14631495D01*
X169889312Y-14682291D01*
X169826802Y-14699200D01*
X159949898Y-14699200D01*
X159882859Y-14679515D01*
X159862217Y-14662881D01*
X159818517Y-14619181D01*
X159818509Y-14619175D01*
X159681590Y-14540126D01*
X159681586Y-14540124D01*
X159681584Y-14540123D01*
X159528857Y-14499200D01*
X159370743Y-14499200D01*
X159218016Y-14540123D01*
X159218009Y-14540126D01*
X159081090Y-14619175D01*
X159081082Y-14619181D01*
X158969281Y-14730982D01*
X158969275Y-14730990D01*
X158890226Y-14867909D01*
X158890223Y-14867916D01*
X158849300Y-15020643D01*
X158849300Y-15178757D01*
X158888699Y-15325794D01*
X158890223Y-15331483D01*
X158890226Y-15331490D01*
X158969275Y-15468409D01*
X158969279Y-15468414D01*
X158969280Y-15468416D01*
X159081084Y-15580220D01*
X159081086Y-15580221D01*
X159081090Y-15580224D01*
X159148740Y-15619281D01*
X159218016Y-15659277D01*
X159370743Y-15700200D01*
X159370745Y-15700200D01*
X159528855Y-15700200D01*
X159528857Y-15700200D01*
X159681584Y-15659277D01*
X159818516Y-15580220D01*
X159862217Y-15536519D01*
X159923540Y-15503034D01*
X159949898Y-15500200D01*
X169846878Y-15500200D01*
X169913917Y-15519885D01*
X169957362Y-15567904D01*
X170004479Y-15660376D01*
X170016006Y-15682997D01*
X170122441Y-15829494D01*
X170122445Y-15829499D01*
X170250500Y-15957554D01*
X170250505Y-15957558D01*
X170378287Y-16050396D01*
X170397006Y-16063996D01*
X170502484Y-16117740D01*
X170558360Y-16146211D01*
X170558363Y-16146212D01*
X170644476Y-16174191D01*
X170730591Y-16202171D01*
X170803639Y-16213740D01*
X170890678Y-16227527D01*
X170953813Y-16257456D01*
X170990744Y-16316768D01*
X170989746Y-16386631D01*
X170951136Y-16444863D01*
X170890678Y-16472473D01*
X170730589Y-16497829D01*
X170558363Y-16553787D01*
X170558360Y-16553788D01*
X170397002Y-16636006D01*
X170250505Y-16742441D01*
X170250500Y-16742445D01*
X170122445Y-16870500D01*
X170122441Y-16870505D01*
X170016006Y-17017002D01*
X169933788Y-17178360D01*
X169933787Y-17178363D01*
X169877829Y-17350589D01*
X169849500Y-17529448D01*
X169849500Y-17710551D01*
X169877829Y-17889410D01*
X169933787Y-18061636D01*
X169933788Y-18061639D01*
X170016006Y-18222997D01*
X170122441Y-18369494D01*
X170122445Y-18369499D01*
X170250500Y-18497554D01*
X170250505Y-18497558D01*
X170330961Y-18556012D01*
X170397006Y-18603996D01*
X170494510Y-18653677D01*
X170558360Y-18686211D01*
X170558363Y-18686212D01*
X170624141Y-18707584D01*
X170730591Y-18742171D01*
X170813429Y-18755291D01*
X170909449Y-18770500D01*
X170909454Y-18770500D01*
X171090551Y-18770500D01*
X171177259Y-18756765D01*
X171269409Y-18742171D01*
X171441639Y-18686211D01*
X171602994Y-18603996D01*
X171749501Y-18497553D01*
X171877553Y-18369501D01*
X171983996Y-18222994D01*
X172066211Y-18061639D01*
X172122171Y-17889409D01*
X172136422Y-17799425D01*
X172147527Y-17729321D01*
X172177456Y-17666186D01*
X172236768Y-17629255D01*
X172306630Y-17630253D01*
X172364863Y-17668863D01*
X172392473Y-17729321D01*
X172417829Y-17889410D01*
X172473787Y-18061636D01*
X172473788Y-18061639D01*
X172556006Y-18222997D01*
X172662441Y-18369494D01*
X172662445Y-18369499D01*
X172790500Y-18497554D01*
X172790505Y-18497558D01*
X172870961Y-18556012D01*
X172937006Y-18603996D01*
X173034510Y-18653677D01*
X173098360Y-18686211D01*
X173098363Y-18686212D01*
X173164141Y-18707584D01*
X173270591Y-18742171D01*
X173353429Y-18755291D01*
X173449449Y-18770500D01*
X173449454Y-18770500D01*
X173630551Y-18770500D01*
X173717259Y-18756765D01*
X173809409Y-18742171D01*
X173981639Y-18686211D01*
X174142994Y-18603996D01*
X174289501Y-18497553D01*
X174417553Y-18369501D01*
X174523996Y-18222994D01*
X174606211Y-18061639D01*
X174662171Y-17889409D01*
X174676765Y-17797259D01*
X174690500Y-17710551D01*
X174690500Y-17529448D01*
X174674019Y-17425397D01*
X174662171Y-17350591D01*
X174619293Y-17218623D01*
X174606212Y-17178363D01*
X174606211Y-17178360D01*
X174577740Y-17122484D01*
X174523996Y-17017006D01*
X174504146Y-16989685D01*
X174417558Y-16870505D01*
X174417554Y-16870500D01*
X174289499Y-16742445D01*
X174289494Y-16742441D01*
X174142997Y-16636006D01*
X174142996Y-16636005D01*
X174142994Y-16636004D01*
X174079182Y-16603490D01*
X173981639Y-16553788D01*
X173981636Y-16553787D01*
X173809410Y-16497829D01*
X173649321Y-16472473D01*
X173586186Y-16442544D01*
X173549255Y-16383232D01*
X173550253Y-16313370D01*
X173588863Y-16255137D01*
X173649321Y-16227527D01*
X173719425Y-16216422D01*
X173809409Y-16202171D01*
X173981639Y-16146211D01*
X174142994Y-16063996D01*
X174289501Y-15957553D01*
X174417553Y-15829501D01*
X174523996Y-15682994D01*
X174606211Y-15521639D01*
X174606424Y-15520985D01*
X174623146Y-15469517D01*
X174662171Y-15349409D01*
X174679153Y-15242189D01*
X174690500Y-15170551D01*
X174690500Y-14989448D01*
X174674019Y-14885397D01*
X174662171Y-14810591D01*
X174626336Y-14700300D01*
X174606212Y-14638363D01*
X174606211Y-14638360D01*
X174556156Y-14540123D01*
X174523996Y-14477006D01*
X174468400Y-14400484D01*
X174417558Y-14330505D01*
X174417554Y-14330500D01*
X174289499Y-14202445D01*
X174289494Y-14202441D01*
X174142997Y-14096006D01*
X174142996Y-14096005D01*
X174142994Y-14096004D01*
X174091300Y-14069664D01*
X173981639Y-14013788D01*
X173981636Y-14013787D01*
X173809410Y-13957829D01*
X173649321Y-13932473D01*
X173586186Y-13902544D01*
X173549255Y-13843232D01*
X173550253Y-13773370D01*
X173588863Y-13715137D01*
X173649321Y-13687527D01*
X173809409Y-13662171D01*
X173809412Y-13662170D01*
X173953284Y-13615423D01*
X174023123Y-13613429D01*
X174079281Y-13645674D01*
X174120519Y-13686912D01*
X174120520Y-13686913D01*
X174195087Y-13761480D01*
X174286413Y-13814207D01*
X174388273Y-13841500D01*
X174493727Y-13841500D01*
X191815502Y-13841500D01*
X191882541Y-13861185D01*
X191903183Y-13877819D01*
X191946884Y-13921520D01*
X191946886Y-13921521D01*
X191946890Y-13921524D01*
X192083809Y-14000573D01*
X192083816Y-14000577D01*
X192236543Y-14041500D01*
X192236545Y-14041500D01*
X192394655Y-14041500D01*
X192394657Y-14041500D01*
X192547384Y-14000577D01*
X192684316Y-13921520D01*
X192796120Y-13809716D01*
X192875177Y-13672784D01*
X192916100Y-13520057D01*
X192916100Y-13361943D01*
X192875177Y-13209216D01*
X192873545Y-13206390D01*
X192872894Y-13203707D01*
X192872066Y-13201706D01*
X192872378Y-13201576D01*
X192857073Y-13138491D01*
X192879925Y-13072464D01*
X192918934Y-13037003D01*
X192923481Y-13034377D01*
X192923484Y-13034377D01*
X193060416Y-12955320D01*
X193172220Y-12843516D01*
X193251277Y-12706584D01*
X193292200Y-12553857D01*
X193292200Y-12395743D01*
X193251277Y-12243016D01*
X193251273Y-12243009D01*
X193172224Y-12106090D01*
X193172218Y-12106082D01*
X193060417Y-11994281D01*
X193060409Y-11994275D01*
X192923490Y-11915226D01*
X192923486Y-11915224D01*
X192923484Y-11915223D01*
X192770757Y-11874300D01*
X192612643Y-11874300D01*
X192459916Y-11915223D01*
X192459909Y-11915226D01*
X192322990Y-11994275D01*
X192322982Y-11994281D01*
X192279283Y-12037981D01*
X192217960Y-12071466D01*
X192191602Y-12074300D01*
X176232054Y-12074300D01*
X176165015Y-12054615D01*
X176144373Y-12037981D01*
X174645674Y-10539281D01*
X174612189Y-10477958D01*
X174615423Y-10413284D01*
X174662171Y-10269409D01*
X174668130Y-10231784D01*
X174690500Y-10090551D01*
X174690500Y-9909448D01*
X174669406Y-9776274D01*
X174662171Y-9730591D01*
X174606211Y-9558361D01*
X174606211Y-9558360D01*
X174564988Y-9477457D01*
X174523996Y-9397006D01*
X174472044Y-9325500D01*
X174417558Y-9250505D01*
X174417554Y-9250500D01*
X174289499Y-9122445D01*
X174289494Y-9122441D01*
X174142997Y-9016006D01*
X174142996Y-9016005D01*
X174142994Y-9016004D01*
X174071528Y-8979590D01*
X173981639Y-8933788D01*
X173981636Y-8933787D01*
X173809410Y-8877829D01*
X173630551Y-8849500D01*
X173630546Y-8849500D01*
X173449454Y-8849500D01*
X173449449Y-8849500D01*
X173270587Y-8877829D01*
X173126716Y-8924575D01*
X173056875Y-8926570D01*
X173000718Y-8894325D01*
X172467915Y-8361522D01*
X172467913Y-8361520D01*
X172409377Y-8327724D01*
X172376589Y-8308793D01*
X172348209Y-8301189D01*
X172319044Y-8293374D01*
X172259384Y-8257010D01*
X172228855Y-8194163D01*
X172237150Y-8124788D01*
X172281635Y-8070910D01*
X172348187Y-8049635D01*
X172351138Y-8049600D01*
X193643625Y-8049600D01*
X193643627Y-8049600D01*
X193745488Y-8022307D01*
X193836813Y-7969580D01*
X194777896Y-7028494D01*
X194839217Y-6995011D01*
X194908908Y-6999995D01*
X194912970Y-7001593D01*
X194933580Y-7010130D01*
X195100826Y-7043397D01*
X195136530Y-7050499D01*
X195136534Y-7050500D01*
X195136535Y-7050500D01*
X195343466Y-7050500D01*
X195343467Y-7050499D01*
X195546420Y-7010130D01*
X195737598Y-6930941D01*
X195909655Y-6815977D01*
X196055977Y-6669655D01*
X196170941Y-6497598D01*
X196250130Y-6306420D01*
X196290500Y-6103465D01*
X196290500Y-5896535D01*
X196250130Y-5693580D01*
X196170941Y-5502402D01*
X196055977Y-5330345D01*
X196055975Y-5330342D01*
X195909657Y-5184024D01*
X195748574Y-5076393D01*
X195737598Y-5069059D01*
X195717456Y-5060716D01*
X195546420Y-4989870D01*
X195546412Y-4989868D01*
X195343469Y-4949500D01*
X195343465Y-4949500D01*
X195136535Y-4949500D01*
X195136530Y-4949500D01*
X194933587Y-4989868D01*
X194933579Y-4989870D01*
X194742403Y-5069058D01*
X194570342Y-5184024D01*
X194424024Y-5330342D01*
X194309058Y-5502403D01*
X194229870Y-5693579D01*
X194229868Y-5693587D01*
X194189500Y-5896530D01*
X194189500Y-6103469D01*
X194229867Y-6306412D01*
X194229870Y-6306420D01*
X194238383Y-6326973D01*
X194245850Y-6396442D01*
X194214574Y-6458921D01*
X194211502Y-6462104D01*
X193461326Y-7212281D01*
X193400003Y-7245766D01*
X193373645Y-7248600D01*
X193054092Y-7248600D01*
X192987053Y-7228915D01*
X192941298Y-7176111D01*
X192931354Y-7106953D01*
X192960379Y-7043397D01*
X193006638Y-7010039D01*
X193197598Y-6930941D01*
X193369655Y-6815977D01*
X193515977Y-6669655D01*
X193630941Y-6497598D01*
X193710130Y-6306420D01*
X193750500Y-6103465D01*
X193750500Y-5896535D01*
X193710130Y-5693580D01*
X193630941Y-5502402D01*
X193515977Y-5330345D01*
X193515975Y-5330342D01*
X193369657Y-5184024D01*
X193208574Y-5076393D01*
X193197598Y-5069059D01*
X193177456Y-5060716D01*
X193006420Y-4989870D01*
X193006412Y-4989868D01*
X192803469Y-4949500D01*
X192803465Y-4949500D01*
X192596535Y-4949500D01*
X192596530Y-4949500D01*
X192393587Y-4989867D01*
X192393583Y-4989869D01*
X192393581Y-4989869D01*
X192393580Y-4989870D01*
X192393578Y-4989871D01*
X192373025Y-4998384D01*
X192303555Y-5005850D01*
X192241077Y-4974573D01*
X192237895Y-4971502D01*
X192088974Y-4822581D01*
X192055489Y-4761258D01*
X192060473Y-4691566D01*
X192102345Y-4635633D01*
X192167809Y-4611216D01*
X192176655Y-4610900D01*
X194041106Y-4610900D01*
X194082525Y-4619138D01*
X194082562Y-4619003D01*
X194084629Y-4619557D01*
X194088556Y-4620338D01*
X194090409Y-4621105D01*
X194090410Y-4621105D01*
X194090413Y-4621107D01*
X194192273Y-4648400D01*
X195810645Y-4648400D01*
X195877684Y-4668085D01*
X195898326Y-4684719D01*
X196751502Y-5537894D01*
X196784987Y-5599217D01*
X196780003Y-5668908D01*
X196778384Y-5673022D01*
X196769871Y-5693575D01*
X196769867Y-5693587D01*
X196729500Y-5896530D01*
X196729500Y-6103469D01*
X196769868Y-6306412D01*
X196769870Y-6306420D01*
X196849058Y-6497596D01*
X196964024Y-6669657D01*
X197110342Y-6815975D01*
X197110345Y-6815977D01*
X197282402Y-6930941D01*
X197473580Y-7010130D01*
X197640826Y-7043397D01*
X197676530Y-7050499D01*
X197676534Y-7050500D01*
X197676535Y-7050500D01*
X197883466Y-7050500D01*
X197883467Y-7050499D01*
X198086420Y-7010130D01*
X198277598Y-6930941D01*
X198449655Y-6815977D01*
X198595977Y-6669655D01*
X198710941Y-6497598D01*
X198790130Y-6306420D01*
X198830500Y-6103465D01*
X198830500Y-5896535D01*
X198790130Y-5693580D01*
X198710941Y-5502402D01*
X198595977Y-5330345D01*
X198595975Y-5330342D01*
X198449657Y-5184024D01*
X198288574Y-5076393D01*
X198277598Y-5069059D01*
X198257456Y-5060716D01*
X198086420Y-4989870D01*
X198086412Y-4989868D01*
X197883469Y-4949500D01*
X197883465Y-4949500D01*
X197676535Y-4949500D01*
X197676530Y-4949500D01*
X197473587Y-4989867D01*
X197473575Y-4989871D01*
X197453022Y-4998384D01*
X197383552Y-5005850D01*
X197321075Y-4974572D01*
X197317894Y-4971502D01*
X196572474Y-4226081D01*
X196538989Y-4164758D01*
X196543973Y-4095066D01*
X196585845Y-4039133D01*
X196651309Y-4014716D01*
X196660155Y-4014400D01*
X197716645Y-4014400D01*
X197783684Y-4034085D01*
X197804326Y-4050719D01*
X199291502Y-5537895D01*
X199324987Y-5599218D01*
X199320003Y-5668910D01*
X199318385Y-5673022D01*
X199309871Y-5693579D01*
X199309869Y-5693583D01*
X199309867Y-5693587D01*
X199269500Y-5896530D01*
X199269500Y-6103469D01*
X199309868Y-6306412D01*
X199309870Y-6306420D01*
X199389058Y-6497596D01*
X199504024Y-6669657D01*
X199650342Y-6815975D01*
X199650345Y-6815977D01*
X199822402Y-6930941D01*
X200013580Y-7010130D01*
X200180826Y-7043397D01*
X200216530Y-7050499D01*
X200216534Y-7050500D01*
X200216535Y-7050500D01*
X200423466Y-7050500D01*
X200423467Y-7050499D01*
X200626420Y-7010130D01*
X200817598Y-6930941D01*
X200989655Y-6815977D01*
X201135977Y-6669655D01*
X201250941Y-6497598D01*
X201330130Y-6306420D01*
X201370500Y-6103465D01*
X201370500Y-5896535D01*
X201330130Y-5693580D01*
X201250941Y-5502402D01*
X201135977Y-5330345D01*
X201135975Y-5330342D01*
X200989657Y-5184024D01*
X200828574Y-5076393D01*
X200817598Y-5069059D01*
X200797456Y-5060716D01*
X200626420Y-4989870D01*
X200626412Y-4989868D01*
X200423469Y-4949500D01*
X200423465Y-4949500D01*
X200216535Y-4949500D01*
X200216530Y-4949500D01*
X200013587Y-4989867D01*
X200013583Y-4989869D01*
X200013581Y-4989869D01*
X200013580Y-4989870D01*
X200013578Y-4989871D01*
X199993025Y-4998384D01*
X199923555Y-5005850D01*
X199861077Y-4974573D01*
X199857895Y-4971502D01*
X198765104Y-3878711D01*
X229149500Y-3878711D01*
X229149500Y-4121288D01*
X229181161Y-4361785D01*
X229243947Y-4596104D01*
X229336773Y-4820205D01*
X229336776Y-4820212D01*
X229458064Y-5030289D01*
X229458066Y-5030292D01*
X229458067Y-5030293D01*
X229605733Y-5222736D01*
X229605739Y-5222743D01*
X229777256Y-5394260D01*
X229777263Y-5394266D01*
X229863060Y-5460100D01*
X229969711Y-5541936D01*
X230179788Y-5663224D01*
X230403900Y-5756054D01*
X230638211Y-5818838D01*
X230818586Y-5842584D01*
X230878711Y-5850500D01*
X230878712Y-5850500D01*
X231121289Y-5850500D01*
X231169388Y-5844167D01*
X231361789Y-5818838D01*
X231596100Y-5756054D01*
X231820212Y-5663224D01*
X232030289Y-5541936D01*
X232222738Y-5394265D01*
X232394265Y-5222738D01*
X232541936Y-5030289D01*
X232663224Y-4820212D01*
X232756054Y-4596100D01*
X232818838Y-4361789D01*
X232850500Y-4121288D01*
X232850500Y-3878712D01*
X232818838Y-3638211D01*
X232756054Y-3403900D01*
X232663224Y-3179788D01*
X232541936Y-2969711D01*
X232394265Y-2777262D01*
X232394260Y-2777256D01*
X232222743Y-2605739D01*
X232222736Y-2605733D01*
X232030293Y-2458067D01*
X232030292Y-2458066D01*
X232030289Y-2458064D01*
X231820212Y-2336776D01*
X231820205Y-2336773D01*
X231596104Y-2243947D01*
X231361785Y-2181161D01*
X231121289Y-2149500D01*
X231121288Y-2149500D01*
X230878712Y-2149500D01*
X230878711Y-2149500D01*
X230638214Y-2181161D01*
X230403895Y-2243947D01*
X230179794Y-2336773D01*
X230179785Y-2336777D01*
X229969706Y-2458067D01*
X229777263Y-2605733D01*
X229777256Y-2605739D01*
X229605739Y-2777256D01*
X229605733Y-2777263D01*
X229458067Y-2969706D01*
X229336777Y-3179785D01*
X229336773Y-3179794D01*
X229243947Y-3403895D01*
X229181161Y-3638214D01*
X229149500Y-3878711D01*
X198765104Y-3878711D01*
X198179815Y-3293422D01*
X198179813Y-3293420D01*
X198134150Y-3267056D01*
X198088489Y-3240693D01*
X198037557Y-3227046D01*
X197986627Y-3213400D01*
X193604727Y-3213400D01*
X193499273Y-3213400D01*
X193397410Y-3240693D01*
X193306087Y-3293420D01*
X193306084Y-3293422D01*
X193301126Y-3298381D01*
X193239803Y-3331866D01*
X193213445Y-3334700D01*
X164550994Y-3334700D01*
X164509574Y-3326461D01*
X164509538Y-3326597D01*
X164507470Y-3326042D01*
X164503544Y-3325262D01*
X164501690Y-3324494D01*
X164501687Y-3324493D01*
X164399827Y-3297200D01*
X154080927Y-3297200D01*
X153975473Y-3297200D01*
X153873610Y-3324493D01*
X153782287Y-3377220D01*
X153782284Y-3377222D01*
X152685826Y-4473681D01*
X152624503Y-4507166D01*
X152598145Y-4510000D01*
X152536343Y-4510000D01*
X152434924Y-4537175D01*
X152402831Y-4541400D01*
X137909973Y-4541400D01*
X137808110Y-4568693D01*
X137716787Y-4621420D01*
X137716784Y-4621422D01*
X135727026Y-6611181D01*
X135665703Y-6644666D01*
X135639345Y-6647500D01*
X93202373Y-6647500D01*
X93100510Y-6674793D01*
X93009187Y-6727520D01*
X93009184Y-6727522D01*
X92625126Y-7111581D01*
X92563803Y-7145066D01*
X92537445Y-7147900D01*
X92475643Y-7147900D01*
X92322916Y-7188823D01*
X92322909Y-7188826D01*
X92185990Y-7267875D01*
X92185982Y-7267881D01*
X92074181Y-7379682D01*
X92074175Y-7379690D01*
X91995126Y-7516609D01*
X91995123Y-7516616D01*
X91954200Y-7669343D01*
X91954200Y-7827457D01*
X91992282Y-7969579D01*
X91995123Y-7980183D01*
X91995124Y-7980186D01*
X92071111Y-8111800D01*
X92087584Y-8179700D01*
X92064731Y-8245727D01*
X92009810Y-8288918D01*
X91963724Y-8297800D01*
X80248973Y-8297800D01*
X80147110Y-8325093D01*
X80055787Y-8377820D01*
X80055784Y-8377822D01*
X79620426Y-8813181D01*
X79559103Y-8846666D01*
X79532745Y-8849500D01*
X78075323Y-8849500D01*
X78002264Y-8864032D01*
X78002260Y-8864033D01*
X77919399Y-8919399D01*
X77864033Y-9002260D01*
X77864032Y-9002264D01*
X77849500Y-9075321D01*
X77849500Y-9285445D01*
X77829815Y-9352484D01*
X77777011Y-9398239D01*
X77707853Y-9408183D01*
X77644297Y-9379158D01*
X77637819Y-9373126D01*
X76642515Y-8377822D01*
X76642513Y-8377820D01*
X76592423Y-8348900D01*
X76551189Y-8325093D01*
X76490354Y-8308793D01*
X76449327Y-8297800D01*
X56052727Y-8297800D01*
X34354427Y-8297800D01*
X34248973Y-8297800D01*
X34147110Y-8325093D01*
X34055787Y-8377820D01*
X34055784Y-8377822D01*
X33620426Y-8813181D01*
X33559103Y-8846666D01*
X33532745Y-8849500D01*
X32075323Y-8849500D01*
X32002264Y-8864032D01*
X32002260Y-8864033D01*
X31919399Y-8919399D01*
X31864030Y-9002265D01*
X31863645Y-9003196D01*
X31862264Y-9004909D01*
X31857249Y-9012415D01*
X31856576Y-9011965D01*
X31819799Y-9057596D01*
X31753503Y-9079654D01*
X31685805Y-9062369D01*
X31661407Y-9043414D01*
X30849614Y-8231621D01*
X30844731Y-8227874D01*
X30803530Y-8171445D01*
X30799377Y-8101699D01*
X30833591Y-8040779D01*
X30895309Y-8008028D01*
X30920220Y-8005500D01*
X59266325Y-8005500D01*
X59266327Y-8005500D01*
X59303774Y-7995465D01*
X59340115Y-7993086D01*
X59340115Y-7991800D01*
X59506355Y-7991800D01*
X59506357Y-7991800D01*
X59659084Y-7950877D01*
X59796016Y-7871820D01*
X59907820Y-7760016D01*
X59986877Y-7623084D01*
X60027800Y-7470357D01*
X60027800Y-7312243D01*
X59986877Y-7159516D01*
X59934959Y-7069590D01*
X59907824Y-7022590D01*
X59907818Y-7022582D01*
X59796017Y-6910781D01*
X59796009Y-6910775D01*
X59659090Y-6831726D01*
X59659086Y-6831724D01*
X59659084Y-6831723D01*
X59506357Y-6790800D01*
X59348243Y-6790800D01*
X59195516Y-6831723D01*
X59195509Y-6831726D01*
X59058590Y-6910775D01*
X59058582Y-6910781D01*
X58946781Y-7022582D01*
X58946775Y-7022590D01*
X58877547Y-7142499D01*
X58826981Y-7190715D01*
X58770160Y-7204500D01*
X9671698Y-7204500D01*
X9604659Y-7184815D01*
X9584017Y-7168181D01*
X9540317Y-7124481D01*
X9540309Y-7124475D01*
X9403390Y-7045426D01*
X9403386Y-7045424D01*
X9403384Y-7045423D01*
X9250657Y-7004500D01*
X9092543Y-7004500D01*
X8939816Y-7045423D01*
X8939809Y-7045426D01*
X8802890Y-7124475D01*
X8802882Y-7124481D01*
X8691081Y-7236282D01*
X8691075Y-7236290D01*
X8612026Y-7373209D01*
X8612023Y-7373216D01*
X8571100Y-7525943D01*
X1000000Y-7525943D01*
X1000000Y-3878711D01*
X2149500Y-3878711D01*
X2149500Y-4121288D01*
X2181161Y-4361785D01*
X2243947Y-4596104D01*
X2336773Y-4820205D01*
X2336776Y-4820212D01*
X2458064Y-5030289D01*
X2458066Y-5030292D01*
X2458067Y-5030293D01*
X2605733Y-5222736D01*
X2605739Y-5222743D01*
X2777256Y-5394260D01*
X2777263Y-5394266D01*
X2863060Y-5460100D01*
X2969711Y-5541936D01*
X3179788Y-5663224D01*
X3403900Y-5756054D01*
X3638211Y-5818838D01*
X3818586Y-5842584D01*
X3878711Y-5850500D01*
X3878712Y-5850500D01*
X4121289Y-5850500D01*
X4169388Y-5844167D01*
X4361789Y-5818838D01*
X4596100Y-5756054D01*
X4820212Y-5663224D01*
X5030289Y-5541936D01*
X5222738Y-5394265D01*
X5394265Y-5222738D01*
X5541936Y-5030289D01*
X5663224Y-4820212D01*
X5756054Y-4596100D01*
X5818838Y-4361789D01*
X5850500Y-4121288D01*
X5850500Y-3878712D01*
X5818838Y-3638211D01*
X5756054Y-3403900D01*
X5663224Y-3179788D01*
X5541936Y-2969711D01*
X5394265Y-2777262D01*
X5394260Y-2777256D01*
X5222743Y-2605739D01*
X5222736Y-2605733D01*
X5030293Y-2458067D01*
X5030292Y-2458066D01*
X5030289Y-2458064D01*
X4820212Y-2336776D01*
X4820205Y-2336773D01*
X4596104Y-2243947D01*
X4361785Y-2181161D01*
X4121289Y-2149500D01*
X4121288Y-2149500D01*
X3878712Y-2149500D01*
X3878711Y-2149500D01*
X3638214Y-2181161D01*
X3403895Y-2243947D01*
X3179794Y-2336773D01*
X3179785Y-2336777D01*
X2969706Y-2458067D01*
X2777263Y-2605733D01*
X2777256Y-2605739D01*
X2605739Y-2777256D01*
X2605733Y-2777263D01*
X2458067Y-2969706D01*
X2336777Y-3179785D01*
X2336773Y-3179794D01*
X2243947Y-3403895D01*
X2181161Y-3638214D01*
X2149500Y-3878711D01*
X1000000Y-3878711D01*
X1000000Y-1124000D01*
X1019685Y-1056961D01*
X1072489Y-1011206D01*
X1124000Y-1000000D01*
X233876000Y-1000000D01*
X233943039Y-1019685D01*
G37*
%TD.AperFunction*%
%TD*%
M02*
