%TF.GenerationSoftware,KiCad,Pcbnew,10.0.7*%
%TF.CreationDate,2026-10-07T15:21:03+02:00*%
%TF.ProjectId,data_bus_rev_a,64617461-5f62-4757-935f-7265765f612e,rev?*%
%TF.SameCoordinates,Original*%
%TF.FileFunction,Legend,Bot*%
%TF.FilePolarity,Positive*%
%FSLAX46Y46*%
G04 Gerber Fmt 4.6, Leading zero omitted, Abs format (unit mm)*
G04 Created by KiCad (PCBNEW 10.0.7) date 2026-10-07 15:21:03*
%MOMM*%
%LPD*%
G01*
G04 APERTURE LIST*
G04 Aperture macros list*
%AMRoundRect*
0 Rectangle with rounded corners*
0 $1 Rounding radius*
0 $2 $3 $4 $5 $6 $7 $8 $9 X,Y pos of 4 corners*
0 Add a 4 corners polygon primitive as box body*
4,1,4,$2,$3,$4,$5,$6,$7,$8,$9,$2,$3,0*
0 Add four circle primitives for the rounded corners*
1,1,$1+$1,$2,$3*
1,1,$1+$1,$4,$5*
1,1,$1+$1,$6,$7*
1,1,$1+$1,$8,$9*
0 Add four rect primitives between the rounded corners*
20,1,$1+$1,$2,$3,$4,$5,0*
20,1,$1+$1,$4,$5,$6,$7,0*
20,1,$1+$1,$6,$7,$8,$9,0*
20,1,$1+$1,$8,$9,$2,$3,0*%
G04 Aperture macros list end*
%ADD10RoundRect,0.050000X-0.800000X-0.800000X0.800000X-0.800000X0.800000X0.800000X-0.800000X0.800000X0*%
%ADD11C,1.700000*%
%ADD12C,3.300000*%
%ADD13RoundRect,0.050000X-0.900000X-0.900000X0.900000X-0.900000X0.900000X0.900000X-0.900000X0.900000X0*%
%ADD14C,1.900000*%
G04 APERTURE END LIST*
%LPC*%
D10*
%TO.C,R6*%
X48380000Y-24000000D03*
D11*
X56000000Y-24000000D03*
%TD*%
D12*
%TO.C,*%
X4000000Y-36000000D03*
%TD*%
D13*
%TO.C,J1*%
X10000000Y-10000000D03*
D14*
X12540000Y-10000000D03*
X10000000Y-12540000D03*
X12540000Y-12540000D03*
X10000000Y-15080000D03*
X12540000Y-15080000D03*
X10000000Y-17620000D03*
X12540000Y-17620000D03*
X10000000Y-20160000D03*
X12540000Y-20160000D03*
%TD*%
D10*
%TO.C,R7*%
X28380000Y-24000000D03*
D11*
X36000000Y-24000000D03*
%TD*%
D10*
%TO.C,R5*%
X68380000Y-24000000D03*
D11*
X76000000Y-24000000D03*
%TD*%
D13*
%TO.C,J4*%
X79000000Y-10000000D03*
D14*
X81540000Y-10000000D03*
X79000000Y-12540000D03*
X81540000Y-12540000D03*
X79000000Y-15080000D03*
X81540000Y-15080000D03*
X79000000Y-17620000D03*
X81540000Y-17620000D03*
X79000000Y-20160000D03*
X81540000Y-20160000D03*
%TD*%
D13*
%TO.C,J7*%
X148000000Y-10000000D03*
D14*
X150540000Y-10000000D03*
X148000000Y-12540000D03*
X150540000Y-12540000D03*
X148000000Y-15080000D03*
X150540000Y-15080000D03*
X148000000Y-17620000D03*
X150540000Y-17620000D03*
X148000000Y-20160000D03*
X150540000Y-20160000D03*
%TD*%
D10*
%TO.C,R4*%
X88380000Y-24000000D03*
D11*
X96000000Y-24000000D03*
%TD*%
D10*
%TO.C,D1*%
X102000000Y-30000000D03*
D11*
X102000000Y-32540000D03*
%TD*%
D10*
%TO.C,R1*%
X148380000Y-24000000D03*
D11*
X156000000Y-24000000D03*
%TD*%
D13*
%TO.C,J2*%
X33000000Y-10000000D03*
D14*
X35540000Y-10000000D03*
X33000000Y-12540000D03*
X35540000Y-12540000D03*
X33000000Y-15080000D03*
X35540000Y-15080000D03*
X33000000Y-17620000D03*
X35540000Y-17620000D03*
X33000000Y-20160000D03*
X35540000Y-20160000D03*
%TD*%
D10*
%TO.C,D6*%
X80000000Y-30000000D03*
D11*
X80000000Y-32540000D03*
%TD*%
D10*
%TO.C,R9*%
X211000000Y-30000000D03*
D11*
X218620000Y-30000000D03*
%TD*%
D10*
%TO.C,D3*%
X94000000Y-30000000D03*
D11*
X94000000Y-32540000D03*
%TD*%
D10*
%TO.C,D7*%
X76000000Y-30000000D03*
D11*
X76000000Y-32540000D03*
%TD*%
D10*
%TO.C,D8*%
X72000000Y-30000000D03*
D11*
X72000000Y-32540000D03*
%TD*%
D10*
%TO.C,R10*%
X182000000Y-22000000D03*
D11*
X189620000Y-22000000D03*
%TD*%
D12*
%TO.C,*%
X231000000Y-4000000D03*
%TD*%
D10*
%TO.C,SW1*%
X175000000Y-25000000D03*
D11*
X175000000Y-32620000D03*
%TD*%
D10*
%TO.C,D9*%
X222000000Y-30000000D03*
D11*
X224540000Y-30000000D03*
%TD*%
D10*
%TO.C,D5*%
X84000000Y-30000000D03*
D11*
X84000000Y-32540000D03*
%TD*%
D13*
%TO.C,J6*%
X125000000Y-10000000D03*
D14*
X127540000Y-10000000D03*
X125000000Y-12540000D03*
X127540000Y-12540000D03*
X125000000Y-15080000D03*
X127540000Y-15080000D03*
X125000000Y-17620000D03*
X127540000Y-17620000D03*
X125000000Y-20160000D03*
X127540000Y-20160000D03*
%TD*%
D10*
%TO.C,R2*%
X128380000Y-24000000D03*
D11*
X136000000Y-24000000D03*
%TD*%
D13*
%TO.C,J9*%
X220000000Y-10000000D03*
D14*
X222540000Y-10000000D03*
X220000000Y-12540000D03*
X222540000Y-12540000D03*
%TD*%
D13*
%TO.C,J5*%
X102000000Y-10000000D03*
D14*
X104540000Y-10000000D03*
X102000000Y-12540000D03*
X104540000Y-12540000D03*
X102000000Y-15080000D03*
X104540000Y-15080000D03*
X102000000Y-17620000D03*
X104540000Y-17620000D03*
X102000000Y-20160000D03*
X104540000Y-20160000D03*
%TD*%
D13*
%TO.C,U1*%
X195000000Y-10000000D03*
D14*
X195000000Y-12540000D03*
X195000000Y-15080000D03*
X195000000Y-17620000D03*
X195000000Y-20160000D03*
X195000000Y-22700000D03*
X195000000Y-25240000D03*
X195000000Y-27780000D03*
X195000000Y-30320000D03*
X195000000Y-32860000D03*
X202620000Y-32860000D03*
X202620000Y-30320000D03*
X202620000Y-27780000D03*
X202620000Y-25240000D03*
X202620000Y-22700000D03*
X202620000Y-20160000D03*
X202620000Y-17620000D03*
X202620000Y-15080000D03*
X202620000Y-12540000D03*
X202620000Y-10000000D03*
%TD*%
D13*
%TO.C,J3*%
X56000000Y-10000000D03*
D14*
X58540000Y-10000000D03*
X56000000Y-12540000D03*
X58540000Y-12540000D03*
X56000000Y-15080000D03*
X58540000Y-15080000D03*
X56000000Y-17620000D03*
X58540000Y-17620000D03*
X56000000Y-20160000D03*
X58540000Y-20160000D03*
%TD*%
D10*
%TO.C,R8*%
X8380000Y-24000000D03*
D11*
X16000000Y-24000000D03*
%TD*%
D12*
%TO.C,*%
X231000000Y-36000000D03*
%TD*%
D10*
%TO.C,C1*%
X205160000Y-10000000D03*
D11*
X207660000Y-10000000D03*
%TD*%
D10*
%TO.C,R3*%
X108380000Y-24000000D03*
D11*
X116000000Y-24000000D03*
%TD*%
D12*
%TO.C,*%
X4000000Y-4000000D03*
%TD*%
D10*
%TO.C,D2*%
X98000000Y-30000000D03*
D11*
X98000000Y-32540000D03*
%TD*%
D13*
%TO.C,J8*%
X171000000Y-10000000D03*
D14*
X173540000Y-10000000D03*
X171000000Y-12540000D03*
X173540000Y-12540000D03*
X171000000Y-15080000D03*
X173540000Y-15080000D03*
X171000000Y-17620000D03*
X173540000Y-17620000D03*
X171000000Y-20160000D03*
X173540000Y-20160000D03*
%TD*%
D10*
%TO.C,C2*%
X220000000Y-23000000D03*
D11*
X222500000Y-23000000D03*
%TD*%
D10*
%TO.C,D4*%
X90000000Y-30000000D03*
D11*
X90000000Y-32540000D03*
%TD*%
D10*
%TO.C,RN1*%
X180000000Y-6000000D03*
D11*
X182540000Y-6000000D03*
X185080000Y-6000000D03*
X187620000Y-6000000D03*
X190160000Y-6000000D03*
X192700000Y-6000000D03*
X195240000Y-6000000D03*
X197780000Y-6000000D03*
X200320000Y-6000000D03*
%TD*%
%LPD*%
M02*
