%TF.GenerationSoftware,KiCad,Pcbnew,10.0.7*%
%TF.CreationDate,2026-10-07T09:27:50+02:00*%
%TF.ProjectId,alu_rev_b,616c755f-7265-4765-9f62-2e6b69636164,rev?*%
%TF.SameCoordinates,Original*%
%TF.FileFunction,Legend,Bot*%
%TF.FilePolarity,Positive*%
%FSLAX46Y46*%
G04 Gerber Fmt 4.6, Leading zero omitted, Abs format (unit mm)*
G04 Created by KiCad (PCBNEW 10.0.7) date 2026-10-07 09:27:50*
%MOMM*%
%LPD*%
G01*
G04 APERTURE LIST*
G04 Aperture macros list*
%AMRoundRect*
0 Rectangle with rounded corners*
0 $1 Rounding radius*
0 $2 $3 $4 $5 $6 $7 $8 $9 X,Y pos of 4 corners*
0 Add a 4 corners polygon primitive as box body*
4,1,4,$2,$3,$4,$5,$6,$7,$8,$9,$2,$3,0*
0 Add four circle primitives for the rounded corners*
1,1,$1+$1,$2,$3*
1,1,$1+$1,$4,$5*
1,1,$1+$1,$6,$7*
1,1,$1+$1,$8,$9*
0 Add four rect primitives between the rounded corners*
20,1,$1+$1,$2,$3,$4,$5,0*
20,1,$1+$1,$4,$5,$6,$7,0*
20,1,$1+$1,$6,$7,$8,$9,0*
20,1,$1+$1,$8,$9,$2,$3,0*%
G04 Aperture macros list end*
%ADD10RoundRect,0.050000X-0.900000X-0.900000X0.900000X-0.900000X0.900000X0.900000X-0.900000X0.900000X0*%
%ADD11C,1.900000*%
%ADD12RoundRect,0.050000X-0.800000X-0.800000X0.800000X-0.800000X0.800000X0.800000X-0.800000X0.800000X0*%
%ADD13C,1.700000*%
%ADD14C,3.300000*%
G04 APERTURE END LIST*
%LPC*%
D10*
%TO.C,U21*%
X174000000Y-178000000D03*
D11*
X174000000Y-180540000D03*
X174000000Y-183080000D03*
X174000000Y-185620000D03*
X174000000Y-188160000D03*
X174000000Y-190700000D03*
X174000000Y-193240000D03*
X174000000Y-195780000D03*
X181620000Y-195780000D03*
X181620000Y-193240000D03*
X181620000Y-190700000D03*
X181620000Y-188160000D03*
X181620000Y-185620000D03*
X181620000Y-183080000D03*
X181620000Y-180540000D03*
X181620000Y-178000000D03*
%TD*%
D12*
%TO.C,D19*%
X184000000Y-35000000D03*
D13*
X186540000Y-35000000D03*
%TD*%
D10*
%TO.C,U15*%
X24000000Y-178000000D03*
D11*
X24000000Y-180540000D03*
X24000000Y-183080000D03*
X24000000Y-185620000D03*
X24000000Y-188160000D03*
X24000000Y-190700000D03*
X24000000Y-193240000D03*
X31620000Y-193240000D03*
X31620000Y-190700000D03*
X31620000Y-188160000D03*
X31620000Y-185620000D03*
X31620000Y-183080000D03*
X31620000Y-180540000D03*
X31620000Y-178000000D03*
%TD*%
D12*
%TO.C,R2*%
X237000000Y-248000000D03*
D13*
X244620000Y-248000000D03*
%TD*%
D10*
%TO.C,U8*%
X24000000Y-142000000D03*
D11*
X24000000Y-144540000D03*
X24000000Y-147080000D03*
X24000000Y-149620000D03*
X24000000Y-152160000D03*
X24000000Y-154700000D03*
X24000000Y-157240000D03*
X31620000Y-157240000D03*
X31620000Y-154700000D03*
X31620000Y-152160000D03*
X31620000Y-149620000D03*
X31620000Y-147080000D03*
X31620000Y-144540000D03*
X31620000Y-142000000D03*
%TD*%
D10*
%TO.C,U30*%
X49000000Y-250000000D03*
D11*
X49000000Y-252540000D03*
X49000000Y-255080000D03*
X49000000Y-257620000D03*
X49000000Y-260160000D03*
X49000000Y-262700000D03*
X49000000Y-265240000D03*
X56620000Y-265240000D03*
X56620000Y-262700000D03*
X56620000Y-260160000D03*
X56620000Y-257620000D03*
X56620000Y-255080000D03*
X56620000Y-252540000D03*
X56620000Y-250000000D03*
%TD*%
D12*
%TO.C,D5*%
X72000000Y-38000000D03*
D13*
X74540000Y-38000000D03*
%TD*%
D12*
%TO.C,C44*%
X248160000Y-214000000D03*
D13*
X250660000Y-214000000D03*
%TD*%
D10*
%TO.C,U26*%
X124000000Y-214000000D03*
D11*
X124000000Y-216540000D03*
X124000000Y-219080000D03*
X124000000Y-221620000D03*
X124000000Y-224160000D03*
X124000000Y-226700000D03*
X124000000Y-229240000D03*
X131620000Y-229240000D03*
X131620000Y-226700000D03*
X131620000Y-224160000D03*
X131620000Y-221620000D03*
X131620000Y-219080000D03*
X131620000Y-216540000D03*
X131620000Y-214000000D03*
%TD*%
D12*
%TO.C,C27*%
X159160000Y-214000000D03*
D13*
X161660000Y-214000000D03*
%TD*%
D12*
%TO.C,R22*%
X176380000Y-25000000D03*
D13*
X184000000Y-25000000D03*
%TD*%
D12*
%TO.C,D30*%
X242000000Y-86000000D03*
D13*
X244540000Y-86000000D03*
%TD*%
D12*
%TO.C,C22*%
X34160000Y-214000000D03*
D13*
X36660000Y-214000000D03*
%TD*%
D10*
%TO.C,U27*%
X149000000Y-214000000D03*
D11*
X149000000Y-216540000D03*
X149000000Y-219080000D03*
X149000000Y-221620000D03*
X149000000Y-224160000D03*
X149000000Y-226700000D03*
X149000000Y-229240000D03*
X156620000Y-229240000D03*
X156620000Y-226700000D03*
X156620000Y-224160000D03*
X156620000Y-221620000D03*
X156620000Y-219080000D03*
X156620000Y-216540000D03*
X156620000Y-214000000D03*
%TD*%
D10*
%TO.C,J1*%
X10000000Y-10000000D03*
D11*
X12540000Y-10000000D03*
X10000000Y-12540000D03*
X12540000Y-12540000D03*
X10000000Y-15080000D03*
X12540000Y-15080000D03*
X10000000Y-17620000D03*
X12540000Y-17620000D03*
X10000000Y-20160000D03*
X12540000Y-20160000D03*
%TD*%
D12*
%TO.C,R15*%
X50380000Y-55000000D03*
D13*
X58000000Y-55000000D03*
%TD*%
D12*
%TO.C,D3*%
X44000000Y-38000000D03*
D13*
X46540000Y-38000000D03*
%TD*%
D12*
%TO.C,C8*%
X34160000Y-142000000D03*
D13*
X36660000Y-142000000D03*
%TD*%
D10*
%TO.C,U20*%
X149000000Y-178000000D03*
D11*
X149000000Y-180540000D03*
X149000000Y-183080000D03*
X149000000Y-185620000D03*
X149000000Y-188160000D03*
X149000000Y-190700000D03*
X149000000Y-193240000D03*
X149000000Y-195780000D03*
X156620000Y-195780000D03*
X156620000Y-193240000D03*
X156620000Y-190700000D03*
X156620000Y-188160000D03*
X156620000Y-185620000D03*
X156620000Y-183080000D03*
X156620000Y-180540000D03*
X156620000Y-178000000D03*
%TD*%
D12*
%TO.C,R25*%
X165380000Y-55000000D03*
D13*
X173000000Y-55000000D03*
%TD*%
D12*
%TO.C,RN6*%
X231000000Y-286000000D03*
D13*
X233540000Y-286000000D03*
X236080000Y-286000000D03*
X238620000Y-286000000D03*
X241160000Y-286000000D03*
X243700000Y-286000000D03*
X246240000Y-286000000D03*
X248780000Y-286000000D03*
X251320000Y-286000000D03*
%TD*%
D12*
%TO.C,R5*%
X22380000Y-28000000D03*
D13*
X30000000Y-28000000D03*
%TD*%
D10*
%TO.C,U34*%
X213000000Y-106000000D03*
D11*
X213000000Y-108540000D03*
X213000000Y-111080000D03*
X213000000Y-113620000D03*
X213000000Y-116160000D03*
X213000000Y-118700000D03*
X213000000Y-121240000D03*
X213000000Y-123780000D03*
X220620000Y-123780000D03*
X220620000Y-121240000D03*
X220620000Y-118700000D03*
X220620000Y-116160000D03*
X220620000Y-113620000D03*
X220620000Y-111080000D03*
X220620000Y-108540000D03*
X220620000Y-106000000D03*
%TD*%
D12*
%TO.C,R6*%
X36380000Y-28000000D03*
D13*
X44000000Y-28000000D03*
%TD*%
D12*
%TO.C,C41*%
X248160000Y-178000000D03*
D13*
X250660000Y-178000000D03*
%TD*%
D12*
%TO.C,C38*%
X248160000Y-142000000D03*
D13*
X250660000Y-142000000D03*
%TD*%
D12*
%TO.C,C3*%
X84160000Y-106000000D03*
D13*
X86660000Y-106000000D03*
%TD*%
D14*
%TO.C,*%
X286000000Y-4000000D03*
%TD*%
D12*
%TO.C,C23*%
X59160000Y-214000000D03*
D13*
X61660000Y-214000000D03*
%TD*%
D12*
%TO.C,R30*%
X165380000Y-76000000D03*
D13*
X173000000Y-76000000D03*
%TD*%
D12*
%TO.C,C7*%
X184160000Y-106000000D03*
D13*
X186660000Y-106000000D03*
%TD*%
D10*
%TO.C,U11*%
X99000000Y-142000000D03*
D11*
X99000000Y-144540000D03*
X99000000Y-147080000D03*
X99000000Y-149620000D03*
X99000000Y-152160000D03*
X99000000Y-154700000D03*
X99000000Y-157240000D03*
X106620000Y-157240000D03*
X106620000Y-154700000D03*
X106620000Y-152160000D03*
X106620000Y-149620000D03*
X106620000Y-147080000D03*
X106620000Y-144540000D03*
X106620000Y-142000000D03*
%TD*%
D12*
%TO.C,R32*%
X211380000Y-76000000D03*
D13*
X219000000Y-76000000D03*
%TD*%
D12*
%TO.C,SW1*%
X18000000Y-84000000D03*
D13*
X20540000Y-84000000D03*
X23080000Y-84000000D03*
X25620000Y-84000000D03*
X28160000Y-84000000D03*
X30700000Y-84000000D03*
X33240000Y-84000000D03*
X35780000Y-84000000D03*
X35780000Y-91620000D03*
X33240000Y-91620000D03*
X30700000Y-91620000D03*
X28160000Y-91620000D03*
X25620000Y-91620000D03*
X23080000Y-91620000D03*
X20540000Y-91620000D03*
X18000000Y-91620000D03*
%TD*%
D10*
%TO.C,U3*%
X74000000Y-106000000D03*
D11*
X74000000Y-108540000D03*
X74000000Y-111080000D03*
X74000000Y-113620000D03*
X74000000Y-116160000D03*
X74000000Y-118700000D03*
X74000000Y-121240000D03*
X81620000Y-121240000D03*
X81620000Y-118700000D03*
X81620000Y-116160000D03*
X81620000Y-113620000D03*
X81620000Y-111080000D03*
X81620000Y-108540000D03*
X81620000Y-106000000D03*
%TD*%
D12*
%TO.C,D9*%
X16000000Y-65000000D03*
D13*
X18540000Y-65000000D03*
%TD*%
D12*
%TO.C,R7*%
X50380000Y-28000000D03*
D13*
X58000000Y-28000000D03*
%TD*%
D12*
%TO.C,D12*%
X58000000Y-65000000D03*
D13*
X60540000Y-65000000D03*
%TD*%
D12*
%TO.C,D4*%
X58000000Y-38000000D03*
D13*
X60540000Y-38000000D03*
%TD*%
D12*
%TO.C,C42*%
X273160000Y-178000000D03*
D13*
X275660000Y-178000000D03*
%TD*%
D10*
%TO.C,J6*%
X178000000Y-10000000D03*
D11*
X180540000Y-10000000D03*
X178000000Y-12540000D03*
X180540000Y-12540000D03*
%TD*%
D10*
%TO.C,U1*%
X24000000Y-106000000D03*
D11*
X24000000Y-108540000D03*
X24000000Y-111080000D03*
X24000000Y-113620000D03*
X24000000Y-116160000D03*
X24000000Y-118700000D03*
X24000000Y-121240000D03*
X31620000Y-121240000D03*
X31620000Y-118700000D03*
X31620000Y-116160000D03*
X31620000Y-113620000D03*
X31620000Y-111080000D03*
X31620000Y-108540000D03*
X31620000Y-106000000D03*
%TD*%
D10*
%TO.C,U24*%
X74000000Y-214000000D03*
D11*
X74000000Y-216540000D03*
X74000000Y-219080000D03*
X74000000Y-221620000D03*
X74000000Y-224160000D03*
X74000000Y-226700000D03*
X74000000Y-229240000D03*
X74000000Y-231780000D03*
X81620000Y-231780000D03*
X81620000Y-229240000D03*
X81620000Y-226700000D03*
X81620000Y-224160000D03*
X81620000Y-221620000D03*
X81620000Y-219080000D03*
X81620000Y-216540000D03*
X81620000Y-214000000D03*
%TD*%
D10*
%TO.C,U31*%
X74000000Y-250000000D03*
D11*
X74000000Y-252540000D03*
X74000000Y-255080000D03*
X74000000Y-257620000D03*
X74000000Y-260160000D03*
X74000000Y-262700000D03*
X74000000Y-265240000D03*
X81620000Y-265240000D03*
X81620000Y-262700000D03*
X81620000Y-260160000D03*
X81620000Y-257620000D03*
X81620000Y-255080000D03*
X81620000Y-252540000D03*
X81620000Y-250000000D03*
%TD*%
D10*
%TO.C,U5*%
X124000000Y-106000000D03*
D11*
X124000000Y-108540000D03*
X124000000Y-111080000D03*
X124000000Y-113620000D03*
X124000000Y-116160000D03*
X124000000Y-118700000D03*
X124000000Y-121240000D03*
X131620000Y-121240000D03*
X131620000Y-118700000D03*
X131620000Y-116160000D03*
X131620000Y-113620000D03*
X131620000Y-111080000D03*
X131620000Y-108540000D03*
X131620000Y-106000000D03*
%TD*%
D12*
%TO.C,D13*%
X72000000Y-65000000D03*
D13*
X74540000Y-65000000D03*
%TD*%
D10*
%TO.C,U17*%
X74000000Y-178000000D03*
D11*
X74000000Y-180540000D03*
X74000000Y-183080000D03*
X74000000Y-185620000D03*
X74000000Y-188160000D03*
X74000000Y-190700000D03*
X74000000Y-193240000D03*
X74000000Y-195780000D03*
X81620000Y-195780000D03*
X81620000Y-193240000D03*
X81620000Y-190700000D03*
X81620000Y-188160000D03*
X81620000Y-185620000D03*
X81620000Y-183080000D03*
X81620000Y-180540000D03*
X81620000Y-178000000D03*
%TD*%
D12*
%TO.C,R11*%
X106380000Y-28000000D03*
D13*
X114000000Y-28000000D03*
%TD*%
D12*
%TO.C,SW2*%
X62000000Y-84000000D03*
D13*
X64540000Y-84000000D03*
X67080000Y-84000000D03*
X69620000Y-84000000D03*
X72160000Y-84000000D03*
X74700000Y-84000000D03*
X77240000Y-84000000D03*
X79780000Y-84000000D03*
X79780000Y-91620000D03*
X77240000Y-91620000D03*
X74700000Y-91620000D03*
X72160000Y-91620000D03*
X69620000Y-91620000D03*
X67080000Y-91620000D03*
X64540000Y-91620000D03*
X62000000Y-91620000D03*
%TD*%
D12*
%TO.C,R4*%
X8380000Y-28000000D03*
D13*
X16000000Y-28000000D03*
%TD*%
D12*
%TO.C,R24*%
X142380000Y-55000000D03*
D13*
X150000000Y-55000000D03*
%TD*%
D10*
%TO.C,J7*%
X185000000Y-259000000D03*
D11*
X187540000Y-259000000D03*
X185000000Y-261540000D03*
X187540000Y-261540000D03*
X185000000Y-264080000D03*
X187540000Y-264080000D03*
X185000000Y-266620000D03*
X187540000Y-266620000D03*
X185000000Y-269160000D03*
X187540000Y-269160000D03*
%TD*%
D12*
%TO.C,R29*%
X142380000Y-76000000D03*
D13*
X150000000Y-76000000D03*
%TD*%
D12*
%TO.C,R31*%
X188380000Y-76000000D03*
D13*
X196000000Y-76000000D03*
%TD*%
D10*
%TO.C,J4*%
X148000000Y-259000000D03*
D11*
X150540000Y-259000000D03*
X148000000Y-261540000D03*
X150540000Y-261540000D03*
X148000000Y-264080000D03*
X150540000Y-264080000D03*
X148000000Y-266620000D03*
X150540000Y-266620000D03*
X148000000Y-269160000D03*
X150540000Y-269160000D03*
%TD*%
D12*
%TO.C,D21*%
X150000000Y-65000000D03*
D13*
X152540000Y-65000000D03*
%TD*%
D12*
%TO.C,RN1*%
X16000000Y-286000000D03*
D13*
X18540000Y-286000000D03*
X21080000Y-286000000D03*
X23620000Y-286000000D03*
X26160000Y-286000000D03*
X28700000Y-286000000D03*
X31240000Y-286000000D03*
X33780000Y-286000000D03*
X36320000Y-286000000D03*
%TD*%
D10*
%TO.C,U7*%
X174000000Y-106000000D03*
D11*
X174000000Y-108540000D03*
X174000000Y-111080000D03*
X174000000Y-113620000D03*
X174000000Y-116160000D03*
X174000000Y-118700000D03*
X174000000Y-121240000D03*
X181620000Y-121240000D03*
X181620000Y-118700000D03*
X181620000Y-116160000D03*
X181620000Y-113620000D03*
X181620000Y-111080000D03*
X181620000Y-108540000D03*
X181620000Y-106000000D03*
%TD*%
D12*
%TO.C,C36*%
X273160000Y-106000000D03*
D13*
X275660000Y-106000000D03*
%TD*%
D10*
%TO.C,U43*%
X213000000Y-214000000D03*
D11*
X213000000Y-216540000D03*
X213000000Y-219080000D03*
X213000000Y-221620000D03*
X213000000Y-224160000D03*
X213000000Y-226700000D03*
X213000000Y-229240000D03*
X220620000Y-229240000D03*
X220620000Y-226700000D03*
X220620000Y-224160000D03*
X220620000Y-221620000D03*
X220620000Y-219080000D03*
X220620000Y-216540000D03*
X220620000Y-214000000D03*
%TD*%
D12*
%TO.C,RN5*%
X188000000Y-286000000D03*
D13*
X190540000Y-286000000D03*
X193080000Y-286000000D03*
X195620000Y-286000000D03*
X198160000Y-286000000D03*
X200700000Y-286000000D03*
X203240000Y-286000000D03*
X205780000Y-286000000D03*
X208320000Y-286000000D03*
%TD*%
D12*
%TO.C,C10*%
X84160000Y-142000000D03*
D13*
X86660000Y-142000000D03*
%TD*%
D12*
%TO.C,C34*%
X223160000Y-106000000D03*
D13*
X225660000Y-106000000D03*
%TD*%
D12*
%TO.C,D11*%
X44000000Y-65000000D03*
D13*
X46540000Y-65000000D03*
%TD*%
D12*
%TO.C,D25*%
X242000000Y-65000000D03*
D13*
X244540000Y-65000000D03*
%TD*%
D10*
%TO.C,U37*%
X213000000Y-142000000D03*
D11*
X213000000Y-144540000D03*
X213000000Y-147080000D03*
X213000000Y-149620000D03*
X213000000Y-152160000D03*
X213000000Y-154700000D03*
X213000000Y-157240000D03*
X213000000Y-159780000D03*
X220620000Y-159780000D03*
X220620000Y-157240000D03*
X220620000Y-154700000D03*
X220620000Y-152160000D03*
X220620000Y-149620000D03*
X220620000Y-147080000D03*
X220620000Y-144540000D03*
X220620000Y-142000000D03*
%TD*%
D12*
%TO.C,R20*%
X142380000Y-25000000D03*
D13*
X150000000Y-25000000D03*
%TD*%
D12*
%TO.C,RN2*%
X59000000Y-286000000D03*
D13*
X61540000Y-286000000D03*
X64080000Y-286000000D03*
X66620000Y-286000000D03*
X69160000Y-286000000D03*
X71700000Y-286000000D03*
X74240000Y-286000000D03*
X76780000Y-286000000D03*
X79320000Y-286000000D03*
%TD*%
D10*
%TO.C,U18*%
X99000000Y-178000000D03*
D11*
X99000000Y-180540000D03*
X99000000Y-183080000D03*
X99000000Y-185620000D03*
X99000000Y-188160000D03*
X99000000Y-190700000D03*
X99000000Y-193240000D03*
X99000000Y-195780000D03*
X106620000Y-195780000D03*
X106620000Y-193240000D03*
X106620000Y-190700000D03*
X106620000Y-188160000D03*
X106620000Y-185620000D03*
X106620000Y-183080000D03*
X106620000Y-180540000D03*
X106620000Y-178000000D03*
%TD*%
D12*
%TO.C,R13*%
X22380000Y-55000000D03*
D13*
X30000000Y-55000000D03*
%TD*%
D12*
%TO.C,D28*%
X196000000Y-86000000D03*
D13*
X198540000Y-86000000D03*
%TD*%
D10*
%TO.C,J5*%
X146000000Y-10000000D03*
D11*
X148540000Y-10000000D03*
X146000000Y-12540000D03*
X148540000Y-12540000D03*
X146000000Y-15080000D03*
X148540000Y-15080000D03*
%TD*%
D10*
%TO.C,U2*%
X49000000Y-106000000D03*
D11*
X49000000Y-108540000D03*
X49000000Y-111080000D03*
X49000000Y-113620000D03*
X49000000Y-116160000D03*
X49000000Y-118700000D03*
X49000000Y-121240000D03*
X56620000Y-121240000D03*
X56620000Y-118700000D03*
X56620000Y-116160000D03*
X56620000Y-113620000D03*
X56620000Y-111080000D03*
X56620000Y-108540000D03*
X56620000Y-106000000D03*
%TD*%
D12*
%TO.C,D14*%
X86000000Y-65000000D03*
D13*
X88540000Y-65000000D03*
%TD*%
D12*
%TO.C,SW4*%
X230000000Y-28000000D03*
D13*
X230000000Y-35620000D03*
%TD*%
D12*
%TO.C,R28*%
X234380000Y-55000000D03*
D13*
X242000000Y-55000000D03*
%TD*%
D12*
%TO.C,R16*%
X64380000Y-55000000D03*
D13*
X72000000Y-55000000D03*
%TD*%
D12*
%TO.C,C6*%
X159160000Y-106000000D03*
D13*
X161660000Y-106000000D03*
%TD*%
D10*
%TO.C,U36*%
X263000000Y-106000000D03*
D11*
X263000000Y-108540000D03*
X263000000Y-111080000D03*
X263000000Y-113620000D03*
X263000000Y-116160000D03*
X263000000Y-118700000D03*
X263000000Y-121240000D03*
X263000000Y-123780000D03*
X270620000Y-123780000D03*
X270620000Y-121240000D03*
X270620000Y-118700000D03*
X270620000Y-116160000D03*
X270620000Y-113620000D03*
X270620000Y-111080000D03*
X270620000Y-108540000D03*
X270620000Y-106000000D03*
%TD*%
D12*
%TO.C,SW5*%
X259000000Y-28000000D03*
D13*
X259000000Y-35620000D03*
%TD*%
D12*
%TO.C,R3*%
X263000000Y-248000000D03*
D13*
X270620000Y-248000000D03*
%TD*%
D10*
%TO.C,U14*%
X174000000Y-142000000D03*
D11*
X174000000Y-144540000D03*
X174000000Y-147080000D03*
X174000000Y-149620000D03*
X174000000Y-152160000D03*
X174000000Y-154700000D03*
X174000000Y-157240000D03*
X181620000Y-157240000D03*
X181620000Y-154700000D03*
X181620000Y-152160000D03*
X181620000Y-149620000D03*
X181620000Y-147080000D03*
X181620000Y-144540000D03*
X181620000Y-142000000D03*
%TD*%
D10*
%TO.C,J2*%
X42000000Y-10000000D03*
D11*
X44540000Y-10000000D03*
X42000000Y-12540000D03*
X44540000Y-12540000D03*
X42000000Y-15080000D03*
X44540000Y-15080000D03*
X42000000Y-17620000D03*
X44540000Y-17620000D03*
X42000000Y-20160000D03*
X44540000Y-20160000D03*
%TD*%
D12*
%TO.C,C18*%
X109160000Y-178000000D03*
D13*
X111660000Y-178000000D03*
%TD*%
D12*
%TO.C,D8*%
X114000000Y-38000000D03*
D13*
X116540000Y-38000000D03*
%TD*%
D12*
%TO.C,D23*%
X196000000Y-65000000D03*
D13*
X198540000Y-65000000D03*
%TD*%
D12*
%TO.C,C29*%
X34160000Y-250000000D03*
D13*
X36660000Y-250000000D03*
%TD*%
D12*
%TO.C,C32*%
X109160000Y-250000000D03*
D13*
X111660000Y-250000000D03*
%TD*%
D10*
%TO.C,J3*%
X76000000Y-10000000D03*
D11*
X78540000Y-10000000D03*
X76000000Y-12540000D03*
X78540000Y-12540000D03*
X76000000Y-15080000D03*
X78540000Y-15080000D03*
X76000000Y-17620000D03*
X78540000Y-17620000D03*
%TD*%
D12*
%TO.C,C9*%
X59160000Y-142000000D03*
D13*
X61660000Y-142000000D03*
%TD*%
D12*
%TO.C,C30*%
X59160000Y-250000000D03*
D13*
X61660000Y-250000000D03*
%TD*%
D12*
%TO.C,C15*%
X34160000Y-178000000D03*
D13*
X36660000Y-178000000D03*
%TD*%
D10*
%TO.C,U41*%
X238000000Y-178000000D03*
D11*
X238000000Y-180540000D03*
X238000000Y-183080000D03*
X238000000Y-185620000D03*
X238000000Y-188160000D03*
X238000000Y-190700000D03*
X238000000Y-193240000D03*
X238000000Y-195780000D03*
X238000000Y-198320000D03*
X238000000Y-200860000D03*
X245620000Y-200860000D03*
X245620000Y-198320000D03*
X245620000Y-195780000D03*
X245620000Y-193240000D03*
X245620000Y-190700000D03*
X245620000Y-188160000D03*
X245620000Y-185620000D03*
X245620000Y-183080000D03*
X245620000Y-180540000D03*
X245620000Y-178000000D03*
%TD*%
D12*
%TO.C,D7*%
X100000000Y-38000000D03*
D13*
X102540000Y-38000000D03*
%TD*%
D12*
%TO.C,D6*%
X86000000Y-38000000D03*
D13*
X88540000Y-38000000D03*
%TD*%
D12*
%TO.C,R10*%
X92380000Y-28000000D03*
D13*
X100000000Y-28000000D03*
%TD*%
D12*
%TO.C,SW3*%
X108000000Y-84000000D03*
D13*
X110540000Y-84000000D03*
X113080000Y-84000000D03*
X115620000Y-84000000D03*
X115620000Y-91620000D03*
X113080000Y-91620000D03*
X110540000Y-91620000D03*
X108000000Y-91620000D03*
%TD*%
D12*
%TO.C,C11*%
X109160000Y-142000000D03*
D13*
X111660000Y-142000000D03*
%TD*%
D12*
%TO.C,C35*%
X248160000Y-106000000D03*
D13*
X250660000Y-106000000D03*
%TD*%
D12*
%TO.C,C25*%
X109160000Y-214000000D03*
D13*
X111660000Y-214000000D03*
%TD*%
D10*
%TO.C,U29*%
X24000000Y-250000000D03*
D11*
X24000000Y-252540000D03*
X24000000Y-255080000D03*
X24000000Y-257620000D03*
X24000000Y-260160000D03*
X24000000Y-262700000D03*
X24000000Y-265240000D03*
X31620000Y-265240000D03*
X31620000Y-262700000D03*
X31620000Y-260160000D03*
X31620000Y-257620000D03*
X31620000Y-255080000D03*
X31620000Y-252540000D03*
X31620000Y-250000000D03*
%TD*%
D12*
%TO.C,R17*%
X78380000Y-55000000D03*
D13*
X86000000Y-55000000D03*
%TD*%
D14*
%TO.C,*%
X286000000Y-296000000D03*
%TD*%
D12*
%TO.C,C19*%
X134160000Y-178000000D03*
D13*
X136660000Y-178000000D03*
%TD*%
D12*
%TO.C,C17*%
X84160000Y-178000000D03*
D13*
X86660000Y-178000000D03*
%TD*%
D12*
%TO.C,C40*%
X223160000Y-178000000D03*
D13*
X225660000Y-178000000D03*
%TD*%
D10*
%TO.C,U33*%
X124000000Y-250000000D03*
D11*
X124000000Y-252540000D03*
X124000000Y-255080000D03*
X124000000Y-257620000D03*
X124000000Y-260160000D03*
X124000000Y-262700000D03*
X124000000Y-265240000D03*
X124000000Y-267780000D03*
X124000000Y-270320000D03*
X124000000Y-272860000D03*
X131620000Y-272860000D03*
X131620000Y-270320000D03*
X131620000Y-267780000D03*
X131620000Y-265240000D03*
X131620000Y-262700000D03*
X131620000Y-260160000D03*
X131620000Y-257620000D03*
X131620000Y-255080000D03*
X131620000Y-252540000D03*
X131620000Y-250000000D03*
%TD*%
D12*
%TO.C,D15*%
X100000000Y-65000000D03*
D13*
X102540000Y-65000000D03*
%TD*%
D12*
%TO.C,C14*%
X184160000Y-142000000D03*
D13*
X186660000Y-142000000D03*
%TD*%
D12*
%TO.C,R8*%
X64380000Y-28000000D03*
D13*
X72000000Y-28000000D03*
%TD*%
D12*
%TO.C,R9*%
X78380000Y-28000000D03*
D13*
X86000000Y-28000000D03*
%TD*%
D12*
%TO.C,RN4*%
X145000000Y-286000000D03*
D13*
X147540000Y-286000000D03*
X150080000Y-286000000D03*
X152620000Y-286000000D03*
X155160000Y-286000000D03*
X157700000Y-286000000D03*
X160240000Y-286000000D03*
X162780000Y-286000000D03*
X165320000Y-286000000D03*
%TD*%
D10*
%TO.C,U10*%
X74000000Y-142000000D03*
D11*
X74000000Y-144540000D03*
X74000000Y-147080000D03*
X74000000Y-149620000D03*
X74000000Y-152160000D03*
X74000000Y-154700000D03*
X74000000Y-157240000D03*
X81620000Y-157240000D03*
X81620000Y-154700000D03*
X81620000Y-152160000D03*
X81620000Y-149620000D03*
X81620000Y-147080000D03*
X81620000Y-144540000D03*
X81620000Y-142000000D03*
%TD*%
D10*
%TO.C,U45*%
X263000000Y-214000000D03*
D11*
X263000000Y-216540000D03*
X263000000Y-219080000D03*
X263000000Y-221620000D03*
X263000000Y-224160000D03*
X263000000Y-226700000D03*
X263000000Y-229240000D03*
X263000000Y-231780000D03*
X270620000Y-231780000D03*
X270620000Y-229240000D03*
X270620000Y-226700000D03*
X270620000Y-224160000D03*
X270620000Y-221620000D03*
X270620000Y-219080000D03*
X270620000Y-216540000D03*
X270620000Y-214000000D03*
%TD*%
D12*
%TO.C,C28*%
X184160000Y-214000000D03*
D13*
X186660000Y-214000000D03*
%TD*%
D10*
%TO.C,U25*%
X99000000Y-214000000D03*
D11*
X99000000Y-216540000D03*
X99000000Y-219080000D03*
X99000000Y-221620000D03*
X99000000Y-224160000D03*
X99000000Y-226700000D03*
X99000000Y-229240000D03*
X99000000Y-231780000D03*
X106620000Y-231780000D03*
X106620000Y-229240000D03*
X106620000Y-226700000D03*
X106620000Y-224160000D03*
X106620000Y-221620000D03*
X106620000Y-219080000D03*
X106620000Y-216540000D03*
X106620000Y-214000000D03*
%TD*%
D10*
%TO.C,U42*%
X263000000Y-178000000D03*
D11*
X263000000Y-180540000D03*
X263000000Y-183080000D03*
X263000000Y-185620000D03*
X263000000Y-188160000D03*
X263000000Y-190700000D03*
X263000000Y-193240000D03*
X263000000Y-195780000D03*
X263000000Y-198320000D03*
X263000000Y-200860000D03*
X270620000Y-200860000D03*
X270620000Y-198320000D03*
X270620000Y-195780000D03*
X270620000Y-193240000D03*
X270620000Y-190700000D03*
X270620000Y-188160000D03*
X270620000Y-185620000D03*
X270620000Y-183080000D03*
X270620000Y-180540000D03*
X270620000Y-178000000D03*
%TD*%
D12*
%TO.C,C20*%
X159160000Y-178000000D03*
D13*
X161660000Y-178000000D03*
%TD*%
D12*
%TO.C,R26*%
X188380000Y-55000000D03*
D13*
X196000000Y-55000000D03*
%TD*%
D10*
%TO.C,U6*%
X149000000Y-106000000D03*
D11*
X149000000Y-108540000D03*
X149000000Y-111080000D03*
X149000000Y-113620000D03*
X149000000Y-116160000D03*
X149000000Y-118700000D03*
X149000000Y-121240000D03*
X156620000Y-121240000D03*
X156620000Y-118700000D03*
X156620000Y-116160000D03*
X156620000Y-113620000D03*
X156620000Y-111080000D03*
X156620000Y-108540000D03*
X156620000Y-106000000D03*
%TD*%
D12*
%TO.C,D22*%
X173000000Y-65000000D03*
D13*
X175540000Y-65000000D03*
%TD*%
D12*
%TO.C,C21*%
X184160000Y-178000000D03*
D13*
X186660000Y-178000000D03*
%TD*%
D12*
%TO.C,D2*%
X30000000Y-38000000D03*
D13*
X32540000Y-38000000D03*
%TD*%
D10*
%TO.C,U28*%
X174000000Y-214000000D03*
D11*
X174000000Y-216540000D03*
X174000000Y-219080000D03*
X174000000Y-221620000D03*
X174000000Y-224160000D03*
X174000000Y-226700000D03*
X174000000Y-229240000D03*
X181620000Y-229240000D03*
X181620000Y-226700000D03*
X181620000Y-224160000D03*
X181620000Y-221620000D03*
X181620000Y-219080000D03*
X181620000Y-216540000D03*
X181620000Y-214000000D03*
%TD*%
D12*
%TO.C,C2*%
X59160000Y-106000000D03*
D13*
X61660000Y-106000000D03*
%TD*%
D12*
%TO.C,R33*%
X234380000Y-76000000D03*
D13*
X242000000Y-76000000D03*
%TD*%
D10*
%TO.C,U13*%
X149000000Y-142000000D03*
D11*
X149000000Y-144540000D03*
X149000000Y-147080000D03*
X149000000Y-149620000D03*
X149000000Y-152160000D03*
X149000000Y-154700000D03*
X149000000Y-157240000D03*
X156620000Y-157240000D03*
X156620000Y-154700000D03*
X156620000Y-152160000D03*
X156620000Y-149620000D03*
X156620000Y-147080000D03*
X156620000Y-144540000D03*
X156620000Y-142000000D03*
%TD*%
D10*
%TO.C,U12*%
X124000000Y-142000000D03*
D11*
X124000000Y-144540000D03*
X124000000Y-147080000D03*
X124000000Y-149620000D03*
X124000000Y-152160000D03*
X124000000Y-154700000D03*
X124000000Y-157240000D03*
X131620000Y-157240000D03*
X131620000Y-154700000D03*
X131620000Y-152160000D03*
X131620000Y-149620000D03*
X131620000Y-147080000D03*
X131620000Y-144540000D03*
X131620000Y-142000000D03*
%TD*%
D10*
%TO.C,U19*%
X124000000Y-178000000D03*
D11*
X124000000Y-180540000D03*
X124000000Y-183080000D03*
X124000000Y-185620000D03*
X124000000Y-188160000D03*
X124000000Y-190700000D03*
X124000000Y-193240000D03*
X124000000Y-195780000D03*
X131620000Y-195780000D03*
X131620000Y-193240000D03*
X131620000Y-190700000D03*
X131620000Y-188160000D03*
X131620000Y-185620000D03*
X131620000Y-183080000D03*
X131620000Y-180540000D03*
X131620000Y-178000000D03*
%TD*%
D10*
%TO.C,U22*%
X24000000Y-214000000D03*
D11*
X24000000Y-216540000D03*
X24000000Y-219080000D03*
X24000000Y-221620000D03*
X24000000Y-224160000D03*
X24000000Y-226700000D03*
X24000000Y-229240000D03*
X24000000Y-231780000D03*
X31620000Y-231780000D03*
X31620000Y-229240000D03*
X31620000Y-226700000D03*
X31620000Y-224160000D03*
X31620000Y-221620000D03*
X31620000Y-219080000D03*
X31620000Y-216540000D03*
X31620000Y-214000000D03*
%TD*%
D12*
%TO.C,C5*%
X134160000Y-106000000D03*
D13*
X136660000Y-106000000D03*
%TD*%
D12*
%TO.C,C45*%
X273160000Y-214000000D03*
D13*
X275660000Y-214000000D03*
%TD*%
D10*
%TO.C,U35*%
X238000000Y-106000000D03*
D11*
X238000000Y-108540000D03*
X238000000Y-111080000D03*
X238000000Y-113620000D03*
X238000000Y-116160000D03*
X238000000Y-118700000D03*
X238000000Y-121240000D03*
X238000000Y-123780000D03*
X245620000Y-123780000D03*
X245620000Y-121240000D03*
X245620000Y-118700000D03*
X245620000Y-116160000D03*
X245620000Y-113620000D03*
X245620000Y-111080000D03*
X245620000Y-108540000D03*
X245620000Y-106000000D03*
%TD*%
D10*
%TO.C,U23*%
X49000000Y-214000000D03*
D11*
X49000000Y-216540000D03*
X49000000Y-219080000D03*
X49000000Y-221620000D03*
X49000000Y-224160000D03*
X49000000Y-226700000D03*
X49000000Y-229240000D03*
X49000000Y-231780000D03*
X56620000Y-231780000D03*
X56620000Y-229240000D03*
X56620000Y-226700000D03*
X56620000Y-224160000D03*
X56620000Y-221620000D03*
X56620000Y-219080000D03*
X56620000Y-216540000D03*
X56620000Y-214000000D03*
%TD*%
D12*
%TO.C,R14*%
X36380000Y-55000000D03*
D13*
X44000000Y-55000000D03*
%TD*%
D10*
%TO.C,U40*%
X213000000Y-178000000D03*
D11*
X213000000Y-180540000D03*
X213000000Y-183080000D03*
X213000000Y-185620000D03*
X213000000Y-188160000D03*
X213000000Y-190700000D03*
X213000000Y-193240000D03*
X213000000Y-195780000D03*
X213000000Y-198320000D03*
X213000000Y-200860000D03*
X220620000Y-200860000D03*
X220620000Y-198320000D03*
X220620000Y-195780000D03*
X220620000Y-193240000D03*
X220620000Y-190700000D03*
X220620000Y-188160000D03*
X220620000Y-185620000D03*
X220620000Y-183080000D03*
X220620000Y-180540000D03*
X220620000Y-178000000D03*
%TD*%
D12*
%TO.C,C33*%
X134160000Y-250000000D03*
D13*
X136660000Y-250000000D03*
%TD*%
D14*
%TO.C,*%
X4000000Y-4000000D03*
%TD*%
D12*
%TO.C,R21*%
X159380000Y-25000000D03*
D13*
X167000000Y-25000000D03*
%TD*%
D12*
%TO.C,R19*%
X106380000Y-55000000D03*
D13*
X114000000Y-55000000D03*
%TD*%
D12*
%TO.C,C16*%
X59160000Y-178000000D03*
D13*
X61660000Y-178000000D03*
%TD*%
D14*
%TO.C,*%
X4000000Y-296000000D03*
%TD*%
D12*
%TO.C,R1*%
X205000000Y-260000000D03*
D13*
X212620000Y-260000000D03*
%TD*%
D12*
%TO.C,D18*%
X167000000Y-35000000D03*
D13*
X169540000Y-35000000D03*
%TD*%
D12*
%TO.C,R12*%
X8380000Y-55000000D03*
D13*
X16000000Y-55000000D03*
%TD*%
D10*
%TO.C,U32*%
X99000000Y-250000000D03*
D11*
X99000000Y-252540000D03*
X99000000Y-255080000D03*
X99000000Y-257620000D03*
X99000000Y-260160000D03*
X99000000Y-262700000D03*
X99000000Y-265240000D03*
X106620000Y-265240000D03*
X106620000Y-262700000D03*
X106620000Y-260160000D03*
X106620000Y-257620000D03*
X106620000Y-255080000D03*
X106620000Y-252540000D03*
X106620000Y-250000000D03*
%TD*%
D12*
%TO.C,D24*%
X219000000Y-65000000D03*
D13*
X221540000Y-65000000D03*
%TD*%
D12*
%TO.C,R18*%
X92380000Y-55000000D03*
D13*
X100000000Y-55000000D03*
%TD*%
D12*
%TO.C,C37*%
X223160000Y-142000000D03*
D13*
X225660000Y-142000000D03*
%TD*%
D10*
%TO.C,U4*%
X99000000Y-106000000D03*
D11*
X99000000Y-108540000D03*
X99000000Y-111080000D03*
X99000000Y-113620000D03*
X99000000Y-116160000D03*
X99000000Y-118700000D03*
X99000000Y-121240000D03*
X106620000Y-121240000D03*
X106620000Y-118700000D03*
X106620000Y-116160000D03*
X106620000Y-113620000D03*
X106620000Y-111080000D03*
X106620000Y-108540000D03*
X106620000Y-106000000D03*
%TD*%
D12*
%TO.C,C4*%
X109160000Y-106000000D03*
D13*
X111660000Y-106000000D03*
%TD*%
D12*
%TO.C,D29*%
X219000000Y-86000000D03*
D13*
X221540000Y-86000000D03*
%TD*%
D12*
%TO.C,C39*%
X273160000Y-142000000D03*
D13*
X275660000Y-142000000D03*
%TD*%
D12*
%TO.C,R23*%
X193380000Y-25000000D03*
D13*
X201000000Y-25000000D03*
%TD*%
D10*
%TO.C,U38*%
X238000000Y-142000000D03*
D11*
X238000000Y-144540000D03*
X238000000Y-147080000D03*
X238000000Y-149620000D03*
X238000000Y-152160000D03*
X238000000Y-154700000D03*
X238000000Y-157240000D03*
X238000000Y-159780000D03*
X245620000Y-159780000D03*
X245620000Y-157240000D03*
X245620000Y-154700000D03*
X245620000Y-152160000D03*
X245620000Y-149620000D03*
X245620000Y-147080000D03*
X245620000Y-144540000D03*
X245620000Y-142000000D03*
%TD*%
D12*
%TO.C,C13*%
X159160000Y-142000000D03*
D13*
X161660000Y-142000000D03*
%TD*%
D10*
%TO.C,U9*%
X49000000Y-142000000D03*
D11*
X49000000Y-144540000D03*
X49000000Y-147080000D03*
X49000000Y-149620000D03*
X49000000Y-152160000D03*
X49000000Y-154700000D03*
X49000000Y-157240000D03*
X56620000Y-157240000D03*
X56620000Y-154700000D03*
X56620000Y-152160000D03*
X56620000Y-149620000D03*
X56620000Y-147080000D03*
X56620000Y-144540000D03*
X56620000Y-142000000D03*
%TD*%
D10*
%TO.C,U44*%
X238000000Y-214000000D03*
D11*
X238000000Y-216540000D03*
X238000000Y-219080000D03*
X238000000Y-221620000D03*
X238000000Y-224160000D03*
X238000000Y-226700000D03*
X238000000Y-229240000D03*
X238000000Y-231780000D03*
X245620000Y-231780000D03*
X245620000Y-229240000D03*
X245620000Y-226700000D03*
X245620000Y-224160000D03*
X245620000Y-221620000D03*
X245620000Y-219080000D03*
X245620000Y-216540000D03*
X245620000Y-214000000D03*
%TD*%
D12*
%TO.C,C31*%
X84160000Y-250000000D03*
D13*
X86660000Y-250000000D03*
%TD*%
D12*
%TO.C,D27*%
X173000000Y-86000000D03*
D13*
X175540000Y-86000000D03*
%TD*%
D12*
%TO.C,RN3*%
X102000000Y-286000000D03*
D13*
X104540000Y-286000000D03*
X107080000Y-286000000D03*
X109620000Y-286000000D03*
X112160000Y-286000000D03*
X114700000Y-286000000D03*
X117240000Y-286000000D03*
X119780000Y-286000000D03*
X122320000Y-286000000D03*
%TD*%
D12*
%TO.C,C46*%
X187000000Y-24000000D03*
D13*
X189500000Y-24000000D03*
%TD*%
D12*
%TO.C,D10*%
X30000000Y-65000000D03*
D13*
X32540000Y-65000000D03*
%TD*%
D12*
%TO.C,D26*%
X150000000Y-86000000D03*
D13*
X152540000Y-86000000D03*
%TD*%
D12*
%TO.C,R27*%
X211380000Y-55000000D03*
D13*
X219000000Y-55000000D03*
%TD*%
D12*
%TO.C,D16*%
X114000000Y-65000000D03*
D13*
X116540000Y-65000000D03*
%TD*%
D12*
%TO.C,D17*%
X150000000Y-35000000D03*
D13*
X152540000Y-35000000D03*
%TD*%
D12*
%TO.C,D1*%
X16000000Y-38000000D03*
D13*
X18540000Y-38000000D03*
%TD*%
D12*
%TO.C,C24*%
X84160000Y-214000000D03*
D13*
X86660000Y-214000000D03*
%TD*%
D10*
%TO.C,U39*%
X263000000Y-142000000D03*
D11*
X263000000Y-144540000D03*
X263000000Y-147080000D03*
X263000000Y-149620000D03*
X263000000Y-152160000D03*
X263000000Y-154700000D03*
X263000000Y-157240000D03*
X263000000Y-159780000D03*
X270620000Y-159780000D03*
X270620000Y-157240000D03*
X270620000Y-154700000D03*
X270620000Y-152160000D03*
X270620000Y-149620000D03*
X270620000Y-147080000D03*
X270620000Y-144540000D03*
X270620000Y-142000000D03*
%TD*%
D12*
%TO.C,C43*%
X223160000Y-214000000D03*
D13*
X225660000Y-214000000D03*
%TD*%
D12*
%TO.C,C26*%
X134160000Y-214000000D03*
D13*
X136660000Y-214000000D03*
%TD*%
D12*
%TO.C,D20*%
X201000000Y-35000000D03*
D13*
X203540000Y-35000000D03*
%TD*%
D10*
%TO.C,U16*%
X49000000Y-178000000D03*
D11*
X49000000Y-180540000D03*
X49000000Y-183080000D03*
X49000000Y-185620000D03*
X49000000Y-188160000D03*
X49000000Y-190700000D03*
X49000000Y-193240000D03*
X49000000Y-195780000D03*
X56620000Y-195780000D03*
X56620000Y-193240000D03*
X56620000Y-190700000D03*
X56620000Y-188160000D03*
X56620000Y-185620000D03*
X56620000Y-183080000D03*
X56620000Y-180540000D03*
X56620000Y-178000000D03*
%TD*%
D12*
%TO.C,C12*%
X134160000Y-142000000D03*
D13*
X136660000Y-142000000D03*
%TD*%
D12*
%TO.C,C1*%
X34160000Y-106000000D03*
D13*
X36660000Y-106000000D03*
%TD*%
%LPD*%
M02*
