M48
; DRILL file KiCad 10.0.7 date 2026-10-07T09:27:50
; FORMAT={-:-/ absolute / metric / decimal}
; #@! TF.CreationDate,2026-10-07T09:27:50+02:00
; #@! TF.GenerationSoftware,Kicad,Pcbnew,10.0.7
; #@! TF.FileFunction,Plated,1,2,PTH
FMAT,2
METRIC
; #@! TA.AperFunction,Plated,PTH,ViaDrill
T1C0.300
; #@! TA.AperFunction,Plated,PTH,ComponentDrill
T2C0.800
; #@! TA.AperFunction,Plated,PTH,ComponentDrill
T3C0.900
%
G90
G05
T1
X4.993Y-129.358
X5.802Y-141.273
X6.503Y-128.317
X10.475Y-97.545
X16.787Y-121.976
X21.503Y-125.546
X22.7Y-97.545
X24.0Y-247.094
X25.32Y-127.666
X25.597Y-141.805
X26.804Y-155.725
X30.304Y-197.582
X34.037Y-187.174
X35.549Y-131.554
X35.657Y-196.481
X36.046Y-140.392
X36.17Y-215.624
X36.481Y-136.253
X36.66Y-196.101
X37.55Y-140.117
X37.708Y-183.324
X37.852Y-164.354
X37.867Y-207.05
X37.951Y-131.554
X38.309Y-30.871
X38.309Y-98.36
X38.404Y-163.512
X38.444Y-100.886
X38.994Y-143.314
X39.055Y-140.077
X39.061Y-41.448
X39.082Y-198.346
X39.445Y-141.732
X39.826Y-133.906
X40.142Y-97.827
X40.904Y-16.561
X41.298Y-284.502
X41.728Y-101.638
X41.992Y-179.671
X42.635Y-168.47
X42.705Y-144.434
X42.773Y-124.196
X44.017Y-103.253
X44.295Y-208.527
X44.42Y-139.12
X44.64Y-175.608
X44.979Y-127.503
X45.39Y-166.798
X45.403Y-169.774
X45.677Y-134.743
X45.839Y-122.197
X45.959Y-125.546
X46.857Y-148.236
X47.466Y-121.206
X48.191Y-126.053
X48.448Y-20.311
X49.653Y-158.893
X50.091Y-211.861
X51.185Y-275.959
X51.806Y-137.267
X51.888Y-236.688
X52.218Y-177.797
X52.291Y-127.522
X52.291Y-133.906
X53.408Y-130.744
X53.684Y-161.058
X54.272Y-101.638
X54.547Y-162.568
X55.671Y-21.5
X56.62Y-168.21
X56.918Y-134.787
X59.163Y-202.885
X59.737Y-162.986
X59.737Y-165.165
X59.872Y-179.625
X60.666Y-203.117
X61.376Y-202.35
X61.66Y-158.174
X62.385Y-163.737
X62.99Y-240.603
X64.372Y-126.579
X64.835Y-163.568
X66.564Y-134.279
X67.223Y-164.495
X70.437Y-149.391
X70.788Y-178.0
X71.576Y-127.682
X73.287Y-135.557
X73.542Y-128.339
X76.076Y-107.475
X76.1Y-167.879
X76.26Y-199.564
X76.797Y-202.209
X77.516Y-133.817
X77.594Y-165.267
X77.718Y-175.451
X78.569Y-100.886
X78.787Y-163.727
X79.594Y-178.963
X79.608Y-159.972
X79.739Y-191.994
X80.125Y-212.489
X80.251Y-264.482
X80.895Y-245.043
X81.873Y-126.4
X82.022Y-125.445
X82.71Y-173.044
X84.035Y-63.128
X86.933Y-132.614
X87.833Y-140.979
X87.873Y-204.82
X88.12Y-132.614
X88.349Y-155.043
X88.508Y-174.793
X88.947Y-184.108
X89.075Y-256.05
X89.129Y-203.748
X89.501Y-138.341
X89.737Y-202.961
X91.09Y-235.452
X92.084Y-94.547
X92.321Y-221.422
X92.321Y-250.09
X93.057Y-122.23
X93.237Y-125.873
X93.397Y-168.896
X93.79Y-136.307
X94.219Y-132.857
X94.617Y-124.246
X95.109Y-134.787
X95.242Y-131.231
X95.94Y-164.826
X96.275Y-132.597
X96.524Y-165.588
X96.825Y-143.985
X97.162Y-145.78
X97.259Y-205.879
X97.486Y-118.271
X97.848Y-208.407
X97.902Y-126.12
X98.041Y-207.223
X98.069Y-135.555
X98.228Y-159.342
X99.317Y-171.589
X99.504Y-101.638
X99.818Y-206.26
X99.957Y-125.561
X100.069Y-162.056
X100.594Y-276.711
X101.62Y-127.584
X102.132Y-197.9
X102.891Y-199.994
X103.167Y-125.444
X104.118Y-170.86
X104.118Y-177.134
X104.796Y-121.826
X106.42Y-165.75
X109.396Y-102.367
X110.037Y-81.969
X110.681Y-184.218
X110.899Y-102.367
X110.975Y-108.847
X111.529Y-161.931
X112.16Y-280.728
X112.322Y-164.689
X113.813Y-103.022
X113.938Y-149.815
X113.938Y-160.628
X113.998Y-165.365
X114.545Y-100.415
X115.11Y-175.612
X116.228Y-245.795
X116.413Y-173.489
X117.029Y-101.539
X117.661Y-93.015
X117.761Y-114.45
X118.855Y-176.391
X119.1Y-149.957
X119.309Y-216.043
X119.564Y-106.423
X120.116Y-217.1
X120.526Y-153.766
X120.989Y-173.862
X121.311Y-138.055
X121.364Y-215.21
X122.172Y-211.047
X122.32Y-173.968
X122.958Y-100.967
X125.419Y-204.536
X126.288Y-165.293
X126.319Y-132.726
X126.463Y-157.748
X126.62Y-141.074
X127.063Y-156.612
X127.27Y-126.477
X127.392Y-170.106
X127.431Y-202.209
X128.022Y-122.594
X128.175Y-132.394
X128.295Y-161.512
X129.08Y-264.711
X129.182Y-125.925
X129.623Y-124.81
X130.32Y-271.552
X130.862Y-126.477
X131.62Y-211.047
X131.649Y-134.069
X132.104Y-176.454
X133.248Y-271.757
X133.666Y-212.027
X133.809Y-224.511
X133.949Y-171.762
X133.974Y-243.45
X134.778Y-242.637
X135.018Y-257.656
X135.475Y-126.128
X135.992Y-261.54
X136.66Y-157.916
X137.177Y-126.154
X139.048Y-160.427
X139.255Y-134.278
X139.454Y-265.495
X140.595Y-156.126
X140.638Y-138.035
X140.95Y-132.946
X141.11Y-162.056
X143.766Y-159.958
X144.289Y-162.631
X145.434Y-161.08
X147.045Y-133.126
X147.08Y-127.76
X147.24Y-146.046
X147.485Y-247.299
X148.206Y-133.877
X148.387Y-102.069
X148.497Y-243.45
X148.497Y-256.271
X148.869Y-169.706
X149.821Y-170.258
X150.0Y-92.218
X150.301Y-94.468
X150.301Y-103.947
X150.591Y-216.669
X150.855Y-210.018
X150.855Y-162.268
X150.984Y-213.819
X151.481Y-165.996
X151.653Y-283.354
X151.99Y-257.373
X151.993Y-271.757
X152.181Y-122.183
X152.875Y-209.091
X154.37Y-132.947
X154.37Y-136.195
X155.272Y-227.97
X155.273Y-138.048
X155.32Y-248.099
X155.418Y-160.011
X156.393Y-133.699
X156.417Y-172.383
X157.159Y-127.186
X158.789Y-196.308
X159.259Y-172.813
X160.45Y-122.567
X166.055Y-156.287
X166.683Y-172.261
X167.424Y-82.997
X168.382Y-79.485
X169.475Y-175.42
X170.414Y-86.725
X171.166Y-82.581
X171.293Y-162.814
X171.807Y-141.273
X173.052Y-129.188
X174.065Y-7.837
X174.492Y-167.997
X174.846Y-37.454
X175.178Y-19.099
X175.621Y-163.833
X175.804Y-139.521
X175.875Y-112.583
X176.996Y-165.692
X177.969Y-219.633
X178.052Y-140.209
X178.717Y-50.688
X178.897Y-66.25
X179.056Y-147.08
X179.361Y-158.321
X179.401Y-129.188
X179.781Y-211.428
X180.2Y-92.227
X180.206Y-102.828
X182.41Y-51.555
X182.445Y-272.86
X183.461Y-88.861
X184.474Y-47.288
X184.884Y-101.774
X185.732Y-133.817
X186.035Y-143.642
X186.657Y-60.987
X187.217Y-124.454
X187.468Y-86.725
X187.958Y-233.955
X188.37Y-112.112
X188.68Y-36.216
X189.262Y-232.345
X189.34Y-288.515
X189.446Y-204.451
X190.136Y-210.054
X190.137Y-217.107
X190.272Y-48.979
X190.531Y-164.594
X191.314Y-97.627
X191.62Y-180.896
X191.813Y-124.685
X192.247Y-134.811
X192.904Y-102.511
X193.252Y-89.399
X193.275Y-151.745
X193.571Y-203.823
X194.85Y-91.778
X194.986Y-166.458
X195.027Y-113.531
X196.055Y-275.852
X196.807Y-215.299
X196.861Y-134.399
X196.93Y-202.166
X197.848Y-180.884
X198.007Y-122.978
X198.886Y-193.634
X198.962Y-204.975
X200.355Y-148.278
X200.741Y-88.228
X201.246Y-209.71
X201.366Y-205.754
X201.655Y-112.989
X201.667Y-145.307
X201.906Y-132.898
X202.052Y-88.018
X202.762Y-189.391
X202.976Y-73.581
X202.998Y-278.091
X203.589Y-168.749
X204.086Y-71.494
X204.208Y-54.237
X204.211Y-169.778
X204.664Y-127.533
X204.838Y-78.481
X204.969Y-185.62
X205.169Y-165.741
X206.748Y-187.146
X207.011Y-67.122
X207.598Y-93.508
X207.634Y-89.408
X208.15Y-112.474
X209.016Y-87.267
X209.031Y-146.067
X209.231Y-147.249
X209.253Y-95.675
X209.884Y-158.296
X210.463Y-235.293
X210.83Y-85.234
X211.133Y-132.381
X213.083Y-131.827
X213.9Y-148.35
X214.217Y-184.242
X215.057Y-190.7
X215.405Y-126.981
X216.029Y-111.787
X216.508Y-126.383
X216.912Y-166.59
X217.572Y-57.663
X217.812Y-139.152
X218.767Y-180.54
X220.62Y-163.833
X221.921Y-8.594
X221.922Y-179.225
X224.46Y-135.972
X226.339Y-184.131
X226.438Y-276.766
X226.644Y-38.218
X226.86Y-107.518
X227.855Y-100.234
X227.855Y-105.37
X228.036Y-151.789
X228.588Y-284.21
X228.951Y-96.466
X228.951Y-106.366
X228.986Y-160.813
X228.986Y-162.971
X229.312Y-132.192
X229.477Y-288.273
X229.513Y-175.42
X229.513Y-202.208
X229.782Y-97.492
X230.012Y-136.69
X230.012Y-144.764
X230.612Y-39.015
X230.987Y-248.0
X231.745Y-282.576
X232.472Y-68.305
X232.508Y-126.948
X234.153Y-207.399
X234.409Y-161.621
X235.81Y-164.141
X235.818Y-165.741
X235.878Y-97.476
X236.629Y-167.269
X236.629Y-98.073
X236.97Y-162.624
X238.0Y-212.008
X238.2Y-209.499
X239.152Y-209.758
X239.671Y-138.277
X242.307Y-103.826
X243.412Y-146.817
X243.659Y-211.061
X243.849Y-103.737
X244.051Y-135.587
X244.163Y-136.54
X244.718Y-210.301
X246.396Y-19.862
X246.42Y-280.728
X246.922Y-132.944
X249.681Y-206.648
X251.89Y-136.511
X251.909Y-206.182
X251.922Y-80.315
X252.04Y-184.847
X253.212Y-100.234
X253.212Y-111.08
X253.964Y-90.686
X254.027Y-133.504
X259.501Y-155.236
X260.081Y-260.0
X260.284Y-101.665
X260.856Y-210.482
X261.427Y-207.854
X261.73Y-275.017
X263.0Y-138.501
X263.092Y-102.489
X263.998Y-126.784
X264.33Y-88.648
X265.12Y-74.232
X265.7Y-122.946
X265.91Y-60.987
X267.555Y-37.041
X268.307Y-85.302
X268.859Y-89.408
X274.681Y-26.202
X277.67Y-212.097
X278.391Y-193.634
X279.151Y-87.753
X279.151Y-211.087
T2
X8.38Y-28.0
X8.38Y-55.0
X16.0Y-28.0
X16.0Y-38.0
X16.0Y-55.0
X16.0Y-65.0
X16.0Y-286.0
X18.0Y-84.0
X18.0Y-91.62
X18.54Y-38.0
X18.54Y-65.0
X18.54Y-286.0
X20.54Y-84.0
X20.54Y-91.62
X21.08Y-286.0
X22.38Y-28.0
X22.38Y-55.0
X23.08Y-84.0
X23.08Y-91.62
X23.62Y-286.0
X25.62Y-84.0
X25.62Y-91.62
X26.16Y-286.0
X28.16Y-84.0
X28.16Y-91.62
X28.7Y-286.0
X30.0Y-28.0
X30.0Y-38.0
X30.0Y-55.0
X30.0Y-65.0
X30.7Y-84.0
X30.7Y-91.62
X31.24Y-286.0
X32.54Y-38.0
X32.54Y-65.0
X33.24Y-84.0
X33.24Y-91.62
X33.78Y-286.0
X34.16Y-106.0
X34.16Y-142.0
X34.16Y-178.0
X34.16Y-214.0
X34.16Y-250.0
X35.78Y-84.0
X35.78Y-91.62
X36.32Y-286.0
X36.38Y-28.0
X36.38Y-55.0
X36.66Y-106.0
X36.66Y-142.0
X36.66Y-178.0
X36.66Y-214.0
X36.66Y-250.0
X44.0Y-28.0
X44.0Y-38.0
X44.0Y-55.0
X44.0Y-65.0
X46.54Y-38.0
X46.54Y-65.0
X50.38Y-28.0
X50.38Y-55.0
X58.0Y-28.0
X58.0Y-38.0
X58.0Y-55.0
X58.0Y-65.0
X59.0Y-286.0
X59.16Y-106.0
X59.16Y-142.0
X59.16Y-178.0
X59.16Y-214.0
X59.16Y-250.0
X60.54Y-38.0
X60.54Y-65.0
X61.54Y-286.0
X61.66Y-106.0
X61.66Y-142.0
X61.66Y-178.0
X61.66Y-214.0
X61.66Y-250.0
X62.0Y-84.0
X62.0Y-91.62
X64.08Y-286.0
X64.38Y-28.0
X64.38Y-55.0
X64.54Y-84.0
X64.54Y-91.62
X66.62Y-286.0
X67.08Y-84.0
X67.08Y-91.62
X69.16Y-286.0
X69.62Y-84.0
X69.62Y-91.62
X71.7Y-286.0
X72.0Y-28.0
X72.0Y-38.0
X72.0Y-55.0
X72.0Y-65.0
X72.16Y-84.0
X72.16Y-91.62
X74.24Y-286.0
X74.54Y-38.0
X74.54Y-65.0
X74.7Y-84.0
X74.7Y-91.62
X76.78Y-286.0
X77.24Y-84.0
X77.24Y-91.62
X78.38Y-28.0
X78.38Y-55.0
X79.32Y-286.0
X79.78Y-84.0
X79.78Y-91.62
X84.16Y-106.0
X84.16Y-142.0
X84.16Y-178.0
X84.16Y-214.0
X84.16Y-250.0
X86.0Y-28.0
X86.0Y-38.0
X86.0Y-55.0
X86.0Y-65.0
X86.66Y-106.0
X86.66Y-142.0
X86.66Y-178.0
X86.66Y-214.0
X86.66Y-250.0
X88.54Y-38.0
X88.54Y-65.0
X92.38Y-28.0
X92.38Y-55.0
X100.0Y-28.0
X100.0Y-38.0
X100.0Y-55.0
X100.0Y-65.0
X102.0Y-286.0
X102.54Y-38.0
X102.54Y-65.0
X104.54Y-286.0
X106.38Y-28.0
X106.38Y-55.0
X107.08Y-286.0
X108.0Y-84.0
X108.0Y-91.62
X109.16Y-106.0
X109.16Y-142.0
X109.16Y-178.0
X109.16Y-214.0
X109.16Y-250.0
X109.62Y-286.0
X110.54Y-84.0
X110.54Y-91.62
X111.66Y-106.0
X111.66Y-142.0
X111.66Y-178.0
X111.66Y-214.0
X111.66Y-250.0
X112.16Y-286.0
X113.08Y-84.0
X113.08Y-91.62
X114.0Y-28.0
X114.0Y-38.0
X114.0Y-55.0
X114.0Y-65.0
X114.7Y-286.0
X115.62Y-84.0
X115.62Y-91.62
X116.54Y-38.0
X116.54Y-65.0
X117.24Y-286.0
X119.78Y-286.0
X122.32Y-286.0
X134.16Y-106.0
X134.16Y-142.0
X134.16Y-178.0
X134.16Y-214.0
X134.16Y-250.0
X136.66Y-106.0
X136.66Y-142.0
X136.66Y-178.0
X136.66Y-214.0
X136.66Y-250.0
X142.38Y-25.0
X142.38Y-55.0
X142.38Y-76.0
X145.0Y-286.0
X147.54Y-286.0
X150.0Y-25.0
X150.0Y-35.0
X150.0Y-55.0
X150.0Y-65.0
X150.0Y-76.0
X150.0Y-86.0
X150.08Y-286.0
X152.54Y-35.0
X152.54Y-65.0
X152.54Y-86.0
X152.62Y-286.0
X155.16Y-286.0
X157.7Y-286.0
X159.16Y-106.0
X159.16Y-142.0
X159.16Y-178.0
X159.16Y-214.0
X159.38Y-25.0
X160.24Y-286.0
X161.66Y-106.0
X161.66Y-142.0
X161.66Y-178.0
X161.66Y-214.0
X162.78Y-286.0
X165.32Y-286.0
X165.38Y-55.0
X165.38Y-76.0
X167.0Y-25.0
X167.0Y-35.0
X169.54Y-35.0
X173.0Y-55.0
X173.0Y-65.0
X173.0Y-76.0
X173.0Y-86.0
X175.54Y-65.0
X175.54Y-86.0
X176.38Y-25.0
X184.0Y-25.0
X184.0Y-35.0
X184.16Y-106.0
X184.16Y-142.0
X184.16Y-178.0
X184.16Y-214.0
X186.54Y-35.0
X186.66Y-106.0
X186.66Y-142.0
X186.66Y-178.0
X186.66Y-214.0
X187.0Y-24.0
X188.0Y-286.0
X188.38Y-55.0
X188.38Y-76.0
X189.5Y-24.0
X190.54Y-286.0
X193.08Y-286.0
X193.38Y-25.0
X195.62Y-286.0
X196.0Y-55.0
X196.0Y-65.0
X196.0Y-76.0
X196.0Y-86.0
X198.16Y-286.0
X198.54Y-65.0
X198.54Y-86.0
X200.7Y-286.0
X201.0Y-25.0
X201.0Y-35.0
X203.24Y-286.0
X203.54Y-35.0
X205.0Y-260.0
X205.78Y-286.0
X208.32Y-286.0
X211.38Y-55.0
X211.38Y-76.0
X212.62Y-260.0
X219.0Y-55.0
X219.0Y-65.0
X219.0Y-76.0
X219.0Y-86.0
X221.54Y-65.0
X221.54Y-86.0
X223.16Y-106.0
X223.16Y-142.0
X223.16Y-178.0
X223.16Y-214.0
X225.66Y-106.0
X225.66Y-142.0
X225.66Y-178.0
X225.66Y-214.0
X230.0Y-28.0
X230.0Y-35.62
X231.0Y-286.0
X233.54Y-286.0
X234.38Y-55.0
X234.38Y-76.0
X236.08Y-286.0
X237.0Y-248.0
X238.62Y-286.0
X241.16Y-286.0
X242.0Y-55.0
X242.0Y-65.0
X242.0Y-76.0
X242.0Y-86.0
X243.7Y-286.0
X244.54Y-65.0
X244.54Y-86.0
X244.62Y-248.0
X246.24Y-286.0
X248.16Y-106.0
X248.16Y-142.0
X248.16Y-178.0
X248.16Y-214.0
X248.78Y-286.0
X250.66Y-106.0
X250.66Y-142.0
X250.66Y-178.0
X250.66Y-214.0
X251.32Y-286.0
X259.0Y-28.0
X259.0Y-35.62
X263.0Y-248.0
X270.62Y-248.0
X273.16Y-106.0
X273.16Y-142.0
X273.16Y-178.0
X273.16Y-214.0
X275.66Y-106.0
X275.66Y-142.0
X275.66Y-178.0
X275.66Y-214.0
T3
X10.0Y-10.0
X10.0Y-12.54
X10.0Y-15.08
X10.0Y-17.62
X10.0Y-20.16
X12.54Y-10.0
X12.54Y-12.54
X12.54Y-15.08
X12.54Y-17.62
X12.54Y-20.16
X24.0Y-106.0
X24.0Y-108.54
X24.0Y-111.08
X24.0Y-113.62
X24.0Y-116.16
X24.0Y-118.7
X24.0Y-121.24
X24.0Y-142.0
X24.0Y-144.54
X24.0Y-147.08
X24.0Y-149.62
X24.0Y-152.16
X24.0Y-154.7
X24.0Y-157.24
X24.0Y-178.0
X24.0Y-180.54
X24.0Y-183.08
X24.0Y-185.62
X24.0Y-188.16
X24.0Y-190.7
X24.0Y-193.24
X24.0Y-214.0
X24.0Y-216.54
X24.0Y-219.08
X24.0Y-221.62
X24.0Y-224.16
X24.0Y-226.7
X24.0Y-229.24
X24.0Y-231.78
X24.0Y-250.0
X24.0Y-252.54
X24.0Y-255.08
X24.0Y-257.62
X24.0Y-260.16
X24.0Y-262.7
X24.0Y-265.24
X31.62Y-106.0
X31.62Y-108.54
X31.62Y-111.08
X31.62Y-113.62
X31.62Y-116.16
X31.62Y-118.7
X31.62Y-121.24
X31.62Y-142.0
X31.62Y-144.54
X31.62Y-147.08
X31.62Y-149.62
X31.62Y-152.16
X31.62Y-154.7
X31.62Y-157.24
X31.62Y-178.0
X31.62Y-180.54
X31.62Y-183.08
X31.62Y-185.62
X31.62Y-188.16
X31.62Y-190.7
X31.62Y-193.24
X31.62Y-214.0
X31.62Y-216.54
X31.62Y-219.08
X31.62Y-221.62
X31.62Y-224.16
X31.62Y-226.7
X31.62Y-229.24
X31.62Y-231.78
X31.62Y-250.0
X31.62Y-252.54
X31.62Y-255.08
X31.62Y-257.62
X31.62Y-260.16
X31.62Y-262.7
X31.62Y-265.24
X42.0Y-10.0
X42.0Y-12.54
X42.0Y-15.08
X42.0Y-17.62
X42.0Y-20.16
X44.54Y-10.0
X44.54Y-12.54
X44.54Y-15.08
X44.54Y-17.62
X44.54Y-20.16
X49.0Y-106.0
X49.0Y-108.54
X49.0Y-111.08
X49.0Y-113.62
X49.0Y-116.16
X49.0Y-118.7
X49.0Y-121.24
X49.0Y-142.0
X49.0Y-144.54
X49.0Y-147.08
X49.0Y-149.62
X49.0Y-152.16
X49.0Y-154.7
X49.0Y-157.24
X49.0Y-178.0
X49.0Y-180.54
X49.0Y-183.08
X49.0Y-185.62
X49.0Y-188.16
X49.0Y-190.7
X49.0Y-193.24
X49.0Y-195.78
X49.0Y-214.0
X49.0Y-216.54
X49.0Y-219.08
X49.0Y-221.62
X49.0Y-224.16
X49.0Y-226.7
X49.0Y-229.24
X49.0Y-231.78
X49.0Y-250.0
X49.0Y-252.54
X49.0Y-255.08
X49.0Y-257.62
X49.0Y-260.16
X49.0Y-262.7
X49.0Y-265.24
X56.62Y-106.0
X56.62Y-108.54
X56.62Y-111.08
X56.62Y-113.62
X56.62Y-116.16
X56.62Y-118.7
X56.62Y-121.24
X56.62Y-142.0
X56.62Y-144.54
X56.62Y-147.08
X56.62Y-149.62
X56.62Y-152.16
X56.62Y-154.7
X56.62Y-157.24
X56.62Y-178.0
X56.62Y-180.54
X56.62Y-183.08
X56.62Y-185.62
X56.62Y-188.16
X56.62Y-190.7
X56.62Y-193.24
X56.62Y-195.78
X56.62Y-214.0
X56.62Y-216.54
X56.62Y-219.08
X56.62Y-221.62
X56.62Y-224.16
X56.62Y-226.7
X56.62Y-229.24
X56.62Y-231.78
X56.62Y-250.0
X56.62Y-252.54
X56.62Y-255.08
X56.62Y-257.62
X56.62Y-260.16
X56.62Y-262.7
X56.62Y-265.24
X74.0Y-106.0
X74.0Y-108.54
X74.0Y-111.08
X74.0Y-113.62
X74.0Y-116.16
X74.0Y-118.7
X74.0Y-121.24
X74.0Y-142.0
X74.0Y-144.54
X74.0Y-147.08
X74.0Y-149.62
X74.0Y-152.16
X74.0Y-154.7
X74.0Y-157.24
X74.0Y-178.0
X74.0Y-180.54
X74.0Y-183.08
X74.0Y-185.62
X74.0Y-188.16
X74.0Y-190.7
X74.0Y-193.24
X74.0Y-195.78
X74.0Y-214.0
X74.0Y-216.54
X74.0Y-219.08
X74.0Y-221.62
X74.0Y-224.16
X74.0Y-226.7
X74.0Y-229.24
X74.0Y-231.78
X74.0Y-250.0
X74.0Y-252.54
X74.0Y-255.08
X74.0Y-257.62
X74.0Y-260.16
X74.0Y-262.7
X74.0Y-265.24
X76.0Y-10.0
X76.0Y-12.54
X76.0Y-15.08
X76.0Y-17.62
X78.54Y-10.0
X78.54Y-12.54
X78.54Y-15.08
X78.54Y-17.62
X81.62Y-106.0
X81.62Y-108.54
X81.62Y-111.08
X81.62Y-113.62
X81.62Y-116.16
X81.62Y-118.7
X81.62Y-121.24
X81.62Y-142.0
X81.62Y-144.54
X81.62Y-147.08
X81.62Y-149.62
X81.62Y-152.16
X81.62Y-154.7
X81.62Y-157.24
X81.62Y-178.0
X81.62Y-180.54
X81.62Y-183.08
X81.62Y-185.62
X81.62Y-188.16
X81.62Y-190.7
X81.62Y-193.24
X81.62Y-195.78
X81.62Y-214.0
X81.62Y-216.54
X81.62Y-219.08
X81.62Y-221.62
X81.62Y-224.16
X81.62Y-226.7
X81.62Y-229.24
X81.62Y-231.78
X81.62Y-250.0
X81.62Y-252.54
X81.62Y-255.08
X81.62Y-257.62
X81.62Y-260.16
X81.62Y-262.7
X81.62Y-265.24
X99.0Y-106.0
X99.0Y-108.54
X99.0Y-111.08
X99.0Y-113.62
X99.0Y-116.16
X99.0Y-118.7
X99.0Y-121.24
X99.0Y-142.0
X99.0Y-144.54
X99.0Y-147.08
X99.0Y-149.62
X99.0Y-152.16
X99.0Y-154.7
X99.0Y-157.24
X99.0Y-178.0
X99.0Y-180.54
X99.0Y-183.08
X99.0Y-185.62
X99.0Y-188.16
X99.0Y-190.7
X99.0Y-193.24
X99.0Y-195.78
X99.0Y-214.0
X99.0Y-216.54
X99.0Y-219.08
X99.0Y-221.62
X99.0Y-224.16
X99.0Y-226.7
X99.0Y-229.24
X99.0Y-231.78
X99.0Y-250.0
X99.0Y-252.54
X99.0Y-255.08
X99.0Y-257.62
X99.0Y-260.16
X99.0Y-262.7
X99.0Y-265.24
X106.62Y-106.0
X106.62Y-108.54
X106.62Y-111.08
X106.62Y-113.62
X106.62Y-116.16
X106.62Y-118.7
X106.62Y-121.24
X106.62Y-142.0
X106.62Y-144.54
X106.62Y-147.08
X106.62Y-149.62
X106.62Y-152.16
X106.62Y-154.7
X106.62Y-157.24
X106.62Y-178.0
X106.62Y-180.54
X106.62Y-183.08
X106.62Y-185.62
X106.62Y-188.16
X106.62Y-190.7
X106.62Y-193.24
X106.62Y-195.78
X106.62Y-214.0
X106.62Y-216.54
X106.62Y-219.08
X106.62Y-221.62
X106.62Y-224.16
X106.62Y-226.7
X106.62Y-229.24
X106.62Y-231.78
X106.62Y-250.0
X106.62Y-252.54
X106.62Y-255.08
X106.62Y-257.62
X106.62Y-260.16
X106.62Y-262.7
X106.62Y-265.24
X124.0Y-106.0
X124.0Y-108.54
X124.0Y-111.08
X124.0Y-113.62
X124.0Y-116.16
X124.0Y-118.7
X124.0Y-121.24
X124.0Y-142.0
X124.0Y-144.54
X124.0Y-147.08
X124.0Y-149.62
X124.0Y-152.16
X124.0Y-154.7
X124.0Y-157.24
X124.0Y-178.0
X124.0Y-180.54
X124.0Y-183.08
X124.0Y-185.62
X124.0Y-188.16
X124.0Y-190.7
X124.0Y-193.24
X124.0Y-195.78
X124.0Y-214.0
X124.0Y-216.54
X124.0Y-219.08
X124.0Y-221.62
X124.0Y-224.16
X124.0Y-226.7
X124.0Y-229.24
X124.0Y-250.0
X124.0Y-252.54
X124.0Y-255.08
X124.0Y-257.62
X124.0Y-260.16
X124.0Y-262.7
X124.0Y-265.24
X124.0Y-267.78
X124.0Y-270.32
X124.0Y-272.86
X131.62Y-106.0
X131.62Y-108.54
X131.62Y-111.08
X131.62Y-113.62
X131.62Y-116.16
X131.62Y-118.7
X131.62Y-121.24
X131.62Y-142.0
X131.62Y-144.54
X131.62Y-147.08
X131.62Y-149.62
X131.62Y-152.16
X131.62Y-154.7
X131.62Y-157.24
X131.62Y-178.0
X131.62Y-180.54
X131.62Y-183.08
X131.62Y-185.62
X131.62Y-188.16
X131.62Y-190.7
X131.62Y-193.24
X131.62Y-195.78
X131.62Y-214.0
X131.62Y-216.54
X131.62Y-219.08
X131.62Y-221.62
X131.62Y-224.16
X131.62Y-226.7
X131.62Y-229.24
X131.62Y-250.0
X131.62Y-252.54
X131.62Y-255.08
X131.62Y-257.62
X131.62Y-260.16
X131.62Y-262.7
X131.62Y-265.24
X131.62Y-267.78
X131.62Y-270.32
X131.62Y-272.86
X146.0Y-10.0
X146.0Y-12.54
X146.0Y-15.08
X148.0Y-259.0
X148.0Y-261.54
X148.0Y-264.08
X148.0Y-266.62
X148.0Y-269.16
X148.54Y-10.0
X148.54Y-12.54
X148.54Y-15.08
X149.0Y-106.0
X149.0Y-108.54
X149.0Y-111.08
X149.0Y-113.62
X149.0Y-116.16
X149.0Y-118.7
X149.0Y-121.24
X149.0Y-142.0
X149.0Y-144.54
X149.0Y-147.08
X149.0Y-149.62
X149.0Y-152.16
X149.0Y-154.7
X149.0Y-157.24
X149.0Y-178.0
X149.0Y-180.54
X149.0Y-183.08
X149.0Y-185.62
X149.0Y-188.16
X149.0Y-190.7
X149.0Y-193.24
X149.0Y-195.78
X149.0Y-214.0
X149.0Y-216.54
X149.0Y-219.08
X149.0Y-221.62
X149.0Y-224.16
X149.0Y-226.7
X149.0Y-229.24
X150.54Y-259.0
X150.54Y-261.54
X150.54Y-264.08
X150.54Y-266.62
X150.54Y-269.16
X156.62Y-106.0
X156.62Y-108.54
X156.62Y-111.08
X156.62Y-113.62
X156.62Y-116.16
X156.62Y-118.7
X156.62Y-121.24
X156.62Y-142.0
X156.62Y-144.54
X156.62Y-147.08
X156.62Y-149.62
X156.62Y-152.16
X156.62Y-154.7
X156.62Y-157.24
X156.62Y-178.0
X156.62Y-180.54
X156.62Y-183.08
X156.62Y-185.62
X156.62Y-188.16
X156.62Y-190.7
X156.62Y-193.24
X156.62Y-195.78
X156.62Y-214.0
X156.62Y-216.54
X156.62Y-219.08
X156.62Y-221.62
X156.62Y-224.16
X156.62Y-226.7
X156.62Y-229.24
X174.0Y-106.0
X174.0Y-108.54
X174.0Y-111.08
X174.0Y-113.62
X174.0Y-116.16
X174.0Y-118.7
X174.0Y-121.24
X174.0Y-142.0
X174.0Y-144.54
X174.0Y-147.08
X174.0Y-149.62
X174.0Y-152.16
X174.0Y-154.7
X174.0Y-157.24
X174.0Y-178.0
X174.0Y-180.54
X174.0Y-183.08
X174.0Y-185.62
X174.0Y-188.16
X174.0Y-190.7
X174.0Y-193.24
X174.0Y-195.78
X174.0Y-214.0
X174.0Y-216.54
X174.0Y-219.08
X174.0Y-221.62
X174.0Y-224.16
X174.0Y-226.7
X174.0Y-229.24
X178.0Y-10.0
X178.0Y-12.54
X180.54Y-10.0
X180.54Y-12.54
X181.62Y-106.0
X181.62Y-108.54
X181.62Y-111.08
X181.62Y-113.62
X181.62Y-116.16
X181.62Y-118.7
X181.62Y-121.24
X181.62Y-142.0
X181.62Y-144.54
X181.62Y-147.08
X181.62Y-149.62
X181.62Y-152.16
X181.62Y-154.7
X181.62Y-157.24
X181.62Y-178.0
X181.62Y-180.54
X181.62Y-183.08
X181.62Y-185.62
X181.62Y-188.16
X181.62Y-190.7
X181.62Y-193.24
X181.62Y-195.78
X181.62Y-214.0
X181.62Y-216.54
X181.62Y-219.08
X181.62Y-221.62
X181.62Y-224.16
X181.62Y-226.7
X181.62Y-229.24
X185.0Y-259.0
X185.0Y-261.54
X185.0Y-264.08
X185.0Y-266.62
X185.0Y-269.16
X187.54Y-259.0
X187.54Y-261.54
X187.54Y-264.08
X187.54Y-266.62
X187.54Y-269.16
X213.0Y-106.0
X213.0Y-108.54
X213.0Y-111.08
X213.0Y-113.62
X213.0Y-116.16
X213.0Y-118.7
X213.0Y-121.24
X213.0Y-123.78
X213.0Y-142.0
X213.0Y-144.54
X213.0Y-147.08
X213.0Y-149.62
X213.0Y-152.16
X213.0Y-154.7
X213.0Y-157.24
X213.0Y-159.78
X213.0Y-178.0
X213.0Y-180.54
X213.0Y-183.08
X213.0Y-185.62
X213.0Y-188.16
X213.0Y-190.7
X213.0Y-193.24
X213.0Y-195.78
X213.0Y-198.32
X213.0Y-200.86
X213.0Y-214.0
X213.0Y-216.54
X213.0Y-219.08
X213.0Y-221.62
X213.0Y-224.16
X213.0Y-226.7
X213.0Y-229.24
X220.62Y-106.0
X220.62Y-108.54
X220.62Y-111.08
X220.62Y-113.62
X220.62Y-116.16
X220.62Y-118.7
X220.62Y-121.24
X220.62Y-123.78
X220.62Y-142.0
X220.62Y-144.54
X220.62Y-147.08
X220.62Y-149.62
X220.62Y-152.16
X220.62Y-154.7
X220.62Y-157.24
X220.62Y-159.78
X220.62Y-178.0
X220.62Y-180.54
X220.62Y-183.08
X220.62Y-185.62
X220.62Y-188.16
X220.62Y-190.7
X220.62Y-193.24
X220.62Y-195.78
X220.62Y-198.32
X220.62Y-200.86
X220.62Y-214.0
X220.62Y-216.54
X220.62Y-219.08
X220.62Y-221.62
X220.62Y-224.16
X220.62Y-226.7
X220.62Y-229.24
X238.0Y-106.0
X238.0Y-108.54
X238.0Y-111.08
X238.0Y-113.62
X238.0Y-116.16
X238.0Y-118.7
X238.0Y-121.24
X238.0Y-123.78
X238.0Y-142.0
X238.0Y-144.54
X238.0Y-147.08
X238.0Y-149.62
X238.0Y-152.16
X238.0Y-154.7
X238.0Y-157.24
X238.0Y-159.78
X238.0Y-178.0
X238.0Y-180.54
X238.0Y-183.08
X238.0Y-185.62
X238.0Y-188.16
X238.0Y-190.7
X238.0Y-193.24
X238.0Y-195.78
X238.0Y-198.32
X238.0Y-200.86
X238.0Y-214.0
X238.0Y-216.54
X238.0Y-219.08
X238.0Y-221.62
X238.0Y-224.16
X238.0Y-226.7
X238.0Y-229.24
X238.0Y-231.78
X245.62Y-106.0
X245.62Y-108.54
X245.62Y-111.08
X245.62Y-113.62
X245.62Y-116.16
X245.62Y-118.7
X245.62Y-121.24
X245.62Y-123.78
X245.62Y-142.0
X245.62Y-144.54
X245.62Y-147.08
X245.62Y-149.62
X245.62Y-152.16
X245.62Y-154.7
X245.62Y-157.24
X245.62Y-159.78
X245.62Y-178.0
X245.62Y-180.54
X245.62Y-183.08
X245.62Y-185.62
X245.62Y-188.16
X245.62Y-190.7
X245.62Y-193.24
X245.62Y-195.78
X245.62Y-198.32
X245.62Y-200.86
X245.62Y-214.0
X245.62Y-216.54
X245.62Y-219.08
X245.62Y-221.62
X245.62Y-224.16
X245.62Y-226.7
X245.62Y-229.24
X245.62Y-231.78
X263.0Y-106.0
X263.0Y-108.54
X263.0Y-111.08
X263.0Y-113.62
X263.0Y-116.16
X263.0Y-118.7
X263.0Y-121.24
X263.0Y-123.78
X263.0Y-142.0
X263.0Y-144.54
X263.0Y-147.08
X263.0Y-149.62
X263.0Y-152.16
X263.0Y-154.7
X263.0Y-157.24
X263.0Y-159.78
X263.0Y-178.0
X263.0Y-180.54
X263.0Y-183.08
X263.0Y-185.62
X263.0Y-188.16
X263.0Y-190.7
X263.0Y-193.24
X263.0Y-195.78
X263.0Y-198.32
X263.0Y-200.86
X263.0Y-214.0
X263.0Y-216.54
X263.0Y-219.08
X263.0Y-221.62
X263.0Y-224.16
X263.0Y-226.7
X263.0Y-229.24
X263.0Y-231.78
X270.62Y-106.0
X270.62Y-108.54
X270.62Y-111.08
X270.62Y-113.62
X270.62Y-116.16
X270.62Y-118.7
X270.62Y-121.24
X270.62Y-123.78
X270.62Y-142.0
X270.62Y-144.54
X270.62Y-147.08
X270.62Y-149.62
X270.62Y-152.16
X270.62Y-154.7
X270.62Y-157.24
X270.62Y-159.78
X270.62Y-178.0
X270.62Y-180.54
X270.62Y-183.08
X270.62Y-185.62
X270.62Y-188.16
X270.62Y-190.7
X270.62Y-193.24
X270.62Y-195.78
X270.62Y-198.32
X270.62Y-200.86
X270.62Y-214.0
X270.62Y-216.54
X270.62Y-219.08
X270.62Y-221.62
X270.62Y-224.16
X270.62Y-226.7
X270.62Y-229.24
X270.62Y-231.78
M30
