M48
; DRILL file KiCad 10.0.7 date 2026-10-07T15:21:05
; FORMAT={-:-/ absolute / metric / decimal}
; #@! TF.CreationDate,2026-10-07T15:21:05+02:00
; #@! TF.GenerationSoftware,Kicad,Pcbnew,10.0.7
; #@! TF.FileFunction,Plated,1,2,PTH
FMAT,2
METRIC
; #@! TA.AperFunction,Plated,PTH,ViaDrill
T1C0.300
; #@! TA.AperFunction,Plated,PTH,ComponentDrill
T2C0.800
; #@! TA.AperFunction,Plated,PTH,ComponentDrill
T3C0.900
%
G90
G05
T1
X9.26Y-2.467
X15.831Y-12.737
X16.428Y-9.553
X18.356Y-27.05
X19.461Y-23.618
X23.014Y-16.046
X26.38Y-17.45
X27.685Y-12.737
X28.191Y-9.792
X30.453Y-16.525
X30.827Y-14.085
X31.495Y-32.435
X31.946Y-11.436
X32.423Y-20.339
X32.453Y-10.223
X33.06Y-18.349
X33.218Y-8.0
X33.486Y-31.278
X38.816Y-8.917
X39.176Y-16.046
X39.334Y-9.746
X39.453Y-24.491
X39.958Y-15.098
X40.507Y-17.344
X41.576Y-42.296
X41.896Y-13.8
X42.326Y-12.306
X43.342Y-37.086
X43.766Y-10.542
X44.061Y-44.159
X47.368Y-30.143
X50.145Y-32.174
X51.921Y-40.541
X52.914Y-6.108
X54.326Y-32.195
X55.62Y-13.088
X55.64Y-16.104
X56.349Y-10.542
X56.606Y-8.919
X56.833Y-25.506
X58.48Y-7.61
X58.527Y-9.675
X63.549Y-34.373
X63.892Y-36.245
X65.327Y-27.842
X65.99Y-9.336
X67.61Y-13.128
X67.943Y-27.984
X68.173Y-32.541
X68.241Y-9.745
X70.283Y-3.575
X70.502Y-30.205
X74.014Y-30.771
X74.472Y-16.839
X75.201Y-19.523
X75.449Y-29.126
X75.678Y-30.078
X75.864Y-7.47
X77.828Y-34.037
X78.003Y-43.511
X80.407Y-13.08
X80.709Y-14.084
X81.311Y-11.674
X82.076Y-8.385
X82.244Y-33.338
X82.27Y-31.18
X82.292Y-6.109
X82.603Y-35.548
X83.115Y-7.419
X88.687Y-35.777
X88.931Y-4.234
X89.646Y-23.24
X90.602Y-20.7
X91.4Y-25.78
X95.835Y-23.24
X96.075Y-9.553
X96.075Y-12.661
X96.144Y-37.645
X97.051Y-36.835
X98.297Y-31.348
X98.643Y-44.263
X99.698Y-5.93
X100.005Y-31.959
X100.507Y-5.167
X100.834Y-10.329
X101.958Y-3.839
X103.53Y-33.256
X105.096Y-15.681
X105.975Y-33.712
X106.522Y-17.77
X107.075Y-12.236
X107.759Y-10.329
X107.793Y-11.401
X110.014Y-37.645
X114.222Y-6.182
X114.937Y-29.993
X115.34Y-20.874
X115.555Y-12.056
X115.864Y-18.438
X116.56Y-35.664
X117.185Y-3.839
X118.092Y-8.808
X118.303Y-15.381
X119.236Y-32.879
X120.532Y-22.856
X121.668Y-31.758
X122.641Y-32.07
X123.731Y-14.707
X124.749Y-33.712
X127.03Y-5.441
X128.596Y-26.349
X128.663Y-3.025
X131.666Y-6.833
X131.666Y-4.203
X131.686Y-5.759
X132.687Y-8.719
X132.799Y-10.19
X135.876Y-34.053
X137.825Y-35.576
X139.996Y-6.917
X140.166Y-25.918
X141.302Y-5.996
X141.429Y-32.149
X142.677Y-25.026
X144.204Y-5.298
X145.156Y-5.101
X145.275Y-32.382
X145.393Y-3.791
X148.229Y-12.601
X151.721Y-31.508
X154.216Y-6.676
X155.774Y-15.492
X156.541Y-6.917
X156.701Y-23.507
X157.455Y-9.605
X158.208Y-8.798
X159.77Y-35.997
X160.496Y-39.16
X163.845Y-31.721
X164.67Y-6.444
X164.742Y-29.092
X165.506Y-25.792
X165.659Y-5.995
X165.689Y-4.954
X166.37Y-6.826
X167.052Y-4.732
X168.362Y-3.788
X169.104Y-33.302
X169.215Y-35.976
X169.945Y-29.814
X172.709Y-32.441
X173.044Y-4.202
X173.825Y-5.034
X174.335Y-10.824
X177.034Y-31.49
X177.752Y-7.704
X178.067Y-35.287
X178.461Y-32.245
X180.087Y-26.819
X180.194Y-15.62
X188.907Y-29.724
X189.953Y-8.765
X190.749Y-29.671
X192.76Y-7.557
X193.824Y-15.712
X194.006Y-30.46
X195.449Y-31.714
X198.575Y-31.825
X200.65Y-27.591
X201.038Y-28.579
X201.212Y-25.713
X201.847Y-34.302
X204.115Y-35.485
X204.642Y-32.633
X207.647Y-23.24
X208.903Y-33.712
X211.783Y-35.768
X215.481Y-35.016
X220.042Y-34.04
X220.047Y-23.24
X221.284Y-7.45
X221.323Y-3.451
X222.412Y-6.695
X222.535Y-33.488
X225.832Y-38.659
X228.093Y-40.565
X229.325Y-20.7
X233.667Y-24.435
X234.354Y-2.148
X238.899Y-41.117
X239.872Y-39.219
X241.724Y-39.194
X244.986Y-23.261
X245.327Y-22.309
X246.153Y-8.77
X246.503Y-32.668
X247.244Y-26.736
X248.926Y-32.659
X253.25Y-5.475
T2
X2.38Y-35.0
X10.0Y-35.0
X13.38Y-35.0
X21.0Y-35.0
X24.38Y-35.0
X32.0Y-35.0
X35.38Y-35.0
X43.0Y-35.0
X46.38Y-35.0
X54.0Y-35.0
X57.38Y-35.0
X65.0Y-35.0
X68.0Y-39.0
X68.0Y-41.54
X68.38Y-35.0
X72.0Y-39.0
X72.0Y-41.54
X76.0Y-35.0
X76.0Y-39.0
X76.0Y-41.54
X79.38Y-35.0
X80.0Y-39.0
X80.0Y-41.54
X86.0Y-39.0
X86.0Y-41.54
X87.0Y-35.0
X90.0Y-39.0
X90.0Y-41.54
X90.38Y-35.0
X94.0Y-39.0
X94.0Y-41.54
X98.0Y-35.0
X98.0Y-39.0
X98.0Y-41.54
X101.38Y-35.0
X104.0Y-39.0
X104.0Y-41.54
X108.0Y-39.0
X108.0Y-41.54
X109.0Y-35.0
X112.0Y-39.0
X112.0Y-41.54
X112.38Y-35.0
X116.0Y-39.0
X116.0Y-41.54
X120.0Y-35.0
X122.0Y-39.0
X122.0Y-41.54
X123.38Y-35.0
X126.0Y-39.0
X126.0Y-41.54
X130.0Y-39.0
X130.0Y-41.54
X131.0Y-35.0
X134.0Y-39.0
X134.0Y-41.54
X134.38Y-35.0
X142.0Y-35.0
X145.38Y-35.0
X153.0Y-35.0
X156.38Y-35.0
X164.0Y-35.0
X167.38Y-35.0
X175.0Y-35.0
X208.0Y-37.0
X210.54Y-37.0
X213.08Y-37.0
X215.62Y-37.0
X218.16Y-37.0
X220.7Y-37.0
X223.24Y-37.0
X225.78Y-37.0
X227.16Y-8.0
X228.32Y-37.0
X229.66Y-8.0
X242.0Y-37.0
X244.54Y-37.0
X247.08Y-37.0
X249.62Y-37.0
X252.16Y-8.0
X252.16Y-37.0
X254.66Y-8.0
X254.7Y-37.0
X257.24Y-37.0
X259.78Y-37.0
X262.32Y-37.0
X266.0Y-24.0
X270.0Y-30.0
X273.62Y-24.0
X277.0Y-34.0
X277.0Y-41.62
X277.62Y-30.0
X285.0Y-22.0
X285.0Y-30.0
X287.5Y-22.0
X287.54Y-30.0
T3
X10.0Y-8.0
X10.0Y-10.54
X10.0Y-13.08
X10.0Y-15.62
X10.0Y-18.16
X10.0Y-20.7
X10.0Y-23.24
X10.0Y-25.78
X10.0Y-28.32
X10.0Y-30.86
X12.54Y-8.0
X12.54Y-10.54
X12.54Y-13.08
X12.54Y-15.62
X12.54Y-18.16
X12.54Y-20.7
X12.54Y-23.24
X12.54Y-25.78
X12.54Y-28.32
X12.54Y-30.86
X35.0Y-8.0
X35.0Y-10.54
X35.0Y-13.08
X35.0Y-15.62
X35.0Y-18.16
X35.0Y-20.7
X35.0Y-23.24
X35.0Y-25.78
X35.0Y-28.32
X35.0Y-30.86
X37.54Y-8.0
X37.54Y-10.54
X37.54Y-13.08
X37.54Y-15.62
X37.54Y-18.16
X37.54Y-20.7
X37.54Y-23.24
X37.54Y-25.78
X37.54Y-28.32
X37.54Y-30.86
X60.0Y-8.0
X60.0Y-10.54
X60.0Y-13.08
X60.0Y-15.62
X60.0Y-18.16
X60.0Y-20.7
X60.0Y-23.24
X60.0Y-25.78
X60.0Y-28.32
X60.0Y-30.86
X62.54Y-8.0
X62.54Y-10.54
X62.54Y-13.08
X62.54Y-15.62
X62.54Y-18.16
X62.54Y-20.7
X62.54Y-23.24
X62.54Y-25.78
X62.54Y-28.32
X62.54Y-30.86
X85.0Y-8.0
X85.0Y-10.54
X85.0Y-13.08
X85.0Y-15.62
X85.0Y-18.16
X85.0Y-20.7
X85.0Y-23.24
X85.0Y-25.78
X85.0Y-28.32
X85.0Y-30.86
X87.54Y-8.0
X87.54Y-10.54
X87.54Y-13.08
X87.54Y-15.62
X87.54Y-18.16
X87.54Y-20.7
X87.54Y-23.24
X87.54Y-25.78
X87.54Y-28.32
X87.54Y-30.86
X110.0Y-8.0
X110.0Y-10.54
X110.0Y-13.08
X110.0Y-15.62
X110.0Y-18.16
X110.0Y-20.7
X110.0Y-23.24
X110.0Y-25.78
X110.0Y-28.32
X110.0Y-30.86
X112.54Y-8.0
X112.54Y-10.54
X112.54Y-13.08
X112.54Y-15.62
X112.54Y-18.16
X112.54Y-20.7
X112.54Y-23.24
X112.54Y-25.78
X112.54Y-28.32
X112.54Y-30.86
X135.0Y-8.0
X135.0Y-10.54
X135.0Y-13.08
X135.0Y-15.62
X135.0Y-18.16
X135.0Y-20.7
X135.0Y-23.24
X135.0Y-25.78
X135.0Y-28.32
X135.0Y-30.86
X137.54Y-8.0
X137.54Y-10.54
X137.54Y-13.08
X137.54Y-15.62
X137.54Y-18.16
X137.54Y-20.7
X137.54Y-23.24
X137.54Y-25.78
X137.54Y-28.32
X137.54Y-30.86
X160.0Y-8.0
X160.0Y-10.54
X160.0Y-13.08
X160.0Y-15.62
X160.0Y-18.16
X160.0Y-20.7
X160.0Y-23.24
X160.0Y-25.78
X160.0Y-28.32
X160.0Y-30.86
X162.54Y-8.0
X162.54Y-10.54
X162.54Y-13.08
X162.54Y-15.62
X162.54Y-18.16
X162.54Y-20.7
X162.54Y-23.24
X162.54Y-25.78
X162.54Y-28.32
X162.54Y-30.86
X185.0Y-8.0
X185.0Y-10.54
X185.0Y-13.08
X185.0Y-15.62
X185.0Y-18.16
X185.0Y-20.7
X185.0Y-23.24
X185.0Y-25.78
X185.0Y-28.32
X185.0Y-30.86
X187.54Y-8.0
X187.54Y-10.54
X187.54Y-13.08
X187.54Y-15.62
X187.54Y-18.16
X187.54Y-20.7
X187.54Y-23.24
X187.54Y-25.78
X187.54Y-28.32
X187.54Y-30.86
X217.0Y-8.0
X217.0Y-10.54
X217.0Y-13.08
X217.0Y-15.62
X217.0Y-18.16
X217.0Y-20.7
X217.0Y-23.24
X217.0Y-25.78
X217.0Y-28.32
X217.0Y-30.86
X224.62Y-8.0
X224.62Y-10.54
X224.62Y-13.08
X224.62Y-15.62
X224.62Y-18.16
X224.62Y-20.7
X224.62Y-23.24
X224.62Y-25.78
X224.62Y-28.32
X224.62Y-30.86
X242.0Y-8.0
X242.0Y-10.54
X242.0Y-13.08
X242.0Y-15.62
X242.0Y-18.16
X242.0Y-20.7
X242.0Y-23.24
X242.0Y-25.78
X242.0Y-28.32
X242.0Y-30.86
X249.62Y-8.0
X249.62Y-10.54
X249.62Y-13.08
X249.62Y-15.62
X249.62Y-18.16
X249.62Y-20.7
X249.62Y-23.24
X249.62Y-25.78
X249.62Y-28.32
X249.62Y-30.86
X284.0Y-10.0
X284.0Y-12.54
X286.54Y-10.0
X286.54Y-12.54
M30
