%TF.GenerationSoftware,KiCad,Pcbnew,10.0.7*%
%TF.CreationDate,2026-10-07T15:21:04+02:00*%
%TF.ProjectId,address_bus_rev_a,61646472-6573-4735-9f62-75735f726576,rev?*%
%TF.SameCoordinates,Original*%
%TF.FileFunction,Legend,Top*%
%TF.FilePolarity,Positive*%
%FSLAX46Y46*%
G04 Gerber Fmt 4.6, Leading zero omitted, Abs format (unit mm)*
G04 Created by KiCad (PCBNEW 10.0.7) date 2026-10-07 15:21:04*
%MOMM*%
%LPD*%
G01*
G04 APERTURE LIST*
G04 Aperture macros list*
%AMRoundRect*
0 Rectangle with rounded corners*
0 $1 Rounding radius*
0 $2 $3 $4 $5 $6 $7 $8 $9 X,Y pos of 4 corners*
0 Add a 4 corners polygon primitive as box body*
4,1,4,$2,$3,$4,$5,$6,$7,$8,$9,$2,$3,0*
0 Add four circle primitives for the rounded corners*
1,1,$1+$1,$2,$3*
1,1,$1+$1,$4,$5*
1,1,$1+$1,$6,$7*
1,1,$1+$1,$8,$9*
0 Add four rect primitives between the rounded corners*
20,1,$1+$1,$2,$3,$4,$5,0*
20,1,$1+$1,$4,$5,$6,$7,0*
20,1,$1+$1,$6,$7,$8,$9,0*
20,1,$1+$1,$8,$9,$2,$3,0*%
G04 Aperture macros list end*
%ADD10C,0.150000*%
%ADD11C,3.300000*%
%ADD12RoundRect,0.050000X-0.800000X-0.800000X0.800000X-0.800000X0.800000X0.800000X-0.800000X0.800000X0*%
%ADD13C,1.700000*%
%ADD14RoundRect,0.050000X-0.900000X-0.900000X0.900000X-0.900000X0.900000X0.900000X-0.900000X0.900000X0*%
%ADD15C,1.900000*%
G04 APERTURE END LIST*
D10*
X224730951Y-44142570D02*
X225135713Y-44142570D01*
X224649999Y-44385427D02*
X224933332Y-43535427D01*
X224933332Y-43535427D02*
X225216666Y-44385427D01*
X225661903Y-43535427D02*
X225742856Y-43535427D01*
X225742856Y-43535427D02*
X225823808Y-43575903D01*
X225823808Y-43575903D02*
X225864284Y-43616379D01*
X225864284Y-43616379D02*
X225904760Y-43697331D01*
X225904760Y-43697331D02*
X225945237Y-43859236D01*
X225945237Y-43859236D02*
X225945237Y-44061617D01*
X225945237Y-44061617D02*
X225904760Y-44223522D01*
X225904760Y-44223522D02*
X225864284Y-44304474D01*
X225864284Y-44304474D02*
X225823808Y-44344951D01*
X225823808Y-44344951D02*
X225742856Y-44385427D01*
X225742856Y-44385427D02*
X225661903Y-44385427D01*
X225661903Y-44385427D02*
X225580951Y-44344951D01*
X225580951Y-44344951D02*
X225540475Y-44304474D01*
X225540475Y-44304474D02*
X225499998Y-44223522D01*
X225499998Y-44223522D02*
X225459522Y-44061617D01*
X225459522Y-44061617D02*
X225459522Y-43859236D01*
X225459522Y-43859236D02*
X225499998Y-43697331D01*
X225499998Y-43697331D02*
X225540475Y-43616379D01*
X225540475Y-43616379D02*
X225580951Y-43575903D01*
X225580951Y-43575903D02*
X225661903Y-43535427D01*
X226309522Y-44304474D02*
X226349999Y-44344951D01*
X226349999Y-44344951D02*
X226309522Y-44385427D01*
X226309522Y-44385427D02*
X226269046Y-44344951D01*
X226269046Y-44344951D02*
X226309522Y-44304474D01*
X226309522Y-44304474D02*
X226309522Y-44385427D01*
X226714284Y-44304474D02*
X226754761Y-44344951D01*
X226754761Y-44344951D02*
X226714284Y-44385427D01*
X226714284Y-44385427D02*
X226673808Y-44344951D01*
X226673808Y-44344951D02*
X226714284Y-44304474D01*
X226714284Y-44304474D02*
X226714284Y-44385427D01*
X227078570Y-44142570D02*
X227483332Y-44142570D01*
X226997618Y-44385427D02*
X227280951Y-43535427D01*
X227280951Y-43535427D02*
X227564285Y-44385427D01*
X228292856Y-44385427D02*
X227807141Y-44385427D01*
X228049998Y-44385427D02*
X228049998Y-43535427D01*
X228049998Y-43535427D02*
X227969046Y-43656855D01*
X227969046Y-43656855D02*
X227888094Y-43737808D01*
X227888094Y-43737808D02*
X227807141Y-43778284D01*
X229061903Y-43535427D02*
X228657141Y-43535427D01*
X228657141Y-43535427D02*
X228616665Y-43940189D01*
X228616665Y-43940189D02*
X228657141Y-43899712D01*
X228657141Y-43899712D02*
X228738094Y-43859236D01*
X228738094Y-43859236D02*
X228940475Y-43859236D01*
X228940475Y-43859236D02*
X229021427Y-43899712D01*
X229021427Y-43899712D02*
X229061903Y-43940189D01*
X229061903Y-43940189D02*
X229102380Y-44021141D01*
X229102380Y-44021141D02*
X229102380Y-44223522D01*
X229102380Y-44223522D02*
X229061903Y-44304474D01*
X229061903Y-44304474D02*
X229021427Y-44344951D01*
X229021427Y-44344951D02*
X228940475Y-44385427D01*
X228940475Y-44385427D02*
X228738094Y-44385427D01*
X228738094Y-44385427D02*
X228657141Y-44344951D01*
X228657141Y-44344951D02*
X228616665Y-44304474D01*
X229466665Y-44304474D02*
X229507142Y-44344951D01*
X229507142Y-44344951D02*
X229466665Y-44385427D01*
X229466665Y-44385427D02*
X229426189Y-44344951D01*
X229426189Y-44344951D02*
X229466665Y-44304474D01*
X229466665Y-44304474D02*
X229466665Y-44385427D01*
X229466665Y-43859236D02*
X229507142Y-43899712D01*
X229507142Y-43899712D02*
X229466665Y-43940189D01*
X229466665Y-43940189D02*
X229426189Y-43899712D01*
X229426189Y-43899712D02*
X229466665Y-43859236D01*
X229466665Y-43859236D02*
X229466665Y-43940189D01*
X230964285Y-44385427D02*
X230478570Y-44385427D01*
X230721427Y-44385427D02*
X230721427Y-43535427D01*
X230721427Y-43535427D02*
X230640475Y-43656855D01*
X230640475Y-43656855D02*
X230559523Y-43737808D01*
X230559523Y-43737808D02*
X230478570Y-43778284D01*
X231328570Y-44304474D02*
X231369047Y-44344951D01*
X231369047Y-44344951D02*
X231328570Y-44385427D01*
X231328570Y-44385427D02*
X231288094Y-44344951D01*
X231288094Y-44344951D02*
X231328570Y-44304474D01*
X231328570Y-44304474D02*
X231328570Y-44385427D01*
X231733332Y-44304474D02*
X231773809Y-44344951D01*
X231773809Y-44344951D02*
X231733332Y-44385427D01*
X231733332Y-44385427D02*
X231692856Y-44344951D01*
X231692856Y-44344951D02*
X231733332Y-44304474D01*
X231733332Y-44304474D02*
X231733332Y-44385427D01*
X232583333Y-44385427D02*
X232097618Y-44385427D01*
X232340475Y-44385427D02*
X232340475Y-43535427D01*
X232340475Y-43535427D02*
X232259523Y-43656855D01*
X232259523Y-43656855D02*
X232178571Y-43737808D01*
X232178571Y-43737808D02*
X232097618Y-43778284D01*
X233311904Y-43535427D02*
X233149999Y-43535427D01*
X233149999Y-43535427D02*
X233069047Y-43575903D01*
X233069047Y-43575903D02*
X233028571Y-43616379D01*
X233028571Y-43616379D02*
X232947618Y-43737808D01*
X232947618Y-43737808D02*
X232907142Y-43899712D01*
X232907142Y-43899712D02*
X232907142Y-44223522D01*
X232907142Y-44223522D02*
X232947618Y-44304474D01*
X232947618Y-44304474D02*
X232988095Y-44344951D01*
X232988095Y-44344951D02*
X233069047Y-44385427D01*
X233069047Y-44385427D02*
X233230952Y-44385427D01*
X233230952Y-44385427D02*
X233311904Y-44344951D01*
X233311904Y-44344951D02*
X233352380Y-44304474D01*
X233352380Y-44304474D02*
X233392857Y-44223522D01*
X233392857Y-44223522D02*
X233392857Y-44021141D01*
X233392857Y-44021141D02*
X233352380Y-43940189D01*
X233352380Y-43940189D02*
X233311904Y-43899712D01*
X233311904Y-43899712D02*
X233230952Y-43859236D01*
X233230952Y-43859236D02*
X233069047Y-43859236D01*
X233069047Y-43859236D02*
X232988095Y-43899712D01*
X232988095Y-43899712D02*
X232947618Y-43940189D01*
X232947618Y-43940189D02*
X232907142Y-44021141D01*
X235011904Y-43494951D02*
X234283333Y-44587808D01*
X236388095Y-43575903D02*
X236307142Y-43535427D01*
X236307142Y-43535427D02*
X236185714Y-43535427D01*
X236185714Y-43535427D02*
X236064285Y-43575903D01*
X236064285Y-43575903D02*
X235983333Y-43656855D01*
X235983333Y-43656855D02*
X235942856Y-43737808D01*
X235942856Y-43737808D02*
X235902380Y-43899712D01*
X235902380Y-43899712D02*
X235902380Y-44021141D01*
X235902380Y-44021141D02*
X235942856Y-44183046D01*
X235942856Y-44183046D02*
X235983333Y-44263998D01*
X235983333Y-44263998D02*
X236064285Y-44344951D01*
X236064285Y-44344951D02*
X236185714Y-44385427D01*
X236185714Y-44385427D02*
X236266666Y-44385427D01*
X236266666Y-44385427D02*
X236388095Y-44344951D01*
X236388095Y-44344951D02*
X236428571Y-44304474D01*
X236428571Y-44304474D02*
X236428571Y-44021141D01*
X236428571Y-44021141D02*
X236266666Y-44021141D01*
X236792856Y-44385427D02*
X236792856Y-43535427D01*
X236792856Y-43535427D02*
X237278571Y-44385427D01*
X237278571Y-44385427D02*
X237278571Y-43535427D01*
X237683332Y-44385427D02*
X237683332Y-43535427D01*
X237683332Y-43535427D02*
X237885713Y-43535427D01*
X237885713Y-43535427D02*
X238007142Y-43575903D01*
X238007142Y-43575903D02*
X238088094Y-43656855D01*
X238088094Y-43656855D02*
X238128571Y-43737808D01*
X238128571Y-43737808D02*
X238169047Y-43899712D01*
X238169047Y-43899712D02*
X238169047Y-44021141D01*
X238169047Y-44021141D02*
X238128571Y-44183046D01*
X238128571Y-44183046D02*
X238088094Y-44263998D01*
X238088094Y-44263998D02*
X238007142Y-44344951D01*
X238007142Y-44344951D02*
X237885713Y-44385427D01*
X237885713Y-44385427D02*
X237683332Y-44385427D01*
X238533332Y-44304474D02*
X238573809Y-44344951D01*
X238573809Y-44344951D02*
X238533332Y-44385427D01*
X238533332Y-44385427D02*
X238492856Y-44344951D01*
X238492856Y-44344951D02*
X238533332Y-44304474D01*
X238533332Y-44304474D02*
X238533332Y-44385427D01*
X238533332Y-43859236D02*
X238573809Y-43899712D01*
X238573809Y-43899712D02*
X238533332Y-43940189D01*
X238533332Y-43940189D02*
X238492856Y-43899712D01*
X238492856Y-43899712D02*
X238533332Y-43859236D01*
X238533332Y-43859236D02*
X238533332Y-43940189D01*
X240030952Y-44385427D02*
X239545237Y-44385427D01*
X239788094Y-44385427D02*
X239788094Y-43535427D01*
X239788094Y-43535427D02*
X239707142Y-43656855D01*
X239707142Y-43656855D02*
X239626190Y-43737808D01*
X239626190Y-43737808D02*
X239545237Y-43778284D01*
X240314285Y-43535427D02*
X240880952Y-43535427D01*
X240880952Y-43535427D02*
X240516666Y-44385427D01*
X241204761Y-44304474D02*
X241245238Y-44344951D01*
X241245238Y-44344951D02*
X241204761Y-44385427D01*
X241204761Y-44385427D02*
X241164285Y-44344951D01*
X241164285Y-44344951D02*
X241204761Y-44304474D01*
X241204761Y-44304474D02*
X241204761Y-44385427D01*
X241609523Y-44304474D02*
X241650000Y-44344951D01*
X241650000Y-44344951D02*
X241609523Y-44385427D01*
X241609523Y-44385427D02*
X241569047Y-44344951D01*
X241569047Y-44344951D02*
X241609523Y-44304474D01*
X241609523Y-44304474D02*
X241609523Y-44385427D01*
X241973809Y-43616379D02*
X242014285Y-43575903D01*
X242014285Y-43575903D02*
X242095238Y-43535427D01*
X242095238Y-43535427D02*
X242297619Y-43535427D01*
X242297619Y-43535427D02*
X242378571Y-43575903D01*
X242378571Y-43575903D02*
X242419047Y-43616379D01*
X242419047Y-43616379D02*
X242459524Y-43697331D01*
X242459524Y-43697331D02*
X242459524Y-43778284D01*
X242459524Y-43778284D02*
X242419047Y-43899712D01*
X242419047Y-43899712D02*
X241933333Y-44385427D01*
X241933333Y-44385427D02*
X242459524Y-44385427D01*
X242985714Y-43535427D02*
X243066667Y-43535427D01*
X243066667Y-43535427D02*
X243147619Y-43575903D01*
X243147619Y-43575903D02*
X243188095Y-43616379D01*
X243188095Y-43616379D02*
X243228571Y-43697331D01*
X243228571Y-43697331D02*
X243269048Y-43859236D01*
X243269048Y-43859236D02*
X243269048Y-44061617D01*
X243269048Y-44061617D02*
X243228571Y-44223522D01*
X243228571Y-44223522D02*
X243188095Y-44304474D01*
X243188095Y-44304474D02*
X243147619Y-44344951D01*
X243147619Y-44344951D02*
X243066667Y-44385427D01*
X243066667Y-44385427D02*
X242985714Y-44385427D01*
X242985714Y-44385427D02*
X242904762Y-44344951D01*
X242904762Y-44344951D02*
X242864286Y-44304474D01*
X242864286Y-44304474D02*
X242823809Y-44223522D01*
X242823809Y-44223522D02*
X242783333Y-44061617D01*
X242783333Y-44061617D02*
X242783333Y-43859236D01*
X242783333Y-43859236D02*
X242823809Y-43697331D01*
X242823809Y-43697331D02*
X242864286Y-43616379D01*
X242864286Y-43616379D02*
X242904762Y-43575903D01*
X242904762Y-43575903D02*
X242985714Y-43535427D01*
X275239285Y-45185427D02*
X274834523Y-45185427D01*
X274834523Y-45185427D02*
X274834523Y-44335427D01*
X275522618Y-44740189D02*
X275805952Y-44740189D01*
X275927380Y-45185427D02*
X275522618Y-45185427D01*
X275522618Y-45185427D02*
X275522618Y-44335427D01*
X275522618Y-44335427D02*
X275927380Y-44335427D01*
X276291666Y-45185427D02*
X276291666Y-44335427D01*
X276291666Y-44335427D02*
X276494047Y-44335427D01*
X276494047Y-44335427D02*
X276615476Y-44375903D01*
X276615476Y-44375903D02*
X276696428Y-44456855D01*
X276696428Y-44456855D02*
X276736905Y-44537808D01*
X276736905Y-44537808D02*
X276777381Y-44699712D01*
X276777381Y-44699712D02*
X276777381Y-44821141D01*
X276777381Y-44821141D02*
X276736905Y-44983046D01*
X276736905Y-44983046D02*
X276696428Y-45063998D01*
X276696428Y-45063998D02*
X276615476Y-45144951D01*
X276615476Y-45144951D02*
X276494047Y-45185427D01*
X276494047Y-45185427D02*
X276291666Y-45185427D01*
X277951190Y-44335427D02*
X278113095Y-44335427D01*
X278113095Y-44335427D02*
X278194047Y-44375903D01*
X278194047Y-44375903D02*
X278275000Y-44456855D01*
X278275000Y-44456855D02*
X278315476Y-44618760D01*
X278315476Y-44618760D02*
X278315476Y-44902093D01*
X278315476Y-44902093D02*
X278275000Y-45063998D01*
X278275000Y-45063998D02*
X278194047Y-45144951D01*
X278194047Y-45144951D02*
X278113095Y-45185427D01*
X278113095Y-45185427D02*
X277951190Y-45185427D01*
X277951190Y-45185427D02*
X277870238Y-45144951D01*
X277870238Y-45144951D02*
X277789285Y-45063998D01*
X277789285Y-45063998D02*
X277748809Y-44902093D01*
X277748809Y-44902093D02*
X277748809Y-44618760D01*
X277748809Y-44618760D02*
X277789285Y-44456855D01*
X277789285Y-44456855D02*
X277870238Y-44375903D01*
X277870238Y-44375903D02*
X277951190Y-44335427D01*
X278679761Y-45185427D02*
X278679761Y-44335427D01*
X278679761Y-44335427D02*
X279165476Y-45185427D01*
X279165476Y-45185427D02*
X279165476Y-44335427D01*
X281519047Y-17061617D02*
X282166667Y-17061617D01*
X281842857Y-17385427D02*
X281842857Y-16737808D01*
X282976190Y-16535427D02*
X282571428Y-16535427D01*
X282571428Y-16535427D02*
X282530952Y-16940189D01*
X282530952Y-16940189D02*
X282571428Y-16899712D01*
X282571428Y-16899712D02*
X282652381Y-16859236D01*
X282652381Y-16859236D02*
X282854762Y-16859236D01*
X282854762Y-16859236D02*
X282935714Y-16899712D01*
X282935714Y-16899712D02*
X282976190Y-16940189D01*
X282976190Y-16940189D02*
X283016667Y-17021141D01*
X283016667Y-17021141D02*
X283016667Y-17223522D01*
X283016667Y-17223522D02*
X282976190Y-17304474D01*
X282976190Y-17304474D02*
X282935714Y-17344951D01*
X282935714Y-17344951D02*
X282854762Y-17385427D01*
X282854762Y-17385427D02*
X282652381Y-17385427D01*
X282652381Y-17385427D02*
X282571428Y-17344951D01*
X282571428Y-17344951D02*
X282530952Y-17304474D01*
X283259524Y-16535427D02*
X283542857Y-17385427D01*
X283542857Y-17385427D02*
X283826191Y-16535427D01*
X285364285Y-16494951D02*
X284635714Y-17587808D01*
X286740476Y-16575903D02*
X286659523Y-16535427D01*
X286659523Y-16535427D02*
X286538095Y-16535427D01*
X286538095Y-16535427D02*
X286416666Y-16575903D01*
X286416666Y-16575903D02*
X286335714Y-16656855D01*
X286335714Y-16656855D02*
X286295237Y-16737808D01*
X286295237Y-16737808D02*
X286254761Y-16899712D01*
X286254761Y-16899712D02*
X286254761Y-17021141D01*
X286254761Y-17021141D02*
X286295237Y-17183046D01*
X286295237Y-17183046D02*
X286335714Y-17263998D01*
X286335714Y-17263998D02*
X286416666Y-17344951D01*
X286416666Y-17344951D02*
X286538095Y-17385427D01*
X286538095Y-17385427D02*
X286619047Y-17385427D01*
X286619047Y-17385427D02*
X286740476Y-17344951D01*
X286740476Y-17344951D02*
X286780952Y-17304474D01*
X286780952Y-17304474D02*
X286780952Y-17021141D01*
X286780952Y-17021141D02*
X286619047Y-17021141D01*
X287145237Y-17385427D02*
X287145237Y-16535427D01*
X287145237Y-16535427D02*
X287630952Y-17385427D01*
X287630952Y-17385427D02*
X287630952Y-16535427D01*
X288035713Y-17385427D02*
X288035713Y-16535427D01*
X288035713Y-16535427D02*
X288238094Y-16535427D01*
X288238094Y-16535427D02*
X288359523Y-16575903D01*
X288359523Y-16575903D02*
X288440475Y-16656855D01*
X288440475Y-16656855D02*
X288480952Y-16737808D01*
X288480952Y-16737808D02*
X288521428Y-16899712D01*
X288521428Y-16899712D02*
X288521428Y-17021141D01*
X288521428Y-17021141D02*
X288480952Y-17183046D01*
X288480952Y-17183046D02*
X288440475Y-17263998D01*
X288440475Y-17263998D02*
X288359523Y-17344951D01*
X288359523Y-17344951D02*
X288238094Y-17385427D01*
X288238094Y-17385427D02*
X288035713Y-17385427D01*
X234404760Y-3454819D02*
X234404760Y-2454819D01*
X234404760Y-2454819D02*
X234785712Y-2454819D01*
X234785712Y-2454819D02*
X234880950Y-2502438D01*
X234880950Y-2502438D02*
X234928569Y-2550057D01*
X234928569Y-2550057D02*
X234976188Y-2645295D01*
X234976188Y-2645295D02*
X234976188Y-2788152D01*
X234976188Y-2788152D02*
X234928569Y-2883390D01*
X234928569Y-2883390D02*
X234880950Y-2931009D01*
X234880950Y-2931009D02*
X234785712Y-2978628D01*
X234785712Y-2978628D02*
X234404760Y-2978628D01*
X235404760Y-3454819D02*
X235404760Y-2788152D01*
X235404760Y-2978628D02*
X235452379Y-2883390D01*
X235452379Y-2883390D02*
X235499998Y-2835771D01*
X235499998Y-2835771D02*
X235595236Y-2788152D01*
X235595236Y-2788152D02*
X235690474Y-2788152D01*
X236166665Y-3454819D02*
X236071427Y-3407200D01*
X236071427Y-3407200D02*
X236023808Y-3359580D01*
X236023808Y-3359580D02*
X235976189Y-3264342D01*
X235976189Y-3264342D02*
X235976189Y-2978628D01*
X235976189Y-2978628D02*
X236023808Y-2883390D01*
X236023808Y-2883390D02*
X236071427Y-2835771D01*
X236071427Y-2835771D02*
X236166665Y-2788152D01*
X236166665Y-2788152D02*
X236309522Y-2788152D01*
X236309522Y-2788152D02*
X236404760Y-2835771D01*
X236404760Y-2835771D02*
X236452379Y-2883390D01*
X236452379Y-2883390D02*
X236499998Y-2978628D01*
X236499998Y-2978628D02*
X236499998Y-3264342D01*
X236499998Y-3264342D02*
X236452379Y-3359580D01*
X236452379Y-3359580D02*
X236404760Y-3407200D01*
X236404760Y-3407200D02*
X236309522Y-3454819D01*
X236309522Y-3454819D02*
X236166665Y-3454819D01*
X237357141Y-2788152D02*
X237357141Y-3597676D01*
X237357141Y-3597676D02*
X237309522Y-3692914D01*
X237309522Y-3692914D02*
X237261903Y-3740533D01*
X237261903Y-3740533D02*
X237166665Y-3788152D01*
X237166665Y-3788152D02*
X237023808Y-3788152D01*
X237023808Y-3788152D02*
X236928570Y-3740533D01*
X237357141Y-3407200D02*
X237261903Y-3454819D01*
X237261903Y-3454819D02*
X237071427Y-3454819D01*
X237071427Y-3454819D02*
X236976189Y-3407200D01*
X236976189Y-3407200D02*
X236928570Y-3359580D01*
X236928570Y-3359580D02*
X236880951Y-3264342D01*
X236880951Y-3264342D02*
X236880951Y-2978628D01*
X236880951Y-2978628D02*
X236928570Y-2883390D01*
X236928570Y-2883390D02*
X236976189Y-2835771D01*
X236976189Y-2835771D02*
X237071427Y-2788152D01*
X237071427Y-2788152D02*
X237261903Y-2788152D01*
X237261903Y-2788152D02*
X237357141Y-2835771D01*
X238214284Y-3407200D02*
X238119046Y-3454819D01*
X238119046Y-3454819D02*
X237928570Y-3454819D01*
X237928570Y-3454819D02*
X237833332Y-3407200D01*
X237833332Y-3407200D02*
X237785713Y-3311961D01*
X237785713Y-3311961D02*
X237785713Y-2931009D01*
X237785713Y-2931009D02*
X237833332Y-2835771D01*
X237833332Y-2835771D02*
X237928570Y-2788152D01*
X237928570Y-2788152D02*
X238119046Y-2788152D01*
X238119046Y-2788152D02*
X238214284Y-2835771D01*
X238214284Y-2835771D02*
X238261903Y-2931009D01*
X238261903Y-2931009D02*
X238261903Y-3026247D01*
X238261903Y-3026247D02*
X237785713Y-3121485D01*
X238547618Y-2788152D02*
X238928570Y-2788152D01*
X238690475Y-2454819D02*
X238690475Y-3311961D01*
X238690475Y-3311961D02*
X238738094Y-3407200D01*
X238738094Y-3407200D02*
X238833332Y-3454819D01*
X238833332Y-3454819D02*
X238928570Y-3454819D01*
X239119047Y-2788152D02*
X239499999Y-2788152D01*
X239261904Y-2454819D02*
X239261904Y-3311961D01*
X239261904Y-3311961D02*
X239309523Y-3407200D01*
X239309523Y-3407200D02*
X239404761Y-3454819D01*
X239404761Y-3454819D02*
X239499999Y-3454819D01*
X240261904Y-3454819D02*
X240261904Y-2931009D01*
X240261904Y-2931009D02*
X240214285Y-2835771D01*
X240214285Y-2835771D02*
X240119047Y-2788152D01*
X240119047Y-2788152D02*
X239928571Y-2788152D01*
X239928571Y-2788152D02*
X239833333Y-2835771D01*
X240261904Y-3407200D02*
X240166666Y-3454819D01*
X240166666Y-3454819D02*
X239928571Y-3454819D01*
X239928571Y-3454819D02*
X239833333Y-3407200D01*
X239833333Y-3407200D02*
X239785714Y-3311961D01*
X239785714Y-3311961D02*
X239785714Y-3216723D01*
X239785714Y-3216723D02*
X239833333Y-3121485D01*
X239833333Y-3121485D02*
X239928571Y-3073866D01*
X239928571Y-3073866D02*
X240166666Y-3073866D01*
X240166666Y-3073866D02*
X240261904Y-3026247D01*
X240595238Y-2788152D02*
X240976190Y-2788152D01*
X240738095Y-2454819D02*
X240738095Y-3311961D01*
X240738095Y-3311961D02*
X240785714Y-3407200D01*
X240785714Y-3407200D02*
X240880952Y-3454819D01*
X240880952Y-3454819D02*
X240976190Y-3454819D01*
X241452381Y-3454819D02*
X241357143Y-3407200D01*
X241357143Y-3407200D02*
X241309524Y-3359580D01*
X241309524Y-3359580D02*
X241261905Y-3264342D01*
X241261905Y-3264342D02*
X241261905Y-2978628D01*
X241261905Y-2978628D02*
X241309524Y-2883390D01*
X241309524Y-2883390D02*
X241357143Y-2835771D01*
X241357143Y-2835771D02*
X241452381Y-2788152D01*
X241452381Y-2788152D02*
X241595238Y-2788152D01*
X241595238Y-2788152D02*
X241690476Y-2835771D01*
X241690476Y-2835771D02*
X241738095Y-2883390D01*
X241738095Y-2883390D02*
X241785714Y-2978628D01*
X241785714Y-2978628D02*
X241785714Y-3264342D01*
X241785714Y-3264342D02*
X241738095Y-3359580D01*
X241738095Y-3359580D02*
X241690476Y-3407200D01*
X241690476Y-3407200D02*
X241595238Y-3454819D01*
X241595238Y-3454819D02*
X241452381Y-3454819D01*
X243404762Y-3454819D02*
X243404762Y-2454819D01*
X243404762Y-3407200D02*
X243309524Y-3454819D01*
X243309524Y-3454819D02*
X243119048Y-3454819D01*
X243119048Y-3454819D02*
X243023810Y-3407200D01*
X243023810Y-3407200D02*
X242976191Y-3359580D01*
X242976191Y-3359580D02*
X242928572Y-3264342D01*
X242928572Y-3264342D02*
X242928572Y-2978628D01*
X242928572Y-2978628D02*
X242976191Y-2883390D01*
X242976191Y-2883390D02*
X243023810Y-2835771D01*
X243023810Y-2835771D02*
X243119048Y-2788152D01*
X243119048Y-2788152D02*
X243309524Y-2788152D01*
X243309524Y-2788152D02*
X243404762Y-2835771D01*
X244309524Y-3454819D02*
X244309524Y-2931009D01*
X244309524Y-2931009D02*
X244261905Y-2835771D01*
X244261905Y-2835771D02*
X244166667Y-2788152D01*
X244166667Y-2788152D02*
X243976191Y-2788152D01*
X243976191Y-2788152D02*
X243880953Y-2835771D01*
X244309524Y-3407200D02*
X244214286Y-3454819D01*
X244214286Y-3454819D02*
X243976191Y-3454819D01*
X243976191Y-3454819D02*
X243880953Y-3407200D01*
X243880953Y-3407200D02*
X243833334Y-3311961D01*
X243833334Y-3311961D02*
X243833334Y-3216723D01*
X243833334Y-3216723D02*
X243880953Y-3121485D01*
X243880953Y-3121485D02*
X243976191Y-3073866D01*
X243976191Y-3073866D02*
X244214286Y-3073866D01*
X244214286Y-3073866D02*
X244309524Y-3026247D01*
X245547620Y-2931009D02*
X245880953Y-2931009D01*
X246023810Y-3454819D02*
X245547620Y-3454819D01*
X245547620Y-3454819D02*
X245547620Y-2454819D01*
X245547620Y-2454819D02*
X246023810Y-2454819D01*
X246452382Y-2788152D02*
X246452382Y-3454819D01*
X246452382Y-2883390D02*
X246500001Y-2835771D01*
X246500001Y-2835771D02*
X246595239Y-2788152D01*
X246595239Y-2788152D02*
X246738096Y-2788152D01*
X246738096Y-2788152D02*
X246833334Y-2835771D01*
X246833334Y-2835771D02*
X246880953Y-2931009D01*
X246880953Y-2931009D02*
X246880953Y-3454819D01*
X247261906Y-2788152D02*
X247785715Y-2788152D01*
X247785715Y-2788152D02*
X247261906Y-3454819D01*
X247261906Y-3454819D02*
X247785715Y-3454819D01*
X248309525Y-3454819D02*
X248214287Y-3407200D01*
X248214287Y-3407200D02*
X248166668Y-3359580D01*
X248166668Y-3359580D02*
X248119049Y-3264342D01*
X248119049Y-3264342D02*
X248119049Y-2978628D01*
X248119049Y-2978628D02*
X248166668Y-2883390D01*
X248166668Y-2883390D02*
X248214287Y-2835771D01*
X248214287Y-2835771D02*
X248309525Y-2788152D01*
X248309525Y-2788152D02*
X248452382Y-2788152D01*
X248452382Y-2788152D02*
X248547620Y-2835771D01*
X248547620Y-2835771D02*
X248595239Y-2883390D01*
X248595239Y-2883390D02*
X248642858Y-2978628D01*
X248642858Y-2978628D02*
X248642858Y-3264342D01*
X248642858Y-3264342D02*
X248595239Y-3359580D01*
X248595239Y-3359580D02*
X248547620Y-3407200D01*
X248547620Y-3407200D02*
X248452382Y-3454819D01*
X248452382Y-3454819D02*
X248309525Y-3454819D01*
X249690478Y-2454819D02*
X250261906Y-2454819D01*
X249976192Y-3454819D02*
X249976192Y-2454819D01*
X251023811Y-3454819D02*
X251023811Y-2931009D01*
X251023811Y-2931009D02*
X250976192Y-2835771D01*
X250976192Y-2835771D02*
X250880954Y-2788152D01*
X250880954Y-2788152D02*
X250690478Y-2788152D01*
X250690478Y-2788152D02*
X250595240Y-2835771D01*
X251023811Y-3407200D02*
X250928573Y-3454819D01*
X250928573Y-3454819D02*
X250690478Y-3454819D01*
X250690478Y-3454819D02*
X250595240Y-3407200D01*
X250595240Y-3407200D02*
X250547621Y-3311961D01*
X250547621Y-3311961D02*
X250547621Y-3216723D01*
X250547621Y-3216723D02*
X250595240Y-3121485D01*
X250595240Y-3121485D02*
X250690478Y-3073866D01*
X250690478Y-3073866D02*
X250928573Y-3073866D01*
X250928573Y-3073866D02*
X251023811Y-3026247D01*
X251452383Y-3407200D02*
X251547621Y-3454819D01*
X251547621Y-3454819D02*
X251738097Y-3454819D01*
X251738097Y-3454819D02*
X251833335Y-3407200D01*
X251833335Y-3407200D02*
X251880954Y-3311961D01*
X251880954Y-3311961D02*
X251880954Y-3264342D01*
X251880954Y-3264342D02*
X251833335Y-3169104D01*
X251833335Y-3169104D02*
X251738097Y-3121485D01*
X251738097Y-3121485D02*
X251595240Y-3121485D01*
X251595240Y-3121485D02*
X251500002Y-3073866D01*
X251500002Y-3073866D02*
X251452383Y-2978628D01*
X251452383Y-2978628D02*
X251452383Y-2931009D01*
X251452383Y-2931009D02*
X251500002Y-2835771D01*
X251500002Y-2835771D02*
X251595240Y-2788152D01*
X251595240Y-2788152D02*
X251738097Y-2788152D01*
X251738097Y-2788152D02*
X251833335Y-2835771D01*
X252738097Y-3407200D02*
X252642859Y-3454819D01*
X252642859Y-3454819D02*
X252452383Y-3454819D01*
X252452383Y-3454819D02*
X252357145Y-3407200D01*
X252357145Y-3407200D02*
X252309526Y-3359580D01*
X252309526Y-3359580D02*
X252261907Y-3264342D01*
X252261907Y-3264342D02*
X252261907Y-2978628D01*
X252261907Y-2978628D02*
X252309526Y-2883390D01*
X252309526Y-2883390D02*
X252357145Y-2835771D01*
X252357145Y-2835771D02*
X252452383Y-2788152D01*
X252452383Y-2788152D02*
X252642859Y-2788152D01*
X252642859Y-2788152D02*
X252738097Y-2835771D01*
X253595240Y-3454819D02*
X253595240Y-2931009D01*
X253595240Y-2931009D02*
X253547621Y-2835771D01*
X253547621Y-2835771D02*
X253452383Y-2788152D01*
X253452383Y-2788152D02*
X253261907Y-2788152D01*
X253261907Y-2788152D02*
X253166669Y-2835771D01*
X253595240Y-3407200D02*
X253500002Y-3454819D01*
X253500002Y-3454819D02*
X253261907Y-3454819D01*
X253261907Y-3454819D02*
X253166669Y-3407200D01*
X253166669Y-3407200D02*
X253119050Y-3311961D01*
X253119050Y-3311961D02*
X253119050Y-3216723D01*
X253119050Y-3216723D02*
X253166669Y-3121485D01*
X253166669Y-3121485D02*
X253261907Y-3073866D01*
X253261907Y-3073866D02*
X253500002Y-3073866D01*
X253500002Y-3073866D02*
X253595240Y-3026247D01*
X66690476Y-44486795D02*
X67214286Y-44486795D01*
X66585714Y-44801080D02*
X66952381Y-43701080D01*
X66952381Y-43701080D02*
X67319048Y-44801080D01*
X68261905Y-44801080D02*
X67633333Y-44801080D01*
X67947619Y-44801080D02*
X67947619Y-43701080D01*
X67947619Y-43701080D02*
X67842857Y-43858223D01*
X67842857Y-43858223D02*
X67738095Y-43962985D01*
X67738095Y-43962985D02*
X67633333Y-44015366D01*
X69257143Y-43701080D02*
X68733333Y-43701080D01*
X68733333Y-43701080D02*
X68680952Y-44224890D01*
X68680952Y-44224890D02*
X68733333Y-44172509D01*
X68733333Y-44172509D02*
X68838095Y-44120128D01*
X68838095Y-44120128D02*
X69100000Y-44120128D01*
X69100000Y-44120128D02*
X69204762Y-44172509D01*
X69204762Y-44172509D02*
X69257143Y-44224890D01*
X69257143Y-44224890D02*
X69309524Y-44329652D01*
X69309524Y-44329652D02*
X69309524Y-44591557D01*
X69309524Y-44591557D02*
X69257143Y-44696319D01*
X69257143Y-44696319D02*
X69204762Y-44748700D01*
X69204762Y-44748700D02*
X69100000Y-44801080D01*
X69100000Y-44801080D02*
X68838095Y-44801080D01*
X68838095Y-44801080D02*
X68733333Y-44748700D01*
X68733333Y-44748700D02*
X68680952Y-44696319D01*
X70690476Y-44486795D02*
X71214286Y-44486795D01*
X70585714Y-44801080D02*
X70952381Y-43701080D01*
X70952381Y-43701080D02*
X71319048Y-44801080D01*
X72261905Y-44801080D02*
X71633333Y-44801080D01*
X71947619Y-44801080D02*
X71947619Y-43701080D01*
X71947619Y-43701080D02*
X71842857Y-43858223D01*
X71842857Y-43858223D02*
X71738095Y-43962985D01*
X71738095Y-43962985D02*
X71633333Y-44015366D01*
X73204762Y-44067747D02*
X73204762Y-44801080D01*
X72942857Y-43648700D02*
X72680952Y-44434414D01*
X72680952Y-44434414D02*
X73361905Y-44434414D01*
X74690476Y-44486795D02*
X75214286Y-44486795D01*
X74585714Y-44801080D02*
X74952381Y-43701080D01*
X74952381Y-43701080D02*
X75319048Y-44801080D01*
X76261905Y-44801080D02*
X75633333Y-44801080D01*
X75947619Y-44801080D02*
X75947619Y-43701080D01*
X75947619Y-43701080D02*
X75842857Y-43858223D01*
X75842857Y-43858223D02*
X75738095Y-43962985D01*
X75738095Y-43962985D02*
X75633333Y-44015366D01*
X76628571Y-43701080D02*
X77309524Y-43701080D01*
X77309524Y-43701080D02*
X76942857Y-44120128D01*
X76942857Y-44120128D02*
X77100000Y-44120128D01*
X77100000Y-44120128D02*
X77204762Y-44172509D01*
X77204762Y-44172509D02*
X77257143Y-44224890D01*
X77257143Y-44224890D02*
X77309524Y-44329652D01*
X77309524Y-44329652D02*
X77309524Y-44591557D01*
X77309524Y-44591557D02*
X77257143Y-44696319D01*
X77257143Y-44696319D02*
X77204762Y-44748700D01*
X77204762Y-44748700D02*
X77100000Y-44801080D01*
X77100000Y-44801080D02*
X76785714Y-44801080D01*
X76785714Y-44801080D02*
X76680952Y-44748700D01*
X76680952Y-44748700D02*
X76628571Y-44696319D01*
X78690476Y-44486795D02*
X79214286Y-44486795D01*
X78585714Y-44801080D02*
X78952381Y-43701080D01*
X78952381Y-43701080D02*
X79319048Y-44801080D01*
X80261905Y-44801080D02*
X79633333Y-44801080D01*
X79947619Y-44801080D02*
X79947619Y-43701080D01*
X79947619Y-43701080D02*
X79842857Y-43858223D01*
X79842857Y-43858223D02*
X79738095Y-43962985D01*
X79738095Y-43962985D02*
X79633333Y-44015366D01*
X80680952Y-43805842D02*
X80733333Y-43753461D01*
X80733333Y-43753461D02*
X80838095Y-43701080D01*
X80838095Y-43701080D02*
X81100000Y-43701080D01*
X81100000Y-43701080D02*
X81204762Y-43753461D01*
X81204762Y-43753461D02*
X81257143Y-43805842D01*
X81257143Y-43805842D02*
X81309524Y-43910604D01*
X81309524Y-43910604D02*
X81309524Y-44015366D01*
X81309524Y-44015366D02*
X81257143Y-44172509D01*
X81257143Y-44172509D02*
X80628571Y-44801080D01*
X80628571Y-44801080D02*
X81309524Y-44801080D01*
X84690476Y-44486795D02*
X85214286Y-44486795D01*
X84585714Y-44801080D02*
X84952381Y-43701080D01*
X84952381Y-43701080D02*
X85319048Y-44801080D01*
X86261905Y-44801080D02*
X85633333Y-44801080D01*
X85947619Y-44801080D02*
X85947619Y-43701080D01*
X85947619Y-43701080D02*
X85842857Y-43858223D01*
X85842857Y-43858223D02*
X85738095Y-43962985D01*
X85738095Y-43962985D02*
X85633333Y-44015366D01*
X87309524Y-44801080D02*
X86680952Y-44801080D01*
X86995238Y-44801080D02*
X86995238Y-43701080D01*
X86995238Y-43701080D02*
X86890476Y-43858223D01*
X86890476Y-43858223D02*
X86785714Y-43962985D01*
X86785714Y-43962985D02*
X86680952Y-44015366D01*
X88690476Y-44486795D02*
X89214286Y-44486795D01*
X88585714Y-44801080D02*
X88952381Y-43701080D01*
X88952381Y-43701080D02*
X89319048Y-44801080D01*
X90261905Y-44801080D02*
X89633333Y-44801080D01*
X89947619Y-44801080D02*
X89947619Y-43701080D01*
X89947619Y-43701080D02*
X89842857Y-43858223D01*
X89842857Y-43858223D02*
X89738095Y-43962985D01*
X89738095Y-43962985D02*
X89633333Y-44015366D01*
X90942857Y-43701080D02*
X91047619Y-43701080D01*
X91047619Y-43701080D02*
X91152381Y-43753461D01*
X91152381Y-43753461D02*
X91204762Y-43805842D01*
X91204762Y-43805842D02*
X91257143Y-43910604D01*
X91257143Y-43910604D02*
X91309524Y-44120128D01*
X91309524Y-44120128D02*
X91309524Y-44382033D01*
X91309524Y-44382033D02*
X91257143Y-44591557D01*
X91257143Y-44591557D02*
X91204762Y-44696319D01*
X91204762Y-44696319D02*
X91152381Y-44748700D01*
X91152381Y-44748700D02*
X91047619Y-44801080D01*
X91047619Y-44801080D02*
X90942857Y-44801080D01*
X90942857Y-44801080D02*
X90838095Y-44748700D01*
X90838095Y-44748700D02*
X90785714Y-44696319D01*
X90785714Y-44696319D02*
X90733333Y-44591557D01*
X90733333Y-44591557D02*
X90680952Y-44382033D01*
X90680952Y-44382033D02*
X90680952Y-44120128D01*
X90680952Y-44120128D02*
X90733333Y-43910604D01*
X90733333Y-43910604D02*
X90785714Y-43805842D01*
X90785714Y-43805842D02*
X90838095Y-43753461D01*
X90838095Y-43753461D02*
X90942857Y-43701080D01*
X93214285Y-44486795D02*
X93738095Y-44486795D01*
X93109523Y-44801080D02*
X93476190Y-43701080D01*
X93476190Y-43701080D02*
X93842857Y-44801080D01*
X94261904Y-44801080D02*
X94471428Y-44801080D01*
X94471428Y-44801080D02*
X94576190Y-44748700D01*
X94576190Y-44748700D02*
X94628571Y-44696319D01*
X94628571Y-44696319D02*
X94733333Y-44539176D01*
X94733333Y-44539176D02*
X94785714Y-44329652D01*
X94785714Y-44329652D02*
X94785714Y-43910604D01*
X94785714Y-43910604D02*
X94733333Y-43805842D01*
X94733333Y-43805842D02*
X94680952Y-43753461D01*
X94680952Y-43753461D02*
X94576190Y-43701080D01*
X94576190Y-43701080D02*
X94366666Y-43701080D01*
X94366666Y-43701080D02*
X94261904Y-43753461D01*
X94261904Y-43753461D02*
X94209523Y-43805842D01*
X94209523Y-43805842D02*
X94157142Y-43910604D01*
X94157142Y-43910604D02*
X94157142Y-44172509D01*
X94157142Y-44172509D02*
X94209523Y-44277271D01*
X94209523Y-44277271D02*
X94261904Y-44329652D01*
X94261904Y-44329652D02*
X94366666Y-44382033D01*
X94366666Y-44382033D02*
X94576190Y-44382033D01*
X94576190Y-44382033D02*
X94680952Y-44329652D01*
X94680952Y-44329652D02*
X94733333Y-44277271D01*
X94733333Y-44277271D02*
X94785714Y-44172509D01*
X97214285Y-44486795D02*
X97738095Y-44486795D01*
X97109523Y-44801080D02*
X97476190Y-43701080D01*
X97476190Y-43701080D02*
X97842857Y-44801080D01*
X98366666Y-44172509D02*
X98261904Y-44120128D01*
X98261904Y-44120128D02*
X98209523Y-44067747D01*
X98209523Y-44067747D02*
X98157142Y-43962985D01*
X98157142Y-43962985D02*
X98157142Y-43910604D01*
X98157142Y-43910604D02*
X98209523Y-43805842D01*
X98209523Y-43805842D02*
X98261904Y-43753461D01*
X98261904Y-43753461D02*
X98366666Y-43701080D01*
X98366666Y-43701080D02*
X98576190Y-43701080D01*
X98576190Y-43701080D02*
X98680952Y-43753461D01*
X98680952Y-43753461D02*
X98733333Y-43805842D01*
X98733333Y-43805842D02*
X98785714Y-43910604D01*
X98785714Y-43910604D02*
X98785714Y-43962985D01*
X98785714Y-43962985D02*
X98733333Y-44067747D01*
X98733333Y-44067747D02*
X98680952Y-44120128D01*
X98680952Y-44120128D02*
X98576190Y-44172509D01*
X98576190Y-44172509D02*
X98366666Y-44172509D01*
X98366666Y-44172509D02*
X98261904Y-44224890D01*
X98261904Y-44224890D02*
X98209523Y-44277271D01*
X98209523Y-44277271D02*
X98157142Y-44382033D01*
X98157142Y-44382033D02*
X98157142Y-44591557D01*
X98157142Y-44591557D02*
X98209523Y-44696319D01*
X98209523Y-44696319D02*
X98261904Y-44748700D01*
X98261904Y-44748700D02*
X98366666Y-44801080D01*
X98366666Y-44801080D02*
X98576190Y-44801080D01*
X98576190Y-44801080D02*
X98680952Y-44748700D01*
X98680952Y-44748700D02*
X98733333Y-44696319D01*
X98733333Y-44696319D02*
X98785714Y-44591557D01*
X98785714Y-44591557D02*
X98785714Y-44382033D01*
X98785714Y-44382033D02*
X98733333Y-44277271D01*
X98733333Y-44277271D02*
X98680952Y-44224890D01*
X98680952Y-44224890D02*
X98576190Y-44172509D01*
X103214285Y-44486795D02*
X103738095Y-44486795D01*
X103109523Y-44801080D02*
X103476190Y-43701080D01*
X103476190Y-43701080D02*
X103842857Y-44801080D01*
X104104761Y-43701080D02*
X104838095Y-43701080D01*
X104838095Y-43701080D02*
X104366666Y-44801080D01*
X107214285Y-44486795D02*
X107738095Y-44486795D01*
X107109523Y-44801080D02*
X107476190Y-43701080D01*
X107476190Y-43701080D02*
X107842857Y-44801080D01*
X108680952Y-43701080D02*
X108471428Y-43701080D01*
X108471428Y-43701080D02*
X108366666Y-43753461D01*
X108366666Y-43753461D02*
X108314285Y-43805842D01*
X108314285Y-43805842D02*
X108209523Y-43962985D01*
X108209523Y-43962985D02*
X108157142Y-44172509D01*
X108157142Y-44172509D02*
X108157142Y-44591557D01*
X108157142Y-44591557D02*
X108209523Y-44696319D01*
X108209523Y-44696319D02*
X108261904Y-44748700D01*
X108261904Y-44748700D02*
X108366666Y-44801080D01*
X108366666Y-44801080D02*
X108576190Y-44801080D01*
X108576190Y-44801080D02*
X108680952Y-44748700D01*
X108680952Y-44748700D02*
X108733333Y-44696319D01*
X108733333Y-44696319D02*
X108785714Y-44591557D01*
X108785714Y-44591557D02*
X108785714Y-44329652D01*
X108785714Y-44329652D02*
X108733333Y-44224890D01*
X108733333Y-44224890D02*
X108680952Y-44172509D01*
X108680952Y-44172509D02*
X108576190Y-44120128D01*
X108576190Y-44120128D02*
X108366666Y-44120128D01*
X108366666Y-44120128D02*
X108261904Y-44172509D01*
X108261904Y-44172509D02*
X108209523Y-44224890D01*
X108209523Y-44224890D02*
X108157142Y-44329652D01*
X111214285Y-44486795D02*
X111738095Y-44486795D01*
X111109523Y-44801080D02*
X111476190Y-43701080D01*
X111476190Y-43701080D02*
X111842857Y-44801080D01*
X112733333Y-43701080D02*
X112209523Y-43701080D01*
X112209523Y-43701080D02*
X112157142Y-44224890D01*
X112157142Y-44224890D02*
X112209523Y-44172509D01*
X112209523Y-44172509D02*
X112314285Y-44120128D01*
X112314285Y-44120128D02*
X112576190Y-44120128D01*
X112576190Y-44120128D02*
X112680952Y-44172509D01*
X112680952Y-44172509D02*
X112733333Y-44224890D01*
X112733333Y-44224890D02*
X112785714Y-44329652D01*
X112785714Y-44329652D02*
X112785714Y-44591557D01*
X112785714Y-44591557D02*
X112733333Y-44696319D01*
X112733333Y-44696319D02*
X112680952Y-44748700D01*
X112680952Y-44748700D02*
X112576190Y-44801080D01*
X112576190Y-44801080D02*
X112314285Y-44801080D01*
X112314285Y-44801080D02*
X112209523Y-44748700D01*
X112209523Y-44748700D02*
X112157142Y-44696319D01*
X115214285Y-44486795D02*
X115738095Y-44486795D01*
X115109523Y-44801080D02*
X115476190Y-43701080D01*
X115476190Y-43701080D02*
X115842857Y-44801080D01*
X116680952Y-44067747D02*
X116680952Y-44801080D01*
X116419047Y-43648700D02*
X116157142Y-44434414D01*
X116157142Y-44434414D02*
X116838095Y-44434414D01*
X121214285Y-44486795D02*
X121738095Y-44486795D01*
X121109523Y-44801080D02*
X121476190Y-43701080D01*
X121476190Y-43701080D02*
X121842857Y-44801080D01*
X122104761Y-43701080D02*
X122785714Y-43701080D01*
X122785714Y-43701080D02*
X122419047Y-44120128D01*
X122419047Y-44120128D02*
X122576190Y-44120128D01*
X122576190Y-44120128D02*
X122680952Y-44172509D01*
X122680952Y-44172509D02*
X122733333Y-44224890D01*
X122733333Y-44224890D02*
X122785714Y-44329652D01*
X122785714Y-44329652D02*
X122785714Y-44591557D01*
X122785714Y-44591557D02*
X122733333Y-44696319D01*
X122733333Y-44696319D02*
X122680952Y-44748700D01*
X122680952Y-44748700D02*
X122576190Y-44801080D01*
X122576190Y-44801080D02*
X122261904Y-44801080D01*
X122261904Y-44801080D02*
X122157142Y-44748700D01*
X122157142Y-44748700D02*
X122104761Y-44696319D01*
X125214285Y-44486795D02*
X125738095Y-44486795D01*
X125109523Y-44801080D02*
X125476190Y-43701080D01*
X125476190Y-43701080D02*
X125842857Y-44801080D01*
X126157142Y-43805842D02*
X126209523Y-43753461D01*
X126209523Y-43753461D02*
X126314285Y-43701080D01*
X126314285Y-43701080D02*
X126576190Y-43701080D01*
X126576190Y-43701080D02*
X126680952Y-43753461D01*
X126680952Y-43753461D02*
X126733333Y-43805842D01*
X126733333Y-43805842D02*
X126785714Y-43910604D01*
X126785714Y-43910604D02*
X126785714Y-44015366D01*
X126785714Y-44015366D02*
X126733333Y-44172509D01*
X126733333Y-44172509D02*
X126104761Y-44801080D01*
X126104761Y-44801080D02*
X126785714Y-44801080D01*
X129214285Y-44486795D02*
X129738095Y-44486795D01*
X129109523Y-44801080D02*
X129476190Y-43701080D01*
X129476190Y-43701080D02*
X129842857Y-44801080D01*
X130785714Y-44801080D02*
X130157142Y-44801080D01*
X130471428Y-44801080D02*
X130471428Y-43701080D01*
X130471428Y-43701080D02*
X130366666Y-43858223D01*
X130366666Y-43858223D02*
X130261904Y-43962985D01*
X130261904Y-43962985D02*
X130157142Y-44015366D01*
X133214285Y-44486795D02*
X133738095Y-44486795D01*
X133109523Y-44801080D02*
X133476190Y-43701080D01*
X133476190Y-43701080D02*
X133842857Y-44801080D01*
X134419047Y-43701080D02*
X134523809Y-43701080D01*
X134523809Y-43701080D02*
X134628571Y-43753461D01*
X134628571Y-43753461D02*
X134680952Y-43805842D01*
X134680952Y-43805842D02*
X134733333Y-43910604D01*
X134733333Y-43910604D02*
X134785714Y-44120128D01*
X134785714Y-44120128D02*
X134785714Y-44382033D01*
X134785714Y-44382033D02*
X134733333Y-44591557D01*
X134733333Y-44591557D02*
X134680952Y-44696319D01*
X134680952Y-44696319D02*
X134628571Y-44748700D01*
X134628571Y-44748700D02*
X134523809Y-44801080D01*
X134523809Y-44801080D02*
X134419047Y-44801080D01*
X134419047Y-44801080D02*
X134314285Y-44748700D01*
X134314285Y-44748700D02*
X134261904Y-44696319D01*
X134261904Y-44696319D02*
X134209523Y-44591557D01*
X134209523Y-44591557D02*
X134157142Y-44382033D01*
X134157142Y-44382033D02*
X134157142Y-44120128D01*
X134157142Y-44120128D02*
X134209523Y-43910604D01*
X134209523Y-43910604D02*
X134261904Y-43805842D01*
X134261904Y-43805842D02*
X134314285Y-43753461D01*
X134314285Y-43753461D02*
X134419047Y-43701080D01*
X284803333Y-34701080D02*
X284803333Y-33601080D01*
X284803333Y-33601080D02*
X285222381Y-33601080D01*
X285222381Y-33601080D02*
X285327143Y-33653461D01*
X285327143Y-33653461D02*
X285379524Y-33705842D01*
X285379524Y-33705842D02*
X285431905Y-33810604D01*
X285431905Y-33810604D02*
X285431905Y-33967747D01*
X285431905Y-33967747D02*
X285379524Y-34072509D01*
X285379524Y-34072509D02*
X285327143Y-34124890D01*
X285327143Y-34124890D02*
X285222381Y-34177271D01*
X285222381Y-34177271D02*
X284803333Y-34177271D01*
X285798571Y-33601080D02*
X286060476Y-34701080D01*
X286060476Y-34701080D02*
X286270000Y-33915366D01*
X286270000Y-33915366D02*
X286479524Y-34701080D01*
X286479524Y-34701080D02*
X286741429Y-33601080D01*
X287789048Y-34701080D02*
X287422381Y-34177271D01*
X287160476Y-34701080D02*
X287160476Y-33601080D01*
X287160476Y-33601080D02*
X287579524Y-33601080D01*
X287579524Y-33601080D02*
X287684286Y-33653461D01*
X287684286Y-33653461D02*
X287736667Y-33705842D01*
X287736667Y-33705842D02*
X287789048Y-33810604D01*
X287789048Y-33810604D02*
X287789048Y-33967747D01*
X287789048Y-33967747D02*
X287736667Y-34072509D01*
X287736667Y-34072509D02*
X287684286Y-34124890D01*
X287684286Y-34124890D02*
X287579524Y-34177271D01*
X287579524Y-34177271D02*
X287160476Y-34177271D01*
X71999999Y-2933057D02*
X71942856Y-2990200D01*
X71942856Y-2990200D02*
X71771428Y-3047342D01*
X71771428Y-3047342D02*
X71657142Y-3047342D01*
X71657142Y-3047342D02*
X71485713Y-2990200D01*
X71485713Y-2990200D02*
X71371428Y-2875914D01*
X71371428Y-2875914D02*
X71314285Y-2761628D01*
X71314285Y-2761628D02*
X71257142Y-2533057D01*
X71257142Y-2533057D02*
X71257142Y-2361628D01*
X71257142Y-2361628D02*
X71314285Y-2133057D01*
X71314285Y-2133057D02*
X71371428Y-2018771D01*
X71371428Y-2018771D02*
X71485713Y-1904485D01*
X71485713Y-1904485D02*
X71657142Y-1847342D01*
X71657142Y-1847342D02*
X71771428Y-1847342D01*
X71771428Y-1847342D02*
X71942856Y-1904485D01*
X71942856Y-1904485D02*
X71999999Y-1961628D01*
X72514285Y-3047342D02*
X72514285Y-1847342D01*
X72514285Y-1847342D02*
X72971428Y-1847342D01*
X72971428Y-1847342D02*
X73085713Y-1904485D01*
X73085713Y-1904485D02*
X73142856Y-1961628D01*
X73142856Y-1961628D02*
X73199999Y-2075914D01*
X73199999Y-2075914D02*
X73199999Y-2247342D01*
X73199999Y-2247342D02*
X73142856Y-2361628D01*
X73142856Y-2361628D02*
X73085713Y-2418771D01*
X73085713Y-2418771D02*
X72971428Y-2475914D01*
X72971428Y-2475914D02*
X72514285Y-2475914D01*
X73714285Y-1847342D02*
X73714285Y-2818771D01*
X73714285Y-2818771D02*
X73771428Y-2933057D01*
X73771428Y-2933057D02*
X73828571Y-2990200D01*
X73828571Y-2990200D02*
X73942856Y-3047342D01*
X73942856Y-3047342D02*
X74171428Y-3047342D01*
X74171428Y-3047342D02*
X74285713Y-2990200D01*
X74285713Y-2990200D02*
X74342856Y-2933057D01*
X74342856Y-2933057D02*
X74399999Y-2818771D01*
X74399999Y-2818771D02*
X74399999Y-1847342D01*
X75142856Y-2361628D02*
X75028571Y-2304485D01*
X75028571Y-2304485D02*
X74971428Y-2247342D01*
X74971428Y-2247342D02*
X74914285Y-2133057D01*
X74914285Y-2133057D02*
X74914285Y-2075914D01*
X74914285Y-2075914D02*
X74971428Y-1961628D01*
X74971428Y-1961628D02*
X75028571Y-1904485D01*
X75028571Y-1904485D02*
X75142856Y-1847342D01*
X75142856Y-1847342D02*
X75371428Y-1847342D01*
X75371428Y-1847342D02*
X75485714Y-1904485D01*
X75485714Y-1904485D02*
X75542856Y-1961628D01*
X75542856Y-1961628D02*
X75599999Y-2075914D01*
X75599999Y-2075914D02*
X75599999Y-2133057D01*
X75599999Y-2133057D02*
X75542856Y-2247342D01*
X75542856Y-2247342D02*
X75485714Y-2304485D01*
X75485714Y-2304485D02*
X75371428Y-2361628D01*
X75371428Y-2361628D02*
X75142856Y-2361628D01*
X75142856Y-2361628D02*
X75028571Y-2418771D01*
X75028571Y-2418771D02*
X74971428Y-2475914D01*
X74971428Y-2475914D02*
X74914285Y-2590200D01*
X74914285Y-2590200D02*
X74914285Y-2818771D01*
X74914285Y-2818771D02*
X74971428Y-2933057D01*
X74971428Y-2933057D02*
X75028571Y-2990200D01*
X75028571Y-2990200D02*
X75142856Y-3047342D01*
X75142856Y-3047342D02*
X75371428Y-3047342D01*
X75371428Y-3047342D02*
X75485714Y-2990200D01*
X75485714Y-2990200D02*
X75542856Y-2933057D01*
X75542856Y-2933057D02*
X75599999Y-2818771D01*
X75599999Y-2818771D02*
X75599999Y-2590200D01*
X75599999Y-2590200D02*
X75542856Y-2475914D01*
X75542856Y-2475914D02*
X75485714Y-2418771D01*
X75485714Y-2418771D02*
X75371428Y-2361628D01*
X76971428Y-2704485D02*
X77542857Y-2704485D01*
X76857142Y-3047342D02*
X77257142Y-1847342D01*
X77257142Y-1847342D02*
X77657142Y-3047342D01*
X78057142Y-3047342D02*
X78057142Y-1847342D01*
X78057142Y-1847342D02*
X78342856Y-1847342D01*
X78342856Y-1847342D02*
X78514285Y-1904485D01*
X78514285Y-1904485D02*
X78628570Y-2018771D01*
X78628570Y-2018771D02*
X78685713Y-2133057D01*
X78685713Y-2133057D02*
X78742856Y-2361628D01*
X78742856Y-2361628D02*
X78742856Y-2533057D01*
X78742856Y-2533057D02*
X78685713Y-2761628D01*
X78685713Y-2761628D02*
X78628570Y-2875914D01*
X78628570Y-2875914D02*
X78514285Y-2990200D01*
X78514285Y-2990200D02*
X78342856Y-3047342D01*
X78342856Y-3047342D02*
X78057142Y-3047342D01*
X79257142Y-3047342D02*
X79257142Y-1847342D01*
X79257142Y-1847342D02*
X79542856Y-1847342D01*
X79542856Y-1847342D02*
X79714285Y-1904485D01*
X79714285Y-1904485D02*
X79828570Y-2018771D01*
X79828570Y-2018771D02*
X79885713Y-2133057D01*
X79885713Y-2133057D02*
X79942856Y-2361628D01*
X79942856Y-2361628D02*
X79942856Y-2533057D01*
X79942856Y-2533057D02*
X79885713Y-2761628D01*
X79885713Y-2761628D02*
X79828570Y-2875914D01*
X79828570Y-2875914D02*
X79714285Y-2990200D01*
X79714285Y-2990200D02*
X79542856Y-3047342D01*
X79542856Y-3047342D02*
X79257142Y-3047342D01*
X81142856Y-3047342D02*
X80742856Y-2475914D01*
X80457142Y-3047342D02*
X80457142Y-1847342D01*
X80457142Y-1847342D02*
X80914285Y-1847342D01*
X80914285Y-1847342D02*
X81028570Y-1904485D01*
X81028570Y-1904485D02*
X81085713Y-1961628D01*
X81085713Y-1961628D02*
X81142856Y-2075914D01*
X81142856Y-2075914D02*
X81142856Y-2247342D01*
X81142856Y-2247342D02*
X81085713Y-2361628D01*
X81085713Y-2361628D02*
X81028570Y-2418771D01*
X81028570Y-2418771D02*
X80914285Y-2475914D01*
X80914285Y-2475914D02*
X80457142Y-2475914D01*
X81657142Y-2418771D02*
X82057142Y-2418771D01*
X82228570Y-3047342D02*
X81657142Y-3047342D01*
X81657142Y-3047342D02*
X81657142Y-1847342D01*
X81657142Y-1847342D02*
X82228570Y-1847342D01*
X82685713Y-2990200D02*
X82857142Y-3047342D01*
X82857142Y-3047342D02*
X83142856Y-3047342D01*
X83142856Y-3047342D02*
X83257142Y-2990200D01*
X83257142Y-2990200D02*
X83314284Y-2933057D01*
X83314284Y-2933057D02*
X83371427Y-2818771D01*
X83371427Y-2818771D02*
X83371427Y-2704485D01*
X83371427Y-2704485D02*
X83314284Y-2590200D01*
X83314284Y-2590200D02*
X83257142Y-2533057D01*
X83257142Y-2533057D02*
X83142856Y-2475914D01*
X83142856Y-2475914D02*
X82914284Y-2418771D01*
X82914284Y-2418771D02*
X82799999Y-2361628D01*
X82799999Y-2361628D02*
X82742856Y-2304485D01*
X82742856Y-2304485D02*
X82685713Y-2190200D01*
X82685713Y-2190200D02*
X82685713Y-2075914D01*
X82685713Y-2075914D02*
X82742856Y-1961628D01*
X82742856Y-1961628D02*
X82799999Y-1904485D01*
X82799999Y-1904485D02*
X82914284Y-1847342D01*
X82914284Y-1847342D02*
X83199999Y-1847342D01*
X83199999Y-1847342D02*
X83371427Y-1904485D01*
X83828570Y-2990200D02*
X83999999Y-3047342D01*
X83999999Y-3047342D02*
X84285713Y-3047342D01*
X84285713Y-3047342D02*
X84399999Y-2990200D01*
X84399999Y-2990200D02*
X84457141Y-2933057D01*
X84457141Y-2933057D02*
X84514284Y-2818771D01*
X84514284Y-2818771D02*
X84514284Y-2704485D01*
X84514284Y-2704485D02*
X84457141Y-2590200D01*
X84457141Y-2590200D02*
X84399999Y-2533057D01*
X84399999Y-2533057D02*
X84285713Y-2475914D01*
X84285713Y-2475914D02*
X84057141Y-2418771D01*
X84057141Y-2418771D02*
X83942856Y-2361628D01*
X83942856Y-2361628D02*
X83885713Y-2304485D01*
X83885713Y-2304485D02*
X83828570Y-2190200D01*
X83828570Y-2190200D02*
X83828570Y-2075914D01*
X83828570Y-2075914D02*
X83885713Y-1961628D01*
X83885713Y-1961628D02*
X83942856Y-1904485D01*
X83942856Y-1904485D02*
X84057141Y-1847342D01*
X84057141Y-1847342D02*
X84342856Y-1847342D01*
X84342856Y-1847342D02*
X84514284Y-1904485D01*
X86342856Y-2418771D02*
X86514284Y-2475914D01*
X86514284Y-2475914D02*
X86571427Y-2533057D01*
X86571427Y-2533057D02*
X86628570Y-2647342D01*
X86628570Y-2647342D02*
X86628570Y-2818771D01*
X86628570Y-2818771D02*
X86571427Y-2933057D01*
X86571427Y-2933057D02*
X86514284Y-2990200D01*
X86514284Y-2990200D02*
X86399999Y-3047342D01*
X86399999Y-3047342D02*
X85942856Y-3047342D01*
X85942856Y-3047342D02*
X85942856Y-1847342D01*
X85942856Y-1847342D02*
X86342856Y-1847342D01*
X86342856Y-1847342D02*
X86457142Y-1904485D01*
X86457142Y-1904485D02*
X86514284Y-1961628D01*
X86514284Y-1961628D02*
X86571427Y-2075914D01*
X86571427Y-2075914D02*
X86571427Y-2190200D01*
X86571427Y-2190200D02*
X86514284Y-2304485D01*
X86514284Y-2304485D02*
X86457142Y-2361628D01*
X86457142Y-2361628D02*
X86342856Y-2418771D01*
X86342856Y-2418771D02*
X85942856Y-2418771D01*
X87142856Y-1847342D02*
X87142856Y-2818771D01*
X87142856Y-2818771D02*
X87199999Y-2933057D01*
X87199999Y-2933057D02*
X87257142Y-2990200D01*
X87257142Y-2990200D02*
X87371427Y-3047342D01*
X87371427Y-3047342D02*
X87599999Y-3047342D01*
X87599999Y-3047342D02*
X87714284Y-2990200D01*
X87714284Y-2990200D02*
X87771427Y-2933057D01*
X87771427Y-2933057D02*
X87828570Y-2818771D01*
X87828570Y-2818771D02*
X87828570Y-1847342D01*
X88342856Y-2990200D02*
X88514285Y-3047342D01*
X88514285Y-3047342D02*
X88799999Y-3047342D01*
X88799999Y-3047342D02*
X88914285Y-2990200D01*
X88914285Y-2990200D02*
X88971427Y-2933057D01*
X88971427Y-2933057D02*
X89028570Y-2818771D01*
X89028570Y-2818771D02*
X89028570Y-2704485D01*
X89028570Y-2704485D02*
X88971427Y-2590200D01*
X88971427Y-2590200D02*
X88914285Y-2533057D01*
X88914285Y-2533057D02*
X88799999Y-2475914D01*
X88799999Y-2475914D02*
X88571427Y-2418771D01*
X88571427Y-2418771D02*
X88457142Y-2361628D01*
X88457142Y-2361628D02*
X88399999Y-2304485D01*
X88399999Y-2304485D02*
X88342856Y-2190200D01*
X88342856Y-2190200D02*
X88342856Y-2075914D01*
X88342856Y-2075914D02*
X88399999Y-1961628D01*
X88399999Y-1961628D02*
X88457142Y-1904485D01*
X88457142Y-1904485D02*
X88571427Y-1847342D01*
X88571427Y-1847342D02*
X88857142Y-1847342D01*
X88857142Y-1847342D02*
X89028570Y-1904485D01*
X91142856Y-3047342D02*
X90742856Y-2475914D01*
X90457142Y-3047342D02*
X90457142Y-1847342D01*
X90457142Y-1847342D02*
X90914285Y-1847342D01*
X90914285Y-1847342D02*
X91028570Y-1904485D01*
X91028570Y-1904485D02*
X91085713Y-1961628D01*
X91085713Y-1961628D02*
X91142856Y-2075914D01*
X91142856Y-2075914D02*
X91142856Y-2247342D01*
X91142856Y-2247342D02*
X91085713Y-2361628D01*
X91085713Y-2361628D02*
X91028570Y-2418771D01*
X91028570Y-2418771D02*
X90914285Y-2475914D01*
X90914285Y-2475914D02*
X90457142Y-2475914D01*
X91657142Y-2418771D02*
X92057142Y-2418771D01*
X92228570Y-3047342D02*
X91657142Y-3047342D01*
X91657142Y-3047342D02*
X91657142Y-1847342D01*
X91657142Y-1847342D02*
X92228570Y-1847342D01*
X92571427Y-1847342D02*
X92971427Y-3047342D01*
X92971427Y-3047342D02*
X93371427Y-1847342D01*
X94628570Y-2704485D02*
X95199999Y-2704485D01*
X94514284Y-3047342D02*
X94914284Y-1847342D01*
X94914284Y-1847342D02*
X95314284Y-3047342D01*
X96628570Y-2590200D02*
X97542856Y-2590200D01*
X99599998Y-1847342D02*
X99028570Y-1847342D01*
X99028570Y-1847342D02*
X98971427Y-2418771D01*
X98971427Y-2418771D02*
X99028570Y-2361628D01*
X99028570Y-2361628D02*
X99142856Y-2304485D01*
X99142856Y-2304485D02*
X99428570Y-2304485D01*
X99428570Y-2304485D02*
X99542856Y-2361628D01*
X99542856Y-2361628D02*
X99599998Y-2418771D01*
X99599998Y-2418771D02*
X99657141Y-2533057D01*
X99657141Y-2533057D02*
X99657141Y-2818771D01*
X99657141Y-2818771D02*
X99599998Y-2933057D01*
X99599998Y-2933057D02*
X99542856Y-2990200D01*
X99542856Y-2990200D02*
X99428570Y-3047342D01*
X99428570Y-3047342D02*
X99142856Y-3047342D01*
X99142856Y-3047342D02*
X99028570Y-2990200D01*
X99028570Y-2990200D02*
X98971427Y-2933057D01*
X99999998Y-1847342D02*
X100399998Y-3047342D01*
X100399998Y-3047342D02*
X100799998Y-1847342D01*
X102114284Y-2590200D02*
X103028570Y-2590200D01*
X105142855Y-3047342D02*
X104457141Y-3047342D01*
X104799998Y-3047342D02*
X104799998Y-1847342D01*
X104799998Y-1847342D02*
X104685712Y-2018771D01*
X104685712Y-2018771D02*
X104571427Y-2133057D01*
X104571427Y-2133057D02*
X104457141Y-2190200D01*
X106171427Y-1847342D02*
X105942855Y-1847342D01*
X105942855Y-1847342D02*
X105828569Y-1904485D01*
X105828569Y-1904485D02*
X105771427Y-1961628D01*
X105771427Y-1961628D02*
X105657141Y-2133057D01*
X105657141Y-2133057D02*
X105599998Y-2361628D01*
X105599998Y-2361628D02*
X105599998Y-2818771D01*
X105599998Y-2818771D02*
X105657141Y-2933057D01*
X105657141Y-2933057D02*
X105714284Y-2990200D01*
X105714284Y-2990200D02*
X105828569Y-3047342D01*
X105828569Y-3047342D02*
X106057141Y-3047342D01*
X106057141Y-3047342D02*
X106171427Y-2990200D01*
X106171427Y-2990200D02*
X106228569Y-2933057D01*
X106228569Y-2933057D02*
X106285712Y-2818771D01*
X106285712Y-2818771D02*
X106285712Y-2533057D01*
X106285712Y-2533057D02*
X106228569Y-2418771D01*
X106228569Y-2418771D02*
X106171427Y-2361628D01*
X106171427Y-2361628D02*
X106057141Y-2304485D01*
X106057141Y-2304485D02*
X105828569Y-2304485D01*
X105828569Y-2304485D02*
X105714284Y-2361628D01*
X105714284Y-2361628D02*
X105657141Y-2418771D01*
X105657141Y-2418771D02*
X105599998Y-2533057D01*
X108114284Y-2418771D02*
X108285712Y-2475914D01*
X108285712Y-2475914D02*
X108342855Y-2533057D01*
X108342855Y-2533057D02*
X108399998Y-2647342D01*
X108399998Y-2647342D02*
X108399998Y-2818771D01*
X108399998Y-2818771D02*
X108342855Y-2933057D01*
X108342855Y-2933057D02*
X108285712Y-2990200D01*
X108285712Y-2990200D02*
X108171427Y-3047342D01*
X108171427Y-3047342D02*
X107714284Y-3047342D01*
X107714284Y-3047342D02*
X107714284Y-1847342D01*
X107714284Y-1847342D02*
X108114284Y-1847342D01*
X108114284Y-1847342D02*
X108228570Y-1904485D01*
X108228570Y-1904485D02*
X108285712Y-1961628D01*
X108285712Y-1961628D02*
X108342855Y-2075914D01*
X108342855Y-2075914D02*
X108342855Y-2190200D01*
X108342855Y-2190200D02*
X108285712Y-2304485D01*
X108285712Y-2304485D02*
X108228570Y-2361628D01*
X108228570Y-2361628D02*
X108114284Y-2418771D01*
X108114284Y-2418771D02*
X107714284Y-2418771D01*
X108914284Y-3047342D02*
X108914284Y-1847342D01*
X109314284Y-1847342D02*
X109999999Y-1847342D01*
X109657141Y-3047342D02*
X109657141Y-1847342D01*
X112171428Y-1790200D02*
X111142856Y-3333057D01*
X113657142Y-2361628D02*
X113542857Y-2304485D01*
X113542857Y-2304485D02*
X113485714Y-2247342D01*
X113485714Y-2247342D02*
X113428571Y-2133057D01*
X113428571Y-2133057D02*
X113428571Y-2075914D01*
X113428571Y-2075914D02*
X113485714Y-1961628D01*
X113485714Y-1961628D02*
X113542857Y-1904485D01*
X113542857Y-1904485D02*
X113657142Y-1847342D01*
X113657142Y-1847342D02*
X113885714Y-1847342D01*
X113885714Y-1847342D02*
X114000000Y-1904485D01*
X114000000Y-1904485D02*
X114057142Y-1961628D01*
X114057142Y-1961628D02*
X114114285Y-2075914D01*
X114114285Y-2075914D02*
X114114285Y-2133057D01*
X114114285Y-2133057D02*
X114057142Y-2247342D01*
X114057142Y-2247342D02*
X114000000Y-2304485D01*
X114000000Y-2304485D02*
X113885714Y-2361628D01*
X113885714Y-2361628D02*
X113657142Y-2361628D01*
X113657142Y-2361628D02*
X113542857Y-2418771D01*
X113542857Y-2418771D02*
X113485714Y-2475914D01*
X113485714Y-2475914D02*
X113428571Y-2590200D01*
X113428571Y-2590200D02*
X113428571Y-2818771D01*
X113428571Y-2818771D02*
X113485714Y-2933057D01*
X113485714Y-2933057D02*
X113542857Y-2990200D01*
X113542857Y-2990200D02*
X113657142Y-3047342D01*
X113657142Y-3047342D02*
X113885714Y-3047342D01*
X113885714Y-3047342D02*
X114000000Y-2990200D01*
X114000000Y-2990200D02*
X114057142Y-2933057D01*
X114057142Y-2933057D02*
X114114285Y-2818771D01*
X114114285Y-2818771D02*
X114114285Y-2590200D01*
X114114285Y-2590200D02*
X114057142Y-2475914D01*
X114057142Y-2475914D02*
X114000000Y-2418771D01*
X114000000Y-2418771D02*
X113885714Y-2361628D01*
X115542857Y-3047342D02*
X115542857Y-1847342D01*
X115542857Y-1847342D02*
X116000000Y-1847342D01*
X116000000Y-1847342D02*
X116114285Y-1904485D01*
X116114285Y-1904485D02*
X116171428Y-1961628D01*
X116171428Y-1961628D02*
X116228571Y-2075914D01*
X116228571Y-2075914D02*
X116228571Y-2247342D01*
X116228571Y-2247342D02*
X116171428Y-2361628D01*
X116171428Y-2361628D02*
X116114285Y-2418771D01*
X116114285Y-2418771D02*
X116000000Y-2475914D01*
X116000000Y-2475914D02*
X115542857Y-2475914D01*
X116971428Y-1847342D02*
X117200000Y-1847342D01*
X117200000Y-1847342D02*
X117314285Y-1904485D01*
X117314285Y-1904485D02*
X117428571Y-2018771D01*
X117428571Y-2018771D02*
X117485714Y-2247342D01*
X117485714Y-2247342D02*
X117485714Y-2647342D01*
X117485714Y-2647342D02*
X117428571Y-2875914D01*
X117428571Y-2875914D02*
X117314285Y-2990200D01*
X117314285Y-2990200D02*
X117200000Y-3047342D01*
X117200000Y-3047342D02*
X116971428Y-3047342D01*
X116971428Y-3047342D02*
X116857143Y-2990200D01*
X116857143Y-2990200D02*
X116742857Y-2875914D01*
X116742857Y-2875914D02*
X116685714Y-2647342D01*
X116685714Y-2647342D02*
X116685714Y-2247342D01*
X116685714Y-2247342D02*
X116742857Y-2018771D01*
X116742857Y-2018771D02*
X116857143Y-1904485D01*
X116857143Y-1904485D02*
X116971428Y-1847342D01*
X118685714Y-3047342D02*
X118285714Y-2475914D01*
X118000000Y-3047342D02*
X118000000Y-1847342D01*
X118000000Y-1847342D02*
X118457143Y-1847342D01*
X118457143Y-1847342D02*
X118571428Y-1904485D01*
X118571428Y-1904485D02*
X118628571Y-1961628D01*
X118628571Y-1961628D02*
X118685714Y-2075914D01*
X118685714Y-2075914D02*
X118685714Y-2247342D01*
X118685714Y-2247342D02*
X118628571Y-2361628D01*
X118628571Y-2361628D02*
X118571428Y-2418771D01*
X118571428Y-2418771D02*
X118457143Y-2475914D01*
X118457143Y-2475914D02*
X118000000Y-2475914D01*
X119028571Y-1847342D02*
X119714286Y-1847342D01*
X119371428Y-3047342D02*
X119371428Y-1847342D01*
X120057143Y-2990200D02*
X120228572Y-3047342D01*
X120228572Y-3047342D02*
X120514286Y-3047342D01*
X120514286Y-3047342D02*
X120628572Y-2990200D01*
X120628572Y-2990200D02*
X120685714Y-2933057D01*
X120685714Y-2933057D02*
X120742857Y-2818771D01*
X120742857Y-2818771D02*
X120742857Y-2704485D01*
X120742857Y-2704485D02*
X120685714Y-2590200D01*
X120685714Y-2590200D02*
X120628572Y-2533057D01*
X120628572Y-2533057D02*
X120514286Y-2475914D01*
X120514286Y-2475914D02*
X120285714Y-2418771D01*
X120285714Y-2418771D02*
X120171429Y-2361628D01*
X120171429Y-2361628D02*
X120114286Y-2304485D01*
X120114286Y-2304485D02*
X120057143Y-2190200D01*
X120057143Y-2190200D02*
X120057143Y-2075914D01*
X120057143Y-2075914D02*
X120114286Y-1961628D01*
X120114286Y-1961628D02*
X120171429Y-1904485D01*
X120171429Y-1904485D02*
X120285714Y-1847342D01*
X120285714Y-1847342D02*
X120571429Y-1847342D01*
X120571429Y-1847342D02*
X120742857Y-1904485D01*
X60547142Y-34154819D02*
X60213809Y-33678628D01*
X59975714Y-34154819D02*
X59975714Y-33154819D01*
X59975714Y-33154819D02*
X60356666Y-33154819D01*
X60356666Y-33154819D02*
X60451904Y-33202438D01*
X60451904Y-33202438D02*
X60499523Y-33250057D01*
X60499523Y-33250057D02*
X60547142Y-33345295D01*
X60547142Y-33345295D02*
X60547142Y-33488152D01*
X60547142Y-33488152D02*
X60499523Y-33583390D01*
X60499523Y-33583390D02*
X60451904Y-33631009D01*
X60451904Y-33631009D02*
X60356666Y-33678628D01*
X60356666Y-33678628D02*
X59975714Y-33678628D01*
X61499523Y-34154819D02*
X60928095Y-34154819D01*
X61213809Y-34154819D02*
X61213809Y-33154819D01*
X61213809Y-33154819D02*
X61118571Y-33297676D01*
X61118571Y-33297676D02*
X61023333Y-33392914D01*
X61023333Y-33392914D02*
X60928095Y-33440533D01*
X62451904Y-34154819D02*
X61880476Y-34154819D01*
X62166190Y-34154819D02*
X62166190Y-33154819D01*
X62166190Y-33154819D02*
X62070952Y-33297676D01*
X62070952Y-33297676D02*
X61975714Y-33392914D01*
X61975714Y-33392914D02*
X61880476Y-33440533D01*
X71547142Y-34154819D02*
X71213809Y-33678628D01*
X70975714Y-34154819D02*
X70975714Y-33154819D01*
X70975714Y-33154819D02*
X71356666Y-33154819D01*
X71356666Y-33154819D02*
X71451904Y-33202438D01*
X71451904Y-33202438D02*
X71499523Y-33250057D01*
X71499523Y-33250057D02*
X71547142Y-33345295D01*
X71547142Y-33345295D02*
X71547142Y-33488152D01*
X71547142Y-33488152D02*
X71499523Y-33583390D01*
X71499523Y-33583390D02*
X71451904Y-33631009D01*
X71451904Y-33631009D02*
X71356666Y-33678628D01*
X71356666Y-33678628D02*
X70975714Y-33678628D01*
X72499523Y-34154819D02*
X71928095Y-34154819D01*
X72213809Y-34154819D02*
X72213809Y-33154819D01*
X72213809Y-33154819D02*
X72118571Y-33297676D01*
X72118571Y-33297676D02*
X72023333Y-33392914D01*
X72023333Y-33392914D02*
X71928095Y-33440533D01*
X73118571Y-33154819D02*
X73213809Y-33154819D01*
X73213809Y-33154819D02*
X73309047Y-33202438D01*
X73309047Y-33202438D02*
X73356666Y-33250057D01*
X73356666Y-33250057D02*
X73404285Y-33345295D01*
X73404285Y-33345295D02*
X73451904Y-33535771D01*
X73451904Y-33535771D02*
X73451904Y-33773866D01*
X73451904Y-33773866D02*
X73404285Y-33964342D01*
X73404285Y-33964342D02*
X73356666Y-34059580D01*
X73356666Y-34059580D02*
X73309047Y-34107200D01*
X73309047Y-34107200D02*
X73213809Y-34154819D01*
X73213809Y-34154819D02*
X73118571Y-34154819D01*
X73118571Y-34154819D02*
X73023333Y-34107200D01*
X73023333Y-34107200D02*
X72975714Y-34059580D01*
X72975714Y-34059580D02*
X72928095Y-33964342D01*
X72928095Y-33964342D02*
X72880476Y-33773866D01*
X72880476Y-33773866D02*
X72880476Y-33535771D01*
X72880476Y-33535771D02*
X72928095Y-33345295D01*
X72928095Y-33345295D02*
X72975714Y-33250057D01*
X72975714Y-33250057D02*
X73023333Y-33202438D01*
X73023333Y-33202438D02*
X73118571Y-33154819D01*
X228243333Y-6359580D02*
X228195714Y-6407200D01*
X228195714Y-6407200D02*
X228052857Y-6454819D01*
X228052857Y-6454819D02*
X227957619Y-6454819D01*
X227957619Y-6454819D02*
X227814762Y-6407200D01*
X227814762Y-6407200D02*
X227719524Y-6311961D01*
X227719524Y-6311961D02*
X227671905Y-6216723D01*
X227671905Y-6216723D02*
X227624286Y-6026247D01*
X227624286Y-6026247D02*
X227624286Y-5883390D01*
X227624286Y-5883390D02*
X227671905Y-5692914D01*
X227671905Y-5692914D02*
X227719524Y-5597676D01*
X227719524Y-5597676D02*
X227814762Y-5502438D01*
X227814762Y-5502438D02*
X227957619Y-5454819D01*
X227957619Y-5454819D02*
X228052857Y-5454819D01*
X228052857Y-5454819D02*
X228195714Y-5502438D01*
X228195714Y-5502438D02*
X228243333Y-5550057D01*
X229195714Y-6454819D02*
X228624286Y-6454819D01*
X228910000Y-6454819D02*
X228910000Y-5454819D01*
X228910000Y-5454819D02*
X228814762Y-5597676D01*
X228814762Y-5597676D02*
X228719524Y-5692914D01*
X228719524Y-5692914D02*
X228624286Y-5740533D01*
X227094524Y-10685427D02*
X226608809Y-10685427D01*
X226851666Y-10685427D02*
X226851666Y-9835427D01*
X226851666Y-9835427D02*
X226770714Y-9956855D01*
X226770714Y-9956855D02*
X226689762Y-10037808D01*
X226689762Y-10037808D02*
X226608809Y-10078284D01*
X227620714Y-9835427D02*
X227701667Y-9835427D01*
X227701667Y-9835427D02*
X227782619Y-9875903D01*
X227782619Y-9875903D02*
X227823095Y-9916379D01*
X227823095Y-9916379D02*
X227863571Y-9997331D01*
X227863571Y-9997331D02*
X227904048Y-10159236D01*
X227904048Y-10159236D02*
X227904048Y-10361617D01*
X227904048Y-10361617D02*
X227863571Y-10523522D01*
X227863571Y-10523522D02*
X227823095Y-10604474D01*
X227823095Y-10604474D02*
X227782619Y-10644951D01*
X227782619Y-10644951D02*
X227701667Y-10685427D01*
X227701667Y-10685427D02*
X227620714Y-10685427D01*
X227620714Y-10685427D02*
X227539762Y-10644951D01*
X227539762Y-10644951D02*
X227499286Y-10604474D01*
X227499286Y-10604474D02*
X227458809Y-10523522D01*
X227458809Y-10523522D02*
X227418333Y-10361617D01*
X227418333Y-10361617D02*
X227418333Y-10159236D01*
X227418333Y-10159236D02*
X227458809Y-9997331D01*
X227458809Y-9997331D02*
X227499286Y-9916379D01*
X227499286Y-9916379D02*
X227539762Y-9875903D01*
X227539762Y-9875903D02*
X227620714Y-9835427D01*
X228430238Y-9835427D02*
X228511191Y-9835427D01*
X228511191Y-9835427D02*
X228592143Y-9875903D01*
X228592143Y-9875903D02*
X228632619Y-9916379D01*
X228632619Y-9916379D02*
X228673095Y-9997331D01*
X228673095Y-9997331D02*
X228713572Y-10159236D01*
X228713572Y-10159236D02*
X228713572Y-10361617D01*
X228713572Y-10361617D02*
X228673095Y-10523522D01*
X228673095Y-10523522D02*
X228632619Y-10604474D01*
X228632619Y-10604474D02*
X228592143Y-10644951D01*
X228592143Y-10644951D02*
X228511191Y-10685427D01*
X228511191Y-10685427D02*
X228430238Y-10685427D01*
X228430238Y-10685427D02*
X228349286Y-10644951D01*
X228349286Y-10644951D02*
X228308810Y-10604474D01*
X228308810Y-10604474D02*
X228268333Y-10523522D01*
X228268333Y-10523522D02*
X228227857Y-10361617D01*
X228227857Y-10361617D02*
X228227857Y-10159236D01*
X228227857Y-10159236D02*
X228268333Y-9997331D01*
X228268333Y-9997331D02*
X228308810Y-9916379D01*
X228308810Y-9916379D02*
X228349286Y-9875903D01*
X228349286Y-9875903D02*
X228430238Y-9835427D01*
X229077857Y-10118760D02*
X229077857Y-10685427D01*
X229077857Y-10199712D02*
X229118334Y-10159236D01*
X229118334Y-10159236D02*
X229199286Y-10118760D01*
X229199286Y-10118760D02*
X229320715Y-10118760D01*
X229320715Y-10118760D02*
X229401667Y-10159236D01*
X229401667Y-10159236D02*
X229442143Y-10240189D01*
X229442143Y-10240189D02*
X229442143Y-10685427D01*
X230130239Y-10240189D02*
X229846905Y-10240189D01*
X229846905Y-10685427D02*
X229846905Y-9835427D01*
X229846905Y-9835427D02*
X230251667Y-9835427D01*
X110936666Y-4454819D02*
X110936666Y-5169104D01*
X110936666Y-5169104D02*
X110889047Y-5311961D01*
X110889047Y-5311961D02*
X110793809Y-5407200D01*
X110793809Y-5407200D02*
X110650952Y-5454819D01*
X110650952Y-5454819D02*
X110555714Y-5454819D01*
X111889047Y-4454819D02*
X111412857Y-4454819D01*
X111412857Y-4454819D02*
X111365238Y-4931009D01*
X111365238Y-4931009D02*
X111412857Y-4883390D01*
X111412857Y-4883390D02*
X111508095Y-4835771D01*
X111508095Y-4835771D02*
X111746190Y-4835771D01*
X111746190Y-4835771D02*
X111841428Y-4883390D01*
X111841428Y-4883390D02*
X111889047Y-4931009D01*
X111889047Y-4931009D02*
X111936666Y-5026247D01*
X111936666Y-5026247D02*
X111936666Y-5264342D01*
X111936666Y-5264342D02*
X111889047Y-5359580D01*
X111889047Y-5359580D02*
X111841428Y-5407200D01*
X111841428Y-5407200D02*
X111746190Y-5454819D01*
X111746190Y-5454819D02*
X111508095Y-5454819D01*
X111508095Y-5454819D02*
X111412857Y-5407200D01*
X111412857Y-5407200D02*
X111365238Y-5359580D01*
X83023333Y-34154819D02*
X82690000Y-33678628D01*
X82451905Y-34154819D02*
X82451905Y-33154819D01*
X82451905Y-33154819D02*
X82832857Y-33154819D01*
X82832857Y-33154819D02*
X82928095Y-33202438D01*
X82928095Y-33202438D02*
X82975714Y-33250057D01*
X82975714Y-33250057D02*
X83023333Y-33345295D01*
X83023333Y-33345295D02*
X83023333Y-33488152D01*
X83023333Y-33488152D02*
X82975714Y-33583390D01*
X82975714Y-33583390D02*
X82928095Y-33631009D01*
X82928095Y-33631009D02*
X82832857Y-33678628D01*
X82832857Y-33678628D02*
X82451905Y-33678628D01*
X83499524Y-34154819D02*
X83690000Y-34154819D01*
X83690000Y-34154819D02*
X83785238Y-34107200D01*
X83785238Y-34107200D02*
X83832857Y-34059580D01*
X83832857Y-34059580D02*
X83928095Y-33916723D01*
X83928095Y-33916723D02*
X83975714Y-33726247D01*
X83975714Y-33726247D02*
X83975714Y-33345295D01*
X83975714Y-33345295D02*
X83928095Y-33250057D01*
X83928095Y-33250057D02*
X83880476Y-33202438D01*
X83880476Y-33202438D02*
X83785238Y-33154819D01*
X83785238Y-33154819D02*
X83594762Y-33154819D01*
X83594762Y-33154819D02*
X83499524Y-33202438D01*
X83499524Y-33202438D02*
X83451905Y-33250057D01*
X83451905Y-33250057D02*
X83404286Y-33345295D01*
X83404286Y-33345295D02*
X83404286Y-33583390D01*
X83404286Y-33583390D02*
X83451905Y-33678628D01*
X83451905Y-33678628D02*
X83499524Y-33726247D01*
X83499524Y-33726247D02*
X83594762Y-33773866D01*
X83594762Y-33773866D02*
X83785238Y-33773866D01*
X83785238Y-33773866D02*
X83880476Y-33726247D01*
X83880476Y-33726247D02*
X83928095Y-33678628D01*
X83928095Y-33678628D02*
X83975714Y-33583390D01*
X284936666Y-6454819D02*
X284936666Y-7169104D01*
X284936666Y-7169104D02*
X284889047Y-7311961D01*
X284889047Y-7311961D02*
X284793809Y-7407200D01*
X284793809Y-7407200D02*
X284650952Y-7454819D01*
X284650952Y-7454819D02*
X284555714Y-7454819D01*
X285460476Y-7454819D02*
X285650952Y-7454819D01*
X285650952Y-7454819D02*
X285746190Y-7407200D01*
X285746190Y-7407200D02*
X285793809Y-7359580D01*
X285793809Y-7359580D02*
X285889047Y-7216723D01*
X285889047Y-7216723D02*
X285936666Y-7026247D01*
X285936666Y-7026247D02*
X285936666Y-6645295D01*
X285936666Y-6645295D02*
X285889047Y-6550057D01*
X285889047Y-6550057D02*
X285841428Y-6502438D01*
X285841428Y-6502438D02*
X285746190Y-6454819D01*
X285746190Y-6454819D02*
X285555714Y-6454819D01*
X285555714Y-6454819D02*
X285460476Y-6502438D01*
X285460476Y-6502438D02*
X285412857Y-6550057D01*
X285412857Y-6550057D02*
X285365238Y-6645295D01*
X285365238Y-6645295D02*
X285365238Y-6883390D01*
X285365238Y-6883390D02*
X285412857Y-6978628D01*
X285412857Y-6978628D02*
X285460476Y-7026247D01*
X285460476Y-7026247D02*
X285555714Y-7073866D01*
X285555714Y-7073866D02*
X285746190Y-7073866D01*
X285746190Y-7073866D02*
X285841428Y-7026247D01*
X285841428Y-7026247D02*
X285889047Y-6978628D01*
X285889047Y-6978628D02*
X285936666Y-6883390D01*
X171023333Y-34154819D02*
X170690000Y-33678628D01*
X170451905Y-34154819D02*
X170451905Y-33154819D01*
X170451905Y-33154819D02*
X170832857Y-33154819D01*
X170832857Y-33154819D02*
X170928095Y-33202438D01*
X170928095Y-33202438D02*
X170975714Y-33250057D01*
X170975714Y-33250057D02*
X171023333Y-33345295D01*
X171023333Y-33345295D02*
X171023333Y-33488152D01*
X171023333Y-33488152D02*
X170975714Y-33583390D01*
X170975714Y-33583390D02*
X170928095Y-33631009D01*
X170928095Y-33631009D02*
X170832857Y-33678628D01*
X170832857Y-33678628D02*
X170451905Y-33678628D01*
X171975714Y-34154819D02*
X171404286Y-34154819D01*
X171690000Y-34154819D02*
X171690000Y-33154819D01*
X171690000Y-33154819D02*
X171594762Y-33297676D01*
X171594762Y-33297676D02*
X171499524Y-33392914D01*
X171499524Y-33392914D02*
X171404286Y-33440533D01*
X105023333Y-34154819D02*
X104690000Y-33678628D01*
X104451905Y-34154819D02*
X104451905Y-33154819D01*
X104451905Y-33154819D02*
X104832857Y-33154819D01*
X104832857Y-33154819D02*
X104928095Y-33202438D01*
X104928095Y-33202438D02*
X104975714Y-33250057D01*
X104975714Y-33250057D02*
X105023333Y-33345295D01*
X105023333Y-33345295D02*
X105023333Y-33488152D01*
X105023333Y-33488152D02*
X104975714Y-33583390D01*
X104975714Y-33583390D02*
X104928095Y-33631009D01*
X104928095Y-33631009D02*
X104832857Y-33678628D01*
X104832857Y-33678628D02*
X104451905Y-33678628D01*
X105356667Y-33154819D02*
X106023333Y-33154819D01*
X106023333Y-33154819D02*
X105594762Y-34154819D01*
X217469523Y-35454819D02*
X217136190Y-34978628D01*
X216898095Y-35454819D02*
X216898095Y-34454819D01*
X216898095Y-34454819D02*
X217279047Y-34454819D01*
X217279047Y-34454819D02*
X217374285Y-34502438D01*
X217374285Y-34502438D02*
X217421904Y-34550057D01*
X217421904Y-34550057D02*
X217469523Y-34645295D01*
X217469523Y-34645295D02*
X217469523Y-34788152D01*
X217469523Y-34788152D02*
X217421904Y-34883390D01*
X217421904Y-34883390D02*
X217374285Y-34931009D01*
X217374285Y-34931009D02*
X217279047Y-34978628D01*
X217279047Y-34978628D02*
X216898095Y-34978628D01*
X217898095Y-35454819D02*
X217898095Y-34454819D01*
X217898095Y-34454819D02*
X218469523Y-35454819D01*
X218469523Y-35454819D02*
X218469523Y-34454819D01*
X219469523Y-35454819D02*
X218898095Y-35454819D01*
X219183809Y-35454819D02*
X219183809Y-34454819D01*
X219183809Y-34454819D02*
X219088571Y-34597676D01*
X219088571Y-34597676D02*
X218993333Y-34692914D01*
X218993333Y-34692914D02*
X218898095Y-34740533D01*
X280666667Y-38217200D02*
X280809524Y-38264819D01*
X280809524Y-38264819D02*
X281047619Y-38264819D01*
X281047619Y-38264819D02*
X281142857Y-38217200D01*
X281142857Y-38217200D02*
X281190476Y-38169580D01*
X281190476Y-38169580D02*
X281238095Y-38074342D01*
X281238095Y-38074342D02*
X281238095Y-37979104D01*
X281238095Y-37979104D02*
X281190476Y-37883866D01*
X281190476Y-37883866D02*
X281142857Y-37836247D01*
X281142857Y-37836247D02*
X281047619Y-37788628D01*
X281047619Y-37788628D02*
X280857143Y-37741009D01*
X280857143Y-37741009D02*
X280761905Y-37693390D01*
X280761905Y-37693390D02*
X280714286Y-37645771D01*
X280714286Y-37645771D02*
X280666667Y-37550533D01*
X280666667Y-37550533D02*
X280666667Y-37455295D01*
X280666667Y-37455295D02*
X280714286Y-37360057D01*
X280714286Y-37360057D02*
X280761905Y-37312438D01*
X280761905Y-37312438D02*
X280857143Y-37264819D01*
X280857143Y-37264819D02*
X281095238Y-37264819D01*
X281095238Y-37264819D02*
X281238095Y-37312438D01*
X281571429Y-37264819D02*
X281809524Y-38264819D01*
X281809524Y-38264819D02*
X282000000Y-37550533D01*
X282000000Y-37550533D02*
X282190476Y-38264819D01*
X282190476Y-38264819D02*
X282428572Y-37264819D01*
X283333333Y-38264819D02*
X282761905Y-38264819D01*
X283047619Y-38264819D02*
X283047619Y-37264819D01*
X283047619Y-37264819D02*
X282952381Y-37407676D01*
X282952381Y-37407676D02*
X282857143Y-37502914D01*
X282857143Y-37502914D02*
X282761905Y-37550533D01*
X16547142Y-34154819D02*
X16213809Y-33678628D01*
X15975714Y-34154819D02*
X15975714Y-33154819D01*
X15975714Y-33154819D02*
X16356666Y-33154819D01*
X16356666Y-33154819D02*
X16451904Y-33202438D01*
X16451904Y-33202438D02*
X16499523Y-33250057D01*
X16499523Y-33250057D02*
X16547142Y-33345295D01*
X16547142Y-33345295D02*
X16547142Y-33488152D01*
X16547142Y-33488152D02*
X16499523Y-33583390D01*
X16499523Y-33583390D02*
X16451904Y-33631009D01*
X16451904Y-33631009D02*
X16356666Y-33678628D01*
X16356666Y-33678628D02*
X15975714Y-33678628D01*
X17499523Y-34154819D02*
X16928095Y-34154819D01*
X17213809Y-34154819D02*
X17213809Y-33154819D01*
X17213809Y-33154819D02*
X17118571Y-33297676D01*
X17118571Y-33297676D02*
X17023333Y-33392914D01*
X17023333Y-33392914D02*
X16928095Y-33440533D01*
X18404285Y-33154819D02*
X17928095Y-33154819D01*
X17928095Y-33154819D02*
X17880476Y-33631009D01*
X17880476Y-33631009D02*
X17928095Y-33583390D01*
X17928095Y-33583390D02*
X18023333Y-33535771D01*
X18023333Y-33535771D02*
X18261428Y-33535771D01*
X18261428Y-33535771D02*
X18356666Y-33583390D01*
X18356666Y-33583390D02*
X18404285Y-33631009D01*
X18404285Y-33631009D02*
X18451904Y-33726247D01*
X18451904Y-33726247D02*
X18451904Y-33964342D01*
X18451904Y-33964342D02*
X18404285Y-34059580D01*
X18404285Y-34059580D02*
X18356666Y-34107200D01*
X18356666Y-34107200D02*
X18261428Y-34154819D01*
X18261428Y-34154819D02*
X18023333Y-34154819D01*
X18023333Y-34154819D02*
X17928095Y-34107200D01*
X17928095Y-34107200D02*
X17880476Y-34059580D01*
X185936666Y-4454819D02*
X185936666Y-5169104D01*
X185936666Y-5169104D02*
X185889047Y-5311961D01*
X185889047Y-5311961D02*
X185793809Y-5407200D01*
X185793809Y-5407200D02*
X185650952Y-5454819D01*
X185650952Y-5454819D02*
X185555714Y-5454819D01*
X186555714Y-4883390D02*
X186460476Y-4835771D01*
X186460476Y-4835771D02*
X186412857Y-4788152D01*
X186412857Y-4788152D02*
X186365238Y-4692914D01*
X186365238Y-4692914D02*
X186365238Y-4645295D01*
X186365238Y-4645295D02*
X186412857Y-4550057D01*
X186412857Y-4550057D02*
X186460476Y-4502438D01*
X186460476Y-4502438D02*
X186555714Y-4454819D01*
X186555714Y-4454819D02*
X186746190Y-4454819D01*
X186746190Y-4454819D02*
X186841428Y-4502438D01*
X186841428Y-4502438D02*
X186889047Y-4550057D01*
X186889047Y-4550057D02*
X186936666Y-4645295D01*
X186936666Y-4645295D02*
X186936666Y-4692914D01*
X186936666Y-4692914D02*
X186889047Y-4788152D01*
X186889047Y-4788152D02*
X186841428Y-4835771D01*
X186841428Y-4835771D02*
X186746190Y-4883390D01*
X186746190Y-4883390D02*
X186555714Y-4883390D01*
X186555714Y-4883390D02*
X186460476Y-4931009D01*
X186460476Y-4931009D02*
X186412857Y-4978628D01*
X186412857Y-4978628D02*
X186365238Y-5073866D01*
X186365238Y-5073866D02*
X186365238Y-5264342D01*
X186365238Y-5264342D02*
X186412857Y-5359580D01*
X186412857Y-5359580D02*
X186460476Y-5407200D01*
X186460476Y-5407200D02*
X186555714Y-5454819D01*
X186555714Y-5454819D02*
X186746190Y-5454819D01*
X186746190Y-5454819D02*
X186841428Y-5407200D01*
X186841428Y-5407200D02*
X186889047Y-5359580D01*
X186889047Y-5359580D02*
X186936666Y-5264342D01*
X186936666Y-5264342D02*
X186936666Y-5073866D01*
X186936666Y-5073866D02*
X186889047Y-4978628D01*
X186889047Y-4978628D02*
X186841428Y-4931009D01*
X186841428Y-4931009D02*
X186746190Y-4883390D01*
X94023333Y-34154819D02*
X93690000Y-33678628D01*
X93451905Y-34154819D02*
X93451905Y-33154819D01*
X93451905Y-33154819D02*
X93832857Y-33154819D01*
X93832857Y-33154819D02*
X93928095Y-33202438D01*
X93928095Y-33202438D02*
X93975714Y-33250057D01*
X93975714Y-33250057D02*
X94023333Y-33345295D01*
X94023333Y-33345295D02*
X94023333Y-33488152D01*
X94023333Y-33488152D02*
X93975714Y-33583390D01*
X93975714Y-33583390D02*
X93928095Y-33631009D01*
X93928095Y-33631009D02*
X93832857Y-33678628D01*
X93832857Y-33678628D02*
X93451905Y-33678628D01*
X94594762Y-33583390D02*
X94499524Y-33535771D01*
X94499524Y-33535771D02*
X94451905Y-33488152D01*
X94451905Y-33488152D02*
X94404286Y-33392914D01*
X94404286Y-33392914D02*
X94404286Y-33345295D01*
X94404286Y-33345295D02*
X94451905Y-33250057D01*
X94451905Y-33250057D02*
X94499524Y-33202438D01*
X94499524Y-33202438D02*
X94594762Y-33154819D01*
X94594762Y-33154819D02*
X94785238Y-33154819D01*
X94785238Y-33154819D02*
X94880476Y-33202438D01*
X94880476Y-33202438D02*
X94928095Y-33250057D01*
X94928095Y-33250057D02*
X94975714Y-33345295D01*
X94975714Y-33345295D02*
X94975714Y-33392914D01*
X94975714Y-33392914D02*
X94928095Y-33488152D01*
X94928095Y-33488152D02*
X94880476Y-33535771D01*
X94880476Y-33535771D02*
X94785238Y-33583390D01*
X94785238Y-33583390D02*
X94594762Y-33583390D01*
X94594762Y-33583390D02*
X94499524Y-33631009D01*
X94499524Y-33631009D02*
X94451905Y-33678628D01*
X94451905Y-33678628D02*
X94404286Y-33773866D01*
X94404286Y-33773866D02*
X94404286Y-33964342D01*
X94404286Y-33964342D02*
X94451905Y-34059580D01*
X94451905Y-34059580D02*
X94499524Y-34107200D01*
X94499524Y-34107200D02*
X94594762Y-34154819D01*
X94594762Y-34154819D02*
X94785238Y-34154819D01*
X94785238Y-34154819D02*
X94880476Y-34107200D01*
X94880476Y-34107200D02*
X94928095Y-34059580D01*
X94928095Y-34059580D02*
X94975714Y-33964342D01*
X94975714Y-33964342D02*
X94975714Y-33773866D01*
X94975714Y-33773866D02*
X94928095Y-33678628D01*
X94928095Y-33678628D02*
X94880476Y-33631009D01*
X94880476Y-33631009D02*
X94785238Y-33583390D01*
X253243333Y-6359580D02*
X253195714Y-6407200D01*
X253195714Y-6407200D02*
X253052857Y-6454819D01*
X253052857Y-6454819D02*
X252957619Y-6454819D01*
X252957619Y-6454819D02*
X252814762Y-6407200D01*
X252814762Y-6407200D02*
X252719524Y-6311961D01*
X252719524Y-6311961D02*
X252671905Y-6216723D01*
X252671905Y-6216723D02*
X252624286Y-6026247D01*
X252624286Y-6026247D02*
X252624286Y-5883390D01*
X252624286Y-5883390D02*
X252671905Y-5692914D01*
X252671905Y-5692914D02*
X252719524Y-5597676D01*
X252719524Y-5597676D02*
X252814762Y-5502438D01*
X252814762Y-5502438D02*
X252957619Y-5454819D01*
X252957619Y-5454819D02*
X253052857Y-5454819D01*
X253052857Y-5454819D02*
X253195714Y-5502438D01*
X253195714Y-5502438D02*
X253243333Y-5550057D01*
X253624286Y-5550057D02*
X253671905Y-5502438D01*
X253671905Y-5502438D02*
X253767143Y-5454819D01*
X253767143Y-5454819D02*
X254005238Y-5454819D01*
X254005238Y-5454819D02*
X254100476Y-5502438D01*
X254100476Y-5502438D02*
X254148095Y-5550057D01*
X254148095Y-5550057D02*
X254195714Y-5645295D01*
X254195714Y-5645295D02*
X254195714Y-5740533D01*
X254195714Y-5740533D02*
X254148095Y-5883390D01*
X254148095Y-5883390D02*
X253576667Y-6454819D01*
X253576667Y-6454819D02*
X254195714Y-6454819D01*
X252094524Y-10685427D02*
X251608809Y-10685427D01*
X251851666Y-10685427D02*
X251851666Y-9835427D01*
X251851666Y-9835427D02*
X251770714Y-9956855D01*
X251770714Y-9956855D02*
X251689762Y-10037808D01*
X251689762Y-10037808D02*
X251608809Y-10078284D01*
X252620714Y-9835427D02*
X252701667Y-9835427D01*
X252701667Y-9835427D02*
X252782619Y-9875903D01*
X252782619Y-9875903D02*
X252823095Y-9916379D01*
X252823095Y-9916379D02*
X252863571Y-9997331D01*
X252863571Y-9997331D02*
X252904048Y-10159236D01*
X252904048Y-10159236D02*
X252904048Y-10361617D01*
X252904048Y-10361617D02*
X252863571Y-10523522D01*
X252863571Y-10523522D02*
X252823095Y-10604474D01*
X252823095Y-10604474D02*
X252782619Y-10644951D01*
X252782619Y-10644951D02*
X252701667Y-10685427D01*
X252701667Y-10685427D02*
X252620714Y-10685427D01*
X252620714Y-10685427D02*
X252539762Y-10644951D01*
X252539762Y-10644951D02*
X252499286Y-10604474D01*
X252499286Y-10604474D02*
X252458809Y-10523522D01*
X252458809Y-10523522D02*
X252418333Y-10361617D01*
X252418333Y-10361617D02*
X252418333Y-10159236D01*
X252418333Y-10159236D02*
X252458809Y-9997331D01*
X252458809Y-9997331D02*
X252499286Y-9916379D01*
X252499286Y-9916379D02*
X252539762Y-9875903D01*
X252539762Y-9875903D02*
X252620714Y-9835427D01*
X253430238Y-9835427D02*
X253511191Y-9835427D01*
X253511191Y-9835427D02*
X253592143Y-9875903D01*
X253592143Y-9875903D02*
X253632619Y-9916379D01*
X253632619Y-9916379D02*
X253673095Y-9997331D01*
X253673095Y-9997331D02*
X253713572Y-10159236D01*
X253713572Y-10159236D02*
X253713572Y-10361617D01*
X253713572Y-10361617D02*
X253673095Y-10523522D01*
X253673095Y-10523522D02*
X253632619Y-10604474D01*
X253632619Y-10604474D02*
X253592143Y-10644951D01*
X253592143Y-10644951D02*
X253511191Y-10685427D01*
X253511191Y-10685427D02*
X253430238Y-10685427D01*
X253430238Y-10685427D02*
X253349286Y-10644951D01*
X253349286Y-10644951D02*
X253308810Y-10604474D01*
X253308810Y-10604474D02*
X253268333Y-10523522D01*
X253268333Y-10523522D02*
X253227857Y-10361617D01*
X253227857Y-10361617D02*
X253227857Y-10159236D01*
X253227857Y-10159236D02*
X253268333Y-9997331D01*
X253268333Y-9997331D02*
X253308810Y-9916379D01*
X253308810Y-9916379D02*
X253349286Y-9875903D01*
X253349286Y-9875903D02*
X253430238Y-9835427D01*
X254077857Y-10118760D02*
X254077857Y-10685427D01*
X254077857Y-10199712D02*
X254118334Y-10159236D01*
X254118334Y-10159236D02*
X254199286Y-10118760D01*
X254199286Y-10118760D02*
X254320715Y-10118760D01*
X254320715Y-10118760D02*
X254401667Y-10159236D01*
X254401667Y-10159236D02*
X254442143Y-10240189D01*
X254442143Y-10240189D02*
X254442143Y-10685427D01*
X255130239Y-10240189D02*
X254846905Y-10240189D01*
X254846905Y-10685427D02*
X254846905Y-9835427D01*
X254846905Y-9835427D02*
X255251667Y-9835427D01*
X38547142Y-34154819D02*
X38213809Y-33678628D01*
X37975714Y-34154819D02*
X37975714Y-33154819D01*
X37975714Y-33154819D02*
X38356666Y-33154819D01*
X38356666Y-33154819D02*
X38451904Y-33202438D01*
X38451904Y-33202438D02*
X38499523Y-33250057D01*
X38499523Y-33250057D02*
X38547142Y-33345295D01*
X38547142Y-33345295D02*
X38547142Y-33488152D01*
X38547142Y-33488152D02*
X38499523Y-33583390D01*
X38499523Y-33583390D02*
X38451904Y-33631009D01*
X38451904Y-33631009D02*
X38356666Y-33678628D01*
X38356666Y-33678628D02*
X37975714Y-33678628D01*
X39499523Y-34154819D02*
X38928095Y-34154819D01*
X39213809Y-34154819D02*
X39213809Y-33154819D01*
X39213809Y-33154819D02*
X39118571Y-33297676D01*
X39118571Y-33297676D02*
X39023333Y-33392914D01*
X39023333Y-33392914D02*
X38928095Y-33440533D01*
X39832857Y-33154819D02*
X40451904Y-33154819D01*
X40451904Y-33154819D02*
X40118571Y-33535771D01*
X40118571Y-33535771D02*
X40261428Y-33535771D01*
X40261428Y-33535771D02*
X40356666Y-33583390D01*
X40356666Y-33583390D02*
X40404285Y-33631009D01*
X40404285Y-33631009D02*
X40451904Y-33726247D01*
X40451904Y-33726247D02*
X40451904Y-33964342D01*
X40451904Y-33964342D02*
X40404285Y-34059580D01*
X40404285Y-34059580D02*
X40356666Y-34107200D01*
X40356666Y-34107200D02*
X40261428Y-34154819D01*
X40261428Y-34154819D02*
X39975714Y-34154819D01*
X39975714Y-34154819D02*
X39880476Y-34107200D01*
X39880476Y-34107200D02*
X39832857Y-34059580D01*
X5547142Y-34154819D02*
X5213809Y-33678628D01*
X4975714Y-34154819D02*
X4975714Y-33154819D01*
X4975714Y-33154819D02*
X5356666Y-33154819D01*
X5356666Y-33154819D02*
X5451904Y-33202438D01*
X5451904Y-33202438D02*
X5499523Y-33250057D01*
X5499523Y-33250057D02*
X5547142Y-33345295D01*
X5547142Y-33345295D02*
X5547142Y-33488152D01*
X5547142Y-33488152D02*
X5499523Y-33583390D01*
X5499523Y-33583390D02*
X5451904Y-33631009D01*
X5451904Y-33631009D02*
X5356666Y-33678628D01*
X5356666Y-33678628D02*
X4975714Y-33678628D01*
X6499523Y-34154819D02*
X5928095Y-34154819D01*
X6213809Y-34154819D02*
X6213809Y-33154819D01*
X6213809Y-33154819D02*
X6118571Y-33297676D01*
X6118571Y-33297676D02*
X6023333Y-33392914D01*
X6023333Y-33392914D02*
X5928095Y-33440533D01*
X7356666Y-33154819D02*
X7166190Y-33154819D01*
X7166190Y-33154819D02*
X7070952Y-33202438D01*
X7070952Y-33202438D02*
X7023333Y-33250057D01*
X7023333Y-33250057D02*
X6928095Y-33392914D01*
X6928095Y-33392914D02*
X6880476Y-33583390D01*
X6880476Y-33583390D02*
X6880476Y-33964342D01*
X6880476Y-33964342D02*
X6928095Y-34059580D01*
X6928095Y-34059580D02*
X6975714Y-34107200D01*
X6975714Y-34107200D02*
X7070952Y-34154819D01*
X7070952Y-34154819D02*
X7261428Y-34154819D01*
X7261428Y-34154819D02*
X7356666Y-34107200D01*
X7356666Y-34107200D02*
X7404285Y-34059580D01*
X7404285Y-34059580D02*
X7451904Y-33964342D01*
X7451904Y-33964342D02*
X7451904Y-33726247D01*
X7451904Y-33726247D02*
X7404285Y-33631009D01*
X7404285Y-33631009D02*
X7356666Y-33583390D01*
X7356666Y-33583390D02*
X7261428Y-33535771D01*
X7261428Y-33535771D02*
X7070952Y-33535771D01*
X7070952Y-33535771D02*
X6975714Y-33583390D01*
X6975714Y-33583390D02*
X6928095Y-33631009D01*
X6928095Y-33631009D02*
X6880476Y-33726247D01*
X116023333Y-34154819D02*
X115690000Y-33678628D01*
X115451905Y-34154819D02*
X115451905Y-33154819D01*
X115451905Y-33154819D02*
X115832857Y-33154819D01*
X115832857Y-33154819D02*
X115928095Y-33202438D01*
X115928095Y-33202438D02*
X115975714Y-33250057D01*
X115975714Y-33250057D02*
X116023333Y-33345295D01*
X116023333Y-33345295D02*
X116023333Y-33488152D01*
X116023333Y-33488152D02*
X115975714Y-33583390D01*
X115975714Y-33583390D02*
X115928095Y-33631009D01*
X115928095Y-33631009D02*
X115832857Y-33678628D01*
X115832857Y-33678628D02*
X115451905Y-33678628D01*
X116880476Y-33154819D02*
X116690000Y-33154819D01*
X116690000Y-33154819D02*
X116594762Y-33202438D01*
X116594762Y-33202438D02*
X116547143Y-33250057D01*
X116547143Y-33250057D02*
X116451905Y-33392914D01*
X116451905Y-33392914D02*
X116404286Y-33583390D01*
X116404286Y-33583390D02*
X116404286Y-33964342D01*
X116404286Y-33964342D02*
X116451905Y-34059580D01*
X116451905Y-34059580D02*
X116499524Y-34107200D01*
X116499524Y-34107200D02*
X116594762Y-34154819D01*
X116594762Y-34154819D02*
X116785238Y-34154819D01*
X116785238Y-34154819D02*
X116880476Y-34107200D01*
X116880476Y-34107200D02*
X116928095Y-34059580D01*
X116928095Y-34059580D02*
X116975714Y-33964342D01*
X116975714Y-33964342D02*
X116975714Y-33726247D01*
X116975714Y-33726247D02*
X116928095Y-33631009D01*
X116928095Y-33631009D02*
X116880476Y-33583390D01*
X116880476Y-33583390D02*
X116785238Y-33535771D01*
X116785238Y-33535771D02*
X116594762Y-33535771D01*
X116594762Y-33535771D02*
X116499524Y-33583390D01*
X116499524Y-33583390D02*
X116451905Y-33631009D01*
X116451905Y-33631009D02*
X116404286Y-33726247D01*
X60936666Y-4454819D02*
X60936666Y-5169104D01*
X60936666Y-5169104D02*
X60889047Y-5311961D01*
X60889047Y-5311961D02*
X60793809Y-5407200D01*
X60793809Y-5407200D02*
X60650952Y-5454819D01*
X60650952Y-5454819D02*
X60555714Y-5454819D01*
X61317619Y-4454819D02*
X61936666Y-4454819D01*
X61936666Y-4454819D02*
X61603333Y-4835771D01*
X61603333Y-4835771D02*
X61746190Y-4835771D01*
X61746190Y-4835771D02*
X61841428Y-4883390D01*
X61841428Y-4883390D02*
X61889047Y-4931009D01*
X61889047Y-4931009D02*
X61936666Y-5026247D01*
X61936666Y-5026247D02*
X61936666Y-5264342D01*
X61936666Y-5264342D02*
X61889047Y-5359580D01*
X61889047Y-5359580D02*
X61841428Y-5407200D01*
X61841428Y-5407200D02*
X61746190Y-5454819D01*
X61746190Y-5454819D02*
X61460476Y-5454819D01*
X61460476Y-5454819D02*
X61365238Y-5407200D01*
X61365238Y-5407200D02*
X61317619Y-5359580D01*
X251469523Y-35454819D02*
X251136190Y-34978628D01*
X250898095Y-35454819D02*
X250898095Y-34454819D01*
X250898095Y-34454819D02*
X251279047Y-34454819D01*
X251279047Y-34454819D02*
X251374285Y-34502438D01*
X251374285Y-34502438D02*
X251421904Y-34550057D01*
X251421904Y-34550057D02*
X251469523Y-34645295D01*
X251469523Y-34645295D02*
X251469523Y-34788152D01*
X251469523Y-34788152D02*
X251421904Y-34883390D01*
X251421904Y-34883390D02*
X251374285Y-34931009D01*
X251374285Y-34931009D02*
X251279047Y-34978628D01*
X251279047Y-34978628D02*
X250898095Y-34978628D01*
X251898095Y-35454819D02*
X251898095Y-34454819D01*
X251898095Y-34454819D02*
X252469523Y-35454819D01*
X252469523Y-35454819D02*
X252469523Y-34454819D01*
X252898095Y-34550057D02*
X252945714Y-34502438D01*
X252945714Y-34502438D02*
X253040952Y-34454819D01*
X253040952Y-34454819D02*
X253279047Y-34454819D01*
X253279047Y-34454819D02*
X253374285Y-34502438D01*
X253374285Y-34502438D02*
X253421904Y-34550057D01*
X253421904Y-34550057D02*
X253469523Y-34645295D01*
X253469523Y-34645295D02*
X253469523Y-34740533D01*
X253469523Y-34740533D02*
X253421904Y-34883390D01*
X253421904Y-34883390D02*
X252850476Y-35454819D01*
X252850476Y-35454819D02*
X253469523Y-35454819D01*
X220048095Y-5454819D02*
X220048095Y-6264342D01*
X220048095Y-6264342D02*
X220095714Y-6359580D01*
X220095714Y-6359580D02*
X220143333Y-6407200D01*
X220143333Y-6407200D02*
X220238571Y-6454819D01*
X220238571Y-6454819D02*
X220429047Y-6454819D01*
X220429047Y-6454819D02*
X220524285Y-6407200D01*
X220524285Y-6407200D02*
X220571904Y-6359580D01*
X220571904Y-6359580D02*
X220619523Y-6264342D01*
X220619523Y-6264342D02*
X220619523Y-5454819D01*
X221619523Y-6454819D02*
X221048095Y-6454819D01*
X221333809Y-6454819D02*
X221333809Y-5454819D01*
X221333809Y-5454819D02*
X221238571Y-5597676D01*
X221238571Y-5597676D02*
X221143333Y-5692914D01*
X221143333Y-5692914D02*
X221048095Y-5740533D01*
X216458809Y-33504951D02*
X216580238Y-33545427D01*
X216580238Y-33545427D02*
X216782619Y-33545427D01*
X216782619Y-33545427D02*
X216863571Y-33504951D01*
X216863571Y-33504951D02*
X216904047Y-33464474D01*
X216904047Y-33464474D02*
X216944524Y-33383522D01*
X216944524Y-33383522D02*
X216944524Y-33302570D01*
X216944524Y-33302570D02*
X216904047Y-33221617D01*
X216904047Y-33221617D02*
X216863571Y-33181141D01*
X216863571Y-33181141D02*
X216782619Y-33140665D01*
X216782619Y-33140665D02*
X216620714Y-33100189D01*
X216620714Y-33100189D02*
X216539762Y-33059712D01*
X216539762Y-33059712D02*
X216499285Y-33019236D01*
X216499285Y-33019236D02*
X216458809Y-32938284D01*
X216458809Y-32938284D02*
X216458809Y-32857331D01*
X216458809Y-32857331D02*
X216499285Y-32776379D01*
X216499285Y-32776379D02*
X216539762Y-32735903D01*
X216539762Y-32735903D02*
X216620714Y-32695427D01*
X216620714Y-32695427D02*
X216823095Y-32695427D01*
X216823095Y-32695427D02*
X216944524Y-32735903D01*
X217308809Y-33545427D02*
X217308809Y-32695427D01*
X217308809Y-32695427D02*
X217794524Y-33545427D01*
X217794524Y-33545427D02*
X217794524Y-32695427D01*
X218118333Y-32695427D02*
X218685000Y-32695427D01*
X218685000Y-32695427D02*
X218320714Y-33545427D01*
X219373095Y-32978760D02*
X219373095Y-33545427D01*
X219170714Y-32654951D02*
X218968333Y-33262093D01*
X218968333Y-33262093D02*
X219494524Y-33262093D01*
X219818333Y-33545427D02*
X219818333Y-32695427D01*
X219818333Y-33100189D02*
X220304048Y-33100189D01*
X220304048Y-33545427D02*
X220304048Y-32695427D01*
X221194524Y-33464474D02*
X221154048Y-33504951D01*
X221154048Y-33504951D02*
X221032619Y-33545427D01*
X221032619Y-33545427D02*
X220951667Y-33545427D01*
X220951667Y-33545427D02*
X220830238Y-33504951D01*
X220830238Y-33504951D02*
X220749286Y-33423998D01*
X220749286Y-33423998D02*
X220708809Y-33343046D01*
X220708809Y-33343046D02*
X220668333Y-33181141D01*
X220668333Y-33181141D02*
X220668333Y-33059712D01*
X220668333Y-33059712D02*
X220708809Y-32897808D01*
X220708809Y-32897808D02*
X220749286Y-32816855D01*
X220749286Y-32816855D02*
X220830238Y-32735903D01*
X220830238Y-32735903D02*
X220951667Y-32695427D01*
X220951667Y-32695427D02*
X221032619Y-32695427D01*
X221032619Y-32695427D02*
X221154048Y-32735903D01*
X221154048Y-32735903D02*
X221194524Y-32776379D01*
X221437381Y-32695427D02*
X221923095Y-32695427D01*
X221680238Y-33545427D02*
X221680238Y-32695427D01*
X222165952Y-32776379D02*
X222206428Y-32735903D01*
X222206428Y-32735903D02*
X222287381Y-32695427D01*
X222287381Y-32695427D02*
X222489762Y-32695427D01*
X222489762Y-32695427D02*
X222570714Y-32735903D01*
X222570714Y-32735903D02*
X222611190Y-32776379D01*
X222611190Y-32776379D02*
X222651667Y-32857331D01*
X222651667Y-32857331D02*
X222651667Y-32938284D01*
X222651667Y-32938284D02*
X222611190Y-33059712D01*
X222611190Y-33059712D02*
X222125476Y-33545427D01*
X222125476Y-33545427D02*
X222651667Y-33545427D01*
X223380238Y-32978760D02*
X223380238Y-33545427D01*
X223177857Y-32654951D02*
X222975476Y-33262093D01*
X222975476Y-33262093D02*
X223501667Y-33262093D01*
X224189762Y-32978760D02*
X224189762Y-33545427D01*
X223987381Y-32654951D02*
X223785000Y-33262093D01*
X223785000Y-33262093D02*
X224311191Y-33262093D01*
X224635000Y-33545427D02*
X224635000Y-32695427D01*
X224635000Y-32695427D02*
X225120715Y-33545427D01*
X225120715Y-33545427D02*
X225120715Y-32695427D01*
X245048095Y-5454819D02*
X245048095Y-6264342D01*
X245048095Y-6264342D02*
X245095714Y-6359580D01*
X245095714Y-6359580D02*
X245143333Y-6407200D01*
X245143333Y-6407200D02*
X245238571Y-6454819D01*
X245238571Y-6454819D02*
X245429047Y-6454819D01*
X245429047Y-6454819D02*
X245524285Y-6407200D01*
X245524285Y-6407200D02*
X245571904Y-6359580D01*
X245571904Y-6359580D02*
X245619523Y-6264342D01*
X245619523Y-6264342D02*
X245619523Y-5454819D01*
X246048095Y-5550057D02*
X246095714Y-5502438D01*
X246095714Y-5502438D02*
X246190952Y-5454819D01*
X246190952Y-5454819D02*
X246429047Y-5454819D01*
X246429047Y-5454819D02*
X246524285Y-5502438D01*
X246524285Y-5502438D02*
X246571904Y-5550057D01*
X246571904Y-5550057D02*
X246619523Y-5645295D01*
X246619523Y-5645295D02*
X246619523Y-5740533D01*
X246619523Y-5740533D02*
X246571904Y-5883390D01*
X246571904Y-5883390D02*
X246000476Y-6454819D01*
X246000476Y-6454819D02*
X246619523Y-6454819D01*
X241458809Y-33504951D02*
X241580238Y-33545427D01*
X241580238Y-33545427D02*
X241782619Y-33545427D01*
X241782619Y-33545427D02*
X241863571Y-33504951D01*
X241863571Y-33504951D02*
X241904047Y-33464474D01*
X241904047Y-33464474D02*
X241944524Y-33383522D01*
X241944524Y-33383522D02*
X241944524Y-33302570D01*
X241944524Y-33302570D02*
X241904047Y-33221617D01*
X241904047Y-33221617D02*
X241863571Y-33181141D01*
X241863571Y-33181141D02*
X241782619Y-33140665D01*
X241782619Y-33140665D02*
X241620714Y-33100189D01*
X241620714Y-33100189D02*
X241539762Y-33059712D01*
X241539762Y-33059712D02*
X241499285Y-33019236D01*
X241499285Y-33019236D02*
X241458809Y-32938284D01*
X241458809Y-32938284D02*
X241458809Y-32857331D01*
X241458809Y-32857331D02*
X241499285Y-32776379D01*
X241499285Y-32776379D02*
X241539762Y-32735903D01*
X241539762Y-32735903D02*
X241620714Y-32695427D01*
X241620714Y-32695427D02*
X241823095Y-32695427D01*
X241823095Y-32695427D02*
X241944524Y-32735903D01*
X242308809Y-33545427D02*
X242308809Y-32695427D01*
X242308809Y-32695427D02*
X242794524Y-33545427D01*
X242794524Y-33545427D02*
X242794524Y-32695427D01*
X243118333Y-32695427D02*
X243685000Y-32695427D01*
X243685000Y-32695427D02*
X243320714Y-33545427D01*
X244373095Y-32978760D02*
X244373095Y-33545427D01*
X244170714Y-32654951D02*
X243968333Y-33262093D01*
X243968333Y-33262093D02*
X244494524Y-33262093D01*
X244818333Y-33545427D02*
X244818333Y-32695427D01*
X244818333Y-33100189D02*
X245304048Y-33100189D01*
X245304048Y-33545427D02*
X245304048Y-32695427D01*
X246194524Y-33464474D02*
X246154048Y-33504951D01*
X246154048Y-33504951D02*
X246032619Y-33545427D01*
X246032619Y-33545427D02*
X245951667Y-33545427D01*
X245951667Y-33545427D02*
X245830238Y-33504951D01*
X245830238Y-33504951D02*
X245749286Y-33423998D01*
X245749286Y-33423998D02*
X245708809Y-33343046D01*
X245708809Y-33343046D02*
X245668333Y-33181141D01*
X245668333Y-33181141D02*
X245668333Y-33059712D01*
X245668333Y-33059712D02*
X245708809Y-32897808D01*
X245708809Y-32897808D02*
X245749286Y-32816855D01*
X245749286Y-32816855D02*
X245830238Y-32735903D01*
X245830238Y-32735903D02*
X245951667Y-32695427D01*
X245951667Y-32695427D02*
X246032619Y-32695427D01*
X246032619Y-32695427D02*
X246154048Y-32735903D01*
X246154048Y-32735903D02*
X246194524Y-32776379D01*
X246437381Y-32695427D02*
X246923095Y-32695427D01*
X246680238Y-33545427D02*
X246680238Y-32695427D01*
X247165952Y-32776379D02*
X247206428Y-32735903D01*
X247206428Y-32735903D02*
X247287381Y-32695427D01*
X247287381Y-32695427D02*
X247489762Y-32695427D01*
X247489762Y-32695427D02*
X247570714Y-32735903D01*
X247570714Y-32735903D02*
X247611190Y-32776379D01*
X247611190Y-32776379D02*
X247651667Y-32857331D01*
X247651667Y-32857331D02*
X247651667Y-32938284D01*
X247651667Y-32938284D02*
X247611190Y-33059712D01*
X247611190Y-33059712D02*
X247125476Y-33545427D01*
X247125476Y-33545427D02*
X247651667Y-33545427D01*
X248380238Y-32978760D02*
X248380238Y-33545427D01*
X248177857Y-32654951D02*
X247975476Y-33262093D01*
X247975476Y-33262093D02*
X248501667Y-33262093D01*
X249189762Y-32978760D02*
X249189762Y-33545427D01*
X248987381Y-32654951D02*
X248785000Y-33262093D01*
X248785000Y-33262093D02*
X249311191Y-33262093D01*
X249635000Y-33545427D02*
X249635000Y-32695427D01*
X249635000Y-32695427D02*
X250120715Y-33545427D01*
X250120715Y-33545427D02*
X250120715Y-32695427D01*
X286083333Y-20359580D02*
X286035714Y-20407200D01*
X286035714Y-20407200D02*
X285892857Y-20454819D01*
X285892857Y-20454819D02*
X285797619Y-20454819D01*
X285797619Y-20454819D02*
X285654762Y-20407200D01*
X285654762Y-20407200D02*
X285559524Y-20311961D01*
X285559524Y-20311961D02*
X285511905Y-20216723D01*
X285511905Y-20216723D02*
X285464286Y-20026247D01*
X285464286Y-20026247D02*
X285464286Y-19883390D01*
X285464286Y-19883390D02*
X285511905Y-19692914D01*
X285511905Y-19692914D02*
X285559524Y-19597676D01*
X285559524Y-19597676D02*
X285654762Y-19502438D01*
X285654762Y-19502438D02*
X285797619Y-19454819D01*
X285797619Y-19454819D02*
X285892857Y-19454819D01*
X285892857Y-19454819D02*
X286035714Y-19502438D01*
X286035714Y-19502438D02*
X286083333Y-19550057D01*
X286416667Y-19454819D02*
X287035714Y-19454819D01*
X287035714Y-19454819D02*
X286702381Y-19835771D01*
X286702381Y-19835771D02*
X286845238Y-19835771D01*
X286845238Y-19835771D02*
X286940476Y-19883390D01*
X286940476Y-19883390D02*
X286988095Y-19931009D01*
X286988095Y-19931009D02*
X287035714Y-20026247D01*
X287035714Y-20026247D02*
X287035714Y-20264342D01*
X287035714Y-20264342D02*
X286988095Y-20359580D01*
X286988095Y-20359580D02*
X286940476Y-20407200D01*
X286940476Y-20407200D02*
X286845238Y-20454819D01*
X286845238Y-20454819D02*
X286559524Y-20454819D01*
X286559524Y-20454819D02*
X286464286Y-20407200D01*
X286464286Y-20407200D02*
X286416667Y-20359580D01*
X283841667Y-24685427D02*
X283355952Y-24685427D01*
X283598809Y-24685427D02*
X283598809Y-23835427D01*
X283598809Y-23835427D02*
X283517857Y-23956855D01*
X283517857Y-23956855D02*
X283436905Y-24037808D01*
X283436905Y-24037808D02*
X283355952Y-24078284D01*
X284367857Y-23835427D02*
X284448810Y-23835427D01*
X284448810Y-23835427D02*
X284529762Y-23875903D01*
X284529762Y-23875903D02*
X284570238Y-23916379D01*
X284570238Y-23916379D02*
X284610714Y-23997331D01*
X284610714Y-23997331D02*
X284651191Y-24159236D01*
X284651191Y-24159236D02*
X284651191Y-24361617D01*
X284651191Y-24361617D02*
X284610714Y-24523522D01*
X284610714Y-24523522D02*
X284570238Y-24604474D01*
X284570238Y-24604474D02*
X284529762Y-24644951D01*
X284529762Y-24644951D02*
X284448810Y-24685427D01*
X284448810Y-24685427D02*
X284367857Y-24685427D01*
X284367857Y-24685427D02*
X284286905Y-24644951D01*
X284286905Y-24644951D02*
X284246429Y-24604474D01*
X284246429Y-24604474D02*
X284205952Y-24523522D01*
X284205952Y-24523522D02*
X284165476Y-24361617D01*
X284165476Y-24361617D02*
X284165476Y-24159236D01*
X284165476Y-24159236D02*
X284205952Y-23997331D01*
X284205952Y-23997331D02*
X284246429Y-23916379D01*
X284246429Y-23916379D02*
X284286905Y-23875903D01*
X284286905Y-23875903D02*
X284367857Y-23835427D01*
X285379762Y-24118760D02*
X285379762Y-24685427D01*
X285015476Y-24118760D02*
X285015476Y-24563998D01*
X285015476Y-24563998D02*
X285055953Y-24644951D01*
X285055953Y-24644951D02*
X285136905Y-24685427D01*
X285136905Y-24685427D02*
X285258334Y-24685427D01*
X285258334Y-24685427D02*
X285339286Y-24644951D01*
X285339286Y-24644951D02*
X285379762Y-24604474D01*
X286067858Y-24240189D02*
X285784524Y-24240189D01*
X285784524Y-24685427D02*
X285784524Y-23835427D01*
X285784524Y-23835427D02*
X286189286Y-23835427D01*
X286310715Y-24766379D02*
X286958334Y-24766379D01*
X287605953Y-24685427D02*
X287120238Y-24685427D01*
X287363095Y-24685427D02*
X287363095Y-23835427D01*
X287363095Y-23835427D02*
X287282143Y-23956855D01*
X287282143Y-23956855D02*
X287201191Y-24037808D01*
X287201191Y-24037808D02*
X287120238Y-24078284D01*
X288334524Y-23835427D02*
X288172619Y-23835427D01*
X288172619Y-23835427D02*
X288091667Y-23875903D01*
X288091667Y-23875903D02*
X288051191Y-23916379D01*
X288051191Y-23916379D02*
X287970238Y-24037808D01*
X287970238Y-24037808D02*
X287929762Y-24199712D01*
X287929762Y-24199712D02*
X287929762Y-24523522D01*
X287929762Y-24523522D02*
X287970238Y-24604474D01*
X287970238Y-24604474D02*
X288010715Y-24644951D01*
X288010715Y-24644951D02*
X288091667Y-24685427D01*
X288091667Y-24685427D02*
X288253572Y-24685427D01*
X288253572Y-24685427D02*
X288334524Y-24644951D01*
X288334524Y-24644951D02*
X288375000Y-24604474D01*
X288375000Y-24604474D02*
X288415477Y-24523522D01*
X288415477Y-24523522D02*
X288415477Y-24321141D01*
X288415477Y-24321141D02*
X288375000Y-24240189D01*
X288375000Y-24240189D02*
X288334524Y-24199712D01*
X288334524Y-24199712D02*
X288253572Y-24159236D01*
X288253572Y-24159236D02*
X288091667Y-24159236D01*
X288091667Y-24159236D02*
X288010715Y-24199712D01*
X288010715Y-24199712D02*
X287970238Y-24240189D01*
X287970238Y-24240189D02*
X287929762Y-24321141D01*
X288658334Y-23835427D02*
X288941667Y-24685427D01*
X288941667Y-24685427D02*
X289225001Y-23835427D01*
X283319048Y-20573866D02*
X284080953Y-20573866D01*
X283700000Y-20954819D02*
X283700000Y-20192914D01*
X160936666Y-4454819D02*
X160936666Y-5169104D01*
X160936666Y-5169104D02*
X160889047Y-5311961D01*
X160889047Y-5311961D02*
X160793809Y-5407200D01*
X160793809Y-5407200D02*
X160650952Y-5454819D01*
X160650952Y-5454819D02*
X160555714Y-5454819D01*
X161317619Y-4454819D02*
X161984285Y-4454819D01*
X161984285Y-4454819D02*
X161555714Y-5454819D01*
X269167142Y-23154819D02*
X268833809Y-22678628D01*
X268595714Y-23154819D02*
X268595714Y-22154819D01*
X268595714Y-22154819D02*
X268976666Y-22154819D01*
X268976666Y-22154819D02*
X269071904Y-22202438D01*
X269071904Y-22202438D02*
X269119523Y-22250057D01*
X269119523Y-22250057D02*
X269167142Y-22345295D01*
X269167142Y-22345295D02*
X269167142Y-22488152D01*
X269167142Y-22488152D02*
X269119523Y-22583390D01*
X269119523Y-22583390D02*
X269071904Y-22631009D01*
X269071904Y-22631009D02*
X268976666Y-22678628D01*
X268976666Y-22678628D02*
X268595714Y-22678628D01*
X270119523Y-23154819D02*
X269548095Y-23154819D01*
X269833809Y-23154819D02*
X269833809Y-22154819D01*
X269833809Y-22154819D02*
X269738571Y-22297676D01*
X269738571Y-22297676D02*
X269643333Y-22392914D01*
X269643333Y-22392914D02*
X269548095Y-22440533D01*
X270690952Y-22583390D02*
X270595714Y-22535771D01*
X270595714Y-22535771D02*
X270548095Y-22488152D01*
X270548095Y-22488152D02*
X270500476Y-22392914D01*
X270500476Y-22392914D02*
X270500476Y-22345295D01*
X270500476Y-22345295D02*
X270548095Y-22250057D01*
X270548095Y-22250057D02*
X270595714Y-22202438D01*
X270595714Y-22202438D02*
X270690952Y-22154819D01*
X270690952Y-22154819D02*
X270881428Y-22154819D01*
X270881428Y-22154819D02*
X270976666Y-22202438D01*
X270976666Y-22202438D02*
X271024285Y-22250057D01*
X271024285Y-22250057D02*
X271071904Y-22345295D01*
X271071904Y-22345295D02*
X271071904Y-22392914D01*
X271071904Y-22392914D02*
X271024285Y-22488152D01*
X271024285Y-22488152D02*
X270976666Y-22535771D01*
X270976666Y-22535771D02*
X270881428Y-22583390D01*
X270881428Y-22583390D02*
X270690952Y-22583390D01*
X270690952Y-22583390D02*
X270595714Y-22631009D01*
X270595714Y-22631009D02*
X270548095Y-22678628D01*
X270548095Y-22678628D02*
X270500476Y-22773866D01*
X270500476Y-22773866D02*
X270500476Y-22964342D01*
X270500476Y-22964342D02*
X270548095Y-23059580D01*
X270548095Y-23059580D02*
X270595714Y-23107200D01*
X270595714Y-23107200D02*
X270690952Y-23154819D01*
X270690952Y-23154819D02*
X270881428Y-23154819D01*
X270881428Y-23154819D02*
X270976666Y-23107200D01*
X270976666Y-23107200D02*
X271024285Y-23059580D01*
X271024285Y-23059580D02*
X271071904Y-22964342D01*
X271071904Y-22964342D02*
X271071904Y-22773866D01*
X271071904Y-22773866D02*
X271024285Y-22678628D01*
X271024285Y-22678628D02*
X270976666Y-22631009D01*
X270976666Y-22631009D02*
X270881428Y-22583390D01*
X160023333Y-34154819D02*
X159690000Y-33678628D01*
X159451905Y-34154819D02*
X159451905Y-33154819D01*
X159451905Y-33154819D02*
X159832857Y-33154819D01*
X159832857Y-33154819D02*
X159928095Y-33202438D01*
X159928095Y-33202438D02*
X159975714Y-33250057D01*
X159975714Y-33250057D02*
X160023333Y-33345295D01*
X160023333Y-33345295D02*
X160023333Y-33488152D01*
X160023333Y-33488152D02*
X159975714Y-33583390D01*
X159975714Y-33583390D02*
X159928095Y-33631009D01*
X159928095Y-33631009D02*
X159832857Y-33678628D01*
X159832857Y-33678628D02*
X159451905Y-33678628D01*
X160404286Y-33250057D02*
X160451905Y-33202438D01*
X160451905Y-33202438D02*
X160547143Y-33154819D01*
X160547143Y-33154819D02*
X160785238Y-33154819D01*
X160785238Y-33154819D02*
X160880476Y-33202438D01*
X160880476Y-33202438D02*
X160928095Y-33250057D01*
X160928095Y-33250057D02*
X160975714Y-33345295D01*
X160975714Y-33345295D02*
X160975714Y-33440533D01*
X160975714Y-33440533D02*
X160928095Y-33583390D01*
X160928095Y-33583390D02*
X160356667Y-34154819D01*
X160356667Y-34154819D02*
X160975714Y-34154819D01*
X285055714Y-27454819D02*
X285055714Y-26454819D01*
X285055714Y-26454819D02*
X285293809Y-26454819D01*
X285293809Y-26454819D02*
X285436666Y-26502438D01*
X285436666Y-26502438D02*
X285531904Y-26597676D01*
X285531904Y-26597676D02*
X285579523Y-26692914D01*
X285579523Y-26692914D02*
X285627142Y-26883390D01*
X285627142Y-26883390D02*
X285627142Y-27026247D01*
X285627142Y-27026247D02*
X285579523Y-27216723D01*
X285579523Y-27216723D02*
X285531904Y-27311961D01*
X285531904Y-27311961D02*
X285436666Y-27407200D01*
X285436666Y-27407200D02*
X285293809Y-27454819D01*
X285293809Y-27454819D02*
X285055714Y-27454819D01*
X286579523Y-27454819D02*
X286008095Y-27454819D01*
X286293809Y-27454819D02*
X286293809Y-26454819D01*
X286293809Y-26454819D02*
X286198571Y-26597676D01*
X286198571Y-26597676D02*
X286103333Y-26692914D01*
X286103333Y-26692914D02*
X286008095Y-26740533D01*
X286912857Y-26454819D02*
X287579523Y-26454819D01*
X287579523Y-26454819D02*
X287150952Y-27454819D01*
X10936666Y-4454819D02*
X10936666Y-5169104D01*
X10936666Y-5169104D02*
X10889047Y-5311961D01*
X10889047Y-5311961D02*
X10793809Y-5407200D01*
X10793809Y-5407200D02*
X10650952Y-5454819D01*
X10650952Y-5454819D02*
X10555714Y-5454819D01*
X11936666Y-5454819D02*
X11365238Y-5454819D01*
X11650952Y-5454819D02*
X11650952Y-4454819D01*
X11650952Y-4454819D02*
X11555714Y-4597676D01*
X11555714Y-4597676D02*
X11460476Y-4692914D01*
X11460476Y-4692914D02*
X11365238Y-4740533D01*
X135936666Y-4454819D02*
X135936666Y-5169104D01*
X135936666Y-5169104D02*
X135889047Y-5311961D01*
X135889047Y-5311961D02*
X135793809Y-5407200D01*
X135793809Y-5407200D02*
X135650952Y-5454819D01*
X135650952Y-5454819D02*
X135555714Y-5454819D01*
X136841428Y-4454819D02*
X136650952Y-4454819D01*
X136650952Y-4454819D02*
X136555714Y-4502438D01*
X136555714Y-4502438D02*
X136508095Y-4550057D01*
X136508095Y-4550057D02*
X136412857Y-4692914D01*
X136412857Y-4692914D02*
X136365238Y-4883390D01*
X136365238Y-4883390D02*
X136365238Y-5264342D01*
X136365238Y-5264342D02*
X136412857Y-5359580D01*
X136412857Y-5359580D02*
X136460476Y-5407200D01*
X136460476Y-5407200D02*
X136555714Y-5454819D01*
X136555714Y-5454819D02*
X136746190Y-5454819D01*
X136746190Y-5454819D02*
X136841428Y-5407200D01*
X136841428Y-5407200D02*
X136889047Y-5359580D01*
X136889047Y-5359580D02*
X136936666Y-5264342D01*
X136936666Y-5264342D02*
X136936666Y-5026247D01*
X136936666Y-5026247D02*
X136889047Y-4931009D01*
X136889047Y-4931009D02*
X136841428Y-4883390D01*
X136841428Y-4883390D02*
X136746190Y-4835771D01*
X136746190Y-4835771D02*
X136555714Y-4835771D01*
X136555714Y-4835771D02*
X136460476Y-4883390D01*
X136460476Y-4883390D02*
X136412857Y-4931009D01*
X136412857Y-4931009D02*
X136365238Y-5026247D01*
X149023333Y-34154819D02*
X148690000Y-33678628D01*
X148451905Y-34154819D02*
X148451905Y-33154819D01*
X148451905Y-33154819D02*
X148832857Y-33154819D01*
X148832857Y-33154819D02*
X148928095Y-33202438D01*
X148928095Y-33202438D02*
X148975714Y-33250057D01*
X148975714Y-33250057D02*
X149023333Y-33345295D01*
X149023333Y-33345295D02*
X149023333Y-33488152D01*
X149023333Y-33488152D02*
X148975714Y-33583390D01*
X148975714Y-33583390D02*
X148928095Y-33631009D01*
X148928095Y-33631009D02*
X148832857Y-33678628D01*
X148832857Y-33678628D02*
X148451905Y-33678628D01*
X149356667Y-33154819D02*
X149975714Y-33154819D01*
X149975714Y-33154819D02*
X149642381Y-33535771D01*
X149642381Y-33535771D02*
X149785238Y-33535771D01*
X149785238Y-33535771D02*
X149880476Y-33583390D01*
X149880476Y-33583390D02*
X149928095Y-33631009D01*
X149928095Y-33631009D02*
X149975714Y-33726247D01*
X149975714Y-33726247D02*
X149975714Y-33964342D01*
X149975714Y-33964342D02*
X149928095Y-34059580D01*
X149928095Y-34059580D02*
X149880476Y-34107200D01*
X149880476Y-34107200D02*
X149785238Y-34154819D01*
X149785238Y-34154819D02*
X149499524Y-34154819D01*
X149499524Y-34154819D02*
X149404286Y-34107200D01*
X149404286Y-34107200D02*
X149356667Y-34059580D01*
X27547142Y-34154819D02*
X27213809Y-33678628D01*
X26975714Y-34154819D02*
X26975714Y-33154819D01*
X26975714Y-33154819D02*
X27356666Y-33154819D01*
X27356666Y-33154819D02*
X27451904Y-33202438D01*
X27451904Y-33202438D02*
X27499523Y-33250057D01*
X27499523Y-33250057D02*
X27547142Y-33345295D01*
X27547142Y-33345295D02*
X27547142Y-33488152D01*
X27547142Y-33488152D02*
X27499523Y-33583390D01*
X27499523Y-33583390D02*
X27451904Y-33631009D01*
X27451904Y-33631009D02*
X27356666Y-33678628D01*
X27356666Y-33678628D02*
X26975714Y-33678628D01*
X28499523Y-34154819D02*
X27928095Y-34154819D01*
X28213809Y-34154819D02*
X28213809Y-33154819D01*
X28213809Y-33154819D02*
X28118571Y-33297676D01*
X28118571Y-33297676D02*
X28023333Y-33392914D01*
X28023333Y-33392914D02*
X27928095Y-33440533D01*
X29356666Y-33488152D02*
X29356666Y-34154819D01*
X29118571Y-33107200D02*
X28880476Y-33821485D01*
X28880476Y-33821485D02*
X29499523Y-33821485D01*
X49547142Y-34154819D02*
X49213809Y-33678628D01*
X48975714Y-34154819D02*
X48975714Y-33154819D01*
X48975714Y-33154819D02*
X49356666Y-33154819D01*
X49356666Y-33154819D02*
X49451904Y-33202438D01*
X49451904Y-33202438D02*
X49499523Y-33250057D01*
X49499523Y-33250057D02*
X49547142Y-33345295D01*
X49547142Y-33345295D02*
X49547142Y-33488152D01*
X49547142Y-33488152D02*
X49499523Y-33583390D01*
X49499523Y-33583390D02*
X49451904Y-33631009D01*
X49451904Y-33631009D02*
X49356666Y-33678628D01*
X49356666Y-33678628D02*
X48975714Y-33678628D01*
X50499523Y-34154819D02*
X49928095Y-34154819D01*
X50213809Y-34154819D02*
X50213809Y-33154819D01*
X50213809Y-33154819D02*
X50118571Y-33297676D01*
X50118571Y-33297676D02*
X50023333Y-33392914D01*
X50023333Y-33392914D02*
X49928095Y-33440533D01*
X50880476Y-33250057D02*
X50928095Y-33202438D01*
X50928095Y-33202438D02*
X51023333Y-33154819D01*
X51023333Y-33154819D02*
X51261428Y-33154819D01*
X51261428Y-33154819D02*
X51356666Y-33202438D01*
X51356666Y-33202438D02*
X51404285Y-33250057D01*
X51404285Y-33250057D02*
X51451904Y-33345295D01*
X51451904Y-33345295D02*
X51451904Y-33440533D01*
X51451904Y-33440533D02*
X51404285Y-33583390D01*
X51404285Y-33583390D02*
X50832857Y-34154819D01*
X50832857Y-34154819D02*
X51451904Y-34154819D01*
X273167142Y-28454819D02*
X272833809Y-27978628D01*
X272595714Y-28454819D02*
X272595714Y-27454819D01*
X272595714Y-27454819D02*
X272976666Y-27454819D01*
X272976666Y-27454819D02*
X273071904Y-27502438D01*
X273071904Y-27502438D02*
X273119523Y-27550057D01*
X273119523Y-27550057D02*
X273167142Y-27645295D01*
X273167142Y-27645295D02*
X273167142Y-27788152D01*
X273167142Y-27788152D02*
X273119523Y-27883390D01*
X273119523Y-27883390D02*
X273071904Y-27931009D01*
X273071904Y-27931009D02*
X272976666Y-27978628D01*
X272976666Y-27978628D02*
X272595714Y-27978628D01*
X274119523Y-28454819D02*
X273548095Y-28454819D01*
X273833809Y-28454819D02*
X273833809Y-27454819D01*
X273833809Y-27454819D02*
X273738571Y-27597676D01*
X273738571Y-27597676D02*
X273643333Y-27692914D01*
X273643333Y-27692914D02*
X273548095Y-27740533D01*
X274452857Y-27454819D02*
X275119523Y-27454819D01*
X275119523Y-27454819D02*
X274690952Y-28454819D01*
X127023333Y-34154819D02*
X126690000Y-33678628D01*
X126451905Y-34154819D02*
X126451905Y-33154819D01*
X126451905Y-33154819D02*
X126832857Y-33154819D01*
X126832857Y-33154819D02*
X126928095Y-33202438D01*
X126928095Y-33202438D02*
X126975714Y-33250057D01*
X126975714Y-33250057D02*
X127023333Y-33345295D01*
X127023333Y-33345295D02*
X127023333Y-33488152D01*
X127023333Y-33488152D02*
X126975714Y-33583390D01*
X126975714Y-33583390D02*
X126928095Y-33631009D01*
X126928095Y-33631009D02*
X126832857Y-33678628D01*
X126832857Y-33678628D02*
X126451905Y-33678628D01*
X127928095Y-33154819D02*
X127451905Y-33154819D01*
X127451905Y-33154819D02*
X127404286Y-33631009D01*
X127404286Y-33631009D02*
X127451905Y-33583390D01*
X127451905Y-33583390D02*
X127547143Y-33535771D01*
X127547143Y-33535771D02*
X127785238Y-33535771D01*
X127785238Y-33535771D02*
X127880476Y-33583390D01*
X127880476Y-33583390D02*
X127928095Y-33631009D01*
X127928095Y-33631009D02*
X127975714Y-33726247D01*
X127975714Y-33726247D02*
X127975714Y-33964342D01*
X127975714Y-33964342D02*
X127928095Y-34059580D01*
X127928095Y-34059580D02*
X127880476Y-34107200D01*
X127880476Y-34107200D02*
X127785238Y-34154819D01*
X127785238Y-34154819D02*
X127547143Y-34154819D01*
X127547143Y-34154819D02*
X127451905Y-34107200D01*
X127451905Y-34107200D02*
X127404286Y-34059580D01*
X35936666Y-4454819D02*
X35936666Y-5169104D01*
X35936666Y-5169104D02*
X35889047Y-5311961D01*
X35889047Y-5311961D02*
X35793809Y-5407200D01*
X35793809Y-5407200D02*
X35650952Y-5454819D01*
X35650952Y-5454819D02*
X35555714Y-5454819D01*
X36365238Y-4550057D02*
X36412857Y-4502438D01*
X36412857Y-4502438D02*
X36508095Y-4454819D01*
X36508095Y-4454819D02*
X36746190Y-4454819D01*
X36746190Y-4454819D02*
X36841428Y-4502438D01*
X36841428Y-4502438D02*
X36889047Y-4550057D01*
X36889047Y-4550057D02*
X36936666Y-4645295D01*
X36936666Y-4645295D02*
X36936666Y-4740533D01*
X36936666Y-4740533D02*
X36889047Y-4883390D01*
X36889047Y-4883390D02*
X36317619Y-5454819D01*
X36317619Y-5454819D02*
X36936666Y-5454819D01*
X138023333Y-34154819D02*
X137690000Y-33678628D01*
X137451905Y-34154819D02*
X137451905Y-33154819D01*
X137451905Y-33154819D02*
X137832857Y-33154819D01*
X137832857Y-33154819D02*
X137928095Y-33202438D01*
X137928095Y-33202438D02*
X137975714Y-33250057D01*
X137975714Y-33250057D02*
X138023333Y-33345295D01*
X138023333Y-33345295D02*
X138023333Y-33488152D01*
X138023333Y-33488152D02*
X137975714Y-33583390D01*
X137975714Y-33583390D02*
X137928095Y-33631009D01*
X137928095Y-33631009D02*
X137832857Y-33678628D01*
X137832857Y-33678628D02*
X137451905Y-33678628D01*
X138880476Y-33488152D02*
X138880476Y-34154819D01*
X138642381Y-33107200D02*
X138404286Y-33821485D01*
X138404286Y-33821485D02*
X139023333Y-33821485D01*
X85936666Y-4454819D02*
X85936666Y-5169104D01*
X85936666Y-5169104D02*
X85889047Y-5311961D01*
X85889047Y-5311961D02*
X85793809Y-5407200D01*
X85793809Y-5407200D02*
X85650952Y-5454819D01*
X85650952Y-5454819D02*
X85555714Y-5454819D01*
X86841428Y-4788152D02*
X86841428Y-5454819D01*
X86603333Y-4407200D02*
X86365238Y-5121485D01*
X86365238Y-5121485D02*
X86984285Y-5121485D01*
%TO.C,J5*%
X108550000Y-6550000D02*
X113990000Y-6550000D01*
X113990000Y-32310000D01*
X108550000Y-32310000D01*
X108550000Y-6550000D01*
%TO.C,J9*%
X282550000Y-8550000D02*
X287990000Y-8550000D01*
X287990000Y-13990000D01*
X282550000Y-13990000D01*
X282550000Y-8550000D01*
%TO.C,D15*%
X70800000Y-37400000D02*
X73200000Y-37400000D01*
%TO.C,D1*%
X132800000Y-37400000D02*
X135200000Y-37400000D01*
%TO.C,SW1*%
X274800000Y-32200000D02*
X279200000Y-32200000D01*
X279200000Y-43420000D01*
X274800000Y-43420000D01*
X274800000Y-32200000D01*
X276400000Y-36100000D02*
X277600000Y-36100000D01*
X277600000Y-39520000D01*
X276400000Y-39520000D01*
X276400000Y-36100000D01*
%TO.C,D9*%
X96800000Y-37400000D02*
X99200000Y-37400000D01*
%TO.C,J8*%
X183550000Y-6550000D02*
X188990000Y-6550000D01*
X188990000Y-32310000D01*
X183550000Y-32310000D01*
X183550000Y-6550000D01*
%TO.C,D3*%
X124800000Y-37400000D02*
X127200000Y-37400000D01*
%TO.C,D2*%
X128800000Y-37400000D02*
X131200000Y-37400000D01*
%TO.C,D13*%
X78800000Y-37400000D02*
X81200000Y-37400000D01*
%TO.C,D10*%
X92800000Y-37400000D02*
X95200000Y-37400000D01*
%TO.C,J3*%
X58550000Y-6550000D02*
X63990000Y-6550000D01*
X63990000Y-32310000D01*
X58550000Y-32310000D01*
X58550000Y-6550000D01*
%TO.C,U1*%
X218200000Y-6900000D02*
X223420000Y-6900000D01*
X223420000Y-31960000D01*
X218200000Y-31960000D01*
X218200000Y-6900000D01*
X219940000Y-9270000D02*
G75*
G02*
X219140000Y-9270000I-400000J0D01*
G01*
X219140000Y-9270000D02*
G75*
G02*
X219940000Y-9270000I400000J0D01*
G01*
%TO.C,U2*%
X243200000Y-6900000D02*
X248420000Y-6900000D01*
X248420000Y-31960000D01*
X243200000Y-31960000D01*
X243200000Y-6900000D01*
X244940000Y-9270000D02*
G75*
G02*
X244140000Y-9270000I-400000J0D01*
G01*
X244140000Y-9270000D02*
G75*
G02*
X244940000Y-9270000I400000J0D01*
G01*
%TO.C,D16*%
X66800000Y-37400000D02*
X69200000Y-37400000D01*
%TO.C,D8*%
X102800000Y-37400000D02*
X105200000Y-37400000D01*
%TO.C,J7*%
X158550000Y-6550000D02*
X163990000Y-6550000D01*
X163990000Y-32310000D01*
X158550000Y-32310000D01*
X158550000Y-6550000D01*
%TO.C,D5*%
X114800000Y-37400000D02*
X117200000Y-37400000D01*
%TO.C,D12*%
X84800000Y-37400000D02*
X87200000Y-37400000D01*
%TO.C,D6*%
X110800000Y-37400000D02*
X113200000Y-37400000D01*
%TO.C,D14*%
X74800000Y-37400000D02*
X77200000Y-37400000D01*
%TO.C,D17*%
X283400000Y-28800000D02*
X283400000Y-31200000D01*
%TO.C,J1*%
X8550000Y-6550000D02*
X13990000Y-6550000D01*
X13990000Y-32310000D01*
X8550000Y-32310000D01*
X8550000Y-6550000D01*
%TO.C,J6*%
X133550000Y-6550000D02*
X138990000Y-6550000D01*
X138990000Y-32310000D01*
X133550000Y-32310000D01*
X133550000Y-6550000D01*
%TO.C,D7*%
X106800000Y-37400000D02*
X109200000Y-37400000D01*
%TO.C,J2*%
X33550000Y-6550000D02*
X38990000Y-6550000D01*
X38990000Y-32310000D01*
X33550000Y-32310000D01*
X33550000Y-6550000D01*
%TO.C,D11*%
X88800000Y-37400000D02*
X91200000Y-37400000D01*
%TO.C,D4*%
X120800000Y-37400000D02*
X123200000Y-37400000D01*
%TO.C,J4*%
X83550000Y-6550000D02*
X88990000Y-6550000D01*
X88990000Y-32310000D01*
X83550000Y-32310000D01*
X83550000Y-6550000D01*
%TD*%
%LPC*%
D11*
%TO.C,*%
X4000000Y-4000000D03*
%TD*%
D12*
%TO.C,R11*%
X57380000Y-35000000D03*
D13*
X65000000Y-35000000D03*
%TD*%
D12*
%TO.C,R10*%
X68380000Y-35000000D03*
D13*
X76000000Y-35000000D03*
%TD*%
D12*
%TO.C,C1*%
X227160000Y-8000000D03*
D13*
X229660000Y-8000000D03*
%TD*%
D14*
%TO.C,J5*%
X110000000Y-8000000D03*
D15*
X112540000Y-8000000D03*
X110000000Y-10540000D03*
X112540000Y-10540000D03*
X110000000Y-13080000D03*
X112540000Y-13080000D03*
X110000000Y-15620000D03*
X112540000Y-15620000D03*
X110000000Y-18160000D03*
X112540000Y-18160000D03*
X110000000Y-20700000D03*
X112540000Y-20700000D03*
X110000000Y-23240000D03*
X112540000Y-23240000D03*
X110000000Y-25780000D03*
X112540000Y-25780000D03*
X110000000Y-28320000D03*
X112540000Y-28320000D03*
X110000000Y-30860000D03*
X112540000Y-30860000D03*
%TD*%
D12*
%TO.C,R9*%
X79380000Y-35000000D03*
D13*
X87000000Y-35000000D03*
%TD*%
D14*
%TO.C,J9*%
X284000000Y-10000000D03*
D15*
X286540000Y-10000000D03*
X284000000Y-12540000D03*
X286540000Y-12540000D03*
%TD*%
D12*
%TO.C,R1*%
X167380000Y-35000000D03*
D13*
X175000000Y-35000000D03*
%TD*%
D12*
%TO.C,R7*%
X101380000Y-35000000D03*
D13*
X109000000Y-35000000D03*
%TD*%
D12*
%TO.C,D15*%
X72000000Y-39000000D03*
D13*
X72000000Y-41540000D03*
%TD*%
D12*
%TO.C,D1*%
X134000000Y-39000000D03*
D13*
X134000000Y-41540000D03*
%TD*%
D12*
%TO.C,RN1*%
X208000000Y-37000000D03*
D13*
X210540000Y-37000000D03*
X213080000Y-37000000D03*
X215620000Y-37000000D03*
X218160000Y-37000000D03*
X220700000Y-37000000D03*
X223240000Y-37000000D03*
X225780000Y-37000000D03*
X228320000Y-37000000D03*
%TD*%
D12*
%TO.C,SW1*%
X277000000Y-34000000D03*
D13*
X277000000Y-41620000D03*
%TD*%
D12*
%TO.C,R15*%
X13380000Y-35000000D03*
D13*
X21000000Y-35000000D03*
%TD*%
D12*
%TO.C,D9*%
X98000000Y-39000000D03*
D13*
X98000000Y-41540000D03*
%TD*%
D14*
%TO.C,J8*%
X185000000Y-8000000D03*
D15*
X187540000Y-8000000D03*
X185000000Y-10540000D03*
X187540000Y-10540000D03*
X185000000Y-13080000D03*
X187540000Y-13080000D03*
X185000000Y-15620000D03*
X187540000Y-15620000D03*
X185000000Y-18160000D03*
X187540000Y-18160000D03*
X185000000Y-20700000D03*
X187540000Y-20700000D03*
X185000000Y-23240000D03*
X187540000Y-23240000D03*
X185000000Y-25780000D03*
X187540000Y-25780000D03*
X185000000Y-28320000D03*
X187540000Y-28320000D03*
X185000000Y-30860000D03*
X187540000Y-30860000D03*
%TD*%
D12*
%TO.C,R8*%
X90380000Y-35000000D03*
D13*
X98000000Y-35000000D03*
%TD*%
D12*
%TO.C,C2*%
X252160000Y-8000000D03*
D13*
X254660000Y-8000000D03*
%TD*%
D12*
%TO.C,R13*%
X35380000Y-35000000D03*
D13*
X43000000Y-35000000D03*
%TD*%
D12*
%TO.C,D3*%
X126000000Y-39000000D03*
D13*
X126000000Y-41540000D03*
%TD*%
D12*
%TO.C,R16*%
X2380000Y-35000000D03*
D13*
X10000000Y-35000000D03*
%TD*%
D12*
%TO.C,R6*%
X112380000Y-35000000D03*
D13*
X120000000Y-35000000D03*
%TD*%
D12*
%TO.C,D2*%
X130000000Y-39000000D03*
D13*
X130000000Y-41540000D03*
%TD*%
D12*
%TO.C,D13*%
X80000000Y-39000000D03*
D13*
X80000000Y-41540000D03*
%TD*%
D11*
%TO.C,*%
X4000000Y-42000000D03*
%TD*%
D12*
%TO.C,D10*%
X94000000Y-39000000D03*
D13*
X94000000Y-41540000D03*
%TD*%
D14*
%TO.C,J3*%
X60000000Y-8000000D03*
D15*
X62540000Y-8000000D03*
X60000000Y-10540000D03*
X62540000Y-10540000D03*
X60000000Y-13080000D03*
X62540000Y-13080000D03*
X60000000Y-15620000D03*
X62540000Y-15620000D03*
X60000000Y-18160000D03*
X62540000Y-18160000D03*
X60000000Y-20700000D03*
X62540000Y-20700000D03*
X60000000Y-23240000D03*
X62540000Y-23240000D03*
X60000000Y-25780000D03*
X62540000Y-25780000D03*
X60000000Y-28320000D03*
X62540000Y-28320000D03*
X60000000Y-30860000D03*
X62540000Y-30860000D03*
%TD*%
D12*
%TO.C,RN2*%
X242000000Y-37000000D03*
D13*
X244540000Y-37000000D03*
X247080000Y-37000000D03*
X249620000Y-37000000D03*
X252160000Y-37000000D03*
X254700000Y-37000000D03*
X257240000Y-37000000D03*
X259780000Y-37000000D03*
X262320000Y-37000000D03*
%TD*%
D14*
%TO.C,U1*%
X217000000Y-8000000D03*
D15*
X217000000Y-10540000D03*
X217000000Y-13080000D03*
X217000000Y-15620000D03*
X217000000Y-18160000D03*
X217000000Y-20700000D03*
X217000000Y-23240000D03*
X217000000Y-25780000D03*
X217000000Y-28320000D03*
X217000000Y-30860000D03*
X224620000Y-30860000D03*
X224620000Y-28320000D03*
X224620000Y-25780000D03*
X224620000Y-23240000D03*
X224620000Y-20700000D03*
X224620000Y-18160000D03*
X224620000Y-15620000D03*
X224620000Y-13080000D03*
X224620000Y-10540000D03*
X224620000Y-8000000D03*
%TD*%
D14*
%TO.C,U2*%
X242000000Y-8000000D03*
D15*
X242000000Y-10540000D03*
X242000000Y-13080000D03*
X242000000Y-15620000D03*
X242000000Y-18160000D03*
X242000000Y-20700000D03*
X242000000Y-23240000D03*
X242000000Y-25780000D03*
X242000000Y-28320000D03*
X242000000Y-30860000D03*
X249620000Y-30860000D03*
X249620000Y-28320000D03*
X249620000Y-25780000D03*
X249620000Y-23240000D03*
X249620000Y-20700000D03*
X249620000Y-18160000D03*
X249620000Y-15620000D03*
X249620000Y-13080000D03*
X249620000Y-10540000D03*
X249620000Y-8000000D03*
%TD*%
D12*
%TO.C,D16*%
X68000000Y-39000000D03*
D13*
X68000000Y-41540000D03*
%TD*%
D12*
%TO.C,D8*%
X104000000Y-39000000D03*
D13*
X104000000Y-41540000D03*
%TD*%
D12*
%TO.C,C3*%
X285000000Y-22000000D03*
D13*
X287500000Y-22000000D03*
%TD*%
D14*
%TO.C,J7*%
X160000000Y-8000000D03*
D15*
X162540000Y-8000000D03*
X160000000Y-10540000D03*
X162540000Y-10540000D03*
X160000000Y-13080000D03*
X162540000Y-13080000D03*
X160000000Y-15620000D03*
X162540000Y-15620000D03*
X160000000Y-18160000D03*
X162540000Y-18160000D03*
X160000000Y-20700000D03*
X162540000Y-20700000D03*
X160000000Y-23240000D03*
X162540000Y-23240000D03*
X160000000Y-25780000D03*
X162540000Y-25780000D03*
X160000000Y-28320000D03*
X162540000Y-28320000D03*
X160000000Y-30860000D03*
X162540000Y-30860000D03*
%TD*%
D12*
%TO.C,R18*%
X266000000Y-24000000D03*
D13*
X273620000Y-24000000D03*
%TD*%
D12*
%TO.C,D5*%
X116000000Y-39000000D03*
D13*
X116000000Y-41540000D03*
%TD*%
D11*
%TO.C,*%
X296000000Y-42000000D03*
%TD*%
D12*
%TO.C,D12*%
X86000000Y-39000000D03*
D13*
X86000000Y-41540000D03*
%TD*%
D12*
%TO.C,D6*%
X112000000Y-39000000D03*
D13*
X112000000Y-41540000D03*
%TD*%
D11*
%TO.C,*%
X296000000Y-4000000D03*
%TD*%
D12*
%TO.C,D14*%
X76000000Y-39000000D03*
D13*
X76000000Y-41540000D03*
%TD*%
D12*
%TO.C,R2*%
X156380000Y-35000000D03*
D13*
X164000000Y-35000000D03*
%TD*%
D12*
%TO.C,D17*%
X285000000Y-30000000D03*
D13*
X287540000Y-30000000D03*
%TD*%
D14*
%TO.C,J1*%
X10000000Y-8000000D03*
D15*
X12540000Y-8000000D03*
X10000000Y-10540000D03*
X12540000Y-10540000D03*
X10000000Y-13080000D03*
X12540000Y-13080000D03*
X10000000Y-15620000D03*
X12540000Y-15620000D03*
X10000000Y-18160000D03*
X12540000Y-18160000D03*
X10000000Y-20700000D03*
X12540000Y-20700000D03*
X10000000Y-23240000D03*
X12540000Y-23240000D03*
X10000000Y-25780000D03*
X12540000Y-25780000D03*
X10000000Y-28320000D03*
X12540000Y-28320000D03*
X10000000Y-30860000D03*
X12540000Y-30860000D03*
%TD*%
D14*
%TO.C,J6*%
X135000000Y-8000000D03*
D15*
X137540000Y-8000000D03*
X135000000Y-10540000D03*
X137540000Y-10540000D03*
X135000000Y-13080000D03*
X137540000Y-13080000D03*
X135000000Y-15620000D03*
X137540000Y-15620000D03*
X135000000Y-18160000D03*
X137540000Y-18160000D03*
X135000000Y-20700000D03*
X137540000Y-20700000D03*
X135000000Y-23240000D03*
X137540000Y-23240000D03*
X135000000Y-25780000D03*
X137540000Y-25780000D03*
X135000000Y-28320000D03*
X137540000Y-28320000D03*
X135000000Y-30860000D03*
X137540000Y-30860000D03*
%TD*%
D12*
%TO.C,D7*%
X108000000Y-39000000D03*
D13*
X108000000Y-41540000D03*
%TD*%
D12*
%TO.C,R3*%
X145380000Y-35000000D03*
D13*
X153000000Y-35000000D03*
%TD*%
D12*
%TO.C,R14*%
X24380000Y-35000000D03*
D13*
X32000000Y-35000000D03*
%TD*%
D12*
%TO.C,R12*%
X46380000Y-35000000D03*
D13*
X54000000Y-35000000D03*
%TD*%
D12*
%TO.C,R17*%
X270000000Y-30000000D03*
D13*
X277620000Y-30000000D03*
%TD*%
D12*
%TO.C,R5*%
X123380000Y-35000000D03*
D13*
X131000000Y-35000000D03*
%TD*%
D14*
%TO.C,J2*%
X35000000Y-8000000D03*
D15*
X37540000Y-8000000D03*
X35000000Y-10540000D03*
X37540000Y-10540000D03*
X35000000Y-13080000D03*
X37540000Y-13080000D03*
X35000000Y-15620000D03*
X37540000Y-15620000D03*
X35000000Y-18160000D03*
X37540000Y-18160000D03*
X35000000Y-20700000D03*
X37540000Y-20700000D03*
X35000000Y-23240000D03*
X37540000Y-23240000D03*
X35000000Y-25780000D03*
X37540000Y-25780000D03*
X35000000Y-28320000D03*
X37540000Y-28320000D03*
X35000000Y-30860000D03*
X37540000Y-30860000D03*
%TD*%
D12*
%TO.C,D11*%
X90000000Y-39000000D03*
D13*
X90000000Y-41540000D03*
%TD*%
D12*
%TO.C,R4*%
X134380000Y-35000000D03*
D13*
X142000000Y-35000000D03*
%TD*%
D12*
%TO.C,D4*%
X122000000Y-39000000D03*
D13*
X122000000Y-41540000D03*
%TD*%
D14*
%TO.C,J4*%
X85000000Y-8000000D03*
D15*
X87540000Y-8000000D03*
X85000000Y-10540000D03*
X87540000Y-10540000D03*
X85000000Y-13080000D03*
X87540000Y-13080000D03*
X85000000Y-15620000D03*
X87540000Y-15620000D03*
X85000000Y-18160000D03*
X87540000Y-18160000D03*
X85000000Y-20700000D03*
X87540000Y-20700000D03*
X85000000Y-23240000D03*
X87540000Y-23240000D03*
X85000000Y-25780000D03*
X87540000Y-25780000D03*
X85000000Y-28320000D03*
X87540000Y-28320000D03*
X85000000Y-30860000D03*
X87540000Y-30860000D03*
%TD*%
%LPD*%
M02*
